<?xml version="1.0" encoding="UTF-8" standalone="no"?>
<!-- Created with Inkscape (http://www.inkscape.org/) -->

<svg
   xmlns:dc="http://purl.org/dc/elements/1.1/"
   xmlns:cc="http://creativecommons.org/ns#"
   xmlns:rdf="http://www.w3.org/1999/02/22-rdf-syntax-ns#"
   xmlns:svg="http://www.w3.org/2000/svg"
   xmlns="http://www.w3.org/2000/svg"
   xmlns:sodipodi="http://sodipodi.sourceforge.net/DTD/sodipodi-0.dtd"
   xmlns:inkscape="http://www.inkscape.org/namespaces/inkscape"
   id="svg8829"
   version="1.1"
   inkscape:version="0.48.4 r9939"
   width="281.06558"
   height="280.56143"
   xml:space="preserve"
   sodipodi:docname="ENTAS_router1.svg"><metadata
     id="metadata8835"><rdf:RDF><cc:Work
         rdf:about=""><dc:format>image/svg+xml</dc:format><dc:type
           rdf:resource="http://purl.org/dc/dcmitype/StillImage" /><dc:title /></cc:Work></rdf:RDF></metadata><defs
     id="defs8833"><clipPath
       clipPathUnits="userSpaceOnUse"
       id="clipPath8853"><path
         d="M 0,792 1224,792 1224,0 0,0 0,792 z"
         id="path8855"
         inkscape:connector-curvature="0" /></clipPath></defs><sodipodi:namedview
     pagecolor="#ffffff"
     bordercolor="#666666"
     borderopacity="1"
     objecttolerance="10"
     gridtolerance="10"
     guidetolerance="10"
     inkscape:pageopacity="0"
     inkscape:pageshadow="2"
     inkscape:window-width="1920"
     inkscape:window-height="1030"
     id="namedview8831"
     showgrid="false"
     inkscape:zoom="1"
     inkscape:cx="150.64277"
     inkscape:cy="151.54002"
     inkscape:window-x="0"
     inkscape:window-y="0"
     inkscape:window-maximized="1"
     inkscape:current-layer="g8837"
     units="px"
     fit-margin-top="5"
     fit-margin-left="5"
     fit-margin-right="5"
     fit-margin-bottom="5" /><g
     id="g8837"
     inkscape:groupmode="layer"
     inkscape:label="router1"
     transform="matrix(1.25,0,0,-1.25,-624.10391,707.55256)"><g
       id="g10216"
       transform="matrix(0.67043565,0,0,0.67043565,463.5715,51.091353)"><g
         transform="translate(69.2764,559.1753)"
         id="g8839"><path
           id="path8841"
           style="fill:#f3ff00;fill-opacity:1;fill-rule:nonzero;stroke:#231f20;stroke-width:19.78000069;stroke-linecap:round;stroke-linejoin:round;stroke-miterlimit:4;stroke-opacity:1;stroke-dasharray:none"
           d="m 0,0 82.032,54.973 221.482,0 0,-109.945 -82.032,-54.972"
           inkscape:connector-curvature="0" /></g><path
         id="path8843"
         style="fill:#f3ff00;fill-opacity:1;fill-rule:nonzero;stroke:#231f20;stroke-width:19.78000069;stroke-linecap:round;stroke-linejoin:round;stroke-miterlimit:4;stroke-opacity:1;stroke-dasharray:none"
         d="m 290.758,449.231 -221.482,0 0,109.944 221.482,0 0,-109.944 z"
         inkscape:connector-curvature="0" /><g
         transform="translate(307.6797,566.6753)"
         id="g8845"><path
           id="path8847"
           style="fill:#ef4647;fill-opacity:1;fill-rule:nonzero;stroke:#231f20;stroke-width:9.89000034;stroke-linecap:round;stroke-linejoin:round;stroke-miterlimit:4;stroke-opacity:1;stroke-dasharray:none"
           d="M 0,0 44.785,28.844"
           inkscape:connector-curvature="0" /></g><g
         transform="translate(221.0337,592.0132)"
         id="g8857"><path
           inkscape:connector-curvature="0"
           id="path8859"
           style="fill:none;stroke:#231f20;stroke-width:23.62700081;stroke-linecap:round;stroke-linejoin:round;stroke-miterlimit:4;stroke-opacity:1;stroke-dasharray:none"
           d="M 0,0 0,158.062" /></g><g
         transform="translate(244.9521,585.2144)"
         id="g8861"><path
           inkscape:connector-curvature="0"
           id="path8863"
           style="fill:#231f20;fill-opacity:1;fill-rule:nonzero;stroke:none"
           d="m 0,0 c 0,-3.755 -10.822,-6.8 -24.17,-6.8 -13.35,0 -24.169,3.045 -24.169,6.8 0,3.755 10.819,6.799 24.169,6.799 C -10.822,6.799 0,3.755 0,0" /></g><g
         transform="translate(117.2075,520.1519)"
         id="g8865"><path
           inkscape:connector-curvature="0"
           id="path8867"
           style="fill:#231f20;fill-opacity:1;fill-rule:nonzero;stroke:none"
           d="m 0,0 c 0,-6.375 -5.167,-11.542 -11.539,-11.542 -6.372,0 -11.539,5.167 -11.539,11.542 0,6.372 5.167,11.536 11.539,11.536 C -5.167,11.536 0,6.372 0,0" /></g><g
         transform="translate(163.6348,520.1519)"
         id="g8869"><path
           inkscape:connector-curvature="0"
           id="path8871"
           style="fill:#231f20;fill-opacity:1;fill-rule:nonzero;stroke:none"
           d="m 0,0 c 0,-6.375 -5.167,-11.542 -11.539,-11.542 -6.372,0 -11.54,5.167 -11.54,11.542 0,6.372 5.168,11.536 11.54,11.536 C -5.167,11.536 0,6.372 0,0" /></g><g
         transform="translate(210.064,520.1519)"
         id="g8873"><path
           inkscape:connector-curvature="0"
           id="path8875"
           style="fill:#231f20;fill-opacity:1;fill-rule:nonzero;stroke:none"
           d="m 0,0 c 0,-6.375 -5.167,-11.542 -11.539,-11.542 -6.372,0 -11.539,5.167 -11.539,11.542 0,6.372 5.167,11.536 11.539,11.536 C -5.167,11.536 0,6.372 0,0" /></g><g
         transform="translate(256.4912,520.1519)"
         id="g8877"><path
           inkscape:connector-curvature="0"
           id="path8879"
           style="fill:#231f20;fill-opacity:1;fill-rule:nonzero;stroke:none"
           d="m 0,0 c 0,-6.375 -5.167,-11.542 -11.539,-11.542 -6.372,0 -11.539,5.167 -11.539,11.542 0,6.372 5.167,11.536 11.539,11.536 C -5.167,11.536 0,6.372 0,0" /></g><g
         transform="translate(117.2075,485.2612)"
         id="g8881"><path
           inkscape:connector-curvature="0"
           id="path8883"
           style="fill:#231f20;fill-opacity:1;fill-rule:nonzero;stroke:none"
           d="m 0,0 c 0,-6.374 -5.167,-11.541 -11.539,-11.541 -6.372,0 -11.539,5.167 -11.539,11.541 0,6.372 5.167,11.537 11.539,11.537 C -5.167,11.537 0,6.372 0,0" /></g><g
         transform="translate(163.6348,485.2612)"
         id="g8885"><path
           inkscape:connector-curvature="0"
           id="path8887"
           style="fill:#231f20;fill-opacity:1;fill-rule:nonzero;stroke:none"
           d="m 0,0 c 0,-6.374 -5.167,-11.541 -11.539,-11.541 -6.372,0 -11.54,5.167 -11.54,11.541 0,6.372 5.168,11.537 11.54,11.537 C -5.167,11.537 0,6.372 0,0" /></g><g
         transform="translate(210.064,485.2612)"
         id="g8889"><path
           inkscape:connector-curvature="0"
           id="path8891"
           style="fill:#231f20;fill-opacity:1;fill-rule:nonzero;stroke:none"
           d="m 0,0 c 0,-6.374 -5.167,-11.541 -11.539,-11.541 -6.372,0 -11.539,5.167 -11.539,11.541 0,6.372 5.167,11.537 11.539,11.537 C -5.167,11.537 0,6.372 0,0" /></g><g
         transform="translate(256.4912,485.2612)"
         id="g8893"><path
           inkscape:connector-curvature="0"
           id="path8895"
           style="fill:#231f20;fill-opacity:1;fill-rule:nonzero;stroke:none"
           d="m 0,0 c 0,-6.374 -5.167,-11.541 -11.539,-11.541 -6.372,0 -11.539,5.167 -11.539,11.541 0,6.372 5.167,11.537 11.539,11.537 C -5.167,11.537 0,6.372 0,0" /></g></g></g></svg>