<?xml version="1.0" encoding="UTF-8" standalone="no"?>
<!-- Created with Inkscape (http://www.inkscape.org/) -->

<svg
   xmlns:dc="http://purl.org/dc/elements/1.1/"
   xmlns:cc="http://creativecommons.org/ns#"
   xmlns:rdf="http://www.w3.org/1999/02/22-rdf-syntax-ns#"
   xmlns:svg="http://www.w3.org/2000/svg"
   xmlns="http://www.w3.org/2000/svg"
   xmlns:sodipodi="http://sodipodi.sourceforge.net/DTD/sodipodi-0.dtd"
   xmlns:inkscape="http://www.inkscape.org/namespaces/inkscape"
   width="544.51178"
   height="343.24734"
   id="svg6991"
   version="1.1"
   inkscape:version="0.48.4 r9939"
   sodipodi:docname="Home_router1.svg">
  <defs
     id="defs6993" />
  <sodipodi:namedview
     id="base"
     pagecolor="#ffffff"
     bordercolor="#666666"
     borderopacity="1.0"
     inkscape:pageopacity="0.0"
     inkscape:pageshadow="2"
     inkscape:zoom="1"
     inkscape:cx="286.74546"
     inkscape:cy="153.47"
     inkscape:document-units="px"
     inkscape:current-layer="layer1"
     showgrid="false"
     inkscape:window-width="1920"
     inkscape:window-height="1030"
     inkscape:window-x="0"
     inkscape:window-y="0"
     inkscape:window-maximized="1"
     units="px"
     fit-margin-top="5"
     fit-margin-left="5"
     fit-margin-right="5"
     fit-margin-bottom="5" />
  <metadata
     id="metadata6996">
    <rdf:RDF>
      <cc:Work
         rdf:about="">
        <dc:format>image/svg+xml</dc:format>
        <dc:type
           rdf:resource="http://purl.org/dc/dcmitype/StillImage" />
        <dc:title />
      </cc:Work>
    </rdf:RDF>
  </metadata>
  <g
     inkscape:label="Layer 1"
     inkscape:groupmode="layer"
     id="layer1"
     transform="translate(-330.25454,-502.58241)">
    <g
       id="g3128"
       transform="matrix(6.7241897,0,0,6.7241897,-1919.0607,-2905.4982)">
      <g
         transform="matrix(1.25,0,0,-1.25,404.96294,524.75442)"
         id="g3206">
        <path
           inkscape:connector-curvature="0"
           id="path3208"
           style="fill:#241f21;fill-opacity:1;fill-rule:nonzero;stroke:none"
           d="m 0,0 -19.617,0 c -3.216,0 -5.977,-1.941 -7.18,-4.715 l -4.982,0 -20.985,18.184 c -0.597,0.519 -1.666,0.263 -2.388,-0.571 -0.721,-0.832 -0.823,-1.927 -0.225,-2.445 l 21.527,-18.656 0.463,0.535 1.127,-0.375 0,-0.662 4.817,0 0,-9.377 c 0,-4.324 3.504,-7.828 7.826,-7.828 l 19.617,0 c 4.322,0 7.826,3.504 7.826,7.828 l 0,10.254 C 7.826,-3.504 4.322,0 0,0" />
      </g>
      <g
         transform="matrix(1.25,0,0,-1.25,408.16119,531.3243)"
         id="g3210">
        <path
           inkscape:connector-curvature="0"
           id="path3212"
           style="fill:#ffffff;fill-opacity:1;fill-rule:nonzero;stroke:none"
           d="m 0,0 c 0,-0.299 0.242,-0.543 0.541,-0.543 0.301,0 0.543,0.244 0.543,0.543 0,0.299 -0.242,0.541 -0.543,0.541 C 0.242,0.541 0,0.299 0,0" />
      </g>
      <g
         transform="matrix(1.25,0,0,-1.25,408.16119,533.28717)"
         id="g3214">
        <path
           inkscape:connector-curvature="0"
           id="path3216"
           style="fill:#ffffff;fill-opacity:1;fill-rule:nonzero;stroke:none"
           d="m 0,0 c 0,-0.299 0.242,-0.541 0.541,-0.541 0.301,0 0.543,0.242 0.543,0.541 0,0.299 -0.242,0.543 -0.543,0.543 C 0.242,0.543 0,0.299 0,0" />
      </g>
      <g
         transform="matrix(1.25,0,0,-1.25,408.16119,545.05967)"
         id="g3218">
        <path
           inkscape:connector-curvature="0"
           id="path3220"
           style="fill:#ffffff;fill-opacity:1;fill-rule:nonzero;stroke:none"
           d="m 0,0 c 0,-0.299 0.242,-0.541 0.541,-0.541 0.301,0 0.543,0.242 0.543,0.541 0,0.299 -0.242,0.543 -0.543,0.543 C 0.242,0.543 0,0.299 0,0" />
      </g>
      <g
         transform="matrix(1.25,0,0,-1.25,408.16119,550.94592)"
         id="g3222">
        <path
           inkscape:connector-curvature="0"
           id="path3224"
           style="fill:#ffffff;fill-opacity:1;fill-rule:nonzero;stroke:none"
           d="m 0,0 c 0,-0.299 0.242,-0.541 0.541,-0.541 0.301,0 0.543,0.242 0.543,0.541 0,0.299 -0.242,0.543 -0.543,0.543 C 0.242,0.543 0,0.299 0,0" />
      </g>
      <g
         transform="matrix(1.25,0,0,-1.25,408.16119,548.9828)"
         id="g3226">
        <path
           inkscape:connector-curvature="0"
           id="path3228"
           style="fill:#ffffff;fill-opacity:1;fill-rule:nonzero;stroke:none"
           d="m 0,0 c 0,-0.301 0.242,-0.543 0.541,-0.543 0.301,0 0.543,0.244 0.543,0.543 0,0.299 -0.242,0.541 -0.543,0.541 C 0.242,0.543 0,0.299 0,0" />
      </g>
      <g
         transform="matrix(1.25,0,0,-1.25,408.16119,547.02254)"
         id="g3230">
        <path
           inkscape:connector-curvature="0"
           id="path3232"
           style="fill:#ffffff;fill-opacity:1;fill-rule:nonzero;stroke:none"
           d="m 0,0 c 0,-0.299 0.242,-0.541 0.541,-0.541 0.301,0 0.543,0.242 0.543,0.541 0,0.301 -0.242,0.543 -0.543,0.543 C 0.242,0.543 0,0.301 0,0" />
      </g>
      <g
         transform="matrix(1.25,0,0,-1.25,408.16119,541.13629)"
         id="g3234">
        <path
           inkscape:connector-curvature="0"
           id="path3236"
           style="fill:#ffffff;fill-opacity:1;fill-rule:nonzero;stroke:none"
           d="m 0,0 c 0,-0.299 0.242,-0.541 0.541,-0.541 0.301,0 0.543,0.242 0.543,0.541 0,0.299 -0.242,0.543 -0.543,0.543 C 0.242,0.543 0,0.299 0,0" />
      </g>
      <g
         transform="matrix(1.25,0,0,-1.25,408.16119,537.21054)"
         id="g3238">
        <path
           inkscape:connector-curvature="0"
           id="path3240"
           style="fill:#ffffff;fill-opacity:1;fill-rule:nonzero;stroke:none"
           d="m 0,0 c 0,-0.299 0.242,-0.543 0.541,-0.543 0.301,0 0.543,0.244 0.543,0.543 0,0.299 -0.242,0.541 -0.543,0.541 C 0.242,0.543 0,0.299 0,0" />
      </g>
      <g
         transform="matrix(1.25,0,0,-1.25,408.16119,543.09679)"
         id="g3242">
        <path
           inkscape:connector-curvature="0"
           id="path3244"
           style="fill:#ffffff;fill-opacity:1;fill-rule:nonzero;stroke:none"
           d="M 0,0 C 0,-0.301 0.242,-0.543 0.541,-0.543 0.842,-0.541 1.084,-0.301 1.084,0 1.084,0.299 0.842,0.543 0.541,0.543 0.242,0.541 0,0.299 0,0" />
      </g>
      <g
         transform="matrix(1.25,0,0,-1.25,408.16119,539.17342)"
         id="g3246">
        <path
           inkscape:connector-curvature="0"
           id="path3248"
           style="fill:#ffffff;fill-opacity:1;fill-rule:nonzero;stroke:none"
           d="m 0,0 c 0,-0.299 0.242,-0.541 0.541,-0.541 0.301,0 0.543,0.242 0.543,0.541 0,0.299 -0.242,0.543 -0.543,0.543 C 0.242,0.543 0,0.299 0,0" />
      </g>
      <g
         transform="matrix(1.25,0,0,-1.25,408.16119,535.25004)"
         id="g3250">
        <path
           inkscape:connector-curvature="0"
           id="path3252"
           style="fill:#ffffff;fill-opacity:1;fill-rule:nonzero;stroke:none"
           d="m 0,0 c 0,-0.299 0.242,-0.541 0.541,-0.541 0.301,0 0.543,0.242 0.543,0.541 0,0.299 -0.242,0.543 -0.543,0.543 C 0.242,0.543 0,0.299 0,0" />
      </g>
      <g
         transform="matrix(1.25,0,0,-1.25,403.59819,531.3243)"
         id="g3254">
        <path
           inkscape:connector-curvature="0"
           id="path3256"
           style="fill:#ffffff;fill-opacity:1;fill-rule:nonzero;stroke:none"
           d="m 0,0 c 0,-0.299 0.242,-0.543 0.543,-0.543 0.301,0 0.543,0.244 0.543,0.543 0,0.299 -0.242,0.541 -0.543,0.541 C 0.242,0.541 0,0.299 0,0" />
      </g>
      <g
         transform="matrix(1.25,0,0,-1.25,403.59819,533.28717)"
         id="g3258">
        <path
           inkscape:connector-curvature="0"
           id="path3260"
           style="fill:#ffffff;fill-opacity:1;fill-rule:nonzero;stroke:none"
           d="m 0,0 c 0,-0.299 0.244,-0.541 0.543,-0.541 0.301,0 0.543,0.242 0.543,0.541 0,0.299 -0.242,0.543 -0.543,0.543 C 0.244,0.543 0,0.299 0,0" />
      </g>
      <g
         transform="matrix(1.25,0,0,-1.25,403.59819,545.05967)"
         id="g3262">
        <path
           inkscape:connector-curvature="0"
           id="path3264"
           style="fill:#ffffff;fill-opacity:1;fill-rule:nonzero;stroke:none"
           d="m 0,0 c 0,-0.299 0.244,-0.541 0.543,-0.541 0.301,0 0.543,0.242 0.543,0.541 0,0.299 -0.242,0.543 -0.543,0.543 C 0.244,0.543 0,0.299 0,0" />
      </g>
      <g
         transform="matrix(1.25,0,0,-1.25,403.59819,550.94592)"
         id="g3266">
        <path
           inkscape:connector-curvature="0"
           id="path3268"
           style="fill:#ffffff;fill-opacity:1;fill-rule:nonzero;stroke:none"
           d="m 0,0 c 0,-0.299 0.244,-0.541 0.543,-0.541 0.301,0 0.543,0.242 0.543,0.541 0,0.301 -0.242,0.543 -0.543,0.543 C 0.244,0.543 0,0.301 0,0" />
      </g>
      <g
         transform="matrix(1.25,0,0,-1.25,403.59819,548.9828)"
         id="g3270">
        <path
           inkscape:connector-curvature="0"
           id="path3272"
           style="fill:#ffffff;fill-opacity:1;fill-rule:nonzero;stroke:none"
           d="m 0,0 c 0,-0.301 0.242,-0.543 0.543,-0.543 0.301,0 0.543,0.242 0.543,0.543 0,0.299 -0.242,0.541 -0.543,0.541 C 0.242,0.541 0,0.299 0,0" />
      </g>
      <g
         transform="matrix(1.25,0,0,-1.25,403.59819,547.02254)"
         id="g3274">
        <path
           inkscape:connector-curvature="0"
           id="path3276"
           style="fill:#ffffff;fill-opacity:1;fill-rule:nonzero;stroke:none"
           d="m 0,0 c 0,-0.299 0.242,-0.541 0.543,-0.541 0.301,0 0.543,0.242 0.543,0.541 0,0.301 -0.242,0.543 -0.543,0.543 C 0.242,0.543 0,0.301 0,0" />
      </g>
      <g
         transform="matrix(1.25,0,0,-1.25,403.59819,541.13629)"
         id="g3278">
        <path
           inkscape:connector-curvature="0"
           id="path3280"
           style="fill:#ffffff;fill-opacity:1;fill-rule:nonzero;stroke:none"
           d="m 0,0 c 0,-0.299 0.244,-0.541 0.543,-0.541 0.301,0 0.543,0.242 0.543,0.541 0,0.299 -0.242,0.543 -0.543,0.543 C 0.244,0.543 0,0.301 0,0" />
      </g>
      <g
         transform="matrix(1.25,0,0,-1.25,403.59819,537.21054)"
         id="g3282">
        <path
           inkscape:connector-curvature="0"
           id="path3284"
           style="fill:#ffffff;fill-opacity:1;fill-rule:nonzero;stroke:none"
           d="m 0,0 c 0,-0.299 0.242,-0.543 0.543,-0.543 0.301,0 0.543,0.244 0.543,0.543 0,0.299 -0.242,0.541 -0.543,0.541 C 0.242,0.541 0,0.299 0,0" />
      </g>
      <g
         transform="matrix(1.25,0,0,-1.25,403.59819,543.09679)"
         id="g3286">
        <path
           inkscape:connector-curvature="0"
           id="path3288"
           style="fill:#ffffff;fill-opacity:1;fill-rule:nonzero;stroke:none"
           d="m 0,0 c 0,-0.301 0.244,-0.543 0.543,-0.543 0.301,0 0.543,0.242 0.543,0.543 0,0.299 -0.242,0.543 -0.543,0.541 C 0.244,0.541 0,0.299 0,0" />
      </g>
      <g
         transform="matrix(1.25,0,0,-1.25,403.59819,539.17342)"
         id="g3290">
        <path
           inkscape:connector-curvature="0"
           id="path3292"
           style="fill:#ffffff;fill-opacity:1;fill-rule:nonzero;stroke:none"
           d="m 0,0 c 0,-0.299 0.244,-0.541 0.543,-0.541 0.301,0 0.543,0.242 0.543,0.541 0,0.299 -0.242,0.543 -0.543,0.543 C 0.244,0.543 0,0.299 0,0" />
      </g>
      <g
         transform="matrix(1.25,0,0,-1.25,403.59819,535.25004)"
         id="g3294">
        <path
           inkscape:connector-curvature="0"
           id="path3296"
           style="fill:#ffffff;fill-opacity:1;fill-rule:nonzero;stroke:none"
           d="m 0,0 c 0,-0.299 0.244,-0.541 0.543,-0.541 0.301,0 0.543,0.242 0.543,0.541 0,0.301 -0.242,0.543 -0.543,0.543 C 0.244,0.543 0,0.301 0,0" />
      </g>
      <g
         transform="matrix(1.25,0,0,-1.25,405.83694,531.3243)"
         id="g3298">
        <path
           inkscape:connector-curvature="0"
           id="path3300"
           style="fill:#ffffff;fill-opacity:1;fill-rule:nonzero;stroke:none"
           d="m 0,0 c 0,-0.299 0.242,-0.543 0.543,-0.543 0.299,0 0.541,0.244 0.541,0.543 0,0.299 -0.242,0.541 -0.541,0.541 C 0.242,0.541 0,0.299 0,0" />
      </g>
      <g
         transform="matrix(1.25,0,0,-1.25,405.83694,533.28717)"
         id="g3302">
        <path
           inkscape:connector-curvature="0"
           id="path3304"
           style="fill:#ffffff;fill-opacity:1;fill-rule:nonzero;stroke:none"
           d="m 0,0 c 0,-0.299 0.242,-0.541 0.543,-0.541 0.299,0 0.541,0.242 0.541,0.541 0,0.299 -0.242,0.543 -0.541,0.543 C 0.242,0.543 0,0.299 0,0" />
      </g>
      <g
         transform="matrix(1.25,0,0,-1.25,405.83694,545.05967)"
         id="g3306">
        <path
           inkscape:connector-curvature="0"
           id="path3308"
           style="fill:#ffffff;fill-opacity:1;fill-rule:nonzero;stroke:none"
           d="m 0,0 c 0,-0.299 0.242,-0.541 0.543,-0.541 0.299,0 0.541,0.242 0.541,0.541 0,0.299 -0.242,0.543 -0.541,0.543 C 0.242,0.543 0,0.299 0,0" />
      </g>
      <g
         transform="matrix(1.25,0,0,-1.25,405.83694,550.94592)"
         id="g3310">
        <path
           inkscape:connector-curvature="0"
           id="path3312"
           style="fill:#ffffff;fill-opacity:1;fill-rule:nonzero;stroke:none"
           d="m 0,0 c 0,-0.299 0.242,-0.541 0.543,-0.541 0.299,0 0.541,0.242 0.541,0.541 0,0.299 -0.242,0.543 -0.541,0.543 C 0.242,0.543 0,0.299 0,0" />
      </g>
      <g
         transform="matrix(1.25,0,0,-1.25,405.83694,548.9828)"
         id="g3314">
        <path
           inkscape:connector-curvature="0"
           id="path3316"
           style="fill:#ffffff;fill-opacity:1;fill-rule:nonzero;stroke:none"
           d="m 0,0 c 0,-0.299 0.242,-0.543 0.543,-0.543 0.299,0 0.541,0.242 0.541,0.543 0,0.299 -0.242,0.541 -0.541,0.541 C 0.242,0.541 0,0.299 0,0" />
      </g>
      <g
         transform="matrix(1.25,0,0,-1.25,405.83694,547.02254)"
         id="g3318">
        <path
           inkscape:connector-curvature="0"
           id="path3320"
           style="fill:#ffffff;fill-opacity:1;fill-rule:nonzero;stroke:none"
           d="m 0,0 c 0,-0.299 0.242,-0.541 0.543,-0.541 0.299,0 0.541,0.242 0.541,0.541 0,0.301 -0.242,0.543 -0.541,0.543 C 0.242,0.543 0,0.301 0,0" />
      </g>
      <g
         transform="matrix(1.25,0,0,-1.25,405.83694,541.13629)"
         id="g3322">
        <path
           inkscape:connector-curvature="0"
           id="path3324"
           style="fill:#ffffff;fill-opacity:1;fill-rule:nonzero;stroke:none"
           d="m 0,0 c 0,-0.299 0.242,-0.541 0.543,-0.541 0.299,0 0.541,0.242 0.541,0.541 0,0.299 -0.242,0.543 -0.541,0.543 C 0.242,0.543 0,0.299 0,0" />
      </g>
      <g
         transform="matrix(1.25,0,0,-1.25,405.83694,537.21054)"
         id="g3326">
        <path
           inkscape:connector-curvature="0"
           id="path3328"
           style="fill:#ffffff;fill-opacity:1;fill-rule:nonzero;stroke:none"
           d="m 0,0 c 0,-0.299 0.242,-0.543 0.543,-0.543 0.299,0 0.541,0.244 0.541,0.543 0,0.299 -0.242,0.541 -0.541,0.541 C 0.242,0.541 0,0.299 0,0" />
      </g>
      <g
         transform="matrix(1.25,0,0,-1.25,405.83694,543.09679)"
         id="g3330">
        <path
           inkscape:connector-curvature="0"
           id="path3332"
           style="fill:#ffffff;fill-opacity:1;fill-rule:nonzero;stroke:none"
           d="m 0,0 c 0,-0.301 0.242,-0.543 0.543,-0.543 0.299,0 0.541,0.242 0.541,0.543 0,0.299 -0.242,0.541 -0.541,0.543 C 0.242,0.543 0,0.299 0,0" />
      </g>
      <g
         transform="matrix(1.25,0,0,-1.25,405.83694,539.17342)"
         id="g3334">
        <path
           inkscape:connector-curvature="0"
           id="path3336"
           style="fill:#ffffff;fill-opacity:1;fill-rule:nonzero;stroke:none"
           d="m 0,0 c 0,-0.299 0.242,-0.541 0.543,-0.541 0.299,0 0.541,0.242 0.541,0.541 0,0.299 -0.242,0.543 -0.541,0.543 C 0.242,0.543 0,0.299 0,0" />
      </g>
      <g
         transform="matrix(1.25,0,0,-1.25,405.83694,535.25004)"
         id="g3338">
        <path
           inkscape:connector-curvature="0"
           id="path3340"
           style="fill:#ffffff;fill-opacity:1;fill-rule:nonzero;stroke:none"
           d="m 0,0 c 0,-0.299 0.242,-0.541 0.543,-0.541 0.299,0 0.541,0.242 0.541,0.541 0,0.299 -0.242,0.543 -0.541,0.543 C 0.242,0.543 0,0.299 0,0" />
      </g>
    </g>
  </g>
</svg>
