<?xml version="1.0" encoding="UTF-8" standalone="no"?>
<!-- Created with Inkscape (http://www.inkscape.org/) -->

<svg
   xmlns:dc="http://purl.org/dc/elements/1.1/"
   xmlns:cc="http://creativecommons.org/ns#"
   xmlns:rdf="http://www.w3.org/1999/02/22-rdf-syntax-ns#"
   xmlns:svg="http://www.w3.org/2000/svg"
   xmlns="http://www.w3.org/2000/svg"
   xmlns:sodipodi="http://sodipodi.sourceforge.net/DTD/sodipodi-0.dtd"
   xmlns:inkscape="http://www.inkscape.org/namespaces/inkscape"
   width="264.41428"
   height="302.47778"
   id="svg4447"
   version="1.1"
   inkscape:version="0.48.4 r9939"
   sodipodi:docname="New document 2">
  <defs
     id="defs4449" />
  <sodipodi:namedview
     id="base"
     pagecolor="#ffffff"
     bordercolor="#666666"
     borderopacity="1.0"
     inkscape:pageopacity="0.0"
     inkscape:pageshadow="2"
     inkscape:zoom="1"
     inkscape:cx="143.0567"
     inkscape:cy="166.23893"
     inkscape:document-units="px"
     inkscape:current-layer="layer1"
     showgrid="false"
     fit-margin-top="5"
     fit-margin-left="5"
     fit-margin-right="5"
     fit-margin-bottom="5"
     inkscape:window-width="1920"
     inkscape:window-height="1030"
     inkscape:window-x="0"
     inkscape:window-y="0"
     inkscape:window-maximized="1" />
  <metadata
     id="metadata4452">
    <rdf:RDF>
      <cc:Work
         rdf:about="">
        <dc:format>image/svg+xml</dc:format>
        <dc:type
           rdf:resource="http://purl.org/dc/dcmitype/StillImage" />
        <dc:title></dc:title>
      </cc:Work>
    </rdf:RDF>
  </metadata>
  <g
     inkscape:label="Layer 1"
     inkscape:groupmode="layer"
     id="layer1"
     transform="translate(-231.9433,-396.12334)">
    <path
       style="fill:#000000;fill-opacity:1;stroke:none"
       d="m 268.659,693.235 c -2.99435,-0.80504 -5.28049,-2.73903 -6.64627,-5.6218 l -0.77195,-1.62969 -0.0635,-81.44469 c -0.0636,-80.99329 -0.0617,-81.45384 0.42336,-83.0555 0.95382,-3.15211 3.51547,-5.65039 6.77467,-6.60777 1.15793,-0.33999 3.705,-0.38672 21.14888,-0.38672 l 19.83225,0 -0.0187,-10.48341 0,-10.48378 -35.74419,-40.60076 c -20.58645,-23.38379 -35.96194,-41.04579 -36.25782,-41.64971 -0.65196,-1.33082 -0.50093,-2.71903 0.52317,-4.81059 0.88055,-1.7981 2.91846,-3.76069 4.84161,-4.66274 1.89624,-0.88933 4.60704,-0.8998 5.89936,-0.028 0.49102,0.33327 17.35678,19.31283 37.47968,42.17663 l 36.58698,41.57083 -1.01102,0.9013 -1.01101,0.90092 0.73457,2.25006 0.73476,2.25007 1.25568,0.0748 1.25568,0.0729 0.0635,11.19798 0.0636,11.19835 39.44975,0.0617 39.44974,0.0617 0,-11.27199 0,-11.272 1.28036,0 1.28017,0 0.75849,-2.30259 0.75831,-2.30202 -0.94784,-0.81139 c -0.52149,-0.44616 -0.94802,-0.88223 -0.94802,-0.9684 0,-0.36037 72.80816,-83.00036 73.71133,-83.66522 0.89513,-0.65868 1.16279,-0.72728 2.84576,-0.72728 1.58633,0 2.09642,0.11215 3.49154,0.7742 3.94723,1.86969 6.46645,6.48402 5.10124,9.34342 -0.23813,0.4985 -16.46726,19.13806 -36.06493,41.42131 -19.59749,22.28306 -35.72569,40.67571 -35.84026,40.87197 -0.11402,0.19644 -0.1271,4.95918 -0.0299,10.62808 l 0.17944,10.27145 23.29912,0.0654 23.29931,0.0654 1.63399,0.77364 c 2.99118,1.41718 5.42348,4.66536 5.70759,7.62251 l 0.11402,1.17737 c -0.42579,3.98723 -0.23776,-1.56316 -0.0617,0.24486 l 0.0617,79.68732 c 0.0336,43.828 0,80.26302 -0.10094,80.966 -0.5056,3.99789 -3.94779,7.48925 -8.17446,8.2911 -0.87457,0.16636 -33.23021,0.24224 -98.16895,0.22953 -83.84689,-0.028 -97.0398,-0.0635 -98.17193,-0.36784 l 0,0 z m 79.99181,-13.93682 c 1.44745,-1.03102 1.42764,-0.84691 1.42671,-13.1187 -10e-4,-10.7036 -0.0224,-11.25892 -0.4742,-11.99872 -0.90821,-1.48988 -2.78651,-1.94782 -4.25789,-1.0383 -1.57306,0.97213 -1.56932,0.94129 -1.56932,13.08543 0,9.73201 0.0449,11.05106 0.40467,11.80881 0.7912,1.66727 3.01771,2.29567 4.47003,1.26148 z m 20.06795,0.15327 c 0.37345,-0.1914 0.88616,-0.65663 1.13942,-1.03027 0.4357,-0.6428 0.46,-1.28223 0.46,-12.09516 0,-12.52937 0.028,-12.27012 -1.46765,-13.19515 -1.45231,-0.89737 -3.33528,-0.43084 -4.23826,1.05027 -0.45158,0.74055 -0.47326,1.2968 -0.4742,12.13123 -9.3e-4,12.41423 -0.028,12.1832 1.4226,13.08207 0.79438,0.49307 2.26371,0.51943 3.15809,0.0561 l 0,0 z m 20.37542,-0.043 c 1.49157,-0.88111 1.46409,-0.63495 1.46316,-13.09366 -9.3e-4,-10.8348 -0.0224,-11.39087 -0.47401,-12.13123 -0.90317,-1.48129 -2.78613,-1.94764 -4.23845,-1.05046 -1.49661,0.92504 -1.46764,0.66597 -1.46764,13.19515 0,10.80172 0.0262,11.45274 0.45887,12.09311 0.90578,1.33643 2.88856,1.79623 4.25807,0.98709 z"
       id="path11522-3-4"
       inkscape:connector-curvature="0"
       sodipodi:nodetypes="cscsccscccsssscsccccccccccccccccccssscsscccccscccsccsccccccssccccssccscccccscssc"
       inkscape:export-filename="/home/andygunn/Commotion/Construction Kit/Modules/Common Configs/Print version docs/CCK_CommonConfigs_03_Nodes_with_server.png"
       inkscape:export-xdpi="299.98734"
       inkscape:export-ydpi="299.98734" />
  </g>
</svg>
