<?xml version="1.0" encoding="UTF-8" standalone="no"?>
<!-- Created with Inkscape (http://www.inkscape.org/) -->

<svg
   xmlns:dc="http://purl.org/dc/elements/1.1/"
   xmlns:cc="http://creativecommons.org/ns#"
   xmlns:rdf="http://www.w3.org/1999/02/22-rdf-syntax-ns#"
   xmlns:svg="http://www.w3.org/2000/svg"
   xmlns="http://www.w3.org/2000/svg"
   xmlns:sodipodi="http://sodipodi.sourceforge.net/DTD/sodipodi-0.dtd"
   xmlns:inkscape="http://www.inkscape.org/namespaces/inkscape"
   width="81.263062"
   height="541.03662"
   id="svg3295"
   version="1.1"
   inkscape:version="0.48.4 r9939"
   sodipodi:docname="New document 2">
  <defs
     id="defs3297">
    <clipPath
       id="clipPath790-4-3-8-0"
       clipPathUnits="userSpaceOnUse">
      <path
         id="path792-1-3-8-4"
         d="m 36.8,315.8 131.68,0 0,76.32 -131.68,0 0,-76.32 z"
         inkscape:connector-curvature="0" />
    </clipPath>
  </defs>
  <sodipodi:namedview
     id="base"
     pagecolor="#ffffff"
     bordercolor="#666666"
     borderopacity="1.0"
     inkscape:pageopacity="0.0"
     inkscape:pageshadow="2"
     inkscape:zoom="1"
     inkscape:cx="48.633222"
     inkscape:cy="298.01832"
     inkscape:document-units="px"
     inkscape:current-layer="layer1"
     showgrid="false"
     fit-margin-top="5"
     fit-margin-left="5"
     fit-margin-right="5"
     fit-margin-bottom="5"
     inkscape:window-width="1920"
     inkscape:window-height="1030"
     inkscape:window-x="0"
     inkscape:window-y="0"
     inkscape:window-maximized="1" />
  <metadata
     id="metadata3300">
    <rdf:RDF>
      <cc:Work
         rdf:about="">
        <dc:format>image/svg+xml</dc:format>
        <dc:type
           rdf:resource="http://purl.org/dc/dcmitype/StillImage" />
        <dc:title></dc:title>
      </cc:Work>
    </rdf:RDF>
  </metadata>
  <g
     inkscape:label="Layer 1"
     inkscape:groupmode="layer"
     id="layer1"
     transform="translate(-326.36678,-289.34387)">
    <g
       id="g10451-9-2"
       transform="matrix(0.78808905,0,0,0.84243752,-347.02677,151.28168)"
       inkscape:export-filename="/home/andygunn/New York/RISE NYC/Technical Diagrams/Detailed_Site_Diagram_-_Anchor_institution.png"
       inkscape:export-xdpi="149.98326"
       inkscape:export-ydpi="149.98326">
      <rect
         transform="translate(-2.2698109e-5,0)"
         y="720.75946"
         x="869.74133"
         height="20.152544"
         width="71.417786"
         id="rect10449-5-30"
         style="fill:#ffffff;fill-opacity:1;stroke:none" />
      <g
         inkscape:label="Layer 1"
         id="layer1-1-7"
         transform="translate(531.02081,186.48915)">
        <g
           id="g786-8-9-0"
           transform="matrix(2.2321171,2.9762131,2.9762131,-2.2321171,-897.5781,1030.2549)">
          <g
             id="g788-0-5-1"
             clip-path="url(#clipPath790-4-3-8-0)">
            <g
               id="g794-8-7-3"
               transform="matrix(0.3469658,0.4604391,0.4511088,-0.3399349,612,1405.38)">
              <g
                 id="g796-6-0-58"
                 transform="translate(-1978.7236,400.3203)">
                <path
                   d="m 0,0 c 0,0.92 -0.744,1.665 -1.664,1.665 l -24.887,0 c -0.92,0 -1.664,-0.745 -1.664,-1.665 l 0,-1.064 c 0,-0.919 0.744,-1.665 1.664,-1.665 l 24.887,0 c 0.92,0 1.664,0.746 1.664,1.665 L 0,0 z m 2.939,-40.54 -2.34,0 0,-1.928 -1.186,0 0,-2.787 -2.948,0 0,2.787 -1.186,0 0,1.928 -18.765,0 0,-1.928 -1.186,0 0,-2.787 -2.948,0 0,2.787 -1.187,0 0,1.928 -2.345,0 c -2.188,0 -3.963,1.775 -3.963,3.963 l 0,64.69 c 0,2.189 1.775,3.963 3.963,3.963 l 34.091,0 c 2.188,0 3.961,-1.774 3.961,-3.963 l 0,-64.69 c 0,-2.188 -1.773,-3.963 -3.961,-3.963"
                   style="fill:#100f0d;fill-opacity:1;fill-rule:nonzero;stroke:none"
                   id="path798-8-8-9"
                   inkscape:connector-curvature="0" />
              </g>
            </g>
            <g
               id="g800-2-5-2"
               transform="matrix(0.3469658,0.4604391,0.4511088,-0.3399349,612,1405.38)">
              <g
                 id="g802-5-0-9"
                 transform="translate(-2001.8389,399.3574)">
                <path
                   d="m 0,0 -2.066,0 c -0.24,0 -0.432,0.194 -0.432,0.432 0,0.238 0.192,0.43 0.432,0.43 L 0,0.862 C 0.238,0.862 0.432,0.67 0.432,0.432 0.432,0.194 0.238,0 0,0"
                   style="fill:#100f0d;fill-opacity:1;fill-rule:nonzero;stroke:none"
                   id="path804-0-5-33"
                   inkscape:connector-curvature="0" />
              </g>
            </g>
            <g
               id="g806-7-2-3"
               transform="matrix(0.3469658,0.4604391,0.4511088,-0.3399349,612,1405.38)">
              <g
                 id="g808-7-4-2"
                 transform="translate(-1997.8213,399.3574)">
                <path
                   d="m 0,0 -2.068,0 c -0.239,0 -0.431,0.194 -0.431,0.432 0,0.238 0.192,0.43 0.431,0.43 L 0,0.862 C 0.237,0.862 0.43,0.67 0.43,0.432 0.43,0.194 0.237,0 0,0"
                   style="fill:#100f0d;fill-opacity:1;fill-rule:nonzero;stroke:none"
                   id="path810-3-4-9"
                   inkscape:connector-curvature="0" />
              </g>
            </g>
            <g
               id="g812-9-5-4"
               transform="matrix(0.3469658,0.4604391,0.4511088,-0.3399349,612,1405.38)">
              <g
                 id="g814-1-2-13"
                 transform="translate(-1993.8057,399.3574)">
                <path
                   d="m 0,0 -2.068,0 c -0.237,0 -0.43,0.194 -0.43,0.432 0,0.238 0.193,0.43 0.43,0.43 L 0,0.862 C 0.238,0.862 0.432,0.67 0.432,0.432 0.432,0.194 0.238,0 0,0"
                   style="fill:#100f0d;fill-opacity:1;fill-rule:nonzero;stroke:none"
                   id="path816-8-8-93"
                   inkscape:connector-curvature="0" />
              </g>
            </g>
            <g
               id="g818-2-7-9"
               transform="matrix(0.3469658,0.4604391,0.4511088,-0.3399349,612,1405.38)">
              <g
                 id="g820-2-5-7"
                 transform="translate(-1989.7881,399.3574)">
                <path
                   d="M 0,0 -2.068,0 C -2.307,0 -2.5,0.194 -2.5,0.432 c 0,0.238 0.193,0.43 0.432,0.43 L 0,0.862 C 0.237,0.862 0.43,0.67 0.43,0.432 0.43,0.194 0.237,0 0,0"
                   style="fill:#100f0d;fill-opacity:1;fill-rule:nonzero;stroke:none"
                   id="path822-0-1-7"
                   inkscape:connector-curvature="0" />
              </g>
            </g>
            <g
               id="g824-2-2-5"
               transform="matrix(0.3469658,0.4604391,0.4511088,-0.3399349,612,1405.38)">
              <g
                 id="g826-3-4-1"
                 transform="translate(-1985.7715,399.3574)">
                <path
                   d="m 0,0 -2.068,0 c -0.239,0 -0.431,0.194 -0.431,0.432 0,0.238 0.192,0.43 0.431,0.43 L 0,0.862 C 0.237,0.862 0.43,0.67 0.43,0.432 0.43,0.194 0.237,0 0,0"
                   style="fill:#100f0d;fill-opacity:1;fill-rule:nonzero;stroke:none"
                   id="path828-9-1-5"
                   inkscape:connector-curvature="0" />
              </g>
            </g>
            <g
               id="g830-0-6-3"
               transform="matrix(0.3469658,0.4604391,0.4511088,-0.3399349,612,1405.38)">
              <g
                 id="g832-2-3-7"
                 transform="translate(-1981.7549,399.3574)">
                <path
                   d="m 0,0 -2.068,0 c -0.239,0 -0.431,0.194 -0.431,0.432 0,0.238 0.192,0.43 0.431,0.43 L 0,0.862 C 0.238,0.862 0.43,0.67 0.43,0.432 0.43,0.194 0.238,0 0,0"
                   style="fill:#100f0d;fill-opacity:1;fill-rule:nonzero;stroke:none"
                   id="path834-6-2-8"
                   inkscape:connector-curvature="0" />
              </g>
            </g>
          </g>
        </g>
      </g>
    </g>
    <rect
       style="fill:#000000;fill-opacity:1;stroke:none"
       id="rect10478-6-7"
       width="60.462864"
       height="363.9686"
       x="336.76068"
       y="294.34387"
       ry="8.6676989"
       inkscape:export-filename="/home/andygunn/New York/RISE NYC/Technical Diagrams/Detailed_Site_Diagram_-_Anchor_institution.png"
       inkscape:export-xdpi="149.98326"
       inkscape:export-ydpi="149.98326" />
    <path
       style="fill:none;stroke:#000000;stroke-width:3.36974978;stroke-linecap:round;stroke-linejoin:miter;stroke-miterlimit:4;stroke-opacity:1;stroke-dasharray:none"
       d="m 346.69131,689.8032 c 0.65828,-4.80418 0.25775,-7.37131 -0.2468,-11.61528 1.03417,-8.35485 -3.03749,-12.05159 -8.16887,-10.29686 -4.35734,2.92146 -4.39548,8.85645 -0.47235,11.12616 9.67892,3.18671 13.08321,-9.26132 13.33006,-13.71773 0.17174,-3.4846 -0.20156,-5.77784 -0.29781,-9.70919"
       id="path10480-8-1"
       inkscape:connector-curvature="0"
       sodipodi:nodetypes="cccccc"
       inkscape:export-filename="/home/andygunn/New York/RISE NYC/Technical Diagrams/Detailed_Site_Diagram_-_Anchor_institution.png"
       inkscape:export-xdpi="149.98326"
       inkscape:export-ydpi="149.98326" />
    <path
       style="fill:none;stroke:#000000;stroke-width:3.36974978;stroke-linecap:round;stroke-linejoin:miter;stroke-miterlimit:4;stroke-opacity:1;stroke-dasharray:none"
       d="m 387.69005,690.40908 c -0.65829,-4.80415 -0.25774,-7.37128 0.2468,-11.61525 -1.03417,-8.35485 3.03749,-12.05159 8.16887,-10.29686 4.35734,2.92146 4.3955,8.85644 0.47233,11.12616 -9.67892,3.18671 -13.08321,-9.26132 -13.33005,-13.71775 -0.17195,-3.48458 0.20177,-5.77782 0.29781,-9.70917"
       id="path10480-9-7-0"
       inkscape:connector-curvature="0"
       sodipodi:nodetypes="cccccc"
       inkscape:export-filename="/home/andygunn/New York/RISE NYC/Technical Diagrams/Detailed_Site_Diagram_-_Anchor_institution.png"
       inkscape:export-xdpi="149.98326"
       inkscape:export-ydpi="149.98326" />
  </g>
</svg>
