<?xml version="1.0" encoding="UTF-8" standalone="no"?>
<!-- Created with Inkscape (http://www.inkscape.org/) -->

<svg
   xmlns:dc="http://purl.org/dc/elements/1.1/"
   xmlns:cc="http://creativecommons.org/ns#"
   xmlns:rdf="http://www.w3.org/1999/02/22-rdf-syntax-ns#"
   xmlns:svg="http://www.w3.org/2000/svg"
   xmlns="http://www.w3.org/2000/svg"
   xmlns:sodipodi="http://sodipodi.sourceforge.net/DTD/sodipodi-0.dtd"
   xmlns:inkscape="http://www.inkscape.org/namespaces/inkscape"
   width="110.42514"
   height="182.65054"
   id="svg3965"
   version="1.1"
   inkscape:version="0.48.4 r9939"
   sodipodi:docname="New document 3">
  <defs
     id="defs3967">
    <clipPath
       clipPathUnits="userSpaceOnUse"
       id="clipPath790">
      <path
         inkscape:connector-curvature="0"
         d="m 36.8,315.8 131.68,0 0,76.32 -131.68,0 0,-76.32 z"
         id="path792" />
    </clipPath>
  </defs>
  <sodipodi:namedview
     id="base"
     pagecolor="#ffffff"
     bordercolor="#666666"
     borderopacity="1.0"
     inkscape:pageopacity="0.0"
     inkscape:pageshadow="2"
     inkscape:zoom="1"
     inkscape:cx="55.212571"
     inkscape:cy="91.3253"
     inkscape:document-units="px"
     inkscape:current-layer="layer1"
     showgrid="false"
     fit-margin-top="10"
     fit-margin-left="10"
     fit-margin-right="10"
     fit-margin-bottom="10"
     inkscape:window-width="1920"
     inkscape:window-height="1142"
     inkscape:window-x="0"
     inkscape:window-y="27"
     inkscape:window-maximized="1" />
  <metadata
     id="metadata3970">
    <rdf:RDF>
      <cc:Work
         rdf:about="">
        <dc:format>image/svg+xml</dc:format>
        <dc:type
           rdf:resource="http://purl.org/dc/dcmitype/StillImage" />
        <dc:title></dc:title>
      </cc:Work>
    </rdf:RDF>
  </metadata>
  <g
     inkscape:label="Layer 1"
     inkscape:groupmode="layer"
     id="layer1"
     transform="translate(-319.78743,-441.03694)">
    <g
       id="g786"
       transform="matrix(2.2321171,2.9762131,2.9762131,-2.2321171,-897.5781,1030.2549)">
      <g
         id="g788"
         clip-path="url(#clipPath790)">
        <g
           id="g794"
           transform="matrix(0.3469658,0.4604391,0.4511088,-0.3399349,612,1405.38)">
          <g
             id="g796"
             transform="translate(-1978.7236,400.3203)">
            <path
               d="m 0,0 c 0,0.92 -0.744,1.665 -1.664,1.665 l -24.887,0 c -0.92,0 -1.664,-0.745 -1.664,-1.665 l 0,-1.064 c 0,-0.919 0.744,-1.665 1.664,-1.665 l 24.887,0 c 0.92,0 1.664,0.746 1.664,1.665 L 0,0 z m 2.939,-40.54 -2.34,0 0,-1.928 -1.186,0 0,-2.787 -2.948,0 0,2.787 -1.186,0 0,1.928 -18.765,0 0,-1.928 -1.186,0 0,-2.787 -2.948,0 0,2.787 -1.187,0 0,1.928 -2.345,0 c -2.188,0 -3.963,1.775 -3.963,3.963 l 0,64.69 c 0,2.189 1.775,3.963 3.963,3.963 l 34.091,0 c 2.188,0 3.961,-1.774 3.961,-3.963 l 0,-64.69 c 0,-2.188 -1.773,-3.963 -3.961,-3.963"
               style="fill:#100f0d;fill-opacity:1;fill-rule:nonzero;stroke:none"
               id="path798"
               inkscape:connector-curvature="0" />
          </g>
        </g>
        <g
           id="g800"
           transform="matrix(0.3469658,0.4604391,0.4511088,-0.3399349,612,1405.38)">
          <g
             id="g802"
             transform="translate(-2001.8389,399.3574)">
            <path
               d="m 0,0 -2.066,0 c -0.24,0 -0.432,0.194 -0.432,0.432 0,0.238 0.192,0.43 0.432,0.43 L 0,0.862 C 0.238,0.862 0.432,0.67 0.432,0.432 0.432,0.194 0.238,0 0,0"
               style="fill:#100f0d;fill-opacity:1;fill-rule:nonzero;stroke:none"
               id="path804"
               inkscape:connector-curvature="0" />
          </g>
        </g>
        <g
           id="g806"
           transform="matrix(0.3469658,0.4604391,0.4511088,-0.3399349,612,1405.38)">
          <g
             id="g808"
             transform="translate(-1997.8213,399.3574)">
            <path
               d="m 0,0 -2.068,0 c -0.239,0 -0.431,0.194 -0.431,0.432 0,0.238 0.192,0.43 0.431,0.43 L 0,0.862 C 0.237,0.862 0.43,0.67 0.43,0.432 0.43,0.194 0.237,0 0,0"
               style="fill:#100f0d;fill-opacity:1;fill-rule:nonzero;stroke:none"
               id="path810"
               inkscape:connector-curvature="0" />
          </g>
        </g>
        <g
           id="g812"
           transform="matrix(0.3469658,0.4604391,0.4511088,-0.3399349,612,1405.38)">
          <g
             id="g814"
             transform="translate(-1993.8057,399.3574)">
            <path
               d="m 0,0 -2.068,0 c -0.237,0 -0.43,0.194 -0.43,0.432 0,0.238 0.193,0.43 0.43,0.43 L 0,0.862 C 0.238,0.862 0.432,0.67 0.432,0.432 0.432,0.194 0.238,0 0,0"
               style="fill:#100f0d;fill-opacity:1;fill-rule:nonzero;stroke:none"
               id="path816"
               inkscape:connector-curvature="0" />
          </g>
        </g>
        <g
           id="g818"
           transform="matrix(0.3469658,0.4604391,0.4511088,-0.3399349,612,1405.38)">
          <g
             id="g820"
             transform="translate(-1989.7881,399.3574)">
            <path
               d="M 0,0 -2.068,0 C -2.307,0 -2.5,0.194 -2.5,0.432 c 0,0.238 0.193,0.43 0.432,0.43 L 0,0.862 C 0.237,0.862 0.43,0.67 0.43,0.432 0.43,0.194 0.237,0 0,0"
               style="fill:#100f0d;fill-opacity:1;fill-rule:nonzero;stroke:none"
               id="path822"
               inkscape:connector-curvature="0" />
          </g>
        </g>
        <g
           id="g824"
           transform="matrix(0.3469658,0.4604391,0.4511088,-0.3399349,612,1405.38)">
          <g
             id="g826"
             transform="translate(-1985.7715,399.3574)">
            <path
               d="m 0,0 -2.068,0 c -0.239,0 -0.431,0.194 -0.431,0.432 0,0.238 0.192,0.43 0.431,0.43 L 0,0.862 C 0.237,0.862 0.43,0.67 0.43,0.432 0.43,0.194 0.237,0 0,0"
               style="fill:#100f0d;fill-opacity:1;fill-rule:nonzero;stroke:none"
               id="path828"
               inkscape:connector-curvature="0" />
          </g>
        </g>
        <g
           id="g830"
           transform="matrix(0.3469658,0.4604391,0.4511088,-0.3399349,612,1405.38)">
          <g
             id="g832"
             transform="translate(-1981.7549,399.3574)">
            <path
               d="m 0,0 -2.068,0 c -0.239,0 -0.431,0.194 -0.431,0.432 0,0.238 0.192,0.43 0.431,0.43 L 0,0.862 C 0.238,0.862 0.43,0.67 0.43,0.432 0.43,0.194 0.238,0 0,0"
               style="fill:#100f0d;fill-opacity:1;fill-rule:nonzero;stroke:none"
               id="path834"
               inkscape:connector-curvature="0" />
          </g>
        </g>
      </g>
    </g>
  </g>
</svg>
