<?xml version="1.0" encoding="UTF-8" standalone="no"?>
<!-- Created with Inkscape (http://www.inkscape.org/) -->

<svg
   xmlns:dc="http://purl.org/dc/elements/1.1/"
   xmlns:cc="http://creativecommons.org/ns#"
   xmlns:rdf="http://www.w3.org/1999/02/22-rdf-syntax-ns#"
   xmlns:svg="http://www.w3.org/2000/svg"
   xmlns="http://www.w3.org/2000/svg"
   xmlns:sodipodi="http://sodipodi.sourceforge.net/DTD/sodipodi-0.dtd"
   xmlns:inkscape="http://www.inkscape.org/namespaces/inkscape"
   width="239.92233"
   height="659.51001"
   id="svg5876"
   version="1.1"
   inkscape:version="0.48.4 r9939"
   sodipodi:docname="Router_A026.svg">
  <defs
     id="defs5878">
    <clipPath
       clipPathUnits="userSpaceOnUse"
       id="clipPath3058">
      <path
         inkscape:connector-curvature="0"
         d="M 0,0 612,0 612,792 0,792 0,0 z"
         id="path3060" />
    </clipPath>
  </defs>
  <sodipodi:namedview
     id="base"
     pagecolor="#ffffff"
     bordercolor="#666666"
     borderopacity="1.0"
     inkscape:pageopacity="0.0"
     inkscape:pageshadow="2"
     inkscape:zoom="1"
     inkscape:cx="100.03781"
     inkscape:cy="466.90605"
     inkscape:document-units="px"
     inkscape:current-layer="layer1"
     showgrid="false"
     inkscape:window-width="1920"
     inkscape:window-height="1172"
     inkscape:window-x="0"
     inkscape:window-y="0"
     inkscape:window-maximized="1"
     units="in"
     fit-margin-top="1"
     fit-margin-left="1"
     fit-margin-right="1"
     fit-margin-bottom="1" />
  <metadata
     id="metadata5881">
    <rdf:RDF>
      <cc:Work
         rdf:about="">
        <dc:format>image/svg+xml</dc:format>
        <dc:type
           rdf:resource="http://purl.org/dc/dcmitype/StillImage" />
        <dc:title />
      </cc:Work>
    </rdf:RDF>
  </metadata>
  <g
     inkscape:label="Layer 1"
     inkscape:groupmode="layer"
     id="layer1"
     transform="translate(-274.96218,-339.7558)">
    <g
       id="g3198"
       transform="matrix(2.6273081,0,0,2.6273081,-593.90592,-699.34509)">
      <g
         id="g3054"
         transform="matrix(1.25,0,0,-1.25,294.73031,1249.1313)">
        <g
           clip-path="url(#clipPath3058)"
           id="g3056">
          <g
             transform="translate(69.8475,578.7734)"
             id="g3062">
            <path
               id="path3064"
               style="fill:#241f21;fill-opacity:1;fill-rule:nonzero;stroke:none"
               d="m 0,0 -1.588,0 0.041,44.236 c 0,0 -0.033,3.434 -0.562,7.088 -0.528,3.656 -1.043,6.936 -1.047,9.283 -0.004,2.35 0.135,11.258 0.135,11.258 0,0 0.412,4.713 -1.327,4.84 l -0.127,0.022 c -1.738,-0.116 -1.357,-4.832 -1.357,-4.832 0,0 0.086,-8.909 0.068,-11.258 -0.017,-2.348 -0.554,-5.623 -1.103,-9.276 -0.551,-3.652 -0.606,-7.086 -0.606,-7.086 L -7.526,0 -9.08,0 c -2.531,0 -4.582,-2.051 -4.582,-4.582 l 0,-60.117 c 0,-2.531 2.051,-4.582 4.582,-4.582 l 9.08,0 c 2.531,0 4.584,2.051 4.584,4.582 l 0,60.117 C 4.584,-2.051 2.531,0 0,0"
               inkscape:connector-curvature="0" />
          </g>
        </g>
      </g>
      <path
         id="path3066"
         style="fill:#ffffff;fill-opacity:1;fill-rule:nonzero;stroke:none"
         d="m 378.00406,536.04756 -3.27625,0 0,-1.73625 3.27625,0 0,1.73625 z"
         inkscape:connector-curvature="0" />
      <path
         id="path3068"
         style="fill:#ffffff;fill-opacity:1;fill-rule:nonzero;stroke:none"
         d="m 378.00406,539.09256 -3.27625,0 0,-1.73375 3.27625,0 0,1.73375 z"
         inkscape:connector-curvature="0" />
      <path
         id="path3070"
         style="fill:#ffffff;fill-opacity:1;fill-rule:nonzero;stroke:none"
         d="m 378.00406,542.13881 -3.27625,0 0,-1.73625 3.27625,0 0,1.73625 z"
         inkscape:connector-curvature="0" />
      <path
         id="path3072"
         style="fill:#ffffff;fill-opacity:1;fill-rule:nonzero;stroke:none"
         d="m 378.00406,545.18381 -3.27625,0 0,-1.73375 3.27625,0 0,1.73375 z"
         inkscape:connector-curvature="0" />
      <path
         id="path3074"
         style="fill:#ffffff;fill-opacity:1;fill-rule:nonzero;stroke:none"
         d="m 378.00406,548.22756 -3.27625,0 0,-1.73375 3.27625,0 0,1.73375 z"
         inkscape:connector-curvature="0" />
      <path
         id="path3076"
         style="fill:#ffffff;fill-opacity:1;fill-rule:nonzero;stroke:none"
         d="m 378.00406,551.27506 -3.27625,0 0,-1.73625 3.27625,0 0,1.73625 z"
         inkscape:connector-curvature="0" />
    </g>
  </g>
</svg>
