<?xml version="1.0" encoding="UTF-8" standalone="no"?>
<!-- Created with Inkscape (http://www.inkscape.org/) -->

<svg
   xmlns:dc="http://purl.org/dc/elements/1.1/"
   xmlns:cc="http://creativecommons.org/ns#"
   xmlns:rdf="http://www.w3.org/1999/02/22-rdf-syntax-ns#"
   xmlns:svg="http://www.w3.org/2000/svg"
   xmlns="http://www.w3.org/2000/svg"
   xmlns:sodipodi="http://sodipodi.sourceforge.net/DTD/sodipodi-0.dtd"
   xmlns:inkscape="http://www.inkscape.org/namespaces/inkscape"
   width="333.34497"
   height="210.79816"
   id="svg3948"
   version="1.1"
   inkscape:version="0.48.4 r9939"
   sodipodi:docname="New document 14">
  <defs
     id="defs3950">
    <clipPath
       clipPathUnits="userSpaceOnUse"
       id="clipPath3622">
      <path
         inkscape:connector-curvature="0"
         d="m 36.225,231.16 131.68,0 0,84.96 -131.68,0 0,-84.96 z"
         id="path3624" />
    </clipPath>
    <clipPath
       clipPathUnits="userSpaceOnUse"
       id="clipPath3606">
      <path
         inkscape:connector-curvature="0"
         d="m 46.105,239.603 109.076,0 0,67.737 -109.076,0 0,-67.737 z"
         id="path3608" />
    </clipPath>
    <clipPath
       clipPathUnits="userSpaceOnUse"
       id="clipPath3578">
      <path
         inkscape:connector-curvature="0"
         d="m 36.225,231.16 131.68,0 0,84.96 -131.68,0 0,-84.96 z"
         id="path3580" />
    </clipPath>
  </defs>
  <sodipodi:namedview
     id="base"
     pagecolor="#ffffff"
     bordercolor="#666666"
     borderopacity="1.0"
     inkscape:pageopacity="0.0"
     inkscape:pageshadow="2"
     inkscape:zoom="1"
     inkscape:cx="164.17249"
     inkscape:cy="42.335314"
     inkscape:document-units="px"
     inkscape:current-layer="layer1"
     showgrid="false"
     fit-margin-top="5"
     fit-margin-left="5"
     fit-margin-right="5"
     fit-margin-bottom="5"
     inkscape:window-width="2560"
     inkscape:window-height="1415"
     inkscape:window-x="1920"
     inkscape:window-y="0"
     inkscape:window-maximized="1" />
  <metadata
     id="metadata3953">
    <rdf:RDF>
      <cc:Work
         rdf:about="">
        <dc:format>image/svg+xml</dc:format>
        <dc:type
           rdf:resource="http://purl.org/dc/dcmitype/StillImage" />
        <dc:title></dc:title>
      </cc:Work>
    </rdf:RDF>
  </metadata>
  <g
     inkscape:label="Layer 1"
     inkscape:groupmode="layer"
     id="layer1"
     transform="translate(-210.82751,-363.89934)">
    <g
       transform="matrix(2.9644012,0,0,-2.9644012,79.153792,1279.9784)"
       id="g3574">
      <g
         id="g3576"
         clip-path="url(#clipPath3578)">
        <g
           id="g3582"
           transform="translate(97.3149,241.1401)">
          <path
             inkscape:connector-curvature="0"
             d="m 0,0 c -0.587,0 -1.064,0.476 -1.064,1.064 l 0,3.9 -5.421,0 0,-3.9 C -6.485,0.476 -6.962,0 -7.549,0 -8.136,0 -8.612,0.476 -8.612,1.064 l 0,4.963 c 0,0.588 0.476,1.064 1.063,1.064 l 7.549,0 c 0.587,0 1.064,-0.476 1.064,-1.064 l 0,-4.963 C 1.064,0.476 0.587,0 0,0"
             style="fill:#211d1d;fill-opacity:1;fill-rule:nonzero;stroke:none"
             id="path3584" />
        </g>
        <g
           id="g3586"
           transform="translate(109.9604,241.1401)">
          <path
             inkscape:connector-curvature="0"
             d="m 0,0 c -0.587,0 -1.064,0.476 -1.064,1.064 l 0,3.9 -5.421,0 0,-3.9 C -6.485,0.476 -6.962,0 -7.549,0 -8.136,0 -8.612,0.476 -8.612,1.064 l 0,4.963 c 0,0.588 0.476,1.064 1.063,1.064 l 7.549,0 c 0.587,0 1.064,-0.476 1.064,-1.064 l 0,-4.963 C 1.064,0.476 0.587,0 0,0"
             style="fill:#211d1d;fill-opacity:1;fill-rule:nonzero;stroke:none"
             id="path3588" />
        </g>
        <g
           id="g3590"
           transform="translate(117.5089,250.2345)">
          <path
             inkscape:connector-curvature="0"
             d="m 0,0 c -0.587,0 -1.063,0.476 -1.063,1.064 l 0,3.9 -5.422,0 0,-3.9 C -6.485,0.476 -6.961,0 -7.549,0 -8.136,0 -8.612,0.476 -8.612,1.064 l 0,4.963 c 0,0.588 0.476,1.064 1.063,1.064 l 7.549,0 c 0.587,0 1.064,-0.476 1.064,-1.064 l 0,-4.963 C 1.064,0.476 0.587,0 0,0"
             style="fill:#211d1d;fill-opacity:1;fill-rule:nonzero;stroke:none"
             id="path3592" />
        </g>
        <g
           id="g3594"
           transform="translate(126.0181,239.6035)">
          <path
             inkscape:connector-curvature="0"
             d="m 0,0 c -0.587,0 -1.064,0.476 -1.064,1.064 l 0,3.9 -5.421,0 0,-3.9 C -6.485,0.476 -6.961,0 -7.548,0 -8.136,0 -8.612,0.476 -8.612,1.064 l 0,4.963 c 0,0.588 0.476,1.064 1.064,1.064 l 7.548,0 c 0.587,0 1.064,-0.476 1.064,-1.064 l 0,-4.963 C 1.064,0.476 0.587,0 0,0"
             style="fill:#211d1d;fill-opacity:1;fill-rule:nonzero;stroke:none"
             id="path3596" />
        </g>
        <g
           id="g3598"
           transform="translate(135.3548,247.9099)">
          <path
             inkscape:connector-curvature="0"
             d="m 0,0 c -0.587,0 -1.064,0.476 -1.064,1.064 l 0,3.9 -5.421,0 0,-3.9 C -6.485,0.476 -6.961,0 -7.548,0 -8.136,0 -8.612,0.476 -8.612,1.064 l 0,4.963 c 0,0.588 0.476,1.064 1.064,1.064 l 7.548,0 c 0.587,0 1.064,-0.476 1.064,-1.064 l 0,-4.963 C 1.064,0.476 0.587,0 0,0"
             style="fill:#211d1d;fill-opacity:1;fill-rule:nonzero;stroke:none"
             id="path3600" />
        </g>
      </g>
    </g>
    <g
       transform="matrix(2.9644012,0,0,-2.9644012,79.153792,1279.9784)"
       id="g3602">
      <g
         id="g3604"
         clip-path="url(#clipPath3606)">
        <g
           id="g3610"
           transform="translate(131.2456,260.0996)">
          <path
             inkscape:connector-curvature="0"
             d="m 0,0 c -0.524,0 -0.98,0.387 -1.052,0.921 l -0.667,4.918 c -0.079,0.582 0.328,1.118 0.911,1.197 l 7.48,1.015 C 6.953,8.086 7.235,8.014 7.459,7.843 7.683,7.672 7.831,7.419 7.869,7.139 L 8.535,2.22 C 8.615,1.638 8.207,1.102 7.624,1.023 7.047,0.939 6.507,1.352 6.428,1.935 L 5.904,5.8 0.531,5.07 1.056,1.206 C 1.135,0.625 0.727,0.089 0.144,0.01 0.096,0.003 0.048,0 0,0"
             style="fill:#211d1d;fill-opacity:1;fill-rule:nonzero;stroke:none"
             id="path3612" />
        </g>
        <g
           id="g3614"
           transform="translate(146.6352,253.0744)">
          <path
             inkscape:connector-curvature="0"
             d="M 0,0 C -0.524,0 -0.98,0.387 -1.052,0.921 L -1.719,5.84 c -0.079,0.581 0.329,1.117 0.911,1.196 L 6.673,8.051 C 6.949,8.086 7.235,8.014 7.459,7.843 7.683,7.672 7.831,7.419 7.869,7.139 L 8.536,2.221 C 8.615,1.639 8.207,1.103 7.624,1.024 7.044,0.939 6.506,1.353 6.428,1.935 L 5.904,5.8 0.532,5.071 1.056,1.206 C 1.135,0.625 0.727,0.089 0.145,0.01 0.096,0.003 0.048,0 0,0"
             style="fill:#211d1d;fill-opacity:1;fill-rule:nonzero;stroke:none"
             id="path3616" />
        </g>
      </g>
    </g>
    <g
       transform="matrix(2.9644012,0,0,-2.9644012,79.153792,1279.9784)"
       id="g3618">
      <g
         id="g3620"
         clip-path="url(#clipPath3622)">
        <g
           id="g3626"
           transform="translate(80.309,301.062)">
          <path
             inkscape:connector-curvature="0"
             d="m 0,0 0,2.548 1.014,1.014 0,-2.541 L 0,0 z m -24.567,-22.02 0.748,0.749 0,-2.557 c 0,-0.04 0.015,-0.075 0.023,-0.112 l -0.732,-0.737 0,2.385 c 0,0.095 -0.016,0.185 -0.039,0.272 m -6.016,0.792 0.704,0.709 5.308,0 -0.748,-0.749 c -0.087,0.023 -0.178,0.04 -0.272,0.04 l -4.992,0 z m 28.724,21.916 0.795,0.796 0,-2.427 c 0,-0.038 0.014,-0.07 0.022,-0.105 l -0.817,-0.822 0,2.558 z m -1.902,-1.901 0.838,0.838 0,-2.472 c 0,-0.028 0.012,-0.052 0.015,-0.078 l -0.853,-0.859 0,2.571 z m -1.901,-1.901 0.837,0.837 0,-2.427 c 0,-0.044 0.016,-0.084 0.025,-0.125 l -0.862,-0.867 0,2.582 z m -1.901,-1.902 0.838,0.838 0,-2.509 c 0,-0.024 0.01,-0.043 0.013,-0.066 l -0.851,-0.856 0,2.593 z m -1.901,-1.901 0.837,0.838 0,-2.436 c 0,-0.048 0.015,-0.092 0.028,-0.136 l -0.865,-0.871 0,2.605 z m -1.902,-1.901 0.838,0.838 0,-2.391 c 0,-0.065 0.015,-0.126 0.038,-0.184 l -0.876,-0.88 0,2.617 z m -1.883,-1.883 0.82,0.819 0,-2.473 c 0,-0.044 0.015,-0.083 0.025,-0.124 l -0.845,-0.85 0,2.628 z m -1.901,-1.902 0.838,0.838 0,-2.556 c 0,-0.023 0.01,-0.042 0.013,-0.065 l -0.851,-0.856 0,2.639 z m -1.901,-1.9 0.837,0.837 0,-2.512 c 0,-0.039 0.015,-0.075 0.023,-0.111 l -0.86,-0.865 0,2.651 z m -1.902,-1.902 0.838,0.838 0,-2.594 c 0,-0.019 0.009,-0.035 0.011,-0.053 l -0.849,-0.854 0,2.663 z m -1.9,-1.901 0.837,0.837 0,-2.52 c 0,-0.043 0.015,-0.083 0.025,-0.123 l -0.862,-0.868 0,2.674 z m -1.064,-1.063 0,-2.476 c 0,-0.06 0.016,-0.116 0.035,-0.17 l -0.873,-0.878 0,2.686 0.838,0.838 z m 14.785,21.735 5.446,0 -0.841,-0.841 -5.441,0 0.836,0.841 z m -1.894,-1.905 5.435,0 -0.792,-0.792 -5.43,0 0.787,0.792 z m -1.844,-1.856 5.424,0 -0.92,-0.919 -5.418,0 0.914,0.919 z m -1.971,-1.983 5.411,0 -0.764,-0.764 -5.407,0 0.76,0.764 z m -1.817,-1.828 5.4,0 -0.792,-0.792 -5.396,0 0.788,0.792 z m -1.845,-1.856 5.389,0 -0.919,-0.92 -5.384,0 0.914,0.92 z m -1.972,-1.983 5.378,0 -0.903,-0.903 -5.372,0 0.897,0.903 z m -1.954,-1.967 5.365,0 -0.792,-0.793 -5.361,0 0.788,0.793 z m -1.845,-1.856 5.354,0 -0.92,-0.92 -5.348,0 0.914,0.92 z m -1.972,-1.984 5.343,0 -0.764,-0.763 -5.338,0 0.759,0.763 z m -1.816,-1.827 5.331,0 -0.793,-0.793 -5.326,0 0.788,0.793 z m -1.846,-1.857 5.321,0 -0.92,-0.919 -5.315,0 0.914,0.919 z m 22.55,22.687 5.457,0 -0.721,-0.721 -5.453,0 0.717,0.721 z M 2.078,6.278 C 2.021,6.278 1.967,6.27 1.913,6.261 1.859,6.27 1.805,6.278 1.748,6.278 l -7.549,0 c -0.283,0 -0.555,-0.113 -0.754,-0.314 l -27.339,-27.506 c -0.001,0 -0.001,-10e-4 -0.002,-0.002 -0.097,-0.098 -0.175,-0.216 -0.228,-0.346 -0.002,-0.006 -0.003,-0.011 -0.005,-0.017 -0.047,-0.119 -0.075,-0.249 -0.075,-0.385 l 0,-4.963 c 0,-0.588 0.477,-1.064 1.064,-1.064 0.587,0 1.064,0.476 1.064,1.064 l 0,3.9 5.421,0 0,-3.9 c 0,-0.431 0.26,-0.82 0.658,-0.984 0.131,-0.054 0.269,-0.08 0.406,-0.08 0.277,0 0.55,0.109 0.754,0.314 L 2.832,-0.168 c 0.198,0.199 0.31,0.469 0.31,0.75 l 0,4.632 c 0,0.588 -0.477,1.064 -1.064,1.064"
             style="fill:#211d1d;fill-opacity:1;fill-rule:nonzero;stroke:none"
             id="path3628" />
        </g>
        <g
           id="g3630"
           transform="translate(111.1514,297.4258)">
          <path
             inkscape:connector-curvature="0"
             d="m 0,0 0,2.548 1.014,1.015 0,-2.542 L 0,0 z m -24.567,-22.02 0.748,0.749 0,-2.557 c 0,-0.04 0.015,-0.075 0.023,-0.113 l -0.732,-0.736 0,2.385 c 0,0.095 -0.016,0.185 -0.039,0.272 m -6.016,0.792 0.704,0.709 5.308,0 -0.748,-0.749 c -0.087,0.023 -0.178,0.04 -0.272,0.04 l -4.992,0 z m 28.724,21.917 0.795,0.796 0,-2.427 c 0,-0.038 0.014,-0.071 0.022,-0.106 l -0.817,-0.822 0,2.559 z m -1.902,-1.902 0.838,0.838 0,-2.473 c 0,-0.027 0.012,-0.051 0.016,-0.077 l -0.854,-0.859 0,2.571 z m -1.901,-1.9 0.837,0.837 0,-2.428 c 0,-0.044 0.016,-0.083 0.025,-0.125 l -0.862,-0.867 0,2.583 z m -1.901,-1.902 0.838,0.838 0,-2.51 c 0,-0.024 0.01,-0.043 0.013,-0.066 l -0.851,-0.856 0,2.594 z m -1.901,-1.901 0.837,0.837 0,-2.436 c 0,-0.048 0.015,-0.092 0.028,-0.136 l -0.865,-0.871 0,2.606 z m -1.902,-1.901 0.838,0.838 0,-2.392 c 0,-0.065 0.016,-0.126 0.037,-0.183 l -0.875,-0.881 0,2.618 z m -1.883,-1.884 0.82,0.819 0,-2.473 c 0,-0.044 0.015,-0.083 0.025,-0.124 l -0.845,-0.85 0,2.628 z m -1.901,-1.901 0.838,0.837 0,-2.556 c 0,-0.023 0.01,-0.042 0.013,-0.065 l -0.851,-0.856 0,2.64 z m -1.901,-1.901 0.837,0.837 0,-2.511 c 0,-0.04 0.015,-0.075 0.023,-0.112 l -0.86,-0.865 0,2.651 z m -1.902,-1.902 0.838,0.838 0,-2.593 c 0,-0.019 0.009,-0.035 0.011,-0.054 l -0.849,-0.854 0,2.663 z m -1.9,-1.901 0.837,0.837 0,-2.519 c 0,-0.045 0.014,-0.084 0.025,-0.124 l -0.862,-0.868 0,2.674 z m -1.064,-1.063 0,-2.475 c 0,-0.061 0.016,-0.117 0.035,-0.171 l -0.873,-0.878 0,2.686 0.838,0.838 z m 14.784,21.735 5.447,0 -0.841,-0.84 -5.441,0 0.835,0.84 z m -1.893,-1.904 5.435,0 -0.792,-0.793 -5.431,0 0.788,0.793 z m -1.845,-1.857 5.424,0 -0.92,-0.919 -5.418,0 0.914,0.919 z m -1.971,-1.983 5.412,0 -0.763,-0.764 -5.408,0 0.759,0.764 z m -1.816,-1.827 5.401,0 -0.794,-0.793 -5.396,0 0.789,0.793 z m -1.845,-1.857 5.389,0 -0.92,-0.92 -5.383,0 0.914,0.92 z m -1.972,-1.983 5.377,0 -0.903,-0.903 -5.371,0 0.897,0.903 z m -1.955,-1.967 5.366,0 -0.793,-0.793 -5.361,0 0.788,0.793 z m -1.844,-1.856 5.354,0 -0.92,-0.92 -5.348,0 0.914,0.92 z m -1.972,-1.984 5.343,0 -0.764,-0.763 -5.338,0 0.759,0.763 z m -1.816,-1.827 5.331,0 -0.793,-0.793 -5.326,0 0.788,0.793 z m -1.845,-1.857 5.32,0 -0.92,-0.919 -5.314,0 0.914,0.919 z m 22.549,22.687 5.457,0 -0.722,-0.721 -5.453,0 0.718,0.721 z M 2.078,6.279 C 2.021,6.279 1.967,6.27 1.913,6.262 1.859,6.27 1.805,6.279 1.748,6.279 l -7.549,0 c -0.283,0 -0.555,-0.113 -0.754,-0.314 l -27.339,-27.507 c -0.001,0 -0.001,-10e-4 -0.002,-0.002 -0.097,-0.098 -0.175,-0.216 -0.228,-0.346 -0.002,-0.006 -0.003,-0.011 -0.006,-0.017 -0.046,-0.119 -0.074,-0.249 -0.074,-0.385 l 0,-4.963 c 0,-0.588 0.477,-1.064 1.064,-1.064 0.587,0 1.063,0.476 1.063,1.064 l 0,3.9 5.422,0 0,-3.9 c 0,-0.431 0.26,-0.82 0.658,-0.984 0.131,-0.054 0.269,-0.08 0.406,-0.08 0.277,0 0.55,0.109 0.754,0.314 L 2.832,-0.168 c 0.198,0.199 0.31,0.469 0.31,0.75 l 0,4.633 c 0,0.587 -0.477,1.064 -1.064,1.064"
             style="fill:#211d1d;fill-opacity:1;fill-rule:nonzero;stroke:none"
             id="path3632" />
        </g>
      </g>
    </g>
  </g>
</svg>
