<?xml version="1.0" encoding="UTF-8" standalone="no"?>
<!-- Created with Inkscape (http://www.inkscape.org/) -->

<svg
   xmlns:dc="http://purl.org/dc/elements/1.1/"
   xmlns:cc="http://creativecommons.org/ns#"
   xmlns:rdf="http://www.w3.org/1999/02/22-rdf-syntax-ns#"
   xmlns:svg="http://www.w3.org/2000/svg"
   xmlns="http://www.w3.org/2000/svg"
   xmlns:sodipodi="http://sodipodi.sourceforge.net/DTD/sodipodi-0.dtd"
   xmlns:inkscape="http://www.inkscape.org/namespaces/inkscape"
   width="144.39999"
   height="104.25536"
   id="svg20880"
   version="1.1"
   inkscape:version="0.48.4 r9939"
   sodipodi:docname="Concrete_block.svg"
   inkscape:export-filename="/home/andygunn/communitytechnology.github.io/assets/Basic-Elements/Hardware/Concrete_block.png"
   inkscape:export-xdpi="200.89"
   inkscape:export-ydpi="200.89">
  <defs
     id="defs20882">
    <clipPath
       clipPathUnits="userSpaceOnUse"
       id="clipPath6220">
      <path
         inkscape:connector-curvature="0"
         d="m 36,68.2 131.68,0 0,73.8 L 36,142 36,68.2 z"
         id="path6222" />
    </clipPath>
  </defs>
  <sodipodi:namedview
     id="base"
     pagecolor="#ffffff"
     bordercolor="#666666"
     borderopacity="1.0"
     inkscape:pageopacity="0.0"
     inkscape:pageshadow="2"
     inkscape:zoom="2.8284271"
     inkscape:cx="31.121362"
     inkscape:cy="46.828746"
     inkscape:document-units="px"
     inkscape:current-layer="layer1"
     showgrid="false"
     fit-margin-top="5"
     fit-margin-left="5"
     fit-margin-right="5"
     fit-margin-bottom="5"
     inkscape:window-width="1920"
     inkscape:window-height="1028"
     inkscape:window-x="0"
     inkscape:window-y="0"
     inkscape:window-maximized="1" />
  <metadata
     id="metadata20885">
    <rdf:RDF>
      <cc:Work
         rdf:about="">
        <dc:format>image/svg+xml</dc:format>
        <dc:type
           rdf:resource="http://purl.org/dc/dcmitype/StillImage" />
        <dc:title></dc:title>
      </cc:Work>
    </rdf:RDF>
  </metadata>
  <g
     inkscape:label="Layer 1"
     inkscape:groupmode="layer"
     id="layer1"
     transform="translate(-318.29999,-474.93558)">
    <g
       id="g21413">
      <path
         sodipodi:nodetypes="cccccccc"
         transform="translate(318.29999,474.93558)"
         inkscape:connector-curvature="0"
         id="path21411"
         d="M 9.7667378,36.566967 38.404562,11.111122 c 31.174369,-1.5878463 63.983688,-2.244004 95.105868,-0.707106 -0.87714,18.097972 -0.8434,38.14657 0.6799,56.146818 l -27.54996,27.645336 -40.481867,-0.707107 -57.098872,0 z"
         style="fill:#a8a8a8;fill-opacity:1;fill-rule:nonzero;stroke:none" />
      <g
         id="g6216"
         transform="matrix(2.8282828,0,0,-2.8282828,101.33636,827.86527)">
        <g
           clip-path="url(#clipPath6220)"
           id="g6218">
          <path
             id="path6224"
             style="fill:#211d1d;fill-opacity:1;fill-rule:nonzero;stroke:none"
             d="m 123.342,102.572 -31.985,0 0,17.788 31.985,0 0,-17.788 z m -42.204,8.344 7.561,7.564 0,-16.196 -7.561,-8.382 0,17.014 z m 32.764,-18.566 -30.584,0 6.824,7.565 31.322,0 -7.562,-7.565 z m 10.769,30.668 -34.643,0 c -0.171,0 -0.334,-0.036 -0.484,-0.094 -0.007,-0.003 -0.014,-0.004 -0.021,-0.006 -0.164,-0.068 -0.311,-0.167 -0.434,-0.289 l -10.22,-10.223 c -0.123,-0.123 -0.221,-0.271 -0.289,-0.435 -0.002,-0.006 -0.003,-0.013 -0.006,-0.02 -0.058,-0.151 -0.094,-0.313 -0.094,-0.485 l 0,-20.445 c 0,-0.734 0.595,-1.329 1.329,-1.329 l 34.643,0 c 0.171,0 0.334,0.035 0.484,0.094 0.007,0.003 0.014,0.004 0.021,0.006 0.164,0.068 0.311,0.166 0.434,0.289 l 10.22,10.223 c 0.123,0.123 0.221,0.271 0.289,0.434 0.002,0.007 0.003,0.014 0.006,0.021 0.059,0.151 0.094,0.313 0.094,0.485 l 0,20.445 c 0,0.734 -0.595,1.329 -1.329,1.329"
             inkscape:connector-curvature="0" />
        </g>
      </g>
    </g>
  </g>
</svg>
