<?xml version="1.0" encoding="UTF-8" standalone="no"?>
<!-- Created with Inkscape (http://www.inkscape.org/) -->

<svg
   xmlns:dc="http://purl.org/dc/elements/1.1/"
   xmlns:cc="http://creativecommons.org/ns#"
   xmlns:rdf="http://www.w3.org/1999/02/22-rdf-syntax-ns#"
   xmlns:svg="http://www.w3.org/2000/svg"
   xmlns="http://www.w3.org/2000/svg"
   xmlns:sodipodi="http://sodipodi.sourceforge.net/DTD/sodipodi-0.dtd"
   xmlns:inkscape="http://www.inkscape.org/namespaces/inkscape"
   width="259.40445"
   height="171.36447"
   id="svg4207"
   version="1.1"
   inkscape:version="0.48.4 r9939"
   sodipodi:docname="Ethernet_Spools.svg"
   inkscape:export-filename="/home/andygunn/communitytechnology.github.io/assets/Basic-Elements/Hardware/Ethernet_Spools.png"
   inkscape:export-xdpi="150.37"
   inkscape:export-ydpi="150.37">
  <defs
     id="defs4209" />
  <sodipodi:namedview
     id="base"
     pagecolor="#ffffff"
     bordercolor="#666666"
     borderopacity="1.0"
     inkscape:pageopacity="0.0"
     inkscape:pageshadow="2"
     inkscape:zoom="1"
     inkscape:cx="129.70223"
     inkscape:cy="85.682238"
     inkscape:document-units="px"
     inkscape:current-layer="layer1"
     showgrid="false"
     fit-margin-top="10"
     fit-margin-left="10"
     fit-margin-right="10"
     fit-margin-bottom="10"
     inkscape:window-width="1920"
     inkscape:window-height="1028"
     inkscape:window-x="0"
     inkscape:window-y="0"
     inkscape:window-maximized="1" />
  <metadata
     id="metadata4212">
    <rdf:RDF>
      <cc:Work
         rdf:about="">
        <dc:format>image/svg+xml</dc:format>
        <dc:type
           rdf:resource="http://purl.org/dc/dcmitype/StillImage" />
        <dc:title></dc:title>
      </cc:Work>
    </rdf:RDF>
  </metadata>
  <g
     inkscape:label="Layer 1"
     inkscape:groupmode="layer"
     id="layer1"
     transform="translate(-245.29778,-446.67995)">
    <g
       id="g938"
       transform="matrix(2.4025871,0,0,-2.4025871,268.85077,537.72402)">
      <path
         d="m 0,0 c 2.667,-2.128 7.813,-3.542 13.857,-3.542 6.045,0 11.192,1.414 13.858,3.542 l 0,-0.216 c 0,-0.192 -0.06,-0.392 -0.149,-0.595 -0.471,-0.566 -3.105,-3.343 -9.784,-4.148 -0.17,-0.019 -0.34,-0.038 -0.513,-0.055 C 17,-5.041 16.718,-5.062 16.437,-5.083 16.148,-5.104 15.86,-5.125 15.563,-5.139 15.234,-5.154 14.89,-5.161 14.545,-5.166 14.316,-5.17 14.094,-5.18 13.86,-5.18 6.269,-5.154 2.353,-2.911 0.739,-1.643 0.262,-1.154 0,-0.666 0,-0.216 L 0,0 z M 0,3.042 C 2.667,0.914 7.813,-0.5 13.857,-0.5 c 6.045,0 11.192,1.414 13.858,3.542 l 0,-1.254 C 25.975,-0.359 20.842,-2.24 13.857,-2.24 6.873,-2.24 1.741,-0.359 0,1.788 L 0,3.042 z M 0,6.083 C 2.667,3.955 7.813,2.541 13.857,2.541 c 6.045,0 11.192,1.414 13.858,3.542 l 0,-1.253 C 25.975,2.683 20.842,0.802 13.857,0.802 6.873,0.802 1.741,2.683 0,4.83 L 0,6.083 z M 0,9.12 C 2.642,7.032 7.734,5.675 13.857,5.675 c 6.124,0 11.217,1.357 13.858,3.445 l 0,-1.248 C 25.975,5.724 20.842,3.843 13.857,3.843 6.873,3.843 1.741,5.724 0,7.872 L 0,9.12 z m 0,3.195 c 2.835,-2.02 8.358,-2.958 13.857,-2.958 5.499,0 11.023,0.938 13.858,2.958 l 0,-1.375 C 25.975,8.827 20.842,6.977 13.857,6.977 6.873,6.977 1.741,8.827 0,10.94 l 0,1.375 z m 0,3.055 c 2.937,-2.042 8.701,-2.836 13.857,-2.836 5.157,0 10.92,0.794 13.858,2.836 l 0,-1.331 c -1.798,-2.002 -7.16,-3.38 -13.858,-3.38 -6.697,0 -12.058,1.378 -13.857,3.38 l 0,1.331 z m 0,3.215 c 3.481,-1.562 8.33,-2.501 13.857,-2.501 5.528,0 10.377,0.939 13.858,2.501 l 0,-1.491 C 25.936,15.141 20.651,13.836 13.857,13.836 7.063,13.836 1.779,15.141 0,17.094 l 0,1.491 z M 30.252,-0.87 c 0.036,0.216 0.067,0.433 0.067,0.654 l 0,19.88 c 0,0.123 -0.022,0.24 -0.055,0.353 1.963,1.383 3.092,3.052 3.092,4.89 0,5.031 -8.383,8.825 -19.499,8.825 -11.115,0 -19.498,-3.794 -19.498,-8.825 0,-1.829 1.12,-3.491 3.064,-4.87 -0.017,-0.085 -0.027,-0.174 -0.027,-0.265 l 0,-19.988 c 0,-0.221 0.031,-0.436 0.067,-0.651 -2.543,-1.768 -3.104,-3.622 -3.104,-4.906 0,-5.03 8.383,-8.824 19.498,-8.824 11.116,0 19.499,3.794 19.499,8.824 0,1.295 -0.57,3.143 -3.104,4.903"
         style="fill:#100f0d;fill-opacity:1;fill-rule:nonzero;stroke:none"
         id="path940"
         inkscape:connector-curvature="0" />
    </g>
    <g
       id="g942"
       transform="matrix(2.4025871,0,0,-2.4025871,456.05421,550.77155)">
      <path
         d="M 0,0 C -0.268,-0.027 -0.549,-0.048 -0.831,-0.069 -1.12,-0.089 -1.409,-0.111 -1.707,-0.125 -2.034,-0.139 -2.376,-0.146 -2.72,-0.152 -2.951,-0.156 -3.173,-0.166 -3.409,-0.166 -11,-0.14 -14.916,2.102 -16.531,3.371 c -0.476,0.489 -0.738,0.978 -0.738,1.427 l 0,0.216 c 2.666,-2.128 7.813,-3.542 13.858,-3.542 6.044,0 11.19,1.414 13.856,3.542 l 0,-0.216 C 10.445,4.607 10.386,4.407 10.298,4.205 9.831,3.643 7.199,0.861 0.513,0.056 0.343,0.036 0.174,0.017 0,0 m -17.269,8.056 c 2.666,-2.128 7.813,-3.542 13.858,-3.542 6.044,0 11.19,1.414 13.856,3.542 l 0,-1.253 C 8.705,4.655 3.573,2.774 -3.411,2.774 c -6.985,0 -12.118,1.881 -13.858,4.029 l 0,1.253 z m 0,3.042 c 2.666,-2.128 7.813,-3.543 13.858,-3.543 6.044,0 11.19,1.415 13.856,3.543 l 0,-1.253 C 8.705,7.697 3.573,5.816 -3.411,5.816 c -6.985,0 -12.118,1.881 -13.858,4.029 l 0,1.253 z m 0,3.036 c 2.641,-2.088 7.734,-3.444 13.858,-3.444 6.122,0 11.215,1.356 13.856,3.444 l 0,-1.247 c -1.74,-2.148 -6.872,-4.03 -13.856,-4.03 -6.985,0 -12.118,1.882 -13.858,4.03 l 0,1.247 z m 0,3.196 c 2.835,-2.02 8.359,-2.958 13.858,-2.958 5.498,0 11.022,0.937 13.856,2.958 l 0,-1.376 c -1.74,-2.112 -6.872,-3.962 -13.856,-3.962 -6.985,0 -12.118,1.85 -13.858,3.962 l 0,1.376 z m 0,3.054 c 2.937,-2.042 8.701,-2.836 13.858,-2.836 5.156,0 10.919,0.794 13.856,2.836 l 0,-1.331 C 8.647,17.051 3.286,15.674 -3.411,15.674 c -6.698,0 -12.06,1.377 -13.858,3.379 l 0,1.331 z m 0,3.215 c 3.481,-1.562 8.33,-2.501 13.858,-2.501 5.527,0 10.376,0.939 13.856,2.501 l 0,-1.491 C 8.667,20.155 3.382,18.85 -3.411,18.85 c -6.795,0 -12.079,1.305 -13.858,3.258 l 0,1.491 z M 12.982,4.144 c 0.037,0.216 0.067,0.433 0.067,0.654 l 0,19.88 c 0,0.124 -0.021,0.24 -0.054,0.353 1.963,1.383 3.091,3.053 3.091,4.89 0,5.032 -8.381,8.826 -19.497,8.826 -11.116,0 -19.499,-3.794 -19.499,-8.826 0,-1.828 1.119,-3.49 3.064,-4.869 -0.017,-0.086 -0.027,-0.174 -0.027,-0.265 l 0,-19.989 c 0,-0.22 0.03,-0.436 0.067,-0.651 -2.543,-1.768 -3.104,-3.621 -3.104,-4.906 0,-5.03 8.383,-8.824 19.499,-8.824 2.632,0 5.103,0.219 7.352,0.61 -5.806,-7.672 -15.659,-15.529 -30.951,-13.116 -0.356,0.057 -0.688,-0.187 -0.744,-0.542 -0.057,-0.355 0.186,-0.688 0.541,-0.744 2.004,-0.317 3.913,-0.463 5.739,-0.463 13.401,0 22.106,7.938 27.286,15.241 6.211,1.442 10.274,4.339 10.274,7.838 0,1.295 -0.57,3.143 -3.104,4.903"
         style="fill:#100f0d;fill-opacity:1;fill-rule:nonzero;stroke:none"
         id="path944"
         inkscape:connector-curvature="0" />
    </g>
  </g>
</svg>
