<?xml version="1.0" encoding="UTF-8" standalone="no"?>
<!-- Created with Inkscape (http://www.inkscape.org/) -->

<svg
   xmlns:dc="http://purl.org/dc/elements/1.1/"
   xmlns:cc="http://creativecommons.org/ns#"
   xmlns:rdf="http://www.w3.org/1999/02/22-rdf-syntax-ns#"
   xmlns:svg="http://www.w3.org/2000/svg"
   xmlns="http://www.w3.org/2000/svg"
   xmlns:sodipodi="http://sodipodi.sourceforge.net/DTD/sodipodi-0.dtd"
   xmlns:inkscape="http://www.inkscape.org/namespaces/inkscape"
   id="svg2"
   version="1.1"
   inkscape:version="0.48.4 r9939"
   width="110.11209"
   height="103.57037"
   xml:space="preserve"
   sodipodi:docname="RJ45_ends.svg"
   inkscape:export-filename="/home/andygunn/communitytechnology.github.io/assets/Basic-Elements/Hardware/RJ45_ends.png"
   inkscape:export-xdpi="299.63"
   inkscape:export-ydpi="299.63"><metadata
     id="metadata8"><rdf:RDF><cc:Work
         rdf:about=""><dc:format>image/svg+xml</dc:format><dc:type
           rdf:resource="http://purl.org/dc/dcmitype/StillImage" /><dc:title></dc:title></cc:Work></rdf:RDF></metadata><defs
     id="defs6"><clipPath
       clipPathUnits="userSpaceOnUse"
       id="clipPath18"><path
         d="M 0,792 612,792 612,0 0,0 0,792 z"
         id="path20"
         inkscape:connector-curvature="0" /></clipPath><clipPath
       clipPathUnits="userSpaceOnUse"
       id="clipPath56"><path
         d="M 0,792 612,792 612,0 0,0 0,792 z"
         id="path58"
         inkscape:connector-curvature="0" /></clipPath><clipPath
       clipPathUnits="userSpaceOnUse"
       id="clipPath764"><path
         d="m 60.155,472.06 69.989,0 0,66.345 -69.989,0 0,-66.345 z"
         id="path766"
         inkscape:connector-curvature="0" /></clipPath><clipPath
       clipPathUnits="userSpaceOnUse"
       id="clipPath778"><path
         d="m 36.4,393.12 131.681,0 0,76.32 -131.681,0 0,-76.32 z"
         id="path780"
         inkscape:connector-curvature="0" /></clipPath><clipPath
       clipPathUnits="userSpaceOnUse"
       id="clipPath790"><path
         d="m 36.8,315.8 131.68,0 0,76.32 -131.68,0 0,-76.32 z"
         id="path792"
         inkscape:connector-curvature="0" /></clipPath><clipPath
       clipPathUnits="userSpaceOnUse"
       id="clipPath840"><path
         d="M 69.28,123.822 103.922,95.77 127.967,125.464 93.326,153.516 69.28,123.822 z"
         id="path842"
         inkscape:connector-curvature="0" /></clipPath><clipPath
       clipPathUnits="userSpaceOnUse"
       id="clipPath868"><path
         d="m 36,239.48 132.48,0 0,76.32 -132.48,0 0,-76.32 z"
         id="path870"
         inkscape:connector-curvature="0" /></clipPath><clipPath
       clipPathUnits="userSpaceOnUse"
       id="clipPath934"><path
         d="m 54.72,168.729 65.071,0 0,62.585 -65.071,0 0,-62.585 z"
         id="path936"
         inkscape:connector-curvature="0" /></clipPath></defs><sodipodi:namedview
     pagecolor="#ffffff"
     bordercolor="#666666"
     borderopacity="1"
     objecttolerance="10"
     gridtolerance="10"
     guidetolerance="10"
     inkscape:pageopacity="0"
     inkscape:pageshadow="2"
     inkscape:window-width="1920"
     inkscape:window-height="1028"
     id="namedview4"
     showgrid="false"
     fit-margin-top="10"
     fit-margin-left="10"
     fit-margin-right="10"
     fit-margin-bottom="10"
     inkscape:zoom="1"
     inkscape:cx="254.73285"
     inkscape:cy="-78.232636"
     inkscape:window-x="0"
     inkscape:window-y="0"
     inkscape:window-maximized="1"
     inkscape:current-layer="g10" /><g
     id="g10"
     inkscape:groupmode="layer"
     inkscape:label="CCK - Gather tools and wireless equipment"
     transform="matrix(1.25,0,0,-1.25,-56.156978,970.08728)"><g
       id="g864"
       transform="matrix(1.7567735,0,0,1.7567735,-90.64776,246.53677)"><g
         id="g866"
         clip-path="url(#clipPath868)"><g
           id="g872"
           transform="matrix(0.3164947,0.0016572,0.0017765,-0.3392881,81.694504,296.73145)"><g
             id="g874"
             transform="translate(12.2412,43.8242)"><path
               d="m 0,0 -4.243,4.243 c -0.195,0.196 -0.195,0.512 0,0.707 0.098,0.098 0.226,0.147 0.354,0.147 0.128,0 0.256,-0.049 0.353,-0.147 L 0.707,0.707 C 0.902,0.512 0.902,0.195 0.707,0 0.512,-0.195 0.195,-0.195 0,0"
               style="fill:#100f0d;fill-opacity:1;fill-rule:nonzero;stroke:none"
               id="path876"
               inkscape:connector-curvature="0" /></g></g><g
           id="g878"
           transform="matrix(0.3164947,0.0016572,0.0017765,-0.3392881,81.694504,296.73145)"><g
             id="g880"
             transform="translate(82,40)"><path
               d="M 0,0 -20.582,0 C -20.725,0 -20.865,0.021 -21,0.06 l 0,-35.471 c 0.07,-0.066 0.139,-0.134 0.196,-0.213 L -19.813,-37 0,-37 0,0 z M -8.553,11 -75,11 -75,0.5 c 0,-0.828 -0.671,-1.5 -1.5,-1.5 l -2.5,0 0,-20 2.5,0 c 0.829,0 1.5,-0.672 1.5,-1.5 l 0,-6.381 7.319,-5.652 10e-4,37.821 c 0,0.828 0.671,1.5 1.5,1.5 l 44.499,0 c 0.829,0 1.5,-0.672 1.5,-1.5 0,-0.035 -0.007,-0.067 -0.01,-0.101 L -19.991,3 -1.844,3 -8.553,11 z M -24,-35 l 0,36.788 -40.68,0 L -64.681,-35 -24,-35 z m 25.5,-5 -22.082,0 c -0.482,0 -0.936,0.232 -1.217,0.624 l -0.991,1.376 -42.691,0 -1.399,0 -0.708,0 c -0.332,0 -0.655,0.11 -0.917,0.312 l -8.912,6.883 c -0.368,0.285 -0.583,0.723 -0.583,1.188 l 0,5.617 -2.5,0 c -0.829,0 -1.5,0.672 -1.5,1.5 l 0,23 c 0,0.828 0.671,1.5 1.5,1.5 l 2.5,0 0,10.5 c 0,0.828 0.671,1.5 1.5,1.5 l 68.646,0 c 0.444,0 0.865,-0.196 1.15,-0.536 L 2.649,2.312 C 2.876,2.041 3,1.7 3,1.348 L 3,-38.5 C 3,-39.328 2.329,-40 1.5,-40"
               style="fill:#100f0d;fill-opacity:1;fill-rule:nonzero;stroke:none"
               id="path882"
               inkscape:connector-curvature="0" /></g></g><g
           id="g884"
           transform="matrix(0.3164947,0.0016572,0.0017765,-0.3392881,81.694504,296.73145)"><g
             id="g886"
             transform="translate(25.8237,12.2207)"><path
               d="m 0,0 2.492,0 0,22.666 -2.493,0 L 0,0 z m -1.501,25.666 5.493,0 c 0.828,0 1.5,-0.672 1.5,-1.5 l 0,-25.666 C 5.492,-1.897 5.334,-2.279 5.053,-2.561 4.771,-2.842 4.39,-3 3.992,-3 L -1.5,-3 C -2.329,-3 -3,-2.328 -3,-1.5 l -10e-4,25.666 c 0,0.398 0.159,0.779 0.44,1.061 0.281,0.281 0.663,0.439 1.06,0.439"
               style="fill:#100f0d;fill-opacity:1;fill-rule:nonzero;stroke:none"
               id="path888"
               inkscape:connector-curvature="0" /></g></g><g
           id="g890"
           transform="matrix(0.3164947,0.0016572,0.0017765,-0.3392881,81.694504,296.73145)"><g
             id="g892"
             transform="translate(37.9507,12.2207)"><path
               d="m 0,0 12.492,-0.001 0,22.668 L 0,22.666 0,0 z m -1.5,25.666 15.492,0.001 c 0.398,0 0.779,-0.158 1.061,-0.439 0.281,-0.282 0.439,-0.663 0.439,-1.061 l 0,-25.668 c 0,-0.397 -0.158,-0.779 -0.439,-1.06 -0.282,-0.282 -0.663,-0.44 -1.061,-0.44 L -1.5,-3 C -2.329,-3 -3,-2.328 -3,-1.5 l 0,25.666 c 0,0.828 0.671,1.5 1.5,1.5"
               style="fill:#100f0d;fill-opacity:1;fill-rule:nonzero;stroke:none"
               id="path894"
               inkscape:connector-curvature="0" /></g></g><g
           id="g896"
           transform="matrix(0.3164947,0.0016572,0.0017765,-0.3392881,81.694504,296.73145)"><g
             id="g898"
             transform="translate(75.2236,10.1943)"><path
               d="m 0,0 0,22.667 -5.492,0 L -5.492,0 0,0 z m -6.992,25.667 8.492,0 c 0.007,-0.001 0.014,-0.001 0.021,0 0.828,0 1.5,-0.672 1.5,-1.5 C 3.021,24.083 3.014,24.001 3,23.922 L 3,-1.5 C 3,-2.328 2.329,-3 1.5,-3 l -8.492,0 c -0.398,0 -0.779,0.158 -1.061,0.44 -0.281,0.281 -0.439,0.663 -0.439,1.06 l 0,25.667 c 0,0.828 0.672,1.5 1.5,1.5"
               style="fill:#100f0d;fill-opacity:1;fill-rule:nonzero;stroke:none"
               id="path900"
               inkscape:connector-curvature="0" /></g></g><g
           id="g902"
           transform="matrix(0.3164947,0.0016572,0.0017765,-0.3392881,81.694504,296.73145)"><g
             id="g904"
             transform="translate(56.4375,101.824)"><path
               d="m 0,0 -4.243,4.243 c -0.195,0.196 -0.195,0.512 0,0.707 0.098,0.098 0.226,0.147 0.354,0.147 0.128,0 0.256,-0.049 0.353,-0.147 L 0.707,0.707 C 0.902,0.512 0.902,0.196 0.707,0 0.512,-0.195 0.195,-0.195 0,0"
               style="fill:#100f0d;fill-opacity:1;fill-rule:nonzero;stroke:none"
               id="path906"
               inkscape:connector-curvature="0" /></g></g><g
           id="g908"
           transform="matrix(0.3164947,0.0016572,0.0017765,-0.3392881,81.694504,296.73145)"><g
             id="g910"
             transform="translate(126.196,98)"><path
               d="M 0,0 -20.582,0 C -20.724,0 -20.865,0.02 -21,0.06 l 0,-35.471 c 0.071,-0.066 0.139,-0.134 0.196,-0.213 L -19.813,-37 0,-37 0,0 z M -8.553,11 -75,11 -75,0.5 c 0,-0.828 -0.671,-1.5 -1.5,-1.5 l -2.5,0 0,-20 2.5,0 c 0.829,0 1.5,-0.672 1.5,-1.5 l 0,-6.381 7.32,-5.652 0,37.821 c 0,0.828 0.672,1.5 1.5,1.5 l 44.5,0 c 0.828,0 1.5,-0.672 1.5,-1.5 0,-0.035 -0.008,-0.067 -0.011,-0.101 l 0.2,-0.187 18.148,0 -6.71,8 z M -24,-35 l 0,36.788 -40.68,0 0,-36.788 40.68,0 z m 25.5,-5 -22.082,0 c -0.482,0 -0.935,0.232 -1.217,0.624 l -0.991,1.376 -42.691,0 -1.399,0 -0.708,0 c -0.332,0 -0.654,0.11 -0.917,0.312 l -8.912,6.883 c -0.367,0.284 -0.583,0.723 -0.583,1.188 l 0,5.617 -2.5,0 c -0.828,0 -1.5,0.672 -1.5,1.5 l 0,23 c 0,0.828 0.672,1.5 1.5,1.5 l 2.5,0 0,10.5 c 0,0.828 0.672,1.5 1.5,1.5 l 68.647,0 c 0.443,0 0.864,-0.196 1.149,-0.536 L 2.65,2.312 C 2.876,2.041 3,1.7 3,1.348 L 3,-38.5 C 3,-39.328 2.329,-40 1.5,-40"
               style="fill:#100f0d;fill-opacity:1;fill-rule:nonzero;stroke:none"
               id="path912"
               inkscape:connector-curvature="0" /></g></g><g
           id="g914"
           transform="matrix(0.3164947,0.0016572,0.0017765,-0.3392881,81.694504,296.73145)"><g
             id="g916"
             transform="translate(70.02,70.2207)"><path
               d="m 0,0 2.492,0 0,22.666 -2.493,0 L 0,0 z m -1.501,25.666 5.493,0 c 0.828,0 1.5,-0.672 1.5,-1.5 l 0,-25.666 C 5.492,-1.898 5.334,-2.279 5.053,-2.561 4.771,-2.842 4.39,-3 3.992,-3 L -1.5,-3 C -2.329,-3 -3,-2.328 -3,-1.5 l -10e-4,25.666 c 0,0.398 0.159,0.779 0.44,1.061 0.281,0.281 0.663,0.439 1.06,0.439"
               style="fill:#100f0d;fill-opacity:1;fill-rule:nonzero;stroke:none"
               id="path918"
               inkscape:connector-curvature="0" /></g></g><g
           id="g920"
           transform="matrix(0.3164947,0.0016572,0.0017765,-0.3392881,81.694504,296.73145)"><g
             id="g922"
             transform="translate(82.147,70.2207)"><path
               d="m 0,0 12.492,-0.001 0,22.668 L 0,22.666 0,0 z m -1.5,25.666 15.492,0.001 c 0.398,0 0.779,-0.158 1.061,-0.44 0.281,-0.281 0.439,-0.663 0.439,-1.06 l 0,-25.668 c 0,-0.397 -0.158,-0.779 -0.439,-1.061 -0.282,-0.281 -0.663,-0.439 -1.061,-0.439 L -1.5,-3 C -2.329,-3 -3,-2.328 -3,-1.5 l 0,25.666 c 0,0.828 0.671,1.5 1.5,1.5"
               style="fill:#100f0d;fill-opacity:1;fill-rule:nonzero;stroke:none"
               id="path924"
               inkscape:connector-curvature="0" /></g></g><g
           id="g926"
           transform="matrix(0.3164947,0.0016572,0.0017765,-0.3392881,81.694504,296.73145)"><path
             d="m 119.42,90.861 -5.492,0 0,-22.667 5.492,0 0,22.667 z m -6.992,3 8.492,0 c 0.007,-0.001 0.014,-0.001 0.02,0 0.829,0 1.5,-0.672 1.5,-1.5 0,-0.084 -0.006,-0.166 -0.02,-0.245 l 0,-25.422 c 0,-0.828 -0.671,-1.5 -1.5,-1.5 l -8.492,0 c -0.398,0 -0.78,0.159 -1.061,0.44 -0.281,0.281 -0.439,0.663 -0.439,1.06 l 0,25.667 c 0,0.828 0.672,1.5 1.5,1.5"
             style="fill:#100f0d;fill-opacity:1;fill-rule:nonzero;stroke:none"
             id="path928"
             inkscape:connector-curvature="0" /></g></g></g></g></svg>