<?xml version="1.0" encoding="UTF-8" standalone="no"?>
<!-- Created with Inkscape (http://www.inkscape.org/) -->

<svg
   xmlns:dc="http://purl.org/dc/elements/1.1/"
   xmlns:cc="http://creativecommons.org/ns#"
   xmlns:rdf="http://www.w3.org/1999/02/22-rdf-syntax-ns#"
   xmlns:svg="http://www.w3.org/2000/svg"
   xmlns="http://www.w3.org/2000/svg"
   xmlns:sodipodi="http://sodipodi.sourceforge.net/DTD/sodipodi-0.dtd"
   xmlns:inkscape="http://www.inkscape.org/namespaces/inkscape"
   width="221.42296"
   height="61.785309"
   id="svg3718"
   version="1.1"
   inkscape:version="0.48.4 r9939"
   sodipodi:docname="Screw.svg"
   inkscape:export-filename="/home/andygunn/communitytechnology.github.io/assets/Basic-Elements/Hardware/Screw.png"
   inkscape:export-xdpi="191.56"
   inkscape:export-ydpi="191.56">
  <defs
     id="defs3720">
    <clipPath
       clipPathUnits="userSpaceOnUse"
       id="clipPath3682">
      <path
         inkscape:connector-curvature="0"
         d="m 45.888,523.918 101.602,0 0,24.886 -101.602,0 0,-24.886 z"
         id="path3684" />
    </clipPath>
  </defs>
  <sodipodi:namedview
     id="base"
     pagecolor="#ffffff"
     bordercolor="#666666"
     borderopacity="1.0"
     inkscape:pageopacity="0.0"
     inkscape:pageshadow="2"
     inkscape:zoom="1"
     inkscape:cx="165.50087"
     inkscape:cy="-16.446297"
     inkscape:document-units="px"
     inkscape:current-layer="layer1"
     showgrid="false"
     fit-margin-top="5"
     fit-margin-left="5"
     fit-margin-right="5"
     fit-margin-bottom="5"
     inkscape:window-width="1920"
     inkscape:window-height="1028"
     inkscape:window-x="0"
     inkscape:window-y="0"
     inkscape:window-maximized="1" />
  <metadata
     id="metadata3723">
    <rdf:RDF>
      <cc:Work
         rdf:about="">
        <dc:format>image/svg+xml</dc:format>
        <dc:type
           rdf:resource="http://purl.org/dc/dcmitype/StillImage" />
        <dc:title></dc:title>
      </cc:Work>
    </rdf:RDF>
  </metadata>
  <g
     inkscape:label="Layer 1"
     inkscape:groupmode="layer"
     id="layer1"
     transform="translate(-209.49913,-454.13058)">
    <g
       transform="matrix(2.0809062,0,0,-2.0809062,119.00923,1601.1401)"
       id="g3678">
      <g
         id="g3680"
         clip-path="url(#clipPath3682)">
        <g
           id="g3686"
           transform="matrix(0.6131219,0,0,-0.6311641,306,6223)">
          <g
             id="g3688"
             transform="translate(-414.6637,9004.6807)">
            <path
               inkscape:connector-curvature="0"
               d="m 0,0 c 0,-0.553 -0.447,-1 -1,-1 -0.553,0 -1,0.447 -1,1 l 0,4.421 -2.247,0 c -0.553,0 -1,0.448 -1,1 0,0.553 0.447,1 1,1 l 2.247,0 0,3.961 c 0,0.552 0.447,1 1,1 0.553,0 1,-0.448 1,-1 l 0,-3.961 2.247,0 c 0.553,0 1,-0.447 1,-1 0,-0.552 -0.447,-1 -1,-1 L 0,4.421 0,0 z"
               style="fill:#211d1d;fill-opacity:1;fill-rule:nonzero;stroke:none"
               id="path3690" />
          </g>
        </g>
        <g
           id="g3692"
           transform="matrix(0.6131219,0,0,-0.6311641,306,6223)">
          <g
             id="g3694"
             transform="translate(-275.6359,9016.0078)">
            <path
               inkscape:connector-curvature="0"
               d="m 0,0 -0.209,0 c 0.177,-1.273 0.46,-2.829 0.917,-4.544 0.392,-1.478 0.909,-2.77 1.403,-3.81 L 12.018,-4.296 0,0 z m -2.193,-5.314 c -0.541,2.039 -0.857,3.858 -1.044,5.303 l -5.875,-0.02 c 0.207,-1.617 0.526,-3.545 1.019,-5.509 0.338,-1.341 0.712,-2.632 1.08,-3.809 l 6.232,0.098 c -0.505,1.111 -1.012,2.436 -1.412,3.937 m -8.809,-0.957 c -0.568,2.255 -0.918,4.447 -1.135,6.23 l -5.67,-0.02 c 0.181,-1.585 0.475,-3.473 0.962,-5.407 0.348,-1.382 0.746,-2.752 1.139,-4.017 l 5.569,0.087 c -0.295,0.988 -0.591,2.038 -0.865,3.127 m -8.752,0.071 c -0.559,2.223 -0.883,4.37 -1.073,6.13 l -6.572,-0.024 c 0.182,-1.579 0.476,-3.455 0.958,-5.375 0.362,-1.436 0.778,-2.861 1.187,-4.167 l 6.425,0.101 c -0.32,1.068 -0.637,2.193 -0.925,3.335 m -9.596,-10e-4 c -0.556,2.211 -0.879,4.345 -1.068,6.097 l -6.448,-0.022 c 0.183,-1.575 0.477,-3.439 0.956,-5.343 0.375,-1.49 0.808,-2.969 1.232,-4.316 l 6.299,0.099 c -0.336,1.113 -0.67,2.29 -0.971,3.485 m -9.469,0 c -0.553,2.197 -0.876,4.318 -1.066,6.065 l -6.574,-0.022 c 0.183,-1.566 0.476,-3.416 0.952,-5.31 0.389,-1.546 0.84,-3.081 1.28,-4.468 l 6.422,0.102 c -0.351,1.154 -0.699,2.386 -1.014,3.633 m -9.598,10e-4 c -0.548,2.182 -0.871,4.29 -1.061,6.031 l -6.572,-0.022 c 0.182,-1.559 0.474,-3.399 0.947,-5.278 0.403,-1.601 0.874,-3.191 1.328,-4.617 l 6.419,0.102 c -0.365,1.197 -0.732,2.482 -1.061,3.784 m -9.595,-10e-4 c -0.545,2.17 -0.866,4.264 -1.058,5.999 l -6.682,-0.023 c 0.183,-1.55 0.475,-3.378 0.945,-5.242 0.418,-1.661 0.907,-3.306 1.376,-4.771 l 6.526,0.103 c -0.381,1.24 -0.765,2.576 -1.107,3.934 m -9.705,0.002 c -0.542,2.155 -0.863,4.236 -1.055,5.964 l -6.571,-0.023 c 0.183,-1.547 0.475,-3.361 0.941,-5.211 0.432,-1.717 0.941,-3.418 1.423,-4.92 l 6.416,0.102 c -0.397,1.283 -0.799,2.673 -1.154,4.088 m -9.594,-0.002 c -0.539,2.142 -0.859,4.212 -1.053,5.932 l -6.57,-0.022 c 0.183,-1.539 0.474,-3.341 0.935,-5.176 0.448,-1.775 0.976,-3.535 1.473,-5.072 l 6.414,0.101 c -0.412,1.325 -0.83,2.768 -1.199,4.237 m -9.598,0.002 c -0.535,2.127 -0.853,4.183 -1.047,5.897 l -6.572,-0.021 c 0.184,-1.532 0.475,-3.323 0.934,-5.146 0.461,-1.832 1.009,-3.65 1.519,-5.22 l 6.414,0.101 c -0.427,1.365 -0.864,2.863 -1.248,4.389 m -9.594,-0.002 c -0.533,2.115 -0.852,4.158 -1.045,5.866 l -6.572,-0.021 c 0.184,-1.523 0.472,-3.298 0.928,-5.112 0.477,-1.891 1.047,-3.767 1.571,-5.372 l 6.411,0.102 c -0.442,1.403 -0.896,2.957 -1.293,4.537 m -9.598,10e-4 c -0.528,2.1 -0.846,4.131 -1.039,5.833 l -6.571,-0.023 c 0.183,-1.515 0.47,-3.279 0.923,-5.079 0.493,-1.951 1.082,-3.884 1.622,-5.52 l 6.408,0.1 c -0.457,1.443 -0.93,3.052 -1.343,4.689 m -9.596,-10e-4 c -0.524,2.087 -0.842,4.106 -1.035,5.801 l -8.2,-0.028 -0.005,0 c -0.346,0 -0.68,0.119 -0.948,0.337 l -6.645,5.227 c 0.969,-3.175 1.53,-7.072 1.53,-11.38 0,-4.07 -0.503,-7.769 -1.374,-10.842 0.002,0.002 0.008,0.006 0.01,0.008 l 6.453,5.512 c 0.266,0.226 0.602,0.353 0.952,0.359 l 10.653,0.168 c -0.472,1.48 -0.964,3.143 -1.391,4.838 m -24.106,17.144 c -2.968,0 -6.275,-7.058 -6.275,-17.187 0,-10.129 3.307,-17.188 6.275,-17.188 2.968,0 6.275,7.059 6.275,17.188 0,10.129 -3.307,17.187 -6.275,17.187 M 16.175,-5.835 3.602,-10.985 c 0.071,-0.104 0.116,-0.164 0.118,-0.167 0.5,-0.662 0.369,-1.602 -0.292,-2.102 -0.66,-0.499 -1.602,-0.368 -2.1,0.293 -0.028,0.036 -0.244,0.326 -0.561,0.825 -0.156,-0.055 -0.318,-0.096 -0.486,-0.099 l -6.301,-0.099 c 0.549,-1.552 0.947,-2.54 0.956,-2.561 0.312,-0.767 -0.057,-1.642 -0.824,-1.955 -0.768,-0.31 -1.643,0.057 -1.954,0.824 -0.042,0.103 -0.616,1.515 -1.339,3.642 l -5.544,-0.088 c 0.599,-1.735 1.047,-2.887 1.057,-2.91 0.3,-0.772 -0.081,-1.641 -0.852,-1.944 -0.768,-0.302 -1.641,0.08 -1.942,0.851 -0.045,0.115 -0.659,1.69 -1.417,3.954 l -6.389,-0.1 c 0.572,-1.652 0.995,-2.739 1.004,-2.762 0.302,-0.771 -0.078,-1.641 -0.85,-1.943 -0.77,-0.302 -1.641,0.077 -1.943,0.849 -0.044,0.114 -0.632,1.623 -1.367,3.805 l -6.264,-0.098 c 0.547,-1.568 0.943,-2.589 0.952,-2.612 0.302,-0.77 -0.078,-1.641 -0.849,-1.943 -0.77,-0.301 -1.642,0.077 -1.944,0.85 -0.043,0.11 -0.605,1.555 -1.316,3.656 l -6.386,-0.101 c 0.52,-1.486 0.892,-2.44 0.9,-2.462 0.301,-0.772 -0.08,-1.641 -0.851,-1.944 -0.768,-0.302 -1.641,0.08 -1.943,0.851 -0.042,0.107 -0.578,1.486 -1.265,3.505 l -6.384,-0.1 c 0.492,-1.397 0.84,-2.292 0.848,-2.313 0.302,-0.771 -0.078,-1.641 -0.85,-1.943 -0.769,-0.302 -1.642,0.077 -1.943,0.849 -0.041,0.106 -0.553,1.417 -1.215,3.357 l -6.492,-0.103 c 0.463,-1.306 0.786,-2.138 0.794,-2.159 0.301,-0.77 -0.078,-1.641 -0.85,-1.943 -0.768,-0.301 -1.642,0.077 -1.943,0.85 -0.04,0.102 -0.526,1.348 -1.163,3.203 l -6.379,-0.101 c 0.433,-1.221 0.732,-1.99 0.74,-2.009 0.302,-0.771 -0.078,-1.641 -0.85,-1.943 -0.768,-0.301 -1.641,0.077 -1.943,0.849 -0.039,0.099 -0.5,1.285 -1.111,3.053 l -6.379,-0.1 c 0.406,-1.135 0.68,-1.84 0.687,-1.859 0.302,-0.77 -0.078,-1.641 -0.849,-1.942 -0.77,-0.302 -1.642,0.076 -1.944,0.849 -0.037,0.096 -0.474,1.217 -1.058,2.902 l -6.379,-0.1 c 0.375,-1.044 0.626,-1.691 0.633,-1.709 0.301,-0.77 -0.079,-1.641 -0.85,-1.943 -0.77,-0.301 -1.642,0.077 -1.943,0.85 -0.037,0.093 -0.449,1.15 -1.006,2.752 l -6.375,-0.1 c 0.344,-0.954 0.572,-1.542 0.579,-1.559 0.301,-0.772 -0.08,-1.641 -0.852,-1.944 -0.767,-0.302 -1.64,0.08 -1.942,0.851 -0.035,0.09 -0.422,1.081 -0.954,2.602 l -6.372,-0.101 c 0.313,-0.866 0.518,-1.393 0.524,-1.409 0.302,-0.771 -0.078,-1.641 -0.849,-1.943 -0.771,-0.302 -1.642,0.077 -1.944,0.849 -0.034,0.088 -0.397,1.021 -0.901,2.454 l -11.068,-0.175 -11.603,-9.91 c -1.147,-1.18 -2.437,-1.851 -3.827,-1.851 -5.018,0 -8.802,8.476 -8.802,19.715 0,11.238 3.784,19.714 8.802,19.714 0.658,0 1.294,-0.154 1.904,-0.433 l 0.009,0.002 c 0.333,0 1.427,-0.635 1.705,-0.861 l 11.779,-9.605 7.421,0.027 c -0.047,0.893 -0.05,1.452 -0.05,1.517 0,0.828 0.671,1.501 1.5,1.501 0.828,0 1.5,-0.672 1.5,-1.5 0,-0.016 0.003,-0.583 0.056,-1.509 l 6.588,0.023 c -0.046,0.876 -0.048,1.42 -0.048,1.486 0,0.828 0.672,1.5 1.5,1.5 0.828,0 1.5,-0.672 1.5,-1.5 0,-0.016 0.003,-0.57 0.054,-1.475 l 6.588,0.022 c -0.044,0.857 -0.046,1.388 -0.046,1.453 0,0.827 0.671,1.499 1.499,1.499 l 10e-4,0 c 0.828,0 1.499,-0.671 1.5,-1.499 0,-0.015 0.003,-0.557 0.052,-1.442 l 6.587,0.022 c -0.042,0.839 -0.044,1.356 -0.044,1.419 0,0.828 0.671,1.5 1.499,1.5 l 10e-4,0 c 0.828,0 1.499,-0.67 1.5,-1.498 0,-0.015 0.003,-0.544 0.051,-1.41 l 6.587,0.022 c -0.041,0.818 -0.043,1.324 -0.043,1.386 0,0.828 0.671,1.5 1.499,1.5 l 10e-4,0 c 0.827,0 1.499,-0.67 1.5,-1.498 0,-0.015 0.003,-0.53 0.049,-1.378 l 6.588,0.023 c -0.039,0.797 -0.041,1.291 -0.041,1.353 -0.001,0.828 0.671,1.5 1.499,1.501 l 0.001,0 c 0.828,0 1.499,-0.671 1.5,-1.5 0,-0.014 0.002,-0.515 0.047,-1.345 l 6.699,0.024 c -0.037,0.776 -0.039,1.259 -0.039,1.32 0,0.828 0.671,1.501 1.5,1.501 0.828,0 1.5,-0.672 1.5,-1.5 0,-0.014 0.002,-0.501 0.044,-1.311 l 6.59,0.023 c -0.037,0.757 -0.038,1.228 -0.038,1.288 0,0.828 0.672,1.5 1.5,1.5 0.828,0 1.5,-0.672 1.5,-1.5 0,-0.015 0.002,-0.487 0.042,-1.278 l 6.589,0.023 c -0.034,0.737 -0.036,1.196 -0.036,1.255 0,0.827 0.671,1.499 1.499,1.499 l 10e-4,0 c 0.828,0 1.499,-0.671 1.5,-1.499 0,-0.014 0.002,-0.474 0.041,-1.245 l 6.465,0.023 c -0.033,0.716 -0.035,1.164 -0.035,1.221 0,0.828 0.671,1.501 1.5,1.501 0.828,0 1.5,-0.672 1.5,-1.5 0,-0.014 0.002,-0.462 0.039,-1.212 l 6.59,0.022 c -0.031,0.697 -0.033,1.133 -0.033,1.19 0,0.828 0.672,1.5 1.5,1.5 0.828,0 1.5,-0.672 1.5,-1.5 0,-0.014 0.002,-0.45 0.037,-1.18 l 5.634,0.02 c -0.044,0.653 -0.058,1.061 -0.059,1.116 -0.024,0.828 0.628,1.52 1.455,1.543 0.016,0.001 0.03,0.001 0.045,0.001 0.809,0 1.475,-0.643 1.498,-1.457 10e-4,-0.014 0.015,-0.456 0.067,-1.192 l 5.919,0.02 c -0.007,0.23 -0.008,0.371 -0.008,0.398 0,0.828 0.67,1.499 1.499,1.499 l 10e-4,0 c 0.827,0 1.498,-0.671 1.5,-1.497 0,-0.008 0.001,-0.145 0.011,-0.39 l 0.746,0.003 0.005,0 c 0.172,0 0.343,-0.03 0.505,-0.088 l 15.348,-5.487 c 0.596,-0.212 0.994,-0.777 0.995,-1.408 l 10e-4,-0.463 c 0.001,-0.61 -0.367,-1.16 -0.932,-1.391"
               style="fill:#211d1d;fill-opacity:1;fill-rule:nonzero;stroke:none"
               id="path3696" />
          </g>
        </g>
      </g>
    </g>
  </g>
</svg>
