<?xml version="1.0" encoding="utf-8"?>
<!-- Generator: Adobe Illustrator 15.1.0, SVG Export Plug-In . SVG Version: 6.00 Build 0)  -->
<!DOCTYPE svg PUBLIC "-//W3C//DTD SVG 1.1//EN" "http://www.w3.org/Graphics/SVG/1.1/DTD/svg11.dtd">
<svg version="1.1" id="Layer_1" xmlns="http://www.w3.org/2000/svg" xmlns:xlink="http://www.w3.org/1999/xlink" x="0px" y="0px"
	 width="95.117px" height="100.001px" viewBox="0 0 95.117 100.001" enable-background="new 0 0 95.117 100.001"
	 xml:space="preserve">
<path d="M47.559,33.333c9.11,0,16.473-7.484,16.473-16.681C64.031,7.444,56.669,0,47.559,0c-9.11,0-16.473,7.444-16.473,16.652
	C31.085,25.849,38.449,33.333,47.559,33.333z"/>
<path d="M76.899,76.712c4.542-4.095,7.232-9.181,7.232-14.691c0-13.542-16.249-24.521-36.292-24.521
	c-0.095,0-0.187,0.004-0.281,0.005c-0.094-0.001-0.186-0.005-0.282-0.005c-20.042,0-36.291,10.978-36.291,24.521
	c0,5.511,2.69,10.597,7.232,14.691C7.14,79.438,0,83.705,0,88.504c0,8.234,11.811,14.676,47.277,9.822
	c0.097,0.015,0.186,0.025,0.282,0.042c0.096-0.017,0.185-0.027,0.281-0.042c35.468,4.854,47.278-1.588,47.278-9.822
	C95.117,83.705,87.977,79.438,76.899,76.712z M73.378,64.772c-0.125-0.007-0.25-0.02-0.375-0.02c-3.57,0-6.467,2.895-6.467,6.465
	c0,3.568,2.896,6.462,6.467,6.462c0.125,0,0.25-0.012,0.375-0.019v6.887l-25.819,8.991l-25.817-8.991v-6.887
	c0.124,0.007,0.248,0.019,0.374,0.019c3.571,0,6.465-2.894,6.465-6.462c0-3.57-2.894-6.465-6.465-6.465
	c-0.126,0-0.25,0.013-0.374,0.02V50.151l25.817,8.409l25.819-8.409V64.772z"/>
</svg>
