<?xml version="1.0" encoding="UTF-8" standalone="no"?>
<svg
   xmlns:dc="http://purl.org/dc/elements/1.1/"
   xmlns:cc="http://creativecommons.org/ns#"
   xmlns:rdf="http://www.w3.org/1999/02/22-rdf-syntax-ns#"
   xmlns:svg="http://www.w3.org/2000/svg"
   xmlns="http://www.w3.org/2000/svg"
   xmlns:sodipodi="http://sodipodi.sourceforge.net/DTD/sodipodi-0.dtd"
   xmlns:inkscape="http://www.inkscape.org/namespaces/inkscape"
   version="1.1"
   id="Layer_1"
   x="0px"
   y="0px"
   width="100"
   height="100"
   viewBox="0 0 100 100"
   enable-background="new 0 0 70.833 100"
   xml:space="preserve"
   inkscape:version="0.48.1 r9760"
   sodipodi:docname="urban-wifi.svg"><metadata
   id="metadata39"><rdf:RDF><cc:Work
       rdf:about=""><dc:format>image/svg+xml</dc:format><dc:type
         rdf:resource="http://purl.org/dc/dcmitype/StillImage" /><dc:title></dc:title></cc:Work></rdf:RDF></metadata><defs
   id="defs37"><marker
     inkscape:stockid="DotM"
     orient="auto"
     refY="0.0"
     refX="0.0"
     id="DotM"
     style="overflow:visible"><path
       id="path3902"
       d="M -2.5,-1.0 C -2.5,1.7600000 -4.7400000,4.0 -7.5,4.0 C -10.260000,4.0 -12.5,1.7600000 -12.5,-1.0 C -12.5,-3.7600000 -10.260000,-6.0 -7.5,-6.0 C -4.7400000,-6.0 -2.5,-3.7600000 -2.5,-1.0 z "
       style="fill-rule:evenodd;stroke:#000000;stroke-width:1.0pt;marker-start:none;marker-end:none"
       transform="scale(0.4) translate(7.4, 1)" /></marker><inkscape:path-effect
     effect="spiro"
     id="path-effect3832"
     is_visible="true" /><inkscape:path-effect
     effect="spiro"
     id="path-effect3060"
     is_visible="true" /><inkscape:path-effect
     effect="spiro"
     id="path-effect3056"
     is_visible="true" /><clipPath
     id="clipPath358"
     clipPathUnits="userSpaceOnUse"><path
       inkscape:connector-curvature="0"
       id="path360"
       d="m 204.962,100.24 167.838,0 0,32.96 -167.838,0 0,-32.96 z" /></clipPath><clipPath
     id="clipPath326"
     clipPathUnits="userSpaceOnUse"><path
       inkscape:connector-curvature="0"
       id="path328"
       d="m 204.962,144 167.838,0 0,32.96 -167.838,0 0,-32.96 z" /></clipPath><clipPath
     id="clipPath294"
     clipPathUnits="userSpaceOnUse"><path
       inkscape:connector-curvature="0"
       id="path296"
       d="m 136.8,188.67 304.161,0 0,59.73 -304.161,0 0,-59.73 z" /></clipPath><clipPath
     id="clipPath262"
     clipPathUnits="userSpaceOnUse"><path
       inkscape:connector-curvature="0"
       id="path264"
       d="m 136.8,259.469 304.161,0 0,59.731 -304.161,0 0,-59.731 z" /></clipPath><clipPath
     id="clipPath230"
     clipPathUnits="userSpaceOnUse"><path
       inkscape:connector-curvature="0"
       id="path232"
       d="m 441.445,391.891 85.111,0 0,137.309 -85.111,0 0,-137.309 z" /></clipPath><clipPath
     id="clipPath198"
     clipPathUnits="userSpaceOnUse"><path
       inkscape:connector-curvature="0"
       id="path200"
       d="m 376.8,498.69 85.111,0 0,137.31 -85.111,0 0,-137.31 z" /></clipPath><clipPath
     id="clipPath166"
     clipPathUnits="userSpaceOnUse"><path
       inkscape:connector-curvature="0"
       id="path168"
       d="m 208,397.551 141.852,0 0,228.849 -141.852,0 0,-228.849 z" /></clipPath><clipPath
     id="clipPath134"
     clipPathUnits="userSpaceOnUse"><path
       inkscape:connector-curvature="0"
       id="path136"
       d="m 45.074,397.551 141.853,0 0,228.849 -141.853,0 0,-228.849 z" /></clipPath><clipPath
     id="clipPath56"
     clipPathUnits="userSpaceOnUse"><path
       inkscape:connector-curvature="0"
       id="path58"
       d="M 0,792 612,792 612,0 0,0 0,792 z" /></clipPath><clipPath
     id="clipPath18"
     clipPathUnits="userSpaceOnUse"><path
       inkscape:connector-curvature="0"
       id="path20"
       d="M 0,792 612,792 612,0 0,0 0,792 z" /></clipPath></defs><sodipodi:namedview
   pagecolor="#ffffff"
   bordercolor="#666666"
   borderopacity="1"
   objecttolerance="10"
   gridtolerance="10"
   guidetolerance="10"
   inkscape:pageopacity="0"
   inkscape:pageshadow="2"
   inkscape:window-width="1280"
   inkscape:window-height="752"
   id="namedview35"
   showgrid="false"
   fit-margin-top="0"
   fit-margin-left="0"
   fit-margin-right="0"
   fit-margin-bottom="0"
   inkscape:zoom="1.91"
   inkscape:cx="27.789381"
   inkscape:cy="33.050847"
   inkscape:window-x="0"
   inkscape:window-y="0"
   inkscape:window-maximized="0"
   inkscape:current-layer="g6017" />

<g
   id="g5351"
   transform="translate(0.41262022,0.42373228)"><rect
     y="47.455482"
     x="0.84531522"
     height="52.970387"
     width="99.404282"
     id="rect3016"
     style="fill:#000000;fill-opacity:1;stroke:#000000;stroke-width:0.59571552;stroke-miterlimit:4;stroke-opacity:1;stroke-dasharray:none;stroke-dashoffset:0" /><rect
     style="fill:#000000;fill-opacity:1;stroke:#000000;stroke-width:0.23096123;stroke-miterlimit:4;stroke-opacity:1;stroke-dasharray:none;stroke-dashoffset:0"
     id="rect3018"
     width="14.941887"
     height="52.970387"
     x="0.84531522"
     y="27.116499" /><rect
     y="17.370737"
     x="14.404637"
     height="52.970387"
     width="23.942968"
     id="rect3020"
     style="fill:#000000;fill-opacity:1;stroke:#000000;stroke-width:0.29236498;stroke-miterlimit:4;stroke-opacity:1;stroke-dasharray:none;stroke-dashoffset:0" /><rect
     style="fill:#000000;fill-opacity:1;stroke:#000000;stroke-width:0.29236498;stroke-miterlimit:4;stroke-opacity:1;stroke-dasharray:none;stroke-dashoffset:0"
     id="rect3022"
     width="23.942968"
     height="52.970387"
     x="37.285992"
     y="32.624973" /><rect
     y="16.523279"
     x="61.110176"
     height="52.970387"
     width="11.801015"
     id="rect3024"
     style="fill:#000000;fill-opacity:1;stroke:#000000;stroke-width:0.20525609;stroke-miterlimit:4;stroke-opacity:1;stroke-dasharray:none;stroke-dashoffset:0" /><rect
     style="fill:#000000;fill-opacity:1;stroke:#000000;stroke-width:0.20525609;stroke-miterlimit:4;stroke-opacity:1;stroke-dasharray:none;stroke-dashoffset:0"
     id="rect3026"
     width="11.801015"
     height="52.970387"
     x="71.184296"
     y="8.8961601" /><rect
     y="18.641922"
     x="80.082603"
     height="52.970387"
     width="6.8188972"
     id="rect3028"
     style="fill:#000000;fill-opacity:1;stroke:#000000;stroke-width:0.15602472;stroke-miterlimit:4;stroke-opacity:1;stroke-dasharray:none;stroke-dashoffset:0" /><rect
     style="fill:#000000;fill-opacity:1;stroke:#000000;stroke-width:0.15602472;stroke-miterlimit:4;stroke-opacity:1;stroke-dasharray:none;stroke-dashoffset:0"
     id="rect3030"
     width="6.8188972"
     height="52.970387"
     x="84.319893"
     y="23.726667" /><rect
     y="27.540226"
     x="87.285995"
     height="52.970387"
     width="13.252842"
     id="rect3032"
     style="fill:#000000;fill-opacity:1;stroke:#000000;stroke-width:0.21751583;stroke-miterlimit:4;stroke-opacity:1;stroke-dasharray:none;stroke-dashoffset:0" /><rect
     style="fill:#000000;fill-opacity:1;stroke:#000000;stroke-width:0.20220008;stroke-miterlimit:4;stroke-opacity:1;stroke-dasharray:none;stroke-dashoffset:0"
     id="rect3034"
     width="11.452228"
     height="52.970387"
     x="41.099552"
     y="20.760567" /><rect
     y="20.760567"
     x="8.896163"
     height="52.970387"
     width="7.4302487"
     id="rect3036"
     style="fill:#000000;fill-opacity:1;stroke:#000000;stroke-width:0.16286886;stroke-miterlimit:4;stroke-opacity:1;stroke-dasharray:none;stroke-dashoffset:0" /><rect
     transform="scale(-1,1)"
     style="fill:#000000;fill-opacity:1;stroke:#000000;stroke-width:0.10214294;stroke-miterlimit:4;stroke-opacity:1;stroke-dasharray:none;stroke-dashoffset:0"
     id="rect3038"
     width="2.9224293"
     height="52.970387"
     x="-57.201244"
     y="27.540228" /><path
     transform="matrix(0.64801894,-4.3822656e-5,3.7351763e-5,0.58066938,127.68506,18.170221)"
     inkscape:transform-center-y="-1.1962446"
     inkscape:transform-center-x="0.021851846"
     d="m -88.135592,-2.118644 -14.474688,-0.1176136 7.339203,-12.4766374 z"
     inkscape:randomized="0"
     inkscape:rounded="0"
     inkscape:flatsided="true"
     sodipodi:arg2="1.5789216"
     sodipodi:arg1="0.53172407"
     sodipodi:r2="4.1786194"
     sodipodi:r1="8.3572388"
     sodipodi:cy="-6.3559322"
     sodipodi:cx="-95.338982"
     sodipodi:sides="3"
     id="path3048"
     style="fill:#000000;fill-opacity:1;stroke:#000000;stroke-width:0.60000002;stroke-miterlimit:4;stroke-opacity:1;stroke-dasharray:none;stroke-dashoffset:0"
     sodipodi:type="star" /><path
     sodipodi:type="star"
     style="fill:#000000;fill-opacity:1;stroke:#000000;stroke-width:0.60000002;stroke-miterlimit:4;stroke-opacity:1;stroke-dasharray:none;stroke-dashoffset:0"
     id="path3050"
     sodipodi:sides="3"
     sodipodi:cx="-95.338982"
     sodipodi:cy="-6.3559322"
     sodipodi:r1="8.3572388"
     sodipodi:r2="4.1786194"
     sodipodi:arg1="0.53172407"
     sodipodi:arg2="1.5789216"
     inkscape:flatsided="true"
     inkscape:rounded="0"
     inkscape:randomized="0"
     d="m -88.135592,-2.118644 -14.474688,-0.1176136 7.339203,-12.4766374 z"
     inkscape:transform-center-x="1.1512336"
     inkscape:transform-center-y="-0.059402102"
     transform="matrix(-0.02174165,-0.64765411,0.58034253,-0.0194801,24.298814,-43.996956)" /><rect
     style="fill:#000000;fill-opacity:1;stroke:#000000;stroke-width:0.1873012;stroke-miterlimit:4;stroke-opacity:1;stroke-dasharray:none;stroke-dashoffset:0"
     id="rect3052"
     width="8.8237543"
     height="58.991333"
     x="29.523853"
     y="11.349791" /></g><g
   id="g5347"
   transform="translate(-1.460418,0.42372903)"><path
     sodipodi:nodetypes="cc"
     inkscape:connector-curvature="0"
     inkscape:original-d="m 51.906779,67.694066 0,31.779664"
     inkscape:path-effect="#path-effect3060"
     id="path3058"
     d="m 51.906779,67.694066 0,31.779664"
     style="fill:none;stroke:#ffffff;stroke-width:2.5;stroke-linecap:butt;stroke-linejoin:miter;stroke-miterlimit:4;stroke-opacity:1;stroke-dasharray:none;marker-start:none" /><path
     transform="matrix(0.53809181,0,0,0.55961535,90.439624,34.214647)"
     d="m -66.101694,55.720341 a 5.5084743,5.2966104 0 1 1 -11.016949,0 5.5084743,5.2966104 0 1 1 11.016949,0 z"
     sodipodi:ry="5.2966104"
     sodipodi:rx="5.5084743"
     sodipodi:cy="55.720341"
     sodipodi:cx="-71.610168"
     id="path4460"
     style="fill:none;stroke:#ffffff;stroke-width:3.82689285;stroke-miterlimit:4;stroke-opacity:1;stroke-dasharray:none;stroke-dashoffset:0"
     sodipodi:type="arc" /></g><g
   transform="matrix(0.32808469,0,0,-0.32808469,-135.63941,215.20432)"
   inkscape:label="CCK - Construction elements"
   id="g10"><g
     id="g130"
     transform="matrix(0.71775345,0,0,0.71775345,12.721981,176.79924)"><g
       clip-path="url(#clipPath134)"
       id="g132" /></g></g><g
   transform="matrix(0.28229624,0,0,0.28229624,-171.82593,-105.87028)"
   id="layer1"
   inkscape:label="Layer 1"><g
     transform="matrix(3.9103501,1.1718356,1.1718356,-3.9103501,480.57119,610.60607)"
     id="g6017"><path
       inkscape:connector-curvature="0"
       id="path6019"
       style="fill:#ffffff;fill-opacity:1;fill-rule:nonzero;stroke:none"
       d="m 88.349828,9.6015055 c -0.216693,0 -0.429136,0.1002735 -0.56595,0.2889237 -0.226041,0.3118678 -0.155509,0.7486528 0.156358,0.9746928 6.005364,4.341503 8.485008,11.890059 6.318081,19.22957 -2.170327,7.352257 -8.36604,12.351486 -15.78373,12.737284 -0.384948,0.01955 -0.68067,0.347559 -0.660275,0.732507 0.01955,0.384948 0.34076,0.68067 0.732506,0.661125 C 86.5636,43.809218 93.256432,38.418243 95.596713,30.489837 97.933596,22.575029 95.249155,14.427381 88.75857,9.7340705 88.634503,9.6448441 88.491741,9.6015055 88.349828,9.6015055 m -3.208752,3.7662055 c -0.193749,0 -0.386648,0.07988 -0.524312,0.237087 -0.254932,0.288924 -0.22604,0.729957 0.06373,0.98489 3.686326,3.239345 5.135193,8.25387 3.780651,13.087393 -1.367289,4.882809 -5.229519,8.448467 -10.079187,9.304191 -0.379,0.06713 -0.632233,0.429137 -0.565951,0.808987 0.06713,0.379849 0.432536,0.633082 0.808987,0.56595 5.382477,-0.950899 9.667045,-4.898106 11.180496,-10.303528 1.499853,-5.354435 -0.111321,-10.915366 -4.20384,-14.511616 -0.133414,-0.116419 -0.296571,-0.173354 -0.460578,-0.173354 m -2.311389,6.288339 c -0.09687,0 -0.194599,0.01955 -0.288924,0.06203 -0.350957,0.160608 -0.504767,0.574449 -0.345859,0.924556 0.868471,1.904347 0.943251,4.033035 0.209895,5.992617 -0.732507,1.959582 -2.184773,3.517221 -4.08912,4.383992 -0.350107,0.159757 -0.504766,0.573598 -0.345009,0.924555 0.159758,0.350108 0.572749,0.504767 0.923706,0.345859 2.243408,-1.02228 3.954006,-2.856945 4.817378,-5.165785 0.863371,-2.30884 0.775845,-4.815678 -0.246435,-7.059935 -0.117269,-0.256632 -0.370502,-0.407892 -0.635632,-0.407892" /><path
       d="m 64.730114,2.9071141 c 0.18098,0.1191728 0.303263,0.3197556 0.313779,0.5525568 0.01727,0.3847826 -0.28185,0.710791 -0.666632,0.7280626 -7.403279,0.3232629 -13.625667,5.2640345 -15.852318,12.5856475 -2.230821,7.334128 0.194395,14.916837 6.177403,19.318494 0.310753,0.228035 0.377345,0.66462 0.148604,0.974909 -0.228034,0.310753 -0.658941,0.381084 -0.975375,0.149315 C 47.409036,32.459414 44.784077,24.276127 47.189813,16.367336 49.59091,8.4717716 56.313819,3.1432747 64.315831,2.7930388 c 0.15269,-0.00629 0.295758,0.036029 0.414283,0.1140753 m 0.608651,4.9101867 c 0.161817,0.1065544 0.278994,0.2793564 0.307511,0.486364 0.05402,0.3815092 -0.212661,0.7339662 -0.594878,0.7875214 -4.860297,0.6781325 -8.828171,4.0693938 -10.355122,8.8512498 -1.543409,4.83003 -0.278687,9.93211 3.301093,13.313931 0.279618,0.264502 0.292026,0.706115 0.02776,0.98691 -0.264968,0.280327 -0.70942,0.290865 -0.986908,0.02776 -3.972434,-3.754336 -5.380052,-9.40735 -3.671299,-14.754245 1.69207,-5.296833 6.096003,-9.0551839 11.491833,-9.8080095 0.175452,-0.02386 0.343031,0.018319 0.480008,0.1085165 m -1.527893,6.523133 c 0.0809,0.05327 0.151775,0.12335 0.207192,0.210704 0.204788,0.327151 0.105652,0.757376 -0.219612,0.962389 -1.772656,1.112867 -3.005807,2.8496 -3.47101,4.889541 -0.465911,2.039474 -0.109634,4.139089 1.004167,5.910324 0.204546,0.325973 0.106119,0.756665 -0.220321,0.961921 -0.325974,0.204546 -0.755957,0.106587 -0.961679,-0.219144 -1.311458,-2.087586 -1.731138,-4.560643 -1.182445,-6.963785 0.548693,-2.403141 2.000458,-4.448691 4.088511,-5.760858 0.239079,-0.149843 0.533764,-0.136906 0.755198,0.0089"
       style="fill:#ffffff;fill-opacity:1;fill-rule:nonzero;stroke:none"
       id="path5626"
       inkscape:connector-curvature="0" /></g></g><g
   transform="matrix(0.04809336,0,0,0.04809336,24.578706,74.523566)"
   id="layer1-8"
   inkscape:label="Layer 1"
   style="fill:#ffffff;fill-opacity:1"><g
     id="g4023"
     transform="matrix(4.0135444,0,0,4.0135444,31.703737,-1820.7701)"
     style="fill:#ffffff;fill-opacity:1"><g
       id="g1944"
       transform="matrix(1.25,0,0,-1.25,110.46796,542.95031)"
       style="fill:#ffffff;fill-opacity:1"><path
         inkscape:connector-curvature="0"
         d="m 0,0 -16.244,6.606 c 2.977,0.792 5.173,3.496 5.173,6.722 0,3.846 -3.117,6.963 -6.964,6.963 -3.843,0 -6.959,-3.117 -6.959,-6.963 0,-3.262 2.244,-5.991 5.268,-6.747 l -2.556,-1.04 c -0.06,-0.025 -0.122,-0.048 -0.181,-0.073 L -35.907,0 c -1.17,-0.477 -1.732,-1.813 -1.257,-2.98 0.476,-1.172 1.812,-1.733 2.98,-1.256 l 8.245,3.351 0,-16.653 0.943,0 0,-15.525 c 0,-1.262 1.025,-2.287 2.287,-2.287 1.264,0 2.288,1.025 2.288,2.287 l 0,15.525 4.776,0 0,-15.525 c 0,-1.262 1.024,-2.287 2.287,-2.287 1.263,0 2.288,1.025 2.288,2.287 l 0,15.525 0.942,0 0,16.719 8.405,-3.417 c 1.168,-0.477 2.504,0.084 2.98,1.256 C 1.732,-1.813 1.169,-0.477 0,0"
         style="fill:#ffffff;fill-opacity:1;fill-rule:nonzero;stroke:none"
         id="path1946" /></g><g
       id="g1948"
       transform="matrix(1.25,0,0,-1.25,88.089958,547.24106)"
       style="fill:#ffffff;fill-opacity:1"><path
         inkscape:connector-curvature="0"
         d="m 0,0 c 0.416,0.81 0.811,1.226 1.619,1.226 0.897,0 1.619,-0.723 1.619,-1.62 0,-1.619 -1.619,-3.259 -3.238,-4.878 -1.619,1.619 -3.238,3.259 -3.238,4.878 0,0.897 0.721,1.62 1.619,1.62 C -0.811,1.226 -0.393,0.81 0,0"
         style="fill:#ffffff;fill-opacity:1;fill-rule:nonzero;stroke:none"
         id="path1950" /></g></g></g><g
   style="fill:#ffffff;fill-opacity:1"
   inkscape:label="Layer 1"
   id="g5991"
   transform="matrix(0.04809336,0,0,0.04809336,39.761952,74.000006)"><g
     style="fill:#ffffff;fill-opacity:1"
     transform="matrix(4.0135444,0,0,4.0135444,31.703737,-1820.7701)"
     id="g5993"><g
       style="fill:#ffffff;fill-opacity:1"
       transform="matrix(1.25,0,0,-1.25,110.46796,542.95031)"
       id="g5995"><path
         id="path5997"
         style="fill:#ffffff;fill-opacity:1;fill-rule:nonzero;stroke:none"
         d="m 0,0 -16.244,6.606 c 2.977,0.792 5.173,3.496 5.173,6.722 0,3.846 -3.117,6.963 -6.964,6.963 -3.843,0 -6.959,-3.117 -6.959,-6.963 0,-3.262 2.244,-5.991 5.268,-6.747 l -2.556,-1.04 c -0.06,-0.025 -0.122,-0.048 -0.181,-0.073 L -35.907,0 c -1.17,-0.477 -1.732,-1.813 -1.257,-2.98 0.476,-1.172 1.812,-1.733 2.98,-1.256 l 8.245,3.351 0,-16.653 0.943,0 0,-15.525 c 0,-1.262 1.025,-2.287 2.287,-2.287 1.264,0 2.288,1.025 2.288,2.287 l 0,15.525 4.776,0 0,-15.525 c 0,-1.262 1.024,-2.287 2.287,-2.287 1.263,0 2.288,1.025 2.288,2.287 l 0,15.525 0.942,0 0,16.719 8.405,-3.417 c 1.168,-0.477 2.504,0.084 2.98,1.256 C 1.732,-1.813 1.169,-0.477 0,0"
         inkscape:connector-curvature="0" /></g><g
       style="fill:#ffffff;fill-opacity:1"
       transform="matrix(1.25,0,0,-1.25,88.089958,547.24106)"
       id="g5999"><path
         id="path6001"
         style="fill:#ffffff;fill-opacity:1;fill-rule:nonzero;stroke:none"
         d="m 0,0 c 0.416,0.81 0.811,1.226 1.619,1.226 0.897,0 1.619,-0.723 1.619,-1.62 0,-1.619 -1.619,-3.259 -3.238,-4.878 -1.619,1.619 -3.238,3.259 -3.238,4.878 0,0.897 0.721,1.62 1.619,1.62 C -0.811,1.226 -0.393,0.81 0,0"
         inkscape:connector-curvature="0" /></g></g></g></svg>