<svg xmlns="http://www.w3.org/2000/svg" xmlns:xlink="http://www.w3.org/1999/xlink" version="1.1" id="Layer_1" x="0px" y="0px" width="100px" height="100px" viewBox="0 0 100 100" enable-background="new 0 0 100 100" xml:space="preserve">
<g>
	<path d="M70.203,29.257c3.582,0,6.499-3.593,6.499-8.009c0-4.417-2.915-8.011-6.499-8.011c-3.585,0-6.499,3.594-6.499,8.011   C63.704,25.664,66.618,29.257,70.203,29.257z M70.203,15.954c2.05,0,3.782,2.425,3.782,5.293c0,2.87-1.732,5.293-3.782,5.293   c-2.051,0-3.783-2.424-3.783-5.293C66.42,18.38,68.152,15.954,70.203,15.954z"/>
	<path d="M84.709,31.773c-1.002-0.013-2.108-0.027-3.324-0.048c-1.31-0.023-2.176-0.147-3.27-0.304   c-1.747-0.249-3.923-0.561-8.817-0.561c-6.321,0-9.171,3.348-11.058,5.562c-0.603,0.708-1.354,1.586-1.736,1.606   c-0.805,0-2.537-0.887-3.933-1.599c-1.962-1.003-3.815-1.95-5.344-1.95c-1.001,0-1.825,0.419-2.32,1.182   c-0.713,1.096-0.742,2.376-0.084,3.606c1.99,3.719,10.458,6.842,12.719,6.868c2.311,0,4.189-2.1,5.569-3.936   c0.217,7.04-0.348,25.362-0.581,33.034c-0.057,1.817-0.101,3.3-0.129,4.292c-0.04,1.479,0.547,2.401,1.046,2.912   c0.654,0.674,1.542,1.043,2.502,1.043c1.696,0,3.667-1.248,3.986-3.99c0.151-1.293,0.281-3.605,0.434-6.279   c0.241-4.25,0.658-11.616,1.319-14.524c0.322,1.348,0.396,4.234,0.47,7.047c0.093,3.563,0.218,8.445,0.78,14.494   c0.169,1.854,1.831,3.253,3.861,3.253c1.03,0,1.959-0.381,2.614-1.07c0.479-0.503,1.033-1.411,0.96-2.883   c-0.297-5.988-0.92-33.163-1.07-39.816c2.439,0.134,4.371,0.197,6.001,0.197c0.002,0,0.002,0,0.002,0   c3.232,0,5.337-0.245,6.822-0.796c2.371-0.876,2.869-2.52,2.869-3.742C95.001,31.902,92.197,31.867,84.709,31.773z M91.188,36.57   c-1.139,0.421-3.061,0.625-5.88,0.625l0,0c-1.889,0-4.211-0.088-7.312-0.277c-0.376-0.022-0.75,0.113-1.022,0.376   c-0.274,0.264-0.425,0.63-0.417,1.01c0.009,0.344,0.767,34.522,1.105,41.363c0.015,0.281-0.012,0.661-0.214,0.876   c-0.188,0.195-0.485,0.225-0.647,0.225c-0.521,0-1.113-0.301-1.158-0.787c-0.552-5.961-0.677-10.788-0.769-14.314   c-0.179-6.87-0.268-10.318-3.562-10.437c-2.224,0-2.803,2.833-3.655,17.831c-0.149,2.632-0.279,4.906-0.42,6.121   c-0.193,1.674-1.384,1.838-1.844,1.364c-0.193-0.197-0.288-0.523-0.278-0.943c0.027-0.991,0.072-2.47,0.129-4.283   c0.791-25.722,0.826-35.364,0.144-36.844c-0.253-0.546-0.771-0.886-1.358-0.886c-0.932,0-1.45,0.721-2.393,2.028   c-0.957,1.33-2.738,3.805-4.106,3.805c-1.532-0.018-8.942-2.872-10.312-5.436C47,37.58,47.049,37.373,47.149,37.2   c0.019-0.002,0.045-0.003,0.078-0.003c0.874,0,2.667,0.916,4.106,1.651c1.907,0.976,3.711,1.896,5.17,1.896l0,0l0.172-0.005   c1.52-0.076,2.544-1.28,3.63-2.556c1.748-2.053,3.924-4.606,8.99-4.606c4.702,0,6.771,0.295,8.433,0.533   c1.093,0.156,2.127,0.304,3.605,0.33c1.223,0.021,2.33,0.036,3.338,0.049c3.827,0.048,7.134,0.09,7.573,0.582   c0.001,0,0.036,0.071,0.036,0.304C92.283,35.707,92.283,36.163,91.188,36.57z"/>
	<path d="M16.008,34.112c3.497,0,6.34-3.54,6.34-7.891c0-4.351-2.844-7.891-6.34-7.891s-6.34,3.54-6.34,7.891   C9.668,30.572,12.512,34.112,16.008,34.112z M16.008,21.046c1.965,0,3.623,2.37,3.623,5.174c0,2.805-1.659,5.175-3.623,5.175   s-3.624-2.37-3.624-5.175C12.384,23.415,14.044,21.046,16.008,21.046z"/>
	<path d="M41.398,47.915c0.012-0.106,1.126-10.656-3.549-13.491c-2.365-1.433-6.337-1.744-10.117-0.795   C26.255,34,23.79,34.85,22.199,36.542c-4.258-1.932-10.371-1.459-13.025,1.191C6.494,40.412,5.029,46.179,5,49.312   c-0.011,1.13-0.015,11.116,2.976,13.862c0.273,0.251,0.57,0.439,0.881,0.579L9.655,81.61c0.042,1.782,0.958,5.151,4.14,5.151   c1.009,0,2.492-0.214,3.54-1.281c0.613,0.259,1.308,0.413,2.003,0.413c0.486,0,0.972-0.075,1.426-0.246   c0.965-0.363,2.587-1.454,2.587-4.683c0-1.907-0.133-9.554-0.284-17.532c0.132-0.021,0.259-0.049,0.385-0.083l0.777,15.588   c0.042,1.781,0.959,5.151,4.141,5.151c1.009,0,2.492-0.213,3.541-1.281c0.611,0.259,1.308,0.414,2.002,0.414   c0.487,0,0.971-0.075,1.426-0.246c0.965-0.364,2.587-1.455,2.587-4.683c0-1.907-0.133-9.556-0.283-17.532   c0.92-0.163,1.724-0.581,2.339-1.26c1.931-2.132,1.672-6.238,1.484-9.237C41.405,49.291,41.347,48.375,41.398,47.915z    M22.658,42.547c-0.016-0.741-0.62-1.331-1.357-1.331c-0.01,0-0.019,0-0.028,0.001c-0.75,0.015-1.347,0.636-1.331,1.386   c0.007,0.34,0.692,34.136,0.692,38.364c0,0.834-0.143,1.882-0.827,2.14c-0.409,0.154-0.92,0.062-1.321-0.091   c0.005-0.022,0.011-0.044,0.015-0.068c0.072-0.427,0.078-6.965,0.019-19.433c-0.004-0.747-0.61-1.353-1.358-1.353   c-0.001,0-0.004,0-0.006,0c-0.75,0.004-1.356,0.616-1.353,1.365c0.035,7.231,0.065,18.272,0.019,18.976l-0.019,0.115   c-0.007,0.049-0.017,0.101-0.024,0.152c-0.146,0.201-0.23,0.434-0.253,0.673c-0.243,0.338-0.714,0.604-1.729,0.604   c-1.31,0-1.424-2.478-1.426-2.527l-0.807-18.026c0.185-0.138,0.361-0.295,0.513-0.487c1.515-1.926,1.019-6.417,0.324-11.244   c-0.108-0.747-0.198-1.375-0.241-1.807c-0.107-1.122,0.984-4.645,1.793-6.789c0.266-0.701-0.09-1.485-0.791-1.75   c-0.699-0.262-1.483,0.089-1.75,0.79c-0.362,0.96-2.163,5.861-1.956,8.011c0.044,0.46,0.14,1.132,0.254,1.932   c0.617,4.296,0.796,7.122,0.535,8.441c-0.058-0.003-0.113-0.011-0.173-0.009c-0.213,0.011-0.412,0.074-0.588,0.171   c-1.147-1.814-1.808-7.09-1.769-11.416c0.026-2.942,1.508-7.812,3.379-9.681c1.838-1.838,7.394-2.279,10.773-0.233   c2.119,1.283,2.672,7.135,2.257,10.865c-0.078,0.694-0.02,1.631,0.055,2.818c0.139,2.229,0.375,5.962-0.787,7.244   c-0.112,0.122-0.24,0.212-0.379,0.283C22.844,51.753,22.673,43.243,22.658,42.547z M37.966,57.675   c-0.111,0.123-0.239,0.213-0.379,0.285c-0.169-8.881-0.341-17.391-0.355-18.087c-0.016-0.75-0.678-1.353-1.386-1.331   c-0.75,0.015-1.346,0.636-1.332,1.386c0.008,0.34,0.692,34.136,0.692,38.363c0,0.835-0.143,1.883-0.826,2.14   c-0.411,0.154-0.921,0.062-1.322-0.09c0.005-0.024,0.012-0.044,0.015-0.069c0.071-0.427,0.078-6.964,0.019-19.434   c-0.003-0.747-0.612-1.352-1.359-1.352c-0.001,0-0.004,0-0.006,0c-0.751,0.004-1.356,0.616-1.353,1.365   c0.034,7.23,0.064,18.272,0.018,18.974l-0.018,0.116c-0.007,0.05-0.016,0.103-0.024,0.153c-0.148,0.201-0.231,0.433-0.254,0.673   c-0.243,0.338-0.713,0.604-1.729,0.604c-1.309,0-1.424-2.479-1.426-2.534L26.064,61.21c1.198-2.256,0.988-5.68,0.826-8.274   c-0.061-0.971-0.118-1.886-0.067-2.346c0.011-0.096,0.922-8.728-2.358-12.477c0.875-0.768,2.261-1.429,3.93-1.848   c3.062-0.771,6.296-0.575,8.047,0.484c2.118,1.285,2.671,7.137,2.256,10.866c-0.078,0.693-0.019,1.631,0.055,2.817   C38.893,52.661,39.127,56.394,37.966,57.675z"/>
	<path d="M30.594,31.437c3.497,0,6.34-3.54,6.34-7.892s-2.843-7.891-6.34-7.891c-3.495,0-6.339,3.54-6.339,7.891   C24.255,27.897,27.1,31.437,30.594,31.437z M30.594,18.371c1.965,0,3.624,2.37,3.624,5.175c0,2.805-1.659,5.175-3.624,5.175   c-1.964,0-3.623-2.37-3.623-5.175C26.972,20.741,28.631,18.371,30.594,18.371z"/>
	<path d="M73.042,24.102c0.381-0.324,0.429-0.896,0.104-1.276c-0.321-0.381-0.895-0.428-1.274-0.105   c-1.534,1.3-2.76,0.351-2.993,0.145c-0.366-0.334-0.936-0.311-1.275,0.055c-0.339,0.367-0.316,0.94,0.052,1.279   c0.504,0.466,1.467,1.001,2.626,1.001C71.129,25.202,72.083,24.914,73.042,24.102z"/>
</g>
</svg>