<svg xmlns="http://www.w3.org/2000/svg" xmlns:xlink="http://www.w3.org/1999/xlink" version="1.1" id="Layer_1" x="0px" y="0px" width="72.223px" height="100px" viewBox="0 0 72.223 100" enable-background="new 0 0 72.223 100" xml:space="preserve">
<circle cx="36.111" cy="45.833" r="5.556"/>
<circle cx="9.723" cy="52.083" r="4.861"/>
<circle cx="62.5" cy="52.083" r="4.861"/>
<path d="M43.056,54.167H29.167c-2.301,0-4.167,1.867-4.167,4.167v13.889c0,2.302,1.865,4.167,4.167,4.167L30.556,100h11.111  l1.389-23.611c2.302,0,4.167-1.865,4.167-4.167V58.333C47.223,56.033,45.356,54.167,43.056,54.167z"/>
<path d="M68.056,59.722H56.945c-2.014,0-4.167,2.154-4.167,4.167v11.806c0,2.014,1.632,3.646,3.646,3.646L57.639,100h9.722  l1.215-20.66c2.014,0,3.646-1.632,3.646-3.646V63.889C72.223,61.876,70.068,59.722,68.056,59.722z"/>
<path d="M15.278,59.722H4.167C2.153,59.722,0,61.876,0,63.889v11.806c0,2.014,1.632,3.646,3.646,3.646L4.861,100h9.722l1.215-20.66  c2.014,0,3.646-1.632,3.646-3.646V63.889C19.445,61.876,17.291,59.722,15.278,59.722z"/>
<path d="M18.056,35.417h36.111c0.691,0,1.337-0.343,1.725-0.916c0.387-0.572,0.466-1.299,0.209-1.941l-5.556-13.889  c-0.316-0.792-1.083-1.31-1.934-1.31h-4.344c-0.683,1.428-1.416,2.843-2.134,4.167h5.067l3.889,9.722H21.133l3.889-9.722h5.067  c-0.718-1.324-1.451-2.738-2.134-4.167h-4.344c-0.852,0-1.618,0.518-1.934,1.31L16.122,32.56c-0.257,0.642-0.178,1.369,0.209,1.941  C16.718,35.074,17.365,35.417,18.056,35.417z"/>
<path d="M44.445,8.333C44.445,3.731,40.713,0,36.111,0s-8.333,3.731-8.333,8.333s8.333,18.055,8.333,18.055  S44.445,12.936,44.445,8.333z M36.111,4.167c2.301,0,4.167,1.867,4.167,4.167S38.412,12.5,36.111,12.5s-4.167-1.866-4.167-4.167  S33.811,4.167,36.111,4.167z"/>
</svg>