<svg xmlns="http://www.w3.org/2000/svg" xmlns:xlink="http://www.w3.org/1999/xlink" version="1.1" id="Layer_1" x="0px" y="0px" width="72.223px" height="100px" viewBox="0 0 72.223 100" enable-background="new 0 0 72.223 100" xml:space="preserve">
<circle cx="36.111" cy="45.833" r="5.556"/>
<circle cx="9.723" cy="52.083" r="4.861"/>
<circle cx="62.5" cy="52.083" r="4.861"/>
<path d="M43.056,54.167H29.167c-2.301,0-4.167,1.867-4.167,4.167v13.889c0,2.302,1.865,4.167,4.167,4.167L30.556,100h11.111  l1.389-23.611c2.302,0,4.167-1.865,4.167-4.167V58.333C47.223,56.033,45.356,54.167,43.056,54.167z"/>
<path d="M68.056,59.722H56.944c-2.013,0-4.166,2.154-4.166,4.167v11.806c0,2.014,1.632,3.646,3.646,3.646L57.639,100h9.723  l1.215-20.66c2.015,0,3.646-1.632,3.646-3.646V63.889C72.223,61.876,70.068,59.722,68.056,59.722z"/>
<path d="M15.278,59.722H4.167C2.154,59.722,0,61.876,0,63.889v11.806c0,2.014,1.632,3.646,3.646,3.646L4.861,100h9.723l1.215-20.66  c2.014,0,3.646-1.632,3.646-3.646V63.889C19.444,61.876,17.291,59.722,15.278,59.722z"/>
<path d="M15.112,21.004l14.055,14.055L57.11,7.115c0.755-0.754,1.224-1.796,1.224-2.949C58.334,1.865,56.467,0,54.167,0  c-1.151,0-2.194,0.467-2.949,1.224l-22.051,22.05l-8.162-8.162c-0.755-0.756-1.798-1.224-2.949-1.224  c-2.3,0-4.167,1.865-4.167,4.167C13.889,19.208,14.357,20.25,15.112,21.004z"/>
</svg>