<svg xmlns="http://www.w3.org/2000/svg" xmlns:xlink="http://www.w3.org/1999/xlink" version="1.1" id="Layer_1" x="0px" y="0px" width="100px" height="64.827px" viewBox="0 0 100 64.827" enable-background="new 0 0 100 64.827" xml:space="preserve">
<path d="M39.609,13.303c3.662,0,6.637-2.975,6.654-6.65C46.246,2.988,43.271,0.014,39.609,0c-3.678,0.014-6.653,2.988-6.65,6.653  C32.956,10.329,35.931,13.303,39.609,13.303z"/>
<path d="M15.35,48.254V27.853l11.881-6.405v6.049c-0.006,1.15,0.31,1.646,0.748,2.063l6.794,7.505c3.05,3.09,7.423-1.172,4.66-4.267  l-6.014-6.652V13.482c-0.042-3.895-5.306-7.453-9.069-5.513l-15.9,8.572c-2.104,1.21-2.945,3.28-2.953,5.405v26.379  C5.505,55.523,15.353,55.525,15.35,48.254z"/>
<path d="M60.903,13.303c3.68,0,6.653-2.975,6.651-6.65C67.557,2.988,64.583,0.014,60.903,0c-3.66,0.014-6.637,2.988-6.651,6.653  C54.267,10.329,57.243,13.303,60.903,13.303z"/>
<path d="M67.093,26.146l-6.012,6.652c-2.763,3.095,1.608,7.357,4.66,4.267l6.793-7.505c0.44-0.417,0.756-0.913,0.746-2.063v-6.049  l11.883,6.405v20.402c-0.004,7.271,9.847,7.269,9.853,0.07V21.946c-0.006-2.125-0.851-4.195-2.951-5.405l-15.9-8.572  c-3.764-1.94-9.025,1.618-9.071,5.513V26.146z"/>
<path d="M75,53.715l-7.266-3.633l-0.284-0.142c-0.14-0.048-0.281-0.089-0.437-0.089c-0.343,0-0.646,0.138-0.889,0.344l-0.264,0.315  L55.556,62.048h-2.301l3.404-8.333h-5.433h-2.453H43.34l3.404,8.333h-2.3L34.139,50.511l-0.265-0.315  c-0.243-0.206-0.545-0.344-0.888-0.344c-0.155,0-0.297,0.041-0.437,0.089l-0.283,0.142L25,53.715H0v11.111h50h50V53.715H75z"/>
<path d="M48.625,20.382c0,11.111,0,22.222,0,33.333c0,1.772,2.75,1.772,2.75,0c0-11.111,0-22.223,0-33.333  C51.375,18.609,48.625,18.609,48.625,20.382L48.625,20.382z"/>
<path d="M47.564,44.574c-2.167-2.169-5.892-1.964-5.892-1.964s-0.205,3.724,1.964,5.892c2.17,2.17,5.892,1.964,5.892,1.964  S49.734,46.742,47.564,44.574z"/>
<path d="M47.564,30.685c-2.167-2.169-5.892-1.964-5.892-1.964s-0.205,3.724,1.964,5.892c2.17,2.17,5.892,1.964,5.892,1.964  S49.734,32.854,47.564,30.685z"/>
<path d="M52.436,39.018c2.168-2.169,5.893-1.964,5.893-1.964s0.205,3.725-1.964,5.892c-2.171,2.17-5.892,1.964-5.892,1.964  S50.266,41.187,52.436,39.018z"/>
<path d="M52.436,25.129c2.168-2.169,5.893-1.964,5.893-1.964s0.205,3.725-1.964,5.892c-2.171,2.17-5.892,1.964-5.892,1.964  S50.266,27.298,52.436,25.129z"/>
</svg>