<?xml version="1.0" encoding="UTF-8" standalone="no"?>
<!-- Generator: Adobe Illustrator 15.1.0, SVG Export Plug-In . SVG Version: 6.00 Build 0)  -->

<svg
   xmlns:dc="http://purl.org/dc/elements/1.1/"
   xmlns:cc="http://creativecommons.org/ns#"
   xmlns:rdf="http://www.w3.org/1999/02/22-rdf-syntax-ns#"
   xmlns:svg="http://www.w3.org/2000/svg"
   xmlns="http://www.w3.org/2000/svg"
   xmlns:sodipodi="http://sodipodi.sourceforge.net/DTD/sodipodi-0.dtd"
   xmlns:inkscape="http://www.inkscape.org/namespaces/inkscape"
   version="1.1"
   id="Layer_1"
   x="0px"
   y="0px"
   width="52px"
   height="72px"
   viewBox="0 0 52 72"
   enable-background="new 0 0 52 72"
   xml:space="preserve"
   inkscape:version="0.48.1 r9760"
   sodipodi:docname="workshop-agenda.svg"
   inkscape:export-filename="/Users/ry/git/communitytechnology.github.io/icons/workshop-agenda.png"
   inkscape:export-xdpi="90"
   inkscape:export-ydpi="90"><metadata
   id="metadata3094"><rdf:RDF><cc:Work
       rdf:about=""><dc:format>image/svg+xml</dc:format><dc:type
         rdf:resource="http://purl.org/dc/dcmitype/StillImage" /><dc:title></dc:title></cc:Work></rdf:RDF></metadata><defs
   id="defs3092"><marker
     inkscape:stockid="DotS"
     orient="auto"
     refY="0.0"
     refX="0.0"
     id="DotS"
     style="overflow:visible"><path
       id="path3975"
       d="M -2.5,-1.0 C -2.5,1.7600000 -4.7400000,4.0 -7.5,4.0 C -10.260000,4.0 -12.5,1.7600000 -12.5,-1.0 C -12.5,-3.7600000 -10.260000,-6.0 -7.5,-6.0 C -4.7400000,-6.0 -2.5,-3.7600000 -2.5,-1.0 z "
       style="fill-rule:evenodd;stroke:#000000;stroke-width:1.0pt;marker-start:none;marker-end:none"
       transform="scale(0.2) translate(7.4, 1)" /></marker><inkscape:path-effect
     is_visible="true"
     id="path-effect3895"
     effect="spiro" /><inkscape:path-effect
     effect="spiro"
     id="path-effect3880"
     is_visible="true" /><inkscape:path-effect
     effect="spiro"
     id="path-effect3876"
     is_visible="true" /><inkscape:path-effect
     effect="spiro"
     id="path-effect3872"
     is_visible="true" /><inkscape:path-effect
     effect="spiro"
     id="path-effect3868"
     is_visible="true" /></defs><sodipodi:namedview
   pagecolor="#ffffff"
   bordercolor="#666666"
   borderopacity="1"
   objecttolerance="10"
   gridtolerance="10"
   guidetolerance="10"
   inkscape:pageopacity="0"
   inkscape:pageshadow="2"
   inkscape:window-width="1280"
   inkscape:window-height="752"
   id="namedview3090"
   showgrid="false"
   inkscape:zoom="4.6354778"
   inkscape:cx="-28.215727"
   inkscape:cy="36"
   inkscape:window-x="0"
   inkscape:window-y="0"
   inkscape:window-maximized="0"
   inkscape:current-layer="g3072" />
<g
   id="g3072">
	<path
   d="M49,9h-8.142C40.412,7.278,38.86,6,37,6h-6.102C30.965,5.677,31,5.343,31,5c0-2.757-2.243-5-5-5s-5,2.243-5,5   c0,0.343,0.035,0.677,0.102,1H15c-1.861,0-3.412,1.278-3.858,3H3c-1.657,0-3,1.343-3,3v57c0,1.657,1.343,3,3,3h46   c1.657,0,3-1.343,3-3V12C52,10.343,50.657,9,49,9z M23,5c0-1.654,1.346-3,3-3s3,1.346,3,3c0,0.353-0.072,0.686-0.185,1   C28.401,7.161,27.302,8,26,8s-2.401-0.839-2.815-2C23.072,5.686,23,5.353,23,5z M48,66H4V13h7v3h30v-3h7V66z"
   id="path3074" />
	
	<rect
   x="28"
   y="25"
   width="17"
   height="2"
   id="rect3078" />
	<rect
   x="28"
   y="31"
   width="17"
   height="2"
   id="rect3080" />
	<rect
   x="28"
   y="37"
   width="17"
   height="2"
   id="rect3082" />
	<rect
   x="28"
   y="43"
   width="17"
   height="2"
   id="rect3084" />
	<rect
   x="28"
   y="49"
   width="17"
   height="2"
   id="rect3086" />
	<rect
   x="28"
   y="55"
   width="17"
   height="2"
   id="rect3088" />
<g
   id="g3882"
   transform="translate(71.837256,26.965937)"><path
     transform="matrix(0.5448055,0,0,0.55318711,-43.152237,-16.344383)"
     d="m -15.559322,36.762711 c 0,5.476043 -4.507506,9.915254 -10.067797,9.915254 -5.560291,0 -10.067797,-4.439211 -10.067797,-9.915254 0,-5.476044 4.507506,-9.915255 10.067797,-9.915255 5.560291,0 10.067797,4.439211 10.067797,9.915255 z"
     sodipodi:ry="9.9152546"
     sodipodi:rx="10.067797"
     sodipodi:cy="36.762711"
     sodipodi:cx="-25.627119"
     id="path3096"
     style="fill:none;stroke:#000000;stroke-width:2.0004046;stroke-miterlimit:4;stroke-opacity:1;stroke-dasharray:none;stroke-dashoffset:0"
     sodipodi:type="arc" /><path
     inkscape:connector-curvature="0"
     inkscape:original-d="m -60.187971,4.2615673 3.45164,0.2157275"
     inkscape:path-effect="#path-effect3876"
     id="path3874"
     d="m -60.187971,4.2615673 3.45164,0.2157275"
     style="fill:none;stroke:#000000;stroke-width:1px;stroke-linecap:butt;stroke-linejoin:miter;stroke-opacity:1;marker-end:url(#DotS)"
     sodipodi:nodetypes="cc" /><path
     inkscape:connector-curvature="0"
     inkscape:original-d="m -56.952058,-0.26871003 0.215727,4.74600483"
     inkscape:path-effect="#path-effect3880"
     id="path3878"
     d="m -56.952058,-0.26871003 0.215727,4.74600483"
     style="fill:none;stroke:#000000;stroke-width:0.60000002;stroke-linecap:butt;stroke-linejoin:miter;stroke-miterlimit:4;stroke-opacity:1;stroke-dasharray:none"
     sodipodi:nodetypes="cc" /></g><g
   transform="translate(25.671572,44.224137)"
   id="g3887"><g
     id="g3899"
     transform="translate(46,-2)"><path
       transform="matrix(0.5448055,0,0,0.55318711,-42.882399,-16.344383)"
       d="m -15.559322,36.762711 c 0,5.476043 -4.507506,9.915254 -10.067797,9.915254 -5.560291,0 -10.067797,-4.439211 -10.067797,-9.915254 0,-5.476044 4.507506,-9.915255 10.067797,-9.915255 5.560291,0 10.067797,4.439211 10.067797,9.915255 z"
       sodipodi:ry="9.9152546"
       sodipodi:rx="10.067797"
       sodipodi:cy="36.762711"
       sodipodi:cx="-25.627119"
       id="path3889"
       style="fill:none;stroke:#000000;stroke-width:2.0004046;stroke-miterlimit:4;stroke-opacity:1;stroke-dasharray:none;stroke-dashoffset:0"
       sodipodi:type="arc" /><path
       sodipodi:nodetypes="cc"
       inkscape:connector-curvature="0"
       inkscape:original-d="m -56.835153,4.2615673 1.941547,2.3730024"
       inkscape:path-effect="#path-effect3895"
       id="path3891"
       d="m -56.835153,4.2615673 1.941547,2.3730024"
       style="fill:none;stroke:#000000;stroke-width:1px;stroke-linecap:butt;stroke-linejoin:miter;stroke-opacity:1;marker-start:url(#DotS)" /><path
       sodipodi:nodetypes="cc"
       inkscape:connector-curvature="0"
       inkscape:original-d="m -56.952058,-0.05298254 0.215727,4.31454984"
       inkscape:path-effect="#path-effect3880"
       id="path3893"
       d="m -56.952058,-0.05298254 0.215727,4.31454984"
       style="fill:none;stroke:#000000;stroke-width:0.6;stroke-linecap:butt;stroke-linejoin:miter;stroke-opacity:1;stroke-miterlimit:4;stroke-dasharray:none" /></g></g></g>
</svg>