<?xml version="1.0" encoding="UTF-8" standalone="no"?>
<!-- Created with Inkscape (http://www.inkscape.org/) -->

<svg
   xmlns:dc="http://purl.org/dc/elements/1.1/"
   xmlns:cc="http://creativecommons.org/ns#"
   xmlns:rdf="http://www.w3.org/1999/02/22-rdf-syntax-ns#"
   xmlns:svg="http://www.w3.org/2000/svg"
   xmlns="http://www.w3.org/2000/svg"
   xmlns:sodipodi="http://sodipodi.sourceforge.net/DTD/sodipodi-0.dtd"
   xmlns:inkscape="http://www.inkscape.org/namespaces/inkscape"
   width="388.10571"
   height="639.18378"
   id="svg7422"
   version="1.1"
   inkscape:version="0.48.4 r9939"
   sodipodi:docname="Electronics_A014.svg">
  <defs
     id="defs7424">
    <clipPath
       clipPathUnits="userSpaceOnUse"
       id="clipPath5624">
      <path
         inkscape:connector-curvature="0"
         d="M 0,0 612,0 612,792 0,792 0,0 z"
         id="path5626" />
    </clipPath>
    <clipPath
       clipPathUnits="userSpaceOnUse"
       id="clipPath5408">
      <path
         inkscape:connector-curvature="0"
         d="M 0,0 612,0 612,792 0,792 0,0 z"
         id="path5410" />
    </clipPath>
    <clipPath
       clipPathUnits="userSpaceOnUse"
       id="clipPath5138">
      <path
         inkscape:connector-curvature="0"
         d="M 0,0 612,0 612,792 0,792 0,0 z"
         id="path5140" />
    </clipPath>
  </defs>
  <sodipodi:namedview
     id="base"
     pagecolor="#ffffff"
     bordercolor="#666666"
     borderopacity="1.0"
     inkscape:pageopacity="0.0"
     inkscape:pageshadow="2"
     inkscape:zoom="1"
     inkscape:cx="287.89558"
     inkscape:cy="268.96047"
     inkscape:document-units="px"
     inkscape:current-layer="layer1"
     showgrid="false"
     inkscape:window-width="1600"
     inkscape:window-height="845"
     inkscape:window-x="1920"
     inkscape:window-y="327"
     inkscape:window-maximized="1"
     units="in"
     fit-margin-top="1"
     fit-margin-left="1"
     fit-margin-right="1"
     fit-margin-bottom="1" />
  <metadata
     id="metadata7427">
    <rdf:RDF>
      <cc:Work
         rdf:about="">
        <dc:format>image/svg+xml</dc:format>
        <dc:type
           rdf:resource="http://purl.org/dc/dcmitype/StillImage" />
        <dc:title />
      </cc:Work>
    </rdf:RDF>
  </metadata>
  <g
     inkscape:label="Layer 1"
     inkscape:groupmode="layer"
     id="layer1"
     transform="translate(-87.10442,-152.61126)">
    <g
       id="g8420"
       transform="matrix(6.9380135,0,0,6.9380135,-2349.0571,-2932.3017)">
      <g
         transform="matrix(1.25,0,0,-1.25,391.82319,463.77624)"
         id="g5668">
        <path
           id="path5670"
           style="fill:#241f21;fill-opacity:1;fill-rule:nonzero;stroke:none"
           d="m 0,0 0,3.432 c 0,0.828 -0.672,1.5 -1.5,1.5 -0.828,0 -1.5,-0.672 -1.5,-1.5 l 0,-3.26 -16.427,0 c -1.517,0 -2.748,-1.231 -2.748,-2.748 l 0,-42.691 c 0,-1.517 1.231,-2.748 2.748,-2.748 l 18.5,0 c 1.518,0 2.748,1.231 2.748,2.748 l 0,42.691 C 1.821,-1.386 1.06,-0.381 0,0 m -14.542,-37.87 c 0,-0.735 -0.298,-1.33 -0.665,-1.33 l -2.981,0 c -0.368,0 -0.666,0.595 -0.666,1.33 l 0,0.42 c 0,0.734 0.298,1.329 0.666,1.329 l 2.981,0 c 0.367,0 0.665,-0.595 0.665,-1.329 l 0,-0.42 z m 0,5.375 c 0,-0.735 -0.298,-1.33 -0.665,-1.33 l -2.981,0 c -0.368,0 -0.666,0.595 -0.666,1.33 l 0,0.42 c 0,0.734 0.298,1.329 0.666,1.329 l 2.981,0 c 0.367,0 0.665,-0.595 0.665,-1.329 l 0,-0.42 z m 0,5.375 c 0,-0.735 -0.298,-1.33 -0.665,-1.33 l -2.981,0 c -0.368,0 -0.666,0.595 -0.666,1.33 l 0,0.42 c 0,0.734 0.298,1.329 0.666,1.329 l 2.981,0 c 0.367,0 0.665,-0.595 0.665,-1.329 l 0,-0.42 z m 6.521,-10.75 c 0,-0.735 -0.298,-1.33 -0.665,-1.33 l -2.981,0 c -0.367,0 -0.666,0.595 -0.666,1.33 l 0,0.42 c 0,0.734 0.299,1.329 0.666,1.329 l 2.981,0 c 0.367,0 0.665,-0.595 0.665,-1.329 l 0,-0.42 z m 0,5.375 c 0,-0.735 -0.298,-1.33 -0.665,-1.33 l -2.981,0 c -0.367,0 -0.666,0.595 -0.666,1.33 l 0,0.42 c 0,0.734 0.299,1.329 0.666,1.329 l 2.981,0 c 0.367,0 0.665,-0.595 0.665,-1.329 l 0,-0.42 z m 0,5.375 c 0,-0.735 -0.298,-1.33 -0.665,-1.33 l -2.981,0 c -0.367,0 -0.666,0.595 -0.666,1.33 l 0,0.42 c 0,0.734 0.299,1.329 0.666,1.329 l 2.981,0 c 0.367,0 0.665,-0.595 0.665,-1.329 l 0,-0.42 z M -1.5,-37.87 c 0,-0.735 -0.298,-1.33 -0.665,-1.33 l -2.981,0 c -0.368,0 -0.665,0.595 -0.665,1.33 l 0,0.42 c 0,0.734 0.297,1.329 0.665,1.329 l 2.981,0 c 0.367,0 0.665,-0.595 0.665,-1.329 l 0,-0.42 z m 0,5.375 c 0,-0.735 -0.298,-1.33 -0.665,-1.33 l -2.981,0 c -0.368,0 -0.665,0.595 -0.665,1.33 l 0,0.42 c 0,0.734 0.297,1.329 0.665,1.329 l 2.981,0 c 0.367,0 0.665,-0.595 0.665,-1.329 l 0,-0.42 z m 0,5.375 c 0,-0.735 -0.298,-1.33 -0.665,-1.33 l -2.981,0 c -0.368,0 -0.665,0.595 -0.665,1.33 l 0,0.42 c 0,0.734 0.297,1.329 0.665,1.329 l 2.981,0 c 0.367,0 0.665,-0.595 0.665,-1.329 l 0,-0.42 z m 0,6.427 -17.489,0 0,16.559 17.489,0 0,-16.559 z"
           inkscape:connector-curvature="0" />
      </g>
      <path
         id="path5672"
         style="fill:#ffffff;fill-opacity:1;fill-rule:nonzero;stroke:none"
         d="m 368.08682,489.64287 21.86124,0 0,-20.69875 -21.86124,0 0,20.69875 z"
         inkscape:connector-curvature="0" />
    </g>
  </g>
</svg>
