<?xml version="1.0" encoding="UTF-8" standalone="no"?>
<!-- Created with Inkscape (http://www.inkscape.org/) -->

<svg
   xmlns:dc="http://purl.org/dc/elements/1.1/"
   xmlns:cc="http://creativecommons.org/ns#"
   xmlns:rdf="http://www.w3.org/1999/02/22-rdf-syntax-ns#"
   xmlns:svg="http://www.w3.org/2000/svg"
   xmlns="http://www.w3.org/2000/svg"
   xmlns:sodipodi="http://sodipodi.sourceforge.net/DTD/sodipodi-0.dtd"
   xmlns:inkscape="http://www.inkscape.org/namespaces/inkscape"
   width="556.37274"
   height="501.74219"
   id="svg7187"
   version="1.1"
   inkscape:version="0.48.4 r9939"
   sodipodi:docname="Electronics_A012.svg">
  <defs
     id="defs7189">
    <clipPath
       clipPathUnits="userSpaceOnUse"
       id="clipPath4444">
      <path
         inkscape:connector-curvature="0"
         d="M 0,0 612,0 612,792 0,792 0,0 z"
         id="path4446" />
    </clipPath>
    <clipPath
       clipPathUnits="userSpaceOnUse"
       id="clipPath4428">
      <path
         inkscape:connector-curvature="0"
         d="M 0,0 612,0 612,792 0,792 0,0 z"
         id="path4430" />
    </clipPath>
  </defs>
  <sodipodi:namedview
     id="base"
     pagecolor="#ffffff"
     bordercolor="#666666"
     borderopacity="1.0"
     inkscape:pageopacity="0.0"
     inkscape:pageshadow="2"
     inkscape:zoom="1"
     inkscape:cx="333.25629"
     inkscape:cy="225.10567"
     inkscape:document-units="px"
     inkscape:current-layer="layer1"
     showgrid="false"
     inkscape:window-width="1920"
     inkscape:window-height="1172"
     inkscape:window-x="0"
     inkscape:window-y="0"
     inkscape:window-maximized="1"
     units="in"
     fit-margin-top="1"
     fit-margin-left="1"
     fit-margin-right="1"
     fit-margin-bottom="1" />
  <metadata
     id="metadata7192">
    <rdf:RDF>
      <cc:Work
         rdf:about="">
        <dc:format>image/svg+xml</dc:format>
        <dc:type
           rdf:resource="http://purl.org/dc/dcmitype/StillImage" />
        <dc:title />
      </cc:Work>
    </rdf:RDF>
  </metadata>
  <g
     inkscape:label="Layer 1"
     inkscape:groupmode="layer"
     id="layer1"
     transform="translate(-41.74371,-255.72323)">
    <g
       id="g2998"
       transform="matrix(2.9166134,0,0,2.9166134,-794.15855,-1004.2783)">
      <path
         id="path4422"
         style="fill:#241f21;fill-opacity:1;fill-rule:nonzero;stroke:none"
         d="m 426.17056,529.08987 -88.3875,0 0,-63.57625 88.3875,0 0,63.57625 z"
         inkscape:connector-curvature="0" />
      <g
         id="g4424"
         transform="matrix(1.25,0,0,-1.25,236.13806,939.08737)">
        <g
           clip-path="url(#clipPath4428)"
           id="g4426">
          <g
             transform="translate(168.0444,295.8361)"
             id="g4432">
            <path
               id="path4434"
               style="fill:#241f21;fill-opacity:1;fill-rule:nonzero;stroke:none"
               d="m 0,0 -14.141,26.821 c -0.366,0.698 -1.086,1.13 -1.877,1.13 l -70.71,0 c -0.783,0 -1.502,-0.432 -1.872,-1.13 L -102.744,0 c -0.347,-0.659 -0.323,-1.447 0.062,-2.085 0.385,-0.633 1.074,-1.025 1.816,-1.025 l 98.991,0 c 0.746,0 1.43,0.392 1.814,1.025 C 0.328,-1.447 0.349,-0.659 0,0"
               inkscape:connector-curvature="0" />
          </g>
        </g>
      </g>
      <g
         transform="matrix(1.25,0,0,-1.25,400.83368,565.64712)"
         id="g4436">
        <path
           id="path4438"
           style="fill:#ffffff;fill-opacity:1;fill-rule:nonzero;stroke:none"
           d="m 0,0 -30.167,0 2.892,8.171 24.381,0 L 0,0 z"
           inkscape:connector-curvature="0" />
      </g>
      <g
         id="g4440"
         transform="matrix(1.25,0,0,-1.25,236.13806,939.08737)">
        <g
           clip-path="url(#clipPath4444)"
           id="g4442">
          <g
             transform="translate(152.026,380.977)"
             id="g4448">
            <path
               id="path4450"
               style="fill:#241f21;fill-opacity:1;fill-rule:nonzero;stroke:none"
               d="m 0,0 -70.71,0 c -1.169,0 -2.118,-0.947 -2.118,-2.118 l 0,-50.861 c 0,-1.171 0.949,-2.122 2.118,-2.122 l 70.71,0 c 1.174,0 2.123,0.951 2.123,2.122 l 0,50.861 C 2.123,-0.947 1.174,0 0,0"
               inkscape:connector-curvature="0" />
          </g>
        </g>
      </g>
      <path
         id="path4452"
         style="fill:#ffffff;fill-opacity:1;fill-rule:nonzero;stroke:none"
         d="m 419.68806,522.02362 -75.4225,0 0,-49.43125 75.4225,0 0,49.43125 z"
         inkscape:connector-curvature="0" />
    </g>
  </g>
</svg>
