<?xml version="1.0" encoding="UTF-8" standalone="no"?>
<!-- Created with Inkscape (http://www.inkscape.org/) -->

<svg
   xmlns:dc="http://purl.org/dc/elements/1.1/"
   xmlns:cc="http://creativecommons.org/ns#"
   xmlns:rdf="http://www.w3.org/1999/02/22-rdf-syntax-ns#"
   xmlns:svg="http://www.w3.org/2000/svg"
   xmlns="http://www.w3.org/2000/svg"
   xmlns:sodipodi="http://sodipodi.sourceforge.net/DTD/sodipodi-0.dtd"
   xmlns:inkscape="http://www.inkscape.org/namespaces/inkscape"
   width="369.18326"
   height="259.08618"
   id="svg4121"
   version="1.1"
   inkscape:version="0.48.4 r9939"
   sodipodi:docname="Trees_3.svg">
  <defs
     id="defs4123" />
  <sodipodi:namedview
     id="base"
     pagecolor="#ffffff"
     bordercolor="#666666"
     borderopacity="1.0"
     inkscape:pageopacity="0.0"
     inkscape:pageshadow="2"
     inkscape:zoom="1"
     inkscape:cx="190.09164"
     inkscape:cy="122.12501"
     inkscape:document-units="px"
     inkscape:current-layer="layer1"
     showgrid="false"
     units="px"
     fit-margin-top="5"
     fit-margin-left="5"
     fit-margin-right="5"
     fit-margin-bottom="5"
     inkscape:window-width="1920"
     inkscape:window-height="1030"
     inkscape:window-x="0"
     inkscape:window-y="0"
     inkscape:window-maximized="1" />
  <metadata
     id="metadata4126">
    <rdf:RDF>
      <cc:Work
         rdf:about="">
        <dc:format>image/svg+xml</dc:format>
        <dc:type
           rdf:resource="http://purl.org/dc/dcmitype/StillImage" />
        <dc:title />
      </cc:Work>
    </rdf:RDF>
  </metadata>
  <g
     inkscape:label="Layer 1"
     inkscape:groupmode="layer"
     id="layer1"
     transform="translate(-186.90836,-395.39859)">
    <g
       id="g116"
       transform="matrix(2.2458001,0,0,-2.2458001,400.97214,461.3033)">
      <path
         inkscape:connector-curvature="0"
         d="m 0,0 c 0,8.564 -6.254,15.647 -14.439,16.983 -3.009,5.027 -8.492,8.402 -14.776,8.402 -5.119,0 -9.702,-2.245 -12.858,-5.789 -3.156,3.544 -7.74,5.789 -12.858,5.789 -9.119,0 -16.562,-7.088 -17.17,-16.052 -1.212,0.27 -2.467,0.424 -3.76,0.424 -9.517,0 -17.23,-7.714 -17.23,-17.23 0,-7.871 5.283,-14.495 12.494,-16.554 1.495,-7.993 8.496,-14.045 16.923,-14.045 1.906,0 3.733,0.322 5.447,0.893 l 0,-33.891 23.566,0 0,29.423 c 5.03,0.897 9.295,3.971 11.799,8.219 1.766,-0.612 3.657,-0.961 5.633,-0.961 9.515,0 17.229,7.714 17.229,17.23 0,3.127 -0.846,6.052 -2.303,8.579 C -0.846,-6.052 0,-3.127 0,0"
         style="fill:#241f21;fill-opacity:1;fill-rule:nonzero;stroke:none"
         id="path118" />
    </g>
    <g
       id="g144"
       transform="matrix(2.2458001,0,0,-2.2458001,551.09163,428.90228)">
      <path
         inkscape:connector-curvature="0"
         d="m 0,0 c 0,4.282 -3.082,7.824 -7.116,8.492 -1.484,2.513 -4.186,4.2 -7.283,4.2 -2.524,0 -4.782,-1.122 -6.338,-2.894 -1.555,1.772 -3.815,2.894 -6.337,2.894 -4.495,0 -8.164,-3.544 -8.463,-8.025 -0.597,0.134 -1.216,0.211 -1.854,0.211 -4.69,0 -8.492,-3.857 -8.492,-8.614 0,-3.936 2.604,-7.248 6.158,-8.278 0.737,-3.996 4.188,-7.022 8.341,-7.022 0.94,0 1.84,0.161 2.685,0.447 l 0,-16.946 11.615,0 0,14.711 c 2.48,0.449 4.581,1.986 5.816,4.11 0.87,-0.306 1.802,-0.48 2.776,-0.48 4.69,0 8.492,3.857 8.492,8.614 0,1.564 -0.417,3.026 -1.135,4.29 C -0.417,-3.026 0,-1.563 0,0"
         style="fill:#241f21;fill-opacity:1;fill-rule:nonzero;stroke:none"
         id="path146" />
    </g>
    <g
       id="g148"
       transform="matrix(2.2458001,0,0,-2.2458001,551.09163,569.68026)">
      <path
         inkscape:connector-curvature="0"
         d="m 0,0 c 0,4.282 -3.082,7.824 -7.116,8.492 -1.484,2.513 -4.186,4.2 -7.283,4.2 -2.524,0 -4.782,-1.122 -6.338,-2.894 -1.555,1.772 -3.815,2.894 -6.337,2.894 -4.495,0 -8.164,-3.544 -8.463,-8.025 -0.597,0.134 -1.216,0.211 -1.854,0.211 -4.69,0 -8.492,-3.857 -8.492,-8.614 0,-3.936 2.604,-7.248 6.158,-8.278 0.737,-3.996 4.188,-7.022 8.341,-7.022 0.94,0 1.84,0.161 2.685,0.447 l 0,-16.946 11.615,0 0,14.711 c 2.48,0.449 4.581,1.986 5.816,4.11 0.87,-0.306 1.802,-0.48 2.776,-0.48 4.69,0 8.492,3.857 8.492,8.614 0,1.564 -0.417,3.026 -1.135,4.29 C -0.417,-3.026 0,-1.563 0,0"
         style="fill:#241f21;fill-opacity:1;fill-rule:nonzero;stroke:none"
         id="path150" />
    </g>
  </g>
</svg>
