<?xml version="1.0" encoding="UTF-8" standalone="no"?>
<!-- Created with Inkscape (http://www.inkscape.org/) -->

<svg
   xmlns:dc="http://purl.org/dc/elements/1.1/"
   xmlns:cc="http://creativecommons.org/ns#"
   xmlns:rdf="http://www.w3.org/1999/02/22-rdf-syntax-ns#"
   xmlns:svg="http://www.w3.org/2000/svg"
   xmlns="http://www.w3.org/2000/svg"
   xmlns:sodipodi="http://sodipodi.sourceforge.net/DTD/sodipodi-0.dtd"
   xmlns:inkscape="http://www.inkscape.org/namespaces/inkscape"
   width="253.4892"
   height="293.61945"
   id="svg4061"
   version="1.1"
   inkscape:version="0.48.4 r9939"
   sodipodi:docname="Trees_2.svg">
  <defs
     id="defs4063" />
  <sodipodi:namedview
     id="base"
     pagecolor="#ffffff"
     bordercolor="#666666"
     borderopacity="1.0"
     inkscape:pageopacity="0.0"
     inkscape:pageshadow="2"
     inkscape:zoom="1"
     inkscape:cx="150.03064"
     inkscape:cy="139.31216"
     inkscape:document-units="px"
     inkscape:current-layer="layer1"
     showgrid="false"
     fit-margin-top="5"
     fit-margin-left="5"
     fit-margin-right="5"
     fit-margin-bottom="5"
     units="px"
     inkscape:window-width="1920"
     inkscape:window-height="1030"
     inkscape:window-x="0"
     inkscape:window-y="0"
     inkscape:window-maximized="1" />
  <metadata
     id="metadata4066">
    <rdf:RDF>
      <cc:Work
         rdf:about="">
        <dc:format>image/svg+xml</dc:format>
        <dc:type
           rdf:resource="http://purl.org/dc/dcmitype/StillImage" />
        <dc:title />
      </cc:Work>
    </rdf:RDF>
  </metadata>
  <g
     inkscape:label="Layer 1"
     inkscape:groupmode="layer"
     id="layer1"
     transform="translate(-226.96936,-378.05245)">
    <g
       id="g60"
       transform="matrix(2.1907408,0,0,-2.1907408,341.30704,467.82906)">
      <path
         inkscape:connector-curvature="0"
         d="m 0,0 c 1.129,2.292 1.779,4.861 1.779,7.589 0,9.515 -7.714,17.229 -17.229,17.229 -6.841,0 -12.733,-3.996 -15.515,-9.773 -0.564,0.057 -1.136,0.087 -1.715,0.087 -9.516,0 -17.229,-7.714 -17.229,-17.23 0,-5.367 2.455,-10.16 6.303,-13.32 -0.05,-0.534 -0.083,-1.073 -0.083,-1.621 0,-9.516 7.712,-17.23 17.229,-17.23 l 0,-38.969 8.486,0 0,41.214 c 1.215,0.689 2.334,1.524 3.342,2.477 0.94,-0.158 1.899,-0.26 2.883,-0.26 9.516,0 17.229,7.714 17.229,17.23 C 5.48,-7.608 3.365,-3.144 0,0"
         style="fill:#241f21;fill-opacity:1;fill-rule:nonzero;stroke:none"
         id="path62" />
    </g>
    <g
       id="g104"
       transform="matrix(2.1907408,0,0,-2.1907408,468.25978,415.65505)">
      <path
         inkscape:connector-curvature="0"
         d="m 0,0 c 0.677,1.374 1.067,2.915 1.067,4.551 0,5.706 -4.626,10.331 -10.332,10.331 -4.102,0 -7.635,-2.396 -9.303,-5.86 -0.339,0.034 -0.681,0.052 -1.028,0.052 -5.707,0 -10.332,-4.626 -10.332,-10.332 0,-3.218 1.472,-6.092 3.779,-7.987 -0.03,-0.321 -0.049,-0.644 -0.049,-0.973 0,-5.706 4.625,-10.331 10.331,-10.332 l 0,-23.368 5.089,0 0,24.714 c 0.729,0.414 1.4,0.915 2.004,1.486 0.563,-0.095 1.138,-0.156 1.729,-0.156 5.706,0 10.331,4.626 10.331,10.332 C 3.286,-4.562 2.018,-1.886 0,0"
         style="fill:#241f21;fill-opacity:1;fill-rule:nonzero;stroke:none"
         id="path106" />
    </g>
    <g
       id="g108"
       transform="matrix(2.1907408,0,0,-2.1907408,468.25978,570.45895)">
      <path
         inkscape:connector-curvature="0"
         d="m 0,0 c 0.677,1.374 1.067,2.915 1.067,4.551 0,5.706 -4.626,10.331 -10.332,10.331 -4.102,0 -7.635,-2.396 -9.303,-5.86 -0.339,0.034 -0.681,0.052 -1.028,0.052 -5.707,0 -10.332,-4.626 -10.332,-10.332 0,-3.218 1.472,-6.092 3.779,-7.987 -0.03,-0.321 -0.049,-0.644 -0.049,-0.973 0,-5.706 4.625,-10.331 10.331,-10.332 l 0,-23.368 5.089,0 0,24.714 c 0.729,0.414 1.4,0.915 2.004,1.486 0.563,-0.095 1.138,-0.156 1.729,-0.156 5.706,0 10.331,4.626 10.331,10.332 C 3.286,-4.562 2.018,-1.886 0,0"
         style="fill:#241f21;fill-opacity:1;fill-rule:nonzero;stroke:none"
         id="path110" />
    </g>
  </g>
</svg>
