<?xml version="1.0" encoding="UTF-8" standalone="no"?>
<!-- Created with Inkscape (http://www.inkscape.org/) -->

<svg
   xmlns:dc="http://purl.org/dc/elements/1.1/"
   xmlns:cc="http://creativecommons.org/ns#"
   xmlns:rdf="http://www.w3.org/1999/02/22-rdf-syntax-ns#"
   xmlns:svg="http://www.w3.org/2000/svg"
   xmlns="http://www.w3.org/2000/svg"
   xmlns:sodipodi="http://sodipodi.sourceforge.net/DTD/sodipodi-0.dtd"
   xmlns:inkscape="http://www.inkscape.org/namespaces/inkscape"
   width="211.04974"
   height="228.96536"
   id="svg3709"
   version="1.1"
   inkscape:version="0.48.4 r9939"
   sodipodi:docname="Trees_1.svg">
  <defs
     id="defs3711" />
  <sodipodi:namedview
     id="base"
     pagecolor="#ffffff"
     bordercolor="#666666"
     borderopacity="1.0"
     inkscape:pageopacity="0.0"
     inkscape:pageshadow="2"
     inkscape:zoom="1"
     inkscape:cx="213.32947"
     inkscape:cy="75.196406"
     inkscape:document-units="px"
     inkscape:current-layer="layer1"
     showgrid="false"
     fit-margin-top="5"
     fit-margin-left="5"
     fit-margin-right="5"
     fit-margin-bottom="5"
     units="px"
     inkscape:window-width="1920"
     inkscape:window-height="1030"
     inkscape:window-x="0"
     inkscape:window-y="0"
     inkscape:window-maximized="1"
     showborder="true" />
  <metadata
     id="metadata3714">
    <rdf:RDF>
      <cc:Work
         rdf:about="">
        <dc:format>image/svg+xml</dc:format>
        <dc:type
           rdf:resource="http://purl.org/dc/dcmitype/StillImage" />
        <dc:title />
      </cc:Work>
    </rdf:RDF>
  </metadata>
  <g
     inkscape:label="Layer 1"
     inkscape:groupmode="layer"
     id="layer1"
     transform="translate(-163.67053,-378.59384)">
    <g
       id="g152"
       transform="matrix(1.8687135,0,0,-1.8687135,268.22064,496.19588)">
      <path
         inkscape:connector-curvature="0"
         d="M 0,0 4.398,0 -25.437,55.321 -53.272,0 l 4.104,0 -4.104,-8.156 4.104,0 -4.104,-8.156 4.104,0 -4.104,-8.155 4.104,0 -4.104,-8.156 23.352,0 0,-15.748 8.486,0 0,15.748 25.832,0 -4.398,8.156 4.398,0 -4.398,8.155 4.398,0 -4.398,8.156 4.398,0 L 0,0 z"
         style="fill:#241f21;fill-opacity:1;fill-rule:nonzero;stroke:none"
         id="path154" />
    </g>
    <g
       id="g208"
       transform="matrix(1.8687135,0,0,-1.8687135,365.61097,435.28432)">
      <path
         inkscape:connector-curvature="0"
         d="M 0,0 2.199,0 -12.718,27.661 -26.636,0 l 2.052,0 -2.052,-4.078 2.052,0 -2.052,-4.078 2.052,0 -2.052,-4.077 2.052,0 -2.052,-4.079 11.676,0 0,-7.874 4.243,0 0,7.874 12.916,0 -2.199,4.079 2.199,0 -2.199,4.077 2.199,0 -2.199,4.078 2.199,0 L 0,0 z"
         style="fill:#241f21;fill-opacity:1;fill-rule:nonzero;stroke:none"
         id="path210" />
    </g>
    <g
       id="g212"
       transform="matrix(1.8687135,0,0,-1.8687135,365.61097,557.36249)">
      <path
         inkscape:connector-curvature="0"
         d="M 0,0 2.199,0 -12.718,27.661 -26.636,0 l 2.052,0 -2.052,-4.078 2.052,0 -2.052,-4.078 2.052,0 -2.052,-4.077 2.052,0 -2.052,-4.078 11.676,0 0,-7.875 4.243,0 0,7.875 12.916,0 -2.199,4.078 2.199,0 -2.199,4.077 2.199,0 -2.199,4.078 2.199,0 L 0,0 z"
         style="fill:#241f21;fill-opacity:1;fill-rule:nonzero;stroke:none"
         id="path214" />
    </g>
  </g>
</svg>
