<?xml version="1.0" encoding="UTF-8" standalone="no"?>
<!-- Created with Inkscape (http://www.inkscape.org/) -->

<svg
   xmlns:dc="http://purl.org/dc/elements/1.1/"
   xmlns:cc="http://creativecommons.org/ns#"
   xmlns:rdf="http://www.w3.org/1999/02/22-rdf-syntax-ns#"
   xmlns:svg="http://www.w3.org/2000/svg"
   xmlns="http://www.w3.org/2000/svg"
   xmlns:sodipodi="http://sodipodi.sourceforge.net/DTD/sodipodi-0.dtd"
   xmlns:inkscape="http://www.inkscape.org/namespaces/inkscape"
   width="178.625"
   height="178.625"
   id="svg3460"
   version="1.1"
   inkscape:version="0.48.4 r9939"
   sodipodi:docname="New document 10">
  <defs
     id="defs3462" />
  <sodipodi:namedview
     id="base"
     pagecolor="#ffffff"
     bordercolor="#666666"
     borderopacity="1.0"
     inkscape:pageopacity="0.0"
     inkscape:pageshadow="2"
     inkscape:zoom="1"
     inkscape:cx="213.3125"
     inkscape:cy="-54.687538"
     inkscape:document-units="px"
     inkscape:current-layer="layer1"
     showgrid="false"
     fit-margin-top="5"
     fit-margin-left="5"
     fit-margin-right="5"
     fit-margin-bottom="5"
     inkscape:window-width="1920"
     inkscape:window-height="1030"
     inkscape:window-x="0"
     inkscape:window-y="0"
     inkscape:window-maximized="1" />
  <metadata
     id="metadata3465">
    <rdf:RDF>
      <cc:Work
         rdf:about="">
        <dc:format>image/svg+xml</dc:format>
        <dc:type
           rdf:resource="http://purl.org/dc/dcmitype/StillImage" />
        <dc:title></dc:title>
      </cc:Work>
    </rdf:RDF>
  </metadata>
  <g
     inkscape:label="Layer 1"
     inkscape:groupmode="layer"
     id="layer1"
     transform="translate(-161.6875,-299.04965)">
    <g
       transform="matrix(4.1635802,0,0,-4.1635802,166.6875,1765.9118)"
       id="g3259">
      <path
         d="m 20.25,311.107 c -10.89023,0 -19.75,8.859 -19.75,19.75 0,10.891 8.85977,19.75 19.75,19.75 10.8902,0 19.75,-8.859 19.75,-19.75 0,-10.891 -8.8598,-19.75 -19.75,-19.75 z m 0,40 C 9.08398,351.107 0,342.023 0,330.857 c 0,-11.166 9.08398,-20.25 20.25,-20.25 11.166,0 20.25,9.084 20.25,20.25 0,11.166 -9.084,20.25 -20.25,20.25"
         style="fill:#211c1d;fill-opacity:1;fill-rule:nonzero;stroke:none"
         id="path134"
         inkscape:connector-curvature="0" />
      <path
         d="m 20.25,314.941 c -8.7758,0 -15.91602,7.14 -15.91602,15.916 0,8.776 7.14022,15.916 15.91602,15.916 8.7758,0 15.916,-7.14 15.916,-15.916 0,-8.776 -7.1402,-15.916 -15.916,-15.916 z m 0,32.332 c -9.052,0 -16.41602,-7.364 -16.41602,-16.416 0,-9.052 7.36402,-16.416 16.41602,-16.416 9.052,0 16.416,7.364 16.416,16.416 0,9.052 -7.364,16.416 -16.416,16.416"
         style="fill:#211c1d;fill-opacity:1;fill-rule:nonzero;stroke:none"
         id="path136"
         inkscape:connector-curvature="0" />
      <path
         d="m 20.25,320.232 c -5.8586,0 -10.625,4.767 -10.625,10.625 0,5.858 4.7664,10.625 10.625,10.625 5.8586,0 10.625,-4.767 10.625,-10.625 0,-5.858 -4.7664,-10.625 -10.625,-10.625 z m 0,24.25 c -7.5129,0 -13.625,-6.112 -13.625,-13.625 0,-7.513 6.1121,-13.625 13.625,-13.625 7.5129,0 13.625,6.112 13.625,13.625 0,7.513 -6.1121,13.625 -13.625,13.625"
         style="fill:#211c1d;fill-opacity:1;fill-rule:nonzero;stroke:none"
         id="path138"
         inkscape:connector-curvature="0" />
      <path
         d="m 20.25,324.146 c -3.6992,0 -6.709,3.011 -6.709,6.711 0,3.699 3.0098,6.709 6.709,6.709 3.6992,0 6.709,-3.01 6.709,-6.709 0,-3.7 -3.0098,-6.711 -6.709,-6.711 z m 0,16.42 c -5.3535,0 -9.709,-4.356 -9.709,-9.709 0,-5.355 4.3555,-9.711 9.709,-9.711 5.3535,0 9.709,4.356 9.709,9.711 0,5.353 -4.3555,9.709 -9.709,9.709"
         style="fill:#211c1d;fill-opacity:1;fill-rule:nonzero;stroke:none"
         id="path140"
         inkscape:connector-curvature="0" />
      <path
         d="m 20.25,327.951 c -1.6023,0 -2.9062,1.303 -2.9062,2.906 0,1.602 1.3039,2.906 2.9062,2.906 1.6023,0 2.9063,-1.304 2.9063,-2.906 0,-1.603 -1.304,-2.906 -2.9063,-2.906 z m 0,8.812 c -3.2566,0 -5.9062,-2.649 -5.9062,-5.906 0,-3.257 2.6496,-5.906 5.9062,-5.906 3.2566,0 5.9063,2.649 5.9063,5.906 0,3.257 -2.6497,5.906 -5.9063,5.906"
         style="fill:#211c1d;fill-opacity:1;fill-rule:nonzero;stroke:none"
         id="path142"
         inkscape:connector-curvature="0" />
    </g>
  </g>
</svg>
