<?xml version="1.0" encoding="UTF-8" standalone="no"?>
<!-- Created with Inkscape (http://www.inkscape.org/) -->

<svg
   xmlns:dc="http://purl.org/dc/elements/1.1/"
   xmlns:cc="http://creativecommons.org/ns#"
   xmlns:rdf="http://www.w3.org/1999/02/22-rdf-syntax-ns#"
   xmlns:svg="http://www.w3.org/2000/svg"
   xmlns="http://www.w3.org/2000/svg"
   xmlns:sodipodi="http://sodipodi.sourceforge.net/DTD/sodipodi-0.dtd"
   xmlns:inkscape="http://www.inkscape.org/namespaces/inkscape"
   width="204.625"
   height="204.625"
   id="svg3550"
   version="1.1"
   inkscape:version="0.48.4 r9939"
   sodipodi:docname="New document 14">
  <defs
     id="defs3552" />
  <sodipodi:namedview
     id="base"
     pagecolor="#ffffff"
     bordercolor="#666666"
     borderopacity="1.0"
     inkscape:pageopacity="0.0"
     inkscape:pageshadow="2"
     inkscape:zoom="1"
     inkscape:cx="63.312486"
     inkscape:cy="95.312409"
     inkscape:document-units="px"
     inkscape:current-layer="layer1"
     showgrid="false"
     fit-margin-top="5"
     fit-margin-left="5"
     fit-margin-right="5"
     fit-margin-bottom="5"
     inkscape:window-width="1920"
     inkscape:window-height="1030"
     inkscape:window-x="0"
     inkscape:window-y="0"
     inkscape:window-maximized="1" />
  <metadata
     id="metadata3555">
    <rdf:RDF>
      <cc:Work
         rdf:about="">
        <dc:format>image/svg+xml</dc:format>
        <dc:type
           rdf:resource="http://purl.org/dc/dcmitype/StillImage" />
        <dc:title></dc:title>
      </cc:Work>
    </rdf:RDF>
  </metadata>
  <g
     inkscape:label="Layer 1"
     inkscape:groupmode="layer"
     id="layer1"
     transform="translate(-311.68751,-423.04959)">
    <g
       transform="matrix(4.8055556,0,0,-4.8055556,-940.86872,2115.3138)"
       id="g3273">
      <path
         d="m 281.938,311.107 c -10.89,0 -19.75,8.859 -19.75,19.75 0,10.891 8.86,19.75 19.75,19.75 10.891,0 19.75,-8.859 19.75,-19.75 0,-10.891 -8.859,-19.75 -19.75,-19.75 z m 0,40 c -11.166,0 -20.25,-9.084 -20.25,-20.25 0,-11.166 9.084,-20.25 20.25,-20.25 11.166,0 20.25,9.084 20.25,20.25 0,11.166 -9.084,20.25 -20.25,20.25"
         style="fill:#211c1d;fill-opacity:1;fill-rule:nonzero;stroke:none"
         id="path154"
         inkscape:connector-curvature="0" />
      <path
         d="m 281.938,314.941 c -8.776,0 -15.917,7.14 -15.917,15.916 0,8.776 7.141,15.916 15.917,15.916 8.776,0 15.916,-7.14 15.916,-15.916 0,-8.776 -7.14,-15.916 -15.916,-15.916 z m 0,32.332 c -9.052,0 -16.417,-7.364 -16.417,-16.416 0,-9.052 7.365,-16.416 16.417,-16.416 9.052,0 16.416,7.364 16.416,16.416 0,9.052 -7.364,16.416 -16.416,16.416"
         style="fill:#211c1d;fill-opacity:1;fill-rule:nonzero;stroke:none"
         id="path156"
         inkscape:connector-curvature="0" />
      <path
         d="m 281.938,318.982 c -6.548,0 -11.875,5.327 -11.875,11.875 0,6.548 5.327,11.875 11.875,11.875 6.548,0 11.875,-5.327 11.875,-11.875 0,-6.548 -5.327,-11.875 -11.875,-11.875 z m 0,24.25 c -6.824,0 -12.375,-5.552 -12.375,-12.375 0,-6.823 5.551,-12.375 12.375,-12.375 6.824,0 12.375,5.552 12.375,12.375 0,6.823 -5.551,12.375 -12.375,12.375"
         style="fill:#211c1d;fill-opacity:1;fill-rule:nonzero;stroke:none"
         id="path158"
         inkscape:connector-curvature="0" />
      <path
         d="m 281.938,324.148 c -3.699,0 -6.709,3.011 -6.709,6.711 0,3.699 3.01,6.709 6.709,6.709 3.7,0 6.709,-3.01 6.709,-6.709 0,-3.7 -3.009,-6.711 -6.709,-6.711 z m 0,16.42 c -5.353,0 -9.709,-4.356 -9.709,-9.709 0,-5.355 4.356,-9.711 9.709,-9.711 5.354,0 9.709,4.356 9.709,9.711 0,5.353 -4.355,9.709 -9.709,9.709"
         style="fill:#211c1d;fill-opacity:1;fill-rule:nonzero;stroke:none"
         id="path160"
         inkscape:connector-curvature="0" />
      <path
         d="m 281.938,327.951 c -1.602,0 -2.906,1.303 -2.906,2.906 0,1.602 1.304,2.906 2.906,2.906 1.603,0 2.906,-1.304 2.906,-2.906 0,-1.603 -1.303,-2.906 -2.906,-2.906 z m 0,8.812 c -3.256,0 -5.906,-2.649 -5.906,-5.906 0,-3.257 2.65,-5.906 5.906,-5.906 3.257,0 5.906,2.649 5.906,5.906 0,3.257 -2.649,5.906 -5.906,5.906"
         style="fill:#211c1d;fill-opacity:1;fill-rule:nonzero;stroke:none"
         id="path162"
         inkscape:connector-curvature="0" />
    </g>
  </g>
</svg>
