<?xml version="1.0" encoding="UTF-8" standalone="no"?>
<!-- Created with Inkscape (http://www.inkscape.org/) -->

<svg
   xmlns:dc="http://purl.org/dc/elements/1.1/"
   xmlns:cc="http://creativecommons.org/ns#"
   xmlns:rdf="http://www.w3.org/1999/02/22-rdf-syntax-ns#"
   xmlns:svg="http://www.w3.org/2000/svg"
   xmlns="http://www.w3.org/2000/svg"
   xmlns:sodipodi="http://sodipodi.sourceforge.net/DTD/sodipodi-0.dtd"
   xmlns:inkscape="http://www.inkscape.org/namespaces/inkscape"
   width="184.62503"
   height="190.0146"
   id="svg3370"
   version="1.1"
   inkscape:version="0.48.4 r9939"
   sodipodi:docname="New document 6">
  <defs
     id="defs3372" />
  <sodipodi:namedview
     id="base"
     pagecolor="#ffffff"
     bordercolor="#666666"
     borderopacity="1.0"
     inkscape:pageopacity="0.0"
     inkscape:pageshadow="2"
     inkscape:zoom="1"
     inkscape:cx="-34.68748"
     inkscape:cy="170.09375"
     inkscape:document-units="px"
     inkscape:current-layer="layer1"
     showgrid="false"
     fit-margin-top="5"
     fit-margin-left="5"
     fit-margin-right="5"
     fit-margin-bottom="5"
     inkscape:window-width="1920"
     inkscape:window-height="1030"
     inkscape:window-x="0"
     inkscape:window-y="0"
     inkscape:window-maximized="1" />
  <metadata
     id="metadata3375">
    <rdf:RDF>
      <cc:Work
         rdf:about="">
        <dc:format>image/svg+xml</dc:format>
        <dc:type
           rdf:resource="http://purl.org/dc/dcmitype/StillImage" />
        <dc:title></dc:title>
      </cc:Work>
    </rdf:RDF>
  </metadata>
  <g
     inkscape:label="Layer 1"
     inkscape:groupmode="layer"
     id="layer1"
     transform="translate(-409.68748,-512.44133)">
    <g
       transform="matrix(4.3117269,0,0,-4.3117269,410.01193,697.45593)"
       id="g3280">
      <path
         d="M 21.3344,0.5 C 10.4441,0.5 1.58438,9.36016 1.58438,20.25 c 0,6.723 3.38242,12.6648 8.52852,16.2328 0.2887,-0.3187 0.6898,-0.5 1.1066,-0.5 0.2586,0 0.5207,0.066 0.7594,0.207 2.8457,1.675 6.0809,2.5602 9.3555,2.5602 3.1871,0 6.3433,-0.8359 9.1265,-2.4199 0.6305,-0.359 1.4121,-0.2102 1.8711,0.316 5.2743,-3.55 8.7524,-9.5731 8.7524,-16.3961 0,-10.88984 -8.8598,-19.75 -19.75,-19.75 z m 11.2531,36.575 c 0.2773,0.6859 0.0176,1.4859 -0.6434,1.8621 -3.2339,1.841 -6.9031,2.8129 -10.6097,2.8129 -3.8094,0 -7.5707,-1.0281 -10.877,-2.9742 C 9.80234,38.3891 9.55469,37.5852 9.8418,36.9039 4.5582,33.2469 1.08438,27.15 1.08438,20.25 1.08438,9.08398 10.1684,0 21.3344,0 c 11.166,0 20.25,9.08398 20.25,20.25 0,7.0039 -3.5762,13.1871 -8.9969,16.825"
         style="fill:#211c1d;fill-opacity:1;fill-rule:nonzero;stroke:none"
         id="path164"
         inkscape:connector-curvature="0" />
      <path
         d="m 21.3344,4.33398 c -8.777,0 -15.91682,7.14022 -15.91682,15.91602 0,5.318 2.63008,10.0211 6.64722,12.9141 0.2875,-0.3102 0.6836,-0.484 1.0934,-0.484 0.2582,0 0.5199,0.0668 0.759,0.207 4.4582,2.6199 10.1785,2.6539 14.6519,0.1109 0.6258,-0.3539 1.3938,-0.2128 1.8547,0.2989 4.12,-2.8789 6.8266,-7.6489 6.8266,-13.0469 0,-8.7758 -7.1399,-15.91602 -15.916,-15.91602 z m 9.3527,29.39022 c 0.2902,0.6899 0.0324,1.502 -0.6344,1.8809 -2.6582,1.5129 -5.6734,2.3109 -8.7183,2.3109 -3.1278,0 -6.2188,-0.8441 -8.9379,-2.443 C 11.7344,35.0828 11.4883,34.2672 11.7898,33.5809 7.63711,30.5992 4.91758,25.7418 4.91758,20.25 c 0,-9.0512 7.36442,-16.41602 16.41682,-16.41602 9.0519,0 16.416,7.36482 16.416,16.41602 0,5.577 -2.8008,10.5051 -7.0633,13.4742"
         style="fill:#211c1d;fill-opacity:1;fill-rule:nonzero;stroke:none"
         id="path166"
         inkscape:connector-curvature="0" />
      <path
         d="m 21.3344,8.375 c -6.5485,0 -11.87581,5.3281 -11.87581,11.875 0,3.8352 1.83521,7.2418 4.66481,9.4141 0.2864,-0.2993 0.677,-0.4661 1.0797,-0.4661 0.2586,0 0.5203,0.0661 0.7598,0.2071 3.2219,1.8961 7.3672,1.925 10.6129,0.0808 0.6152,-0.3519 1.3699,-0.2148 1.8328,0.2801 2.9066,-2.1668 4.8008,-5.6199 4.8008,-9.516 0,-6.5469 -5.327,-11.875 -11.875,-11.875 z m 7.3472,21.8102 c 0.3082,0.6957 0.0524,1.5238 -0.6234,1.9078 -4.1629,2.366 -9.4894,2.3269 -13.618,-0.102 C 13.7727,31.5969 13.5289,30.768 13.8441,30.0789 10.8813,27.8148 8.95859,24.257 8.95859,20.25 c 0,-6.823 5.55161,-12.375 12.37581,-12.375 6.8238,0 12.375,5.552 12.375,12.375 0,4.0719 -1.9848,7.6781 -5.0278,9.9352"
         style="fill:#211c1d;fill-opacity:1;fill-rule:nonzero;stroke:none"
         id="path168"
         inkscape:connector-curvature="0" />
      <path
         d="m 21.3344,12.291 c -4.3887,0 -7.959,3.5719 -7.959,7.961 0,2.398 1.0703,4.546 2.7535,6.007 0.2836,-0.2809 0.6645,-0.434 1.0547,-0.434 0.2582,0 0.5199,0.066 0.759,0.207 2.0418,1.2 4.6543,1.2168 6.7,0.05 0.6058,-0.3429 1.3445,-0.2172 1.8094,0.2571 1.7351,-1.4621 2.8414,-3.6461 2.8414,-6.0871 0,-4.3891 -3.5704,-7.961 -7.959,-7.961 z m 5.4035,14.4629 c 0.3269,0.7012 0.0734,1.5449 -0.6102,1.9352 -2.9621,1.6859 -6.7562,1.664 -9.7058,-0.0711 -0.6797,-0.4 -0.9215,-1.2489 -0.5821,-1.9469 -1.8109,-1.552 -2.9644,-3.852 -2.9644,-6.4191 0,-4.6649 3.7949,-8.461 8.459,-8.461 4.664,0 8.459,3.7961 8.459,8.461 0,2.6121 -1.1903,4.9492 -3.0555,6.5019"
         style="fill:#211c1d;fill-opacity:1;fill-rule:nonzero;stroke:none"
         id="path170"
         inkscape:connector-curvature="0" />
      <path
         d="m 21.3344,16.0941 c -2.2918,0 -4.1563,1.8637 -4.1563,4.1559 0,1.009 0.3762,1.923 0.9762,2.6441 0.2715,-0.2281 0.6094,-0.3582 0.959,-0.3582 0.2582,0 0.5199,0.0661 0.759,0.2071 0.9187,0.539 1.9507,0.55 2.8871,0.0199 0.5672,-0.3238 1.2523,-0.2301 1.7191,0.1742 0.6215,-0.7269 1.0113,-1.657 1.0113,-2.6871 0,-2.2922 -1.8644,-4.1559 -4.1554,-4.1559 z m 3.4703,7.2321 c 0.4094,0.7187 0.157,1.6347 -0.5629,2.0449 -1.8523,1.0519 -4.0656,1.032 -5.8902,-0.0422 -0.7145,-0.4199 -0.9528,-1.3391 -0.5328,-2.0539 3e-4,-0.0012 0.0015,-0.002 0.0027,-0.0031 -0.7027,-0.8149 -1.1434,-1.8629 -1.1434,-3.0219 0,-2.5668 2.0891,-4.6559 4.6563,-4.6559 2.5672,0 4.6554,2.0891 4.6554,4.6559 0,1.1832 -0.457,2.252 -1.1863,3.075 0,0 8e-4,0 0.0012,0.0012"
         style="fill:#211c1d;fill-opacity:1;fill-rule:nonzero;stroke:none"
         id="path172"
         inkscape:connector-curvature="0" />
    </g>
  </g>
</svg>
