<?xml version="1.0" encoding="UTF-8" standalone="no"?>
<!-- Created with Inkscape (http://www.inkscape.org/) -->

<svg
   xmlns:dc="http://purl.org/dc/elements/1.1/"
   xmlns:cc="http://creativecommons.org/ns#"
   xmlns:rdf="http://www.w3.org/1999/02/22-rdf-syntax-ns#"
   xmlns:svg="http://www.w3.org/2000/svg"
   xmlns="http://www.w3.org/2000/svg"
   xmlns:sodipodi="http://sodipodi.sourceforge.net/DTD/sodipodi-0.dtd"
   xmlns:inkscape="http://www.inkscape.org/namespaces/inkscape"
   width="201.28368"
   height="207.1875"
   id="svg3310"
   version="1.1"
   inkscape:version="0.48.4 r9939"
   sodipodi:docname="New document 3">
  <defs
     id="defs3312" />
  <sodipodi:namedview
     id="base"
     pagecolor="#ffffff"
     bordercolor="#666666"
     borderopacity="1.0"
     inkscape:pageopacity="0.0"
     inkscape:pageshadow="2"
     inkscape:zoom="1"
     inkscape:cx="-65.028816"
     inkscape:cy="168.09375"
     inkscape:document-units="px"
     inkscape:current-layer="layer1"
     showgrid="false"
     fit-margin-top="5"
     fit-margin-left="5"
     fit-margin-right="5"
     fit-margin-bottom="5"
     inkscape:window-width="1920"
     inkscape:window-height="1030"
     inkscape:window-x="0"
     inkscape:window-y="0"
     inkscape:window-maximized="1" />
  <metadata
     id="metadata3315">
    <rdf:RDF>
      <cc:Work
         rdf:about="">
        <dc:format>image/svg+xml</dc:format>
        <dc:type
           rdf:resource="http://purl.org/dc/dcmitype/StillImage" />
        <dc:title></dc:title>
      </cc:Work>
    </rdf:RDF>
  </metadata>
  <g
     inkscape:label="Layer 1"
     inkscape:groupmode="layer"
     id="layer1"
     transform="translate(-440.02882,-493.26843)">
    <g
       transform="matrix(4.7230539,0,0,-4.7230539,-115.73465,695.45593)"
       id="g3287">
      <path
         d="m 138.979,0.5 c -10.89,0 -19.75,8.86016 -19.75,19.75 0,3.0719 0.725,5.9699 1.981,8.5648 0.15,-0.0476 0.303,-0.0796 0.456,-0.0796 0.518,0 1.022,0.2679 1.3,0.7488 3.304,5.716 9.44,9.266 16.013,9.266 6.566,0 12.699,-3.5441 16.005,-9.2512 0.361,-0.6238 1.101,-0.8898 1.76,-0.675 1.258,-2.5968 1.985,-5.4976 1.985,-8.5738 0,-10.88984 -8.86,-19.75 -19.75,-19.75 z m 18.205,28.5609 c 0.594,0.45 0.779,1.2789 0.396,1.9411 -3.841,6.63 -10.968,10.748 -18.601,10.748 -7.641,0 -14.772,-4.125 -18.61,-10.7641 -0.383,-0.6629 -0.198,-1.491 0.398,-1.9418 -1.292,-2.664 -2.038,-5.639 -2.038,-8.7941 0,-11.16602 9.084,-20.25 20.25,-20.25 11.166,0 20.25,9.08398 20.25,20.25 0,3.1609 -0.749,6.143 -2.045,8.8109"
         style="fill:#211c1d;fill-opacity:1;fill-rule:nonzero;stroke:none"
         id="path174"
         inkscape:connector-curvature="0" />
      <path
         d="m 138.979,4.33398 c -8.777,0 -15.917,7.14022 -15.917,15.91602 0,2.375 0.537,4.6219 1.474,6.648 0.148,-0.0468 0.297,-0.0769 0.448,-0.0769 0.518,0 1.023,0.268 1.301,0.7488 2.619,4.5313 7.483,7.3461 12.694,7.3461 5.205,0 10.067,-2.8101 12.688,-7.334 0.358,-0.6211 1.094,-0.884 1.751,-0.675 0.939,-2.0289 1.478,-4.2789 1.478,-6.657 0,-8.7758 -7.14,-15.91602 -15.917,-15.91602 z m 15.283,24.75192 c -3.155,5.4469 -9.011,8.8301 -15.283,8.8301 -6.279,0 -12.139,-3.389 -15.292,-8.8441 -0.384,-0.6649 -0.196,-1.4969 0.404,-1.9469 -0.971,-2.0941 -1.529,-4.418 -1.529,-6.875 0,-9.0512 7.365,-16.41602 16.417,-16.41602 9.052,0 16.417,7.36482 16.417,16.41602 0,2.4629 -0.561,4.791 -1.536,6.8898 0.599,0.4493 0.787,1.2813 0.402,1.9461"
         style="fill:#211c1d;fill-opacity:1;fill-rule:nonzero;stroke:none"
         id="path176"
         inkscape:connector-curvature="0" />
      <path
         d="m 138.979,8.375 c -6.548,0 -11.876,5.3281 -11.876,11.875 0,1.641 0.335,3.2051 0.939,4.627 0.145,-0.045 0.293,-0.0739 0.44,-0.0739 0.518,0 1.023,0.2688 1.301,0.75 1.897,3.2828 5.421,5.3219 9.196,5.3219 3.771,0 7.293,-2.0359 9.191,-5.3141 0.358,-0.6191 1.089,-0.8839 1.743,-0.6789 0.606,-1.4242 0.942,-2.989 0.942,-4.632 0,-6.5469 -5.328,-11.875 -11.876,-11.875 z m 11.788,18.6898 c -2.433,4.2012 -6.95,6.8102 -11.788,6.8102 -4.843,0 -9.362,-2.6141 -11.794,-6.8219 -0.386,-0.6672 -0.194,-1.5031 0.412,-1.95 -0.639,-1.491 -0.994,-3.1312 -0.994,-4.8531 0,-6.823 5.552,-12.375 12.376,-12.375 6.824,0 12.376,5.552 12.376,12.375 0,1.7262 -0.357,3.3699 -0.999,4.8641 0.606,0.448 0.797,1.2839 0.411,1.9507"
         style="fill:#211c1d;fill-opacity:1;fill-rule:nonzero;stroke:none"
         id="path178"
         inkscape:connector-curvature="0" />
      <path
         d="m 138.974,12.291 c -4.389,0 -7.959,3.5719 -7.959,7.961 0,0.93 0.169,1.8199 0.464,2.65 0.129,-0.0352 0.261,-0.054 0.392,-0.054 0.518,0 1.023,0.2688 1.3,0.7489 1.199,2.075 3.425,3.364 5.808,3.364 2.381,0 4.605,-1.2859 5.805,-3.357 0.346,-0.6 1.044,-0.8609 1.682,-0.691 0.297,-0.8328 0.467,-1.727 0.467,-2.6609 0,-4.3891 -3.57,-7.961 -7.959,-7.961 z m 8.405,12.8168 c -1.734,2.9942 -4.953,4.8531 -8.4,4.8531 -3.451,0 -6.672,-1.8629 -8.405,-4.8617 -0.395,-0.6832 -0.186,-1.541 0.452,-1.9801 -0.325,-0.8972 -0.511,-1.8601 -0.511,-2.8671 0,-4.6649 3.795,-8.461 8.459,-8.461 4.664,0 8.459,3.7961 8.459,8.461 0,1.0082 -0.186,1.9722 -0.512,2.8699 0.644,0.4383 0.855,1.3011 0.458,1.9859"
         style="fill:#211c1d;fill-opacity:1;fill-rule:nonzero;stroke:none"
         id="path180"
         inkscape:connector-curvature="0" />
      <path
         d="m 138.979,16.0941 c -2.291,0 -4.155,1.8637 -4.155,4.1559 0,0.2488 0.031,0.491 0.073,0.7281 0.093,-0.0179 0.186,-0.0363 0.28,-0.0363 0.518,0 1.022,0.2684 1.3,0.75 0.53,0.9172 1.465,1.4652 2.502,1.4652 1.035,0 1.97,-0.5468 2.501,-1.4629 0.329,-0.5679 0.971,-0.832 1.581,-0.7152 0.042,-0.2371 0.073,-0.4789 0.073,-0.7289 0,-2.2922 -1.864,-4.1559 -4.155,-4.1559 z m 0,10.0629 c -2.089,0 -4.043,-1.1359 -5.1,-2.9652 -0.411,-0.7117 -0.171,-1.6219 0.536,-2.0387 -0.058,-0.2929 -0.091,-0.5941 -0.091,-0.9031 0,-2.5668 2.088,-4.6559 4.655,-4.6559 2.567,0 4.655,2.0891 4.655,4.6559 0,0.3109 -0.033,0.6141 -0.092,0.907 0.707,0.4192 0.946,1.3289 0.534,2.041 -1.058,1.825 -3.011,2.959 -5.097,2.959"
         style="fill:#211c1d;fill-opacity:1;fill-rule:nonzero;stroke:none"
         id="path182"
         inkscape:connector-curvature="0" />
    </g>
  </g>
</svg>
