<?xml version="1.0" encoding="UTF-8" standalone="no"?>
<!-- Created with Inkscape (http://www.inkscape.org/) -->

<svg
   xmlns:dc="http://purl.org/dc/elements/1.1/"
   xmlns:cc="http://creativecommons.org/ns#"
   xmlns:rdf="http://www.w3.org/1999/02/22-rdf-syntax-ns#"
   xmlns:svg="http://www.w3.org/2000/svg"
   xmlns="http://www.w3.org/2000/svg"
   xmlns:sodipodi="http://sodipodi.sourceforge.net/DTD/sodipodi-0.dtd"
   xmlns:inkscape="http://www.inkscape.org/namespaces/inkscape"
   id="svg2"
   version="1.1"
   inkscape:version="0.48.4 r9939"
   width="390.99918"
   height="464.66312"
   xml:space="preserve"
   sodipodi:docname="Wireless_signals_focused.svg"><metadata
     id="metadata8"><rdf:RDF><cc:Work
         rdf:about=""><dc:format>image/svg+xml</dc:format><dc:type
           rdf:resource="http://purl.org/dc/dcmitype/StillImage" /><dc:title /></cc:Work></rdf:RDF></metadata><defs
     id="defs6"><clipPath
       clipPathUnits="userSpaceOnUse"
       id="clipPath18"><path
         d="M 0,792 612,792 612,0 0,0 0,792 z"
         id="path20"
         inkscape:connector-curvature="0" /></clipPath><clipPath
       clipPathUnits="userSpaceOnUse"
       id="clipPath56"><path
         d="M 0,792 612,792 612,0 0,0 0,792 z"
         id="path58"
         inkscape:connector-curvature="0" /></clipPath><clipPath
       clipPathUnits="userSpaceOnUse"
       id="clipPath134"><path
         d="m 45.074,397.551 141.853,0 0,228.849 -141.853,0 0,-228.849 z"
         id="path136"
         inkscape:connector-curvature="0" /></clipPath><clipPath
       clipPathUnits="userSpaceOnUse"
       id="clipPath166"><path
         d="m 208,397.551 141.852,0 0,228.849 -141.852,0 0,-228.849 z"
         id="path168"
         inkscape:connector-curvature="0" /></clipPath><clipPath
       clipPathUnits="userSpaceOnUse"
       id="clipPath198"><path
         d="m 376.8,498.69 85.111,0 0,137.31 -85.111,0 0,-137.31 z"
         id="path200"
         inkscape:connector-curvature="0" /></clipPath><clipPath
       clipPathUnits="userSpaceOnUse"
       id="clipPath230"><path
         d="m 441.445,391.891 85.111,0 0,137.309 -85.111,0 0,-137.309 z"
         id="path232"
         inkscape:connector-curvature="0" /></clipPath><clipPath
       clipPathUnits="userSpaceOnUse"
       id="clipPath262"><path
         d="m 136.8,259.469 304.161,0 0,59.731 -304.161,0 0,-59.731 z"
         id="path264"
         inkscape:connector-curvature="0" /></clipPath><clipPath
       clipPathUnits="userSpaceOnUse"
       id="clipPath294"><path
         d="m 136.8,188.67 304.161,0 0,59.73 -304.161,0 0,-59.73 z"
         id="path296"
         inkscape:connector-curvature="0" /></clipPath><clipPath
       clipPathUnits="userSpaceOnUse"
       id="clipPath326"><path
         d="m 204.962,144 167.838,0 0,32.96 -167.838,0 0,-32.96 z"
         id="path328"
         inkscape:connector-curvature="0" /></clipPath><clipPath
       clipPathUnits="userSpaceOnUse"
       id="clipPath358"><path
         d="m 204.962,100.24 167.838,0 0,32.96 -167.838,0 0,-32.96 z"
         id="path360"
         inkscape:connector-curvature="0" /></clipPath></defs><sodipodi:namedview
     pagecolor="#ffffff"
     bordercolor="#666666"
     borderopacity="1"
     objecttolerance="10"
     gridtolerance="10"
     guidetolerance="10"
     inkscape:pageopacity="0"
     inkscape:pageshadow="2"
     inkscape:window-width="1920"
     inkscape:window-height="1030"
     id="namedview4"
     showgrid="false"
     fit-margin-top="5"
     fit-margin-left="5"
     fit-margin-right="5"
     fit-margin-bottom="5"
     inkscape:zoom="1"
     inkscape:cx="342.5"
     inkscape:cy="171.66314"
     inkscape:window-x="0"
     inkscape:window-y="0"
     inkscape:window-maximized="1"
     inkscape:current-layer="g10" /><g
     id="g10"
     inkscape:groupmode="layer"
     inkscape:label="CCK - Construction elements"
     transform="matrix(1.25,0,0,-1.25,-42,788)"><g
       id="g130"><g
         id="g132"
         clip-path="url(#clipPath134)"><g
           id="g138"
           transform="translate(184.926,482.1074)"><path
             d="m 0,0 c -0.512,0 -1.023,0.195 -1.414,0.586 -7.822,7.82 -12.129,18.219 -12.129,29.279 -0.001,11.061 4.306,21.459 12.127,29.279 0.781,0.781 2.048,0.781 2.828,0 0.781,-0.781 0.781,-2.047 0,-2.828 C -5.653,49.251 -9.544,39.857 -9.543,29.865 -9.543,19.873 -5.652,10.48 1.414,3.414 2.195,2.634 2.195,1.367 1.415,0.586 1.024,0.195 0.512,0 0,0"
             style="fill:#100f0d;fill-opacity:1;fill-rule:nonzero;stroke:none"
             id="path140"
             inkscape:connector-curvature="0" /></g><g
           id="g142"
           transform="translate(167.955,465.6364)"><path
             d="m 0,0 c -0.383,0 -0.767,0.147 -1.06,0.44 -12.259,12.259 -19.011,28.558 -19.012,45.897 0,17.338 6.751,33.638 19.01,45.896 0.586,0.586 1.535,0.586 2.121,0 0.586,-0.585 0.586,-1.535 0,-2.121 C -10.633,78.42 -17.072,62.874 -17.072,46.337 -17.071,29.8 -10.631,14.253 1.061,2.561 1.647,1.975 1.647,1.026 1.061,0.44 0.768,0.147 0.384,0 0,0"
             style="fill:#100f0d;fill-opacity:1;fill-rule:nonzero;stroke:none"
             id="path144"
             inkscape:connector-curvature="0" /></g><g
           id="g146"
           transform="translate(149.397,447.5784)"><path
             d="m 0,0 c -0.256,0 -0.512,0.097 -0.707,0.293 -17.122,17.122 -26.552,39.887 -26.553,64.103 -10e-4,24.215 9.427,46.98 26.549,64.101 0.39,0.391 1.023,0.391 1.414,0 0.391,-0.39 0.391,-1.023 0,-1.414 C -16.041,110.34 -25.261,88.077 -25.26,64.396 -25.259,40.715 -16.037,18.451 0.707,1.707 1.097,1.316 1.097,0.683 0.707,0.293 0.511,0.097 0.256,0 0,0"
             style="fill:#100f0d;fill-opacity:1;fill-rule:nonzero;stroke:none"
             id="path148"
             inkscape:connector-curvature="0" /></g><g
           id="g150"
           transform="translate(131.4973,429.9294)"><path
             d="m 0,0 c -0.192,0 -0.384,0.074 -0.53,0.22 -45.119,45.119 -45.122,118.532 -0.005,163.65 0.293,0.293 0.767,0.293 1.06,0 0.293,-0.293 0.293,-0.768 0,-1.061 C -44.006,118.276 -44.004,45.815 0.53,1.281 0.823,0.988 0.823,0.513 0.53,0.22 0.384,0.074 0.192,0 0,0"
             style="fill:#100f0d;fill-opacity:1;fill-rule:nonzero;stroke:none"
             id="path152"
             inkscape:connector-curvature="0" /></g><g
           id="g154"
           transform="translate(112.9368,411.6194)"><path
             d="m 0,0 c -0.128,0 -0.256,0.049 -0.354,0.146 -26.766,26.766 -41.507,62.355 -41.508,100.21 -10e-4,37.855 14.738,73.444 41.504,100.209 0.195,0.195 0.511,0.195 0.707,0 0.195,-0.196 0.195,-0.512 0,-0.707 C -26.227,173.281 -40.863,137.945 -40.862,100.356 -40.861,62.767 -26.224,27.43 0.354,0.853 0.549,0.658 0.549,0.342 0.354,0.146 0.256,0.049 0.128,0 0,0"
             style="fill:#100f0d;fill-opacity:1;fill-rule:nonzero;stroke:none"
             id="path156"
             inkscape:connector-curvature="0" /></g><g
           id="g158"
           transform="translate(92.6194,397.5504)"><path
             d="m 0,0 c -0.064,0 -0.128,0.025 -0.177,0.074 -30.544,30.543 -47.367,71.154 -47.368,114.351 -0.002,43.198 16.818,83.809 47.36,114.352 0.098,0.097 0.256,0.097 0.354,0 0.098,-0.098 0.098,-0.256 0,-0.354 C -30.279,197.974 -47.047,157.49 -47.045,114.425 -47.044,71.362 -30.273,30.876 0.177,0.427 0.274,0.329 0.274,0.171 0.177,0.074 0.128,0.025 0.064,0 0,0"
             style="fill:#100f0d;fill-opacity:1;fill-rule:nonzero;stroke:none"
             id="path160"
             inkscape:connector-curvature="0" /></g></g></g><g
       id="g226"
       transform="translate(-201.6,47.2)"><g
         id="g228"
         clip-path="url(#clipPath230)"><g
           id="g234"
           transform="translate(525.3556,442.6244)"><path
             d="m 0,0 c -0.307,0 -0.614,0.117 -0.848,0.352 -4.694,4.692 -7.278,10.931 -7.278,17.567 0,6.637 2.584,12.876 7.276,17.567 0.469,0.469 1.229,0.469 1.697,0 0.469,-0.468 0.469,-1.228 0,-1.696 -4.239,-4.239 -6.573,-9.876 -6.573,-15.871 0,-5.995 2.335,-11.631 6.574,-15.871 C 1.317,1.58 1.317,0.82 0.849,0.352 0.614,0.117 0.307,0 0,0"
             style="fill:#100f0d;fill-opacity:1;fill-rule:nonzero;stroke:none"
             id="path236"
             inkscape:connector-curvature="0" /></g><g
           id="g238"
           transform="translate(515.173,432.7418)"><path
             d="m 0,0 c -0.23,0 -0.46,0.088 -0.636,0.264 -7.355,7.355 -11.407,17.135 -11.407,27.538 0,10.403 4.05,20.183 11.406,27.538 0.351,0.352 0.921,0.352 1.272,0 0.352,-0.351 0.352,-0.921 0,-1.273 -7.015,-7.015 -10.878,-16.343 -10.878,-26.265 0,-9.922 3.864,-19.25 10.88,-26.265 0.351,-0.352 0.351,-0.921 0,-1.273 C 0.461,0.088 0.23,0 0,0"
             style="fill:#100f0d;fill-opacity:1;fill-rule:nonzero;stroke:none"
             id="path240"
             inkscape:connector-curvature="0" /></g><g
           id="g242"
           transform="translate(504.0382,421.907)"><path
             d="m 0,0 c -0.154,0 -0.307,0.058 -0.424,0.176 -10.274,10.273 -15.932,23.932 -15.932,38.462 -10e-4,14.529 5.656,28.188 15.929,38.46 0.234,0.235 0.614,0.235 0.849,0 0.234,-0.234 0.234,-0.614 0,-0.848 C -9.624,66.204 -15.157,52.846 -15.156,38.638 -15.156,24.429 -9.622,11.071 0.424,1.024 0.658,0.79 0.658,0.41 0.424,0.176 0.307,0.058 0.154,0 0,0"
             style="fill:#100f0d;fill-opacity:1;fill-rule:nonzero;stroke:none"
             id="path244"
             inkscape:connector-curvature="0" /></g><g
           id="g246"
           transform="translate(493.2984,411.3176)"><path
             d="m 0,0 c -0.115,0 -0.23,0.044 -0.318,0.132 -27.072,27.071 -27.073,71.119 -0.003,98.19 0.176,0.176 0.46,0.176 0.636,0 0.176,-0.176 0.176,-0.461 0,-0.636 C -26.404,70.966 -26.402,27.489 0.318,0.769 0.494,0.593 0.494,0.308 0.318,0.132 0.23,0.044 0.115,0 0,0"
             style="fill:#100f0d;fill-opacity:1;fill-rule:nonzero;stroke:none"
             id="path248"
             inkscape:connector-curvature="0" /></g><g
           id="g250"
           transform="translate(482.1621,400.3316)"><path
             d="m 0,0 c -0.077,0 -0.154,0.029 -0.212,0.088 -16.06,16.059 -24.905,37.413 -24.905,60.126 -10e-4,22.713 8.843,44.066 24.902,60.125 0.117,0.117 0.307,0.117 0.424,0 0.117,-0.117 0.117,-0.307 0,-0.424 -15.945,-15.946 -24.727,-37.148 -24.726,-59.701 0,-22.554 8.783,-43.756 24.729,-59.702 0.117,-0.117 0.117,-0.307 0,-0.424 C 0.154,0.029 0.077,0 0,0"
             style="fill:#100f0d;fill-opacity:1;fill-rule:nonzero;stroke:none"
             id="path252"
             inkscape:connector-curvature="0" /></g><g
           id="g254"
           transform="translate(469.9716,391.8902)"><path
             d="m 0,0 c -0.038,0 -0.077,0.015 -0.106,0.044 -18.327,18.326 -28.42,42.693 -28.421,68.611 -10e-4,25.919 10.091,50.285 28.416,68.611 0.059,0.059 0.154,0.059 0.212,0 0.059,-0.059 0.059,-0.153 0,-0.212 C -18.168,118.785 -28.228,94.494 -28.227,68.655 -28.226,42.817 -18.164,18.526 0.106,0.256 0.165,0.197 0.165,0.103 0.106,0.044 0.077,0.015 0.038,0 0,0"
             style="fill:#100f0d;fill-opacity:1;fill-rule:nonzero;stroke:none"
             id="path256"
             inkscape:connector-curvature="0" /></g></g></g><g
       id="g258"
       transform="translate(-99.2,3.2)"><g
         id="g260"
         clip-path="url(#clipPath262)"><g
           id="g266"
           transform="translate(410.101,259.4695)"><path
             d="m 0,0 c -0.512,0 -1.024,0.195 -1.414,0.586 -7.822,7.82 -12.128,18.219 -12.129,29.279 0,11.061 4.306,21.459 12.127,29.28 0.781,0.781 2.047,0.781 2.828,0 0.781,-0.781 0.781,-2.048 0,-2.829 C -5.653,49.252 -9.543,39.858 -9.543,29.865 -9.543,19.873 -5.652,10.479 1.414,3.414 2.195,2.633 2.195,1.367 1.414,0.586 1.023,0.195 0.512,0 0,0 m 28.86,0 c -0.512,0 -1.023,0.195 -1.414,0.586 -7.821,7.82 -12.129,18.219 -12.129,29.279 -10e-4,11.061 4.306,21.459 12.127,29.28 0.781,0.781 2.047,0.781 2.828,0 0.781,-0.781 0.781,-2.048 0,-2.829 -7.065,-7.064 -10.956,-16.458 -10.955,-26.451 0,-9.992 3.892,-19.386 10.957,-26.451 0.781,-0.781 0.781,-2.047 0,-2.828 C 29.884,0.195 29.372,0 28.86,0 M 14.43,0 C 13.919,0 13.407,0.195 13.016,0.586 5.195,8.406 0.887,18.804 0.887,29.865 c 0,11.061 4.306,21.459 12.126,29.28 0.782,0.781 2.047,0.781 2.829,0 0.781,-0.781 0.781,-2.048 0,-2.829 C 8.777,49.252 4.887,39.858 4.887,29.865 c 0,-9.992 3.892,-19.386 10.958,-26.451 0.781,-0.781 0.781,-2.047 0,-2.828 C 15.454,0.195 14.942,0 14.43,0"
             style="fill:#100f0d;fill-opacity:1;fill-rule:nonzero;stroke:none"
             id="path268"
             inkscape:connector-curvature="0" /></g><g
           id="g270"
           transform="translate(366.811,259.7195)"><path
             d="m 0,0 c -0.448,0 -0.896,0.171 -1.238,0.513 -7.773,7.773 -12.055,18.108 -12.055,29.102 -0.001,10.994 4.28,21.33 12.053,29.103 0.684,0.683 1.792,0.683 2.475,0 0.684,-0.683 0.684,-1.792 0,-2.475 C -5.877,49.131 -9.794,39.674 -9.793,29.615 -9.793,19.556 -5.876,10.1 1.237,2.987 1.921,2.304 1.921,1.196 1.237,0.513 0.895,0.171 0.448,0 0,0 m -28.862,0 c -0.447,0 -0.895,0.171 -1.237,0.513 -16.047,16.047 -16.048,42.157 -0.002,58.205 0.683,0.683 1.791,0.683 2.475,0 0.683,-0.683 0.683,-1.792 0,-2.475 -14.682,-14.682 -14.681,-38.573 0.002,-53.256 0.683,-0.683 0.683,-1.791 0,-2.474 C -27.966,0.171 -28.414,0 -28.862,0 M 28.859,0 C 28.411,0 27.964,0.171 27.622,0.513 11.574,16.56 11.574,42.67 27.62,58.718 c 0.683,0.683 1.791,0.683 2.474,0 0.684,-0.683 0.684,-1.792 0,-2.475 C 15.413,41.561 15.414,17.67 30.096,2.987 30.78,2.304 30.78,1.196 30.096,0.513 29.755,0.171 29.307,0 28.859,0 m -72.15,0 c -0.448,0 -0.896,0.171 -1.238,0.513 -7.774,7.773 -12.055,18.108 -12.055,29.102 -10e-4,10.994 4.28,21.33 12.053,29.103 0.684,0.683 1.791,0.683 2.475,0 0.684,-0.683 0.684,-1.792 0,-2.475 -7.112,-7.112 -11.029,-16.569 -11.028,-26.628 0,-10.059 3.918,-19.515 11.03,-26.628 0.684,-0.683 0.684,-1.791 0,-2.474 C -42.395,0.171 -42.844,0 -43.291,0 m 28.86,0 c -0.448,0 -0.895,0.171 -1.237,0.513 -16.048,16.047 -16.049,42.157 -0.002,58.205 0.682,0.683 1.791,0.683 2.474,0 0.684,-0.683 0.684,-1.792 0,-2.475 -14.682,-14.683 -14.681,-38.573 0.002,-53.256 0.684,-0.683 0.684,-1.791 0,-2.474 C -13.535,0.171 -13.983,0 -14.431,0 m 28.86,0 C 13.981,0 13.534,0.171 13.192,0.513 -2.856,16.56 -2.858,42.67 13.189,58.718 c 0.684,0.683 1.791,0.683 2.475,0 0.683,-0.683 0.683,-1.792 0,-2.475 C 0.982,41.561 0.983,17.67 15.667,2.987 16.35,2.304 16.35,1.196 15.667,0.513 15.325,0.171 14.878,0 14.429,0"
             style="fill:#100f0d;fill-opacity:1;fill-rule:nonzero;stroke:none"
             id="path272"
             inkscape:connector-curvature="0" /></g><g
           id="g274"
           transform="translate(294.659,259.9695)"><path
             d="m 0,0 c -0.384,0 -0.768,0.146 -1.061,0.439 -15.949,15.95 -15.95,41.902 -0.002,57.852 0.585,0.586 1.536,0.586 2.121,0 0.586,-0.585 0.586,-1.535 0,-2.121 C -13.72,41.389 -13.72,17.34 1.06,2.561 1.646,1.975 1.646,1.025 1.06,0.439 0.767,0.146 0.384,0 0,0 M 14.431,0 C 14.047,0 13.663,0.146 13.37,0.439 5.643,8.165 1.388,18.438 1.388,29.365 c -10e-4,10.927 4.254,21.2 11.981,28.926 0.585,0.586 1.535,0.586 2.121,0 0.586,-0.586 0.586,-1.536 0,-2.121 C 8.33,49.01 4.387,39.491 4.388,29.365 4.388,19.239 8.331,9.72 15.492,2.561 16.078,1.975 16.078,1.025 15.492,0.439 15.199,0.146 14.815,0 14.431,0 M -14.43,0 c -0.384,0 -0.768,0.146 -1.061,0.439 -7.726,7.726 -11.982,17.999 -11.982,28.926 -0.001,10.927 4.254,21.2 11.98,28.926 0.586,0.586 1.535,0.586 2.121,0 0.586,-0.585 0.586,-1.536 0,-2.121 -7.159,-7.16 -11.102,-16.679 -11.101,-26.805 0,-10.126 3.944,-19.645 11.103,-26.804 0.586,-0.586 0.586,-1.536 0,-2.122 C -13.663,0.146 -14.046,0 -14.43,0"
             style="fill:#100f0d;fill-opacity:1;fill-rule:nonzero;stroke:none"
             id="path276"
             inkscape:connector-curvature="0" /></g><g
           id="g278"
           transform="translate(251.368,260.4695)"><path
             d="m 0,0 c -0.256,0 -0.512,0.098 -0.707,0.293 -15.755,15.754 -15.756,41.389 -0.002,57.145 0.391,0.39 1.023,0.39 1.414,0 0.391,-0.391 0.391,-1.024 0,-1.415 C -14.269,41.048 -14.268,16.682 0.707,1.707 1.098,1.316 1.098,0.684 0.707,0.293 0.512,0.098 0.256,0 0,0 M 14.431,0 C 14.175,0 13.919,0.098 13.724,0.293 6.091,7.924 1.888,18.071 1.888,28.865 1.887,39.659 6.09,49.806 13.722,57.438 c 0.391,0.39 1.023,0.39 1.414,0 0.391,-0.391 0.391,-1.024 0,-1.415 C 7.882,48.77 3.887,39.125 3.888,28.865 c 0,-10.259 3.995,-19.904 11.25,-27.158 0.391,-0.39 0.391,-1.023 0,-1.414 C 14.943,0.098 14.687,0 14.431,0 M -14.43,0 c -0.256,0 -0.512,0.098 -0.707,0.293 -15.755,15.755 -15.756,41.39 -0.002,57.145 0.39,0.39 1.023,0.39 1.414,0 0.39,-0.391 0.39,-1.024 0,-1.415 -14.974,-14.975 -14.973,-39.341 0.002,-54.316 0.39,-0.391 0.39,-1.023 0,-1.414 C -13.919,0.098 -14.174,0 -14.43,0"
             style="fill:#100f0d;fill-opacity:1;fill-rule:nonzero;stroke:none"
             id="path280"
             inkscape:connector-curvature="0" /></g><g
           id="g282"
           transform="translate(193.6477,260.9695)"><path
             d="m 0,0 c -0.128,0 -0.256,0.049 -0.354,0.146 -15.56,15.56 -15.561,40.878 -0.001,56.438 0.195,0.195 0.511,0.195 0.707,0 0.195,-0.195 0.195,-0.512 0,-0.707 C -14.818,40.707 -14.817,16.023 0.354,0.854 0.549,0.658 0.549,0.342 0.354,0.146 0.256,0.049 0.128,0 0,0 M 14.43,0 C 14.302,0 14.174,0.049 14.077,0.146 6.539,7.684 2.388,17.705 2.387,28.365 c 0,10.66 4.151,20.682 11.688,28.219 0.195,0.195 0.511,0.195 0.707,0 0.195,-0.195 0.195,-0.512 0,-0.707 C 7.434,48.529 3.387,38.758 3.387,28.365 3.388,17.972 7.435,8.202 14.784,0.854 14.979,0.658 14.979,0.342 14.784,0.146 14.686,0.049 14.558,0 14.43,0 m 14.43,0 c -0.128,0 -0.256,0.049 -0.353,0.146 -7.538,7.538 -11.69,17.559 -11.69,28.219 0,10.66 4.151,20.682 11.688,28.219 0.195,0.195 0.512,0.195 0.707,0 0.195,-0.195 0.195,-0.512 0,-0.707 -7.349,-7.348 -11.395,-17.119 -11.395,-27.512 0,-10.393 4.048,-20.163 11.397,-27.511 0.195,-0.196 0.195,-0.512 0,-0.708 C 29.116,0.049 28.988,0 28.86,0"
             style="fill:#100f0d;fill-opacity:1;fill-rule:nonzero;stroke:none"
             id="path284"
             inkscape:connector-curvature="0" /></g><g
           id="g286"
           transform="translate(164.7868,261.2195)"><path
             d="m 0,0 c -0.064,0 -0.128,0.024 -0.177,0.073 -15.462,15.462 -15.463,40.621 -0.002,56.084 0.098,0.098 0.256,0.098 0.354,0 0.097,-0.097 0.097,-0.256 0,-0.353 C -15.092,40.536 -15.091,15.694 0.177,0.427 0.274,0.329 0.274,0.171 0.177,0.073 0.128,0.024 0.064,0 0,0 M 14.43,0 C 14.366,0 14.302,0.024 14.253,0.073 -1.21,15.536 -1.21,40.695 14.251,56.157 c 0.098,0.098 0.256,0.098 0.354,0 0.098,-0.097 0.098,-0.256 0,-0.353 C -0.662,40.536 -0.661,15.694 14.607,0.427 14.705,0.329 14.705,0.171 14.607,0.073 14.558,0.024 14.494,0 14.43,0 m -30.624,0 c -0.064,0 -0.128,0.024 -0.177,0.073 -7.49,7.49 -11.616,17.449 -11.616,28.042 0,10.593 4.124,20.553 11.615,28.042 0.097,0.098 0.255,0.098 0.353,0 0.098,-0.097 0.098,-0.256 0,-0.353 -7.396,-7.396 -11.468,-17.229 -11.468,-27.689 0,-10.46 4.074,-20.293 11.47,-27.688 0.098,-0.098 0.098,-0.256 0,-0.354 C -16.066,0.024 -16.13,0 -16.194,0"
             style="fill:#100f0d;fill-opacity:1;fill-rule:nonzero;stroke:none"
             id="path288"
             inkscape:connector-curvature="0" /></g></g></g><g
       id="g354"
       transform="translate(-30.4,239.2)"><g
         id="g356"
         clip-path="url(#clipPath358)"><g
           id="g362"
           transform="translate(355.7711,100.2402)"><path
             d="m 0,0 c -0.283,0 -0.565,0.108 -0.78,0.323 -4.317,4.316 -6.693,10.054 -6.693,16.157 0,6.103 2.376,11.841 6.692,16.157 0.431,0.431 1.129,0.431 1.56,0 0.431,-0.431 0.431,-1.13 0,-1.561 C -3.119,27.177 -5.266,21.994 -5.266,16.48 -5.266,10.966 -3.119,5.782 0.78,1.884 1.211,1.453 1.211,0.754 0.78,0.323 0.564,0.108 0.283,0 0,0 m 15.925,0 c -0.282,0 -0.564,0.108 -0.78,0.323 -4.316,4.316 -6.693,10.054 -6.693,16.157 0,6.104 2.376,11.841 6.692,16.157 0.431,0.431 1.129,0.431 1.56,0 0.431,-0.431 0.431,-1.13 0,-1.561 -3.898,-3.899 -6.045,-9.082 -6.045,-14.596 0,-5.514 2.148,-10.697 6.046,-14.596 0.431,-0.431 0.431,-1.13 0,-1.561 C 16.49,0.108 16.208,0 15.925,0 M 7.963,0 C 7.681,0 7.398,0.108 7.182,0.323 2.867,4.638 0.489,10.376 0.489,16.48 c 0,6.103 2.377,11.841 6.692,16.157 0.431,0.431 1.129,0.431 1.561,0 0.431,-0.431 0.431,-1.13 0,-1.561 C 4.843,27.177 2.697,21.994 2.697,16.48 2.697,10.966 4.844,5.782 8.743,1.884 9.174,1.453 9.174,0.754 8.743,0.323 8.528,0.108 8.245,0 7.963,0"
             style="fill:#100f0d;fill-opacity:1;fill-rule:nonzero;stroke:none"
             id="path364"
             inkscape:connector-curvature="0" /></g><g
           id="g366"
           transform="translate(331.8833,100.3781)"><path
             d="m 0,0 c -0.247,0 -0.494,0.094 -0.683,0.283 -4.289,4.289 -6.652,9.992 -6.652,16.059 -0.001,6.066 2.362,11.77 6.651,16.059 0.377,0.377 0.989,0.377 1.365,0 0.378,-0.377 0.378,-0.989 0,-1.365 -3.924,-3.925 -6.085,-9.143 -6.085,-14.694 0,-5.551 2.162,-10.769 6.087,-14.694 C 1.06,1.271 1.06,0.66 0.683,0.283 0.494,0.094 0.247,0 0,0 m -15.926,0 c -0.247,0 -0.494,0.094 -0.683,0.283 -8.855,8.855 -8.855,23.263 -10e-4,32.118 0.377,0.377 0.988,0.377 1.366,0 0.377,-0.377 0.377,-0.989 0,-1.365 -8.102,-8.102 -8.101,-21.286 10e-4,-29.388 0.377,-0.377 0.377,-0.988 0,-1.365 C -15.432,0.094 -15.679,0 -15.926,0 m 31.851,0 c -0.248,0 -0.494,0.094 -0.683,0.283 -8.855,8.855 -8.855,23.263 -0.001,32.118 0.377,0.377 0.988,0.377 1.365,0 0.378,-0.377 0.378,-0.989 0,-1.365 C 8.505,22.934 8.506,9.75 16.607,1.648 16.985,1.271 16.985,0.66 16.607,0.283 16.419,0.094 16.172,0 15.925,0 m -39.813,0 c -0.248,0 -0.495,0.094 -0.684,0.283 -4.289,4.289 -6.652,9.992 -6.652,16.059 0,6.067 2.362,11.77 6.651,16.059 0.378,0.377 0.989,0.377 1.366,0 0.378,-0.377 0.378,-0.989 0,-1.365 -3.924,-3.925 -6.086,-9.143 -6.085,-14.694 0,-5.551 2.162,-10.769 6.086,-14.694 0.378,-0.377 0.378,-0.988 0,-1.365 C -23.394,0.094 -23.642,0 -23.888,0 m 15.925,0 c -0.247,0 -0.494,0.094 -0.683,0.283 -8.855,8.855 -8.856,23.263 -10e-4,32.118 0.376,0.377 0.988,0.377 1.365,0 0.378,-0.377 0.378,-0.989 0,-1.365 -8.101,-8.103 -8.101,-21.286 0.001,-29.388 0.378,-0.377 0.378,-0.988 0,-1.365 C -7.469,0.094 -7.716,0 -7.963,0 M 7.962,0 C 7.715,0 7.468,0.094 7.279,0.283 -1.576,9.138 -1.577,23.546 7.278,32.401 c 0.377,0.377 0.988,0.377 1.366,0 0.376,-0.377 0.376,-0.989 0,-1.365 C 0.542,22.934 0.542,9.75 8.645,1.648 9.022,1.271 9.022,0.66 8.645,0.283 8.456,0.094 8.21,0 7.962,0"
             style="fill:#100f0d;fill-opacity:1;fill-rule:nonzero;stroke:none"
             id="path368"
             inkscape:connector-curvature="0" /></g><g
           id="g370"
           transform="translate(292.0692,100.5161)"><path
             d="m 0,0 c -0.212,0 -0.424,0.081 -0.585,0.243 -8.801,8.8 -8.802,23.121 -0.002,31.923 0.323,0.323 0.848,0.323 1.171,0 0.323,-0.324 0.323,-0.848 0,-1.171 C -7.571,22.839 -7.571,9.569 0.585,1.413 0.908,1.09 0.908,0.566 0.585,0.243 0.423,0.081 0.212,0 0,0 M 7.963,0 C 7.751,0 7.539,0.081 7.378,0.243 3.114,4.506 0.766,10.174 0.766,16.204 c -0.001,6.03 2.347,11.698 6.611,15.962 0.323,0.323 0.847,0.323 1.171,0 0.323,-0.324 0.323,-0.848 0,-1.171 C 4.597,27.044 2.421,21.792 2.421,16.204 2.421,10.616 4.597,5.364 8.549,1.413 8.872,1.09 8.872,0.566 8.549,0.243 8.387,0.081 8.175,0 7.963,0 M -7.963,0 c -0.211,0 -0.423,0.081 -0.585,0.243 -4.263,4.263 -6.612,9.931 -6.612,15.961 0,6.03 2.348,11.698 6.611,15.962 0.323,0.323 0.847,0.323 1.17,0 0.324,-0.324 0.324,-0.848 0,-1.171 -3.95,-3.951 -6.126,-9.203 -6.125,-14.791 0,-5.588 2.176,-10.84 6.126,-14.791 0.324,-0.323 0.324,-0.847 0,-1.17 C -7.539,0.081 -7.751,0 -7.963,0"
             style="fill:#100f0d;fill-opacity:1;fill-rule:nonzero;stroke:none"
             id="path372"
             inkscape:connector-curvature="0" /></g><g
           id="g374"
           transform="translate(268.1808,100.792)"><path
             d="m 0,0 c -0.141,0 -0.283,0.054 -0.39,0.162 -8.694,8.693 -8.694,22.839 -0.001,31.533 0.216,0.215 0.564,0.215 0.78,0 0.216,-0.216 0.216,-0.565 0,-0.781 C -7.874,22.651 -7.873,9.205 0.39,0.942 0.606,0.726 0.606,0.377 0.39,0.162 0.283,0.054 0.141,0 0,0 M 7.963,0 C 7.822,0 7.681,0.054 7.573,0.162 3.361,4.373 1.042,9.972 1.042,15.928 c -0.001,5.956 2.319,11.556 6.53,15.767 0.216,0.215 0.564,0.215 0.78,0 0.216,-0.216 0.216,-0.565 0,-0.781 C 4.349,26.911 2.145,21.589 2.145,15.928 2.145,10.267 4.35,4.945 8.353,0.942 8.569,0.727 8.569,0.377 8.353,0.162 8.246,0.054 8.104,0 7.963,0 M -7.963,0 c -0.141,0 -0.282,0.054 -0.39,0.162 -8.694,8.693 -8.694,22.839 -10e-4,31.533 0.216,0.215 0.565,0.215 0.78,0 0.216,-0.216 0.216,-0.565 0,-0.781 -8.263,-8.263 -8.262,-21.709 0.002,-29.972 0.215,-0.216 0.215,-0.565 0,-0.78 C -7.681,0.054 -7.821,0 -7.963,0"
             style="fill:#100f0d;fill-opacity:1;fill-rule:nonzero;stroke:none"
             id="path376"
             inkscape:connector-curvature="0" /></g><g
           id="g378"
           transform="translate(236.3302,101.0679)"><path
             d="m 0,0 c -0.071,0 -0.141,0.027 -0.195,0.081 -8.587,8.586 -8.587,22.556 -0.001,31.143 0.108,0.107 0.282,0.107 0.39,0 0.108,-0.108 0.108,-0.283 0,-0.391 C -8.177,22.462 -8.176,8.842 0.195,0.471 0.303,0.363 0.303,0.189 0.195,0.081 0.141,0.027 0.071,0 0,0 M 7.963,0 C 7.892,0 7.822,0.027 7.768,0.081 3.608,4.24 1.318,9.77 1.317,15.652 c 0,5.883 2.291,11.413 6.45,15.572 0.107,0.107 0.282,0.107 0.39,0 0.107,-0.108 0.107,-0.283 0,-0.391 C 4.102,26.779 1.869,21.387 1.869,15.652 1.869,9.917 4.103,4.526 8.158,0.471 8.266,0.363 8.266,0.189 8.158,0.081 8.104,0.027 8.033,0 7.963,0 m 7.962,0 C 15.855,0 15.784,0.027 15.73,0.081 11.571,4.24 9.28,9.77 9.28,15.652 c 0,5.883 2.29,11.413 6.449,15.572 0.108,0.107 0.283,0.107 0.39,0 0.108,-0.108 0.108,-0.283 0,-0.391 -4.055,-4.054 -6.287,-9.446 -6.287,-15.181 0,-5.735 2.233,-11.126 6.288,-15.181 0.108,-0.108 0.108,-0.282 0,-0.39 C 16.067,0.027 15.996,0 15.925,0"
             style="fill:#100f0d;fill-opacity:1;fill-rule:nonzero;stroke:none"
             id="path380"
             inkscape:connector-curvature="0" /></g><g
           id="g382"
           transform="translate(220.4045,101.2058)"><path
             d="m 0,0 c -0.035,0 -0.071,0.013 -0.098,0.04 -8.532,8.532 -8.532,22.416 -0.001,30.948 0.054,0.054 0.142,0.054 0.195,0 0.054,-0.054 0.054,-0.141 0,-0.195 C -8.328,22.368 -8.327,8.66 0.098,0.236 0.151,0.182 0.151,0.094 0.098,0.04 0.071,0.013 0.035,0 0,0 M 7.963,0 C 7.927,0 7.892,0.013 7.865,0.04 -0.667,8.573 -0.668,22.456 7.864,30.988 c 0.054,0.054 0.141,0.054 0.195,0 0.054,-0.054 0.054,-0.141 0,-0.195 C -0.365,22.368 -0.365,8.66 8.06,0.236 8.114,0.182 8.114,0.094 8.06,0.04 8.033,0.013 7.998,0 7.963,0 M -8.936,0 c -0.035,0 -0.071,0.013 -0.097,0.04 -4.134,4.133 -6.41,9.629 -6.41,15.474 -0.001,5.846 2.275,11.341 6.409,15.474 0.053,0.054 0.141,0.054 0.195,0 0.053,-0.054 0.053,-0.141 0,-0.195 -4.081,-4.081 -6.329,-9.507 -6.328,-15.279 0,-5.772 2.247,-11.198 6.329,-15.278 0.054,-0.054 0.054,-0.142 0,-0.196 C -8.865,0.013 -8.901,0 -8.936,0"
             style="fill:#100f0d;fill-opacity:1;fill-rule:nonzero;stroke:none"
             id="path384"
             inkscape:connector-curvature="0" /></g></g></g></g></svg>