<?xml version="1.0" encoding="UTF-8" standalone="no"?>
<!-- Created with Inkscape (http://www.inkscape.org/) -->

<svg
   xmlns:dc="http://purl.org/dc/elements/1.1/"
   xmlns:cc="http://creativecommons.org/ns#"
   xmlns:rdf="http://www.w3.org/1999/02/22-rdf-syntax-ns#"
   xmlns:svg="http://www.w3.org/2000/svg"
   xmlns="http://www.w3.org/2000/svg"
   xmlns:sodipodi="http://sodipodi.sourceforge.net/DTD/sodipodi-0.dtd"
   xmlns:inkscape="http://www.inkscape.org/namespaces/inkscape"
   id="svg2"
   version="1.1"
   inkscape:version="0.48.1 r9760"
   width="567.39563"
   height="438.16238"
   xml:space="preserve"
   sodipodi:docname="investigate-technology-questions.svg"><metadata
     id="metadata8"><rdf:RDF><cc:Work
         rdf:about=""><dc:format>image/svg+xml</dc:format><dc:type
           rdf:resource="http://purl.org/dc/dcmitype/StillImage" /><dc:title></dc:title></cc:Work></rdf:RDF></metadata><defs
     id="defs6" /><sodipodi:namedview
     pagecolor="#ffffff"
     bordercolor="#666666"
     borderopacity="1"
     objecttolerance="10"
     gridtolerance="10"
     guidetolerance="10"
     inkscape:pageopacity="0"
     inkscape:pageshadow="2"
     inkscape:window-width="868"
     inkscape:window-height="760"
     id="namedview4"
     showgrid="false"
     fit-margin-top="20"
     fit-margin-left="20"
     fit-margin-right="20"
     fit-margin-bottom="20"
     inkscape:zoom="1.0824912"
     inkscape:cx="342.53156"
     inkscape:cy="200.89858"
     inkscape:window-x="0"
     inkscape:window-y="0"
     inkscape:window-maximized="0"
     inkscape:current-layer="g12" /><g
     id="g10"
     inkscape:groupmode="layer"
     inkscape:label="drawing"
     transform="matrix(1.25,0,0,-1.25,-16.212665,768.79132)"><g
       id="g12"><path
         d="m 49.407166,339.95682 151.758074,0 0,-43.4824 -151.758074,0 0,43.4824 z"
         style="fill:#ffffff;fill-opacity:0.94117599;fill-rule:nonzero;stroke:none"
         id="path14"
         inkscape:connector-curvature="0" /><g
         id="g16"
         transform="matrix(0.53491127,0,0,-0.53491127,19.93088,596.7121)"><path
           d="m 55.105,479.996 283.707,0 0,81.289 -283.707,0 0,-81.289 z"
           style="fill:none;stroke:#000000;stroke-width:1.540555;stroke-linecap:butt;stroke-linejoin:miter;stroke-miterlimit:4;stroke-opacity:1;stroke-dasharray:3.081109, 3.081109;stroke-dashoffset:0"
           id="path18"
           inkscape:connector-curvature="0" /></g><text
         transform="scale(1,-1)"
         id="text20"
         style="font-size:9.60000038px;font-family:Asap;-inkscape-font-specification:Asap"
         x="55.779507"
         y="-328.04449"><tspan
           style="font-size:9.60000038px;font-variant:normal;font-weight:normal;writing-mode:lr-tb;fill:#000000;fill-opacity:1;fill-rule:nonzero;stroke:none;font-family:Asap;-inkscape-font-specification:Asap"
           x="55.779507"
           y="-328.04449"
           sodipodi:role="line"
           id="tspan22">Technology: </tspan></text>
<text
         transform="scale(1,-1)"
         id="text24"
         style="font-size:9.60000038px;font-family:Asap;-inkscape-font-specification:Asap"
         x="48.991028"
         y="-515.0473"><tspan
           style="font-size:9.60000038px;font-variant:normal;font-weight:bold;writing-mode:lr-tb;fill:#000000;fill-opacity:1;fill-rule:nonzero;stroke:none;font-family:Asap;-inkscape-font-specification:Asap"
           x="48.991028"
           y="-515.0473"
           sodipodi:role="line"
           id="tspan26">Ownership</tspan></text>
<text
         transform="scale(1,-1)"
         id="text28"
         style="font-size:9.60000038px;font-family:Asap;-inkscape-font-specification:Asap"
         x="48.991028"
         y="-503.92102"><tspan
           style="font-size:9.60000038px;font-variant:normal;font-weight:normal;writing-mode:lr-tb;fill:#000000;fill-opacity:1;fill-rule:nonzero;stroke:none;font-family:Asap;-inkscape-font-specification:Asap"
           x="48.991028"
           y="-503.92102"
           sodipodi:role="line"
           id="tspan30">Who owns the technology?</tspan><tspan
           style="font-size:9.60000038px;font-variant:normal;font-weight:normal;writing-mode:lr-tb;fill:#000000;fill-opacity:1;fill-rule:nonzero;stroke:none;font-family:Asap;-inkscape-font-specification:Asap"
           x="48.991028"
           y="-491.92102"
           sodipodi:role="line"
           id="tspan32">Who makes decisions about it?</tspan><tspan
           style="font-size:9.60000038px;font-variant:normal;font-weight:normal;writing-mode:lr-tb;fill:#000000;fill-opacity:1;fill-rule:nonzero;stroke:none;font-family:Asap;-inkscape-font-specification:Asap"
           x="48.991028"
           y="-479.92102"
           sodipodi:role="line"
           id="tspan34">How are decisions made?</tspan><tspan
           style="font-size:9.60000038px;font-variant:normal;font-weight:normal;writing-mode:lr-tb;fill:#000000;fill-opacity:1;fill-rule:nonzero;stroke:none;font-family:Asap;-inkscape-font-specification:Asap"
           x="48.991028"
           y="-467.92102"
           sodipodi:role="line"
           id="tspan36">Who can use the technology? </tspan><tspan
           style="font-size:9.60000038px;font-variant:normal;font-weight:normal;writing-mode:lr-tb;fill:#000000;fill-opacity:1;fill-rule:nonzero;stroke:none;font-family:Asap;-inkscape-font-specification:Asap"
           x="48.991028"
           y="-455.92102"
           sodipodi:role="line"
           id="tspan3140">Who is left out?</tspan></text>
<text
         transform="scale(1,-1)"
         id="text42"
         style="font-size:9.60000038px;font-family:Asap;-inkscape-font-specification:Asap"
         x="223.56819"
         y="-564.10657"><tspan
           style="font-size:9.60000038px;font-variant:normal;font-weight:normal;writing-mode:lr-tb;fill:#000000;fill-opacity:1;fill-rule:nonzero;stroke:none;font-family:Asap;-inkscape-font-specification:Asap"
           x="223.56819"
           y="-564.10657"
           sodipodi:role="line"
           id="tspan44">Who profits from the technology? </tspan><tspan
           style="font-size:9.60000038px;font-variant:normal;font-weight:normal;writing-mode:lr-tb;fill:#000000;fill-opacity:1;fill-rule:nonzero;stroke:none;font-family:Asap;-inkscape-font-specification:Asap"
           x="223.56819"
           y="-552.10657"
           sodipodi:role="line"
           id="tspan46">Are the profits or results shared? </tspan><tspan
           style="font-size:9.60000038px;font-variant:normal;font-weight:normal;writing-mode:lr-tb;fill:#000000;fill-opacity:1;fill-rule:nonzero;stroke:none;font-family:Asap;-inkscape-font-specification:Asap"
           x="223.56819"
           y="-540.10657"
           sodipodi:role="line"
           id="tspan3142">Where does the money go? </tspan><tspan
           style="font-size:9.60000038px;font-variant:normal;font-weight:normal;writing-mode:lr-tb;fill:#000000;fill-opacity:1;fill-rule:nonzero;stroke:none;font-family:Asap;-inkscape-font-specification:Asap"
           x="223.56819"
           y="-528.10657"
           sodipodi:role="line"
           id="tspan48">Does that technology generate </tspan><tspan
           style="font-size:9.60000038px;font-variant:normal;font-weight:normal;writing-mode:lr-tb;fill:#000000;fill-opacity:1;fill-rule:nonzero;stroke:none;font-family:Asap;-inkscape-font-specification:Asap"
           x="223.56819"
           y="-516.10657"
           sodipodi:role="line"
           id="tspan3144">jobs in your community?</tspan></text>
<text
         transform="scale(1,-1)"
         id="text50"
         style="font-size:9.60000038px;font-family:Asap;-inkscape-font-specification:Asap"
         x="70.186119"
         y="-566.78656"><tspan
           style="font-size:9.60000038px;font-variant:normal;font-weight:bold;writing-mode:lr-tb;fill:#000000;fill-opacity:1;fill-rule:nonzero;stroke:none;font-family:Asap;-inkscape-font-specification:Asap"
           sodipodi:role="line"
           id="tspan52"
           x="70.186119"
           y="-566.78656">Goal or Mission</tspan></text>
<text
         transform="scale(1,-1)"
         id="text54"
         style="font-size:9.60000038px;font-family:Asap;-inkscape-font-specification:Asap"
         x="70.308044"
         y="-555.53851"><tspan
           style="font-size:9.60000038px;font-variant:normal;font-weight:normal;writing-mode:lr-tb;fill:#000000;fill-opacity:1;fill-rule:nonzero;stroke:none;font-family:Asap;-inkscape-font-specification:Asap"
           x="70.308044"
           y="-555.53851"
           sodipodi:role="line"
           id="tspan56">What is the goal or mission</tspan><tspan
           style="font-size:9.60000038px;font-variant:normal;font-weight:normal;writing-mode:lr-tb;fill:#000000;fill-opacity:1;fill-rule:nonzero;stroke:none;font-family:Asap;-inkscape-font-specification:Asap"
           x="70.308044"
           y="-543.53851"
           sodipodi:role="line"
           id="tspan3138"> of the technology?</tspan></text>
<text
         transform="scale(1,-1)"
         id="text58"
         style="font-size:9.60000038px;font-family:Asap;-inkscape-font-specification:Asap"
         x="258.76929"
         y="-403.37772"><tspan
           style="font-size:9.60000038px;font-variant:normal;font-weight:bold;writing-mode:lr-tb;fill:#000000;fill-opacity:1;fill-rule:nonzero;stroke:none;font-family:Asap;-inkscape-font-specification:Asap"
           x="258.76929"
           y="-403.37772"
           sodipodi:role="line"
           id="tspan60">Design</tspan></text>
<text
         transform="scale(1,-1)"
         id="text62"
         style="font-size:9.60000038px;font-family:Asap;-inkscape-font-specification:Asap"
         x="258.62506"
         y="-389.91251"><tspan
           style="font-size:9.60000038px;font-variant:normal;font-weight:normal;writing-mode:lr-tb;fill:#000000;fill-opacity:1;fill-rule:nonzero;stroke:none;font-family:Asap;-inkscape-font-specification:Asap"
           x="258.62506"
           y="-389.91251"
           sodipodi:role="line"
           id="tspan64">Who designs the technology or system?</tspan><tspan
           style="font-size:9.60000038px;font-variant:normal;font-weight:normal;writing-mode:lr-tb;fill:#000000;fill-opacity:1;fill-rule:nonzero;stroke:none;font-family:Asap;-inkscape-font-specification:Asap"
           x="258.62506"
           y="-377.91251"
           sodipodi:role="line"
           id="tspan66">Who is it designed for?</tspan></text>
<text
         transform="scale(1,-1)"
         id="text68"
         style="font-size:9.60000038px;font-family:Asap;-inkscape-font-specification:Asap"
         x="242.72523"
         y="-339.55267"><tspan
           style="font-size:9.60000038px;font-variant:normal;font-weight:bold;writing-mode:lr-tb;fill:#000000;fill-opacity:1;fill-rule:nonzero;stroke:none;font-family:Asap;-inkscape-font-specification:Asap"
           x="242.72523"
           y="-339.55267"
           sodipodi:role="line"
           id="tspan70">Community Impact</tspan></text>
<text
         transform="scale(1,-1)"
         id="text72"
         style="font-size:9.60000038px;font-family:Asap;-inkscape-font-specification:Asap"
         x="242.72523"
         y="-328.42651"><tspan
           style="font-size:9.60000038px;font-variant:normal;font-weight:normal;writing-mode:lr-tb;fill:#000000;fill-opacity:1;fill-rule:nonzero;stroke:none;font-family:Asap;-inkscape-font-specification:Asap"
           x="242.72523"
           y="-328.42651"
           sodipodi:role="line"
           id="tspan74">Who is strengthened?</tspan><tspan
           style="font-size:9.60000038px;font-variant:normal;font-weight:normal;writing-mode:lr-tb;fill:#000000;fill-opacity:1;fill-rule:nonzero;stroke:none;font-family:Asap;-inkscape-font-specification:Asap"
           x="242.72523"
           y="-316.42651"
           sodipodi:role="line"
           id="tspan76">Are local relationships strengthened </tspan><tspan
           style="font-size:9.60000038px;font-variant:normal;font-weight:normal;writing-mode:lr-tb;fill:#000000;fill-opacity:1;fill-rule:nonzero;stroke:none;font-family:Asap;-inkscape-font-specification:Asap"
           x="242.72523"
           y="-304.42651"
           sodipodi:role="line"
           id="tspan3150">or weakened?</tspan></text>
<text
         transform="scale(1,-1)"
         id="text78"
         style="font-size:9.60000038px;font-family:Asap;-inkscape-font-specification:Asap"
         x="219.80142"
         y="-488.29202"><tspan
           style="font-size:9.60000038px;font-variant:normal;font-weight:bold;writing-mode:lr-tb;fill:#000000;fill-opacity:1;fill-rule:nonzero;stroke:none;font-family:Asap;-inkscape-font-specification:Asap"
           x="219.80142"
           y="-488.29202"
           sodipodi:role="line"
           id="tspan80">Local Impact </tspan></text>
<text
         transform="scale(1,-1)"
         id="text82"
         style="font-size:9.60000038px;font-family:Asap;-inkscape-font-specification:Asap"
         x="219.80142"
         y="-472.36584"><tspan
           style="font-size:9.60000038px;font-variant:normal;font-weight:normal;writing-mode:lr-tb;fill:#000000;fill-opacity:1;fill-rule:nonzero;stroke:none;font-family:Asap;-inkscape-font-specification:Asap"
           x="219.80142"
           y="-472.36584"
           sodipodi:role="line"
           id="tspan84">Is the content made by people in your community? </tspan><tspan
           style="font-size:9.60000038px;font-variant:normal;font-weight:normal;writing-mode:lr-tb;fill:#000000;fill-opacity:1;fill-rule:nonzero;stroke:none;font-family:Asap;-inkscape-font-specification:Asap"
           x="219.80142"
           y="-460.36584"
           sodipodi:role="line"
           id="tspan86">Is the content for people in your community? </tspan><tspan
           style="font-size:9.60000038px;font-variant:normal;font-weight:normal;writing-mode:lr-tb;fill:#000000;fill-opacity:1;fill-rule:nonzero;stroke:none;font-family:Asap;-inkscape-font-specification:Asap"
           x="219.80142"
           y="-448.36584"
           sodipodi:role="line"
           id="tspan88">How is the local media ecosystem </tspan><tspan
           style="font-size:9.60000038px;font-variant:normal;font-weight:normal;writing-mode:lr-tb;fill:#000000;fill-opacity:1;fill-rule:nonzero;stroke:none;font-family:Asap;-inkscape-font-specification:Asap"
           x="219.80142"
           y="-436.36584"
           sodipodi:role="line"
           id="tspan3146">strengthened or weakened?</tspan></text>
<text
         transform="scale(1,-1)"
         id="text90"
         style="font-size:9.60000038px;font-family:Asap;-inkscape-font-specification:Asap"
         x="45.352207"
         y="-409.80835"><tspan
           style="font-size:9.60000038px;font-variant:normal;font-weight:bold;writing-mode:lr-tb;fill:#000000;fill-opacity:1;fill-rule:nonzero;stroke:none;font-family:Asap;-inkscape-font-specification:Asap"
           x="45.352207"
           y="-409.80835"
           sodipodi:role="line"
           id="tspan92">Teaching and Learning </tspan></text>
<text
         transform="scale(1,-1)"
         id="text94"
         style="font-size:9.60000038px;font-family:Asap;-inkscape-font-specification:Asap"
         x="45.352207"
         y="-398.68219"><tspan
           style="font-size:9.60000038px;font-variant:normal;font-weight:normal;writing-mode:lr-tb;fill:#000000;fill-opacity:1;fill-rule:nonzero;stroke:none;font-family:Asap;-inkscape-font-specification:Asap"
           x="45.352207"
           y="-398.68219"
           sodipodi:role="line"
           id="tspan96">How are skills and knowledge shared </tspan><tspan
           style="font-size:9.60000038px;font-variant:normal;font-weight:normal;writing-mode:lr-tb;fill:#000000;fill-opacity:1;fill-rule:nonzero;stroke:none;font-family:Asap;-inkscape-font-specification:Asap"
           x="45.352207"
           y="-386.68219"
           sodipodi:role="line"
           id="tspan100">about the technology? </tspan><tspan
           style="font-size:9.60000038px;font-variant:normal;font-weight:normal;writing-mode:lr-tb;fill:#000000;fill-opacity:1;fill-rule:nonzero;stroke:none;font-family:Asap;-inkscape-font-specification:Asap"
           x="45.352207"
           y="-374.68219"
           sodipodi:role="line"
           id="tspan3179">Who installs it? </tspan><tspan
           style="font-size:9.60000038px;font-variant:normal;font-weight:normal;writing-mode:lr-tb;fill:#000000;fill-opacity:1;fill-rule:nonzero;stroke:none;font-family:Asap;-inkscape-font-specification:Asap"
           x="45.352207"
           y="-362.68219"
           sodipodi:role="line"
           id="tspan3181">Who repairs it?</tspan><tspan
           style="font-size:9.60000038px;font-variant:normal;font-weight:normal;writing-mode:lr-tb;fill:#000000;fill-opacity:1;fill-rule:nonzero;stroke:none;font-family:Asap;-inkscape-font-specification:Asap"
           x="45.352207"
           y="-350.68219"
           sodipodi:role="line"
           id="tspan3171" /></text>
<g
         id="g102"
         transform="matrix(0.53491127,0,0,-0.53491127,19.93088,596.7121)"><path
           d="M 75.955098,96.709301 C 69.623098,89.330301 83.273,74.238 81.609,64.656 79.941,55.078 80.91,45.051 84.379,35.969 c 0.633,-1.664 1.355,-3.309 2.379,-4.762 1.945,-2.766 4.883,-4.715 8.023,-5.965 3.137,-1.25 6.492,-1.855 9.832,-2.371 37.157,-5.695 75.696,-0.57 110.711,13.098 12.371,4.828 24.813,10.804 38.094,10.711 8.465,-0.059 16.46677,-4.375881 24.906,-4.594 11.59402,-0.299656 23.03398,2.770529 34.4968,4.535399 6.51067,1.002414 13.07073,1.837564 19.461,3.437 6.33839,1.586451 13.269,2.235 18.633,6.086 5.91,4.246 9.594,11.262 10.336,18.504 0.738,7.242 -1.328,14.641 -5.203,20.805 -3.875,6.164001 -9.481,11.133001 -15.766,14.812001 -6.281,3.676 -13.234,6.106 -20.32,7.782 -17.852,4.226 -39.45615,6.74915 -57.74915,5.37015 -33.059,-2.489 -57.01855,7.04875 -88.64355,-2.90025 -9.836,-3.094 -19.59,-6.637 -29.762,-8.332 -12.586,-2.098 -25.531,-1.312 -38.094,-3.57 -10.586002,-1.906 -20.777002,-5.981 -29.758002,-11.905999"
           style="fill:none;stroke:#000000;stroke-width:0.77027702;stroke-linecap:butt;stroke-linejoin:miter;stroke-miterlimit:4;stroke-opacity:1;stroke-dasharray:none"
           id="path104"
           inkscape:connector-curvature="0"
           sodipodi:nodetypes="ccccccccaaaccsccccccc" /></g><text
         transform="scale(1,-1)"
         id="text106"
         style="font-size:9.60000038px;font-family:Asap;-inkscape-font-specification:Asap"
         x="87.617142"
         y="-301.74963"><tspan
           style="font-size:9.60000038px;font-variant:normal;font-weight:normal;writing-mode:lr-tb;fill:#000000;fill-opacity:1;fill-rule:nonzero;stroke:none;font-family:Asap;-inkscape-font-specification:Asap"
           x="87.617142"
           y="-301.74963"
           sodipodi:role="line"
           id="tspan108">(example: phone network)</tspan></text>
<g
         id="g110"
         transform="matrix(0.53491127,0,0,-0.53491127,19.93088,596.7121)"><path
           d="M 338.55015,49.033699 C 343.91315,40.392699 347.805,38.684 355.797,32.395 370.328,20.961 388.332,-0.60375145 406.68,-2.9247514 c 18.343,-2.324 37.054,-0.5 55.062,3.69899995 6.75,1.57500005 13.426,3.48100005 20.238,4.76200005 19.184,3.61 38.907,2.196 58.391,1.024 19.484,-1.172 39.305,-2.063 58.274,2.546 14.578,3.5430004 28.289,10.2930004 40.472,19.0470004 8.598,6.18 16.574,13.426 26.192,17.856 12.91,5.953 27.574,6.32 41.753,7.351 7.09,0.516 14.2,1.227 21.098,2.942 6.899,1.711 13.617,4.465 19.285,8.754 6.102,4.621 10.852,25.923751 13.688,33.033751 2.836,7.105 3.758,14.945 2.781,22.535 -1.949,15.176 -11.644,28.949 -24.801,36.766 -8.261,4.906 -17.691,7.574 -27.199,8.964 -9.508,1.387 -19.144,1.547 -28.75,1.75 -32.555,0.684 -65.098,1.875 -97.617,3.571 -45.203,-2.59 -90.563,-2.43 -135.746,0.488 -28.383,1.832 -57.805,4.609 -84.481,-5.25 -14.328,-5.293 -27.394,-14.238 -36.906,-26.187 -2.676,-3.364 -5.066,-6.954 -7.141,-10.715"
           style="fill:none;stroke:#000000;stroke-width:0.77027702;stroke-linecap:butt;stroke-linejoin:miter;stroke-miterlimit:4;stroke-opacity:1;stroke-dasharray:none"
           id="path112"
           inkscape:connector-curvature="0"
           sodipodi:nodetypes="cccccscccccccccccccccc" /></g><g
         id="g114"
         transform="matrix(0.53491127,0,0,-0.53491127,19.93088,596.7121)"><path
           d="m 345.652,157.391 c -12.191,13.101 -20.718,29.57 -24.382,47.086 -3.665,17.515 -2.454,36.023 3.464,52.91 3.157,9.015 7.661,17.613 13.719,25 2.004,2.445 4.168,4.75 6.235,7.14 8.089,9.379 14.636,20.125 23.695,28.571 10.301,9.605 23.488,15.804 37.219,18.941 13.726,3.141 28.003,3.32 42.015,1.91 28.02,-2.828 55.047,-11.902 82.899,-16.09 31.488,-4.73 63.922,-3.101 94.781,4.762 7.265,-2.453 14.816,-4.055 22.449,-4.762 12.914,-1.195 25.918,0.164 38.887,-0.078 12.965,-0.238 26.39,-2.269 37.191,-9.445 8.442,-5.606 74.60801,-14.145 78.08101,-23.664 3.477,-9.516 4.145,-19.965 2.477,-29.957 -3.329,-19.992 -3.7034,-55.5059 -18.7464,-69.0839 -4.071,-3.672 -8.348,-7.101 -12.473,-10.711 -8.773,-7.683 -16.836,-16.176 -24.051,-25.332"
           style="fill:none;stroke:#000000;stroke-width:0.78841799;stroke-linecap:butt;stroke-linejoin:miter;stroke-miterlimit:4;stroke-opacity:1;stroke-dasharray:none"
           id="path116"
           inkscape:connector-curvature="0"
           sodipodi:nodetypes="cccccccccccccccccc" /></g><g
         id="g118"
         transform="matrix(0.53491127,0,0,-0.53491127,19.93088,596.7121)"><path
           d="m 404.602,335.957 c -6.297,27.438 -0.536,57.422 15.476,80.578 4.367,6.313 9.676,12.301 16.668,15.473 4.84,2.199 10.199,2.918 15.473,3.574 33.625,4.18 67.414,6.824 101.187,9.523 23.09,1.844 97.16255,-8.2536 120.22455,-10.3896 23.063,-2.133 46.192,-8.5 65.145,-21.813 17.183,-12.07 30.41,-29.691 37.195,-49.566 6.789,-19.875 7.109,-41.903 0.899,-61.965"
           style="fill:none;stroke:#000000;stroke-width:0.77027702;stroke-linecap:butt;stroke-linejoin:miter;stroke-miterlimit:4;stroke-opacity:1;stroke-dasharray:none"
           id="path120"
           inkscape:connector-curvature="0"
           sodipodi:nodetypes="ccccccscc" /></g><g
         id="g122"
         transform="matrix(0.53491127,0,0,-0.53491127,19.93088,596.7121)"><path
           d="m 672.449,431.191 c 8.758,5.508 17.489,11.063 26.192,16.664 6.867,4.422 13.754,8.899 19.742,14.454 5.988,5.554 11.086,12.293 13.586,20.07 1.773,5.512 2.226,11.461 4.761,16.664 2.141,4.387 5.618,7.945 8.883,11.57 3.266,3.625 6.449,7.547 7.785,12.239 0.899,3.156 0.903,6.531 0.231,9.742 -0.672,3.211 -2.012,6.261 -3.731,9.054 -3.441,5.582 -8.336,10.098 -13.168,14.536 -10.109,9.3 -20.527,18.828 -33.328,23.808 -10.164,3.957 -21.511,4.797 -32.144,2.383 -18.199,-1.703 -36.559,-1.703 -54.758,0 -15.492,1.449 -30.879,4.129 -46.426,4.762 -11.105,0.449 -22.222,-0.145 -33.332,0 -26.976,0.351 -53.902,5.066 -80.812,3.156 -13.457,-0.953 -26.903,-3.602 -39.227,-9.082 -12.328,-5.477 -23.515,-13.902 -31.148,-25.027 -8.551,-12.465 -12.27,-27.711 -13.309,-42.793 -1.039,-15.086 0.434,-15.25525 1.406,-30.34125 1.301,-20.207 1.696,-40.473 1.192,-60.711"
           style="fill:none;stroke:#000000;stroke-width:0.77027702;stroke-linecap:butt;stroke-linejoin:miter;stroke-miterlimit:4;stroke-opacity:1;stroke-dasharray:none"
           id="path124"
           inkscape:connector-curvature="0"
           sodipodi:nodetypes="cccccccsccccccccccccc" /></g><g
         id="g126"
         transform="matrix(0.53491127,0,0,-0.53491127,19.93088,596.7121)"><path
           d="M 71.369741,93.447839 C 61.232741,100.36484 67.039,95.301 55.809,100.25 c -7.52,3.312 -15.434,6.289 -21.43,11.906 -5.899,5.528 -9.426,13.219 -11.195,21.106 -1.77,7.89 -1.907,16.043 -1.899,24.129 0.016,19.464 0.809,38.929 2.379,58.332 -0.305,13.156 -1.5,26.289 -3.57,39.285 -1.297,8.148 -2.946,16.308 -2.813,24.562 0.129,8.25 2.223,16.774 7.574,23.055 3.911,4.586 9.356,7.715 15.129,9.457 5.774,1.742 11.875,2.16 17.903,1.941 12.047,-0.445 23.961,-3.41 36.015,-3.066 17.375,0.492 33.891,7.797 51.188,9.523 9.484,0.946 19.043,0.204 28.57,0 25.41,-0.542 50.778,2.774 76.188,2.379 35.183,-0.543 70.238,-8.285 102.375,-22.617"
           style="fill:none;stroke:#000000;stroke-width:0.77027702;stroke-linecap:butt;stroke-linejoin:miter;stroke-miterlimit:4;stroke-opacity:1;stroke-dasharray:none"
           id="path128"
           inkscape:connector-curvature="0"
           sodipodi:nodetypes="cccccccccccccccc" /></g><g
         id="g130"
         transform="matrix(0.53491127,0,0,-0.53491127,19.93088,596.7121)"><path
           d="m 27.1547,307.3537 c -10.571,17.695 -20.8223012,39.066 -17.8613012,59.465 2.9650002,20.398 -4.8099017,51.6366 10.3610982,65.5936 8.075,7.425 26.747451,19.4543 37.536451,21.4543 12.133,2.25 45.489052,11.2386 57.497052,8.3946 10.199,-2.414 26.4233,-1.75485 36.8293,-2.96185 27.66,-3.207 49.8657,-13.36975 77.4237,-17.33475 20.758,-2.988 40.75,-10.895 61.696,-11.906 14.918,-0.719 30.297,2.047 44.558,-2.379 6.594,-2.047 12.7,-5.574 19.422,-7.145 7.469,-1.738 15.317,-0.972 22.852,-2.379 9.961,-1.859 19.129,-19.6166 25.086,-27.8116"
           style="fill:none;stroke:#000000;stroke-width:0.75462002;stroke-linecap:butt;stroke-linejoin:miter;stroke-miterlimit:4;stroke-opacity:1;stroke-dasharray:none"
           id="path132"
           inkscape:connector-curvature="0"
           sodipodi:nodetypes="cccccccccccc" /></g><text
         id="text50-9"
         style="font-size:9.60000038px;font-family:Asap;-inkscape-font-specification:Asap"
         x="223.38615"
         y="-577.93378"
         transform="scale(1,-1)"><tspan
           style="font-size:9.60000038px;font-variant:normal;font-weight:bold;writing-mode:lr-tb;fill:#000000;fill-opacity:1;fill-rule:nonzero;stroke:none;font-family:Asap;-inkscape-font-specification:Asap"
           sodipodi:role="line"
           id="tspan52-0"
           x="223.38615"
           y="-577.93378">Profit and Sustainability</tspan></text>
</g></g></svg>