<?xml version="1.0" encoding="UTF-8" standalone="no"?>
<!-- Created with Inkscape (http://www.inkscape.org/) -->

<svg
   xmlns:dc="http://purl.org/dc/elements/1.1/"
   xmlns:cc="http://creativecommons.org/ns#"
   xmlns:rdf="http://www.w3.org/1999/02/22-rdf-syntax-ns#"
   xmlns:svg="http://www.w3.org/2000/svg"
   xmlns="http://www.w3.org/2000/svg"
   xmlns:sodipodi="http://sodipodi.sourceforge.net/DTD/sodipodi-0.dtd"
   xmlns:inkscape="http://www.inkscape.org/namespaces/inkscape"
   width="480"
   height="480"
   id="svg3220"
   version="1.1"
   inkscape:version="0.48.4 r9939"
   sodipodi:docname="nalepka_10_en.svg"
   inkscape:export-filename="/home/svet/Dropbox/falanster/mesh/stickers/en_posters/nalepka_10_en_2.png"
   inkscape:export-xdpi="300"
   inkscape:export-ydpi="300">
  <defs
     id="defs3222" />
  <sodipodi:namedview
     id="base"
     pagecolor="#ffffff"
     bordercolor="#666666"
     borderopacity="1.0"
     inkscape:pageopacity="0.0"
     inkscape:pageshadow="2"
     inkscape:zoom="0.35355339"
     inkscape:cx="548.29206"
     inkscape:cy="-290.11833"
     inkscape:document-units="px"
     inkscape:current-layer="g4216"
     showgrid="false"
     units="px"
     fit-margin-top="5"
     fit-margin-left="5"
     fit-margin-right="5"
     fit-margin-bottom="5"
     inkscape:window-width="1360"
     inkscape:window-height="719"
     inkscape:window-x="0"
     inkscape:window-y="25"
     inkscape:window-maximized="1"
     showguides="true"
     inkscape:guide-bbox="true"
     width="480px"
     inkscape:snap-grids="false" />
  <metadata
     id="metadata3225">
    <rdf:RDF>
      <cc:Work
         rdf:about="">
        <dc:format>image/svg+xml</dc:format>
        <dc:type
           rdf:resource="http://purl.org/dc/dcmitype/StillImage" />
        <dc:title></dc:title>
      </cc:Work>
    </rdf:RDF>
  </metadata>
  <g
     inkscape:label="Layer 1"
     inkscape:groupmode="layer"
     id="layer1"
     transform="translate(-184.26436,-209.17401)">
    <text
       sodipodi:linespacing="125%"
       id="text5965"
       y="519.67194"
       x="292.76529"
       style="font-style:normal;font-weight:normal;font-size:38.36391449px;line-height:125%;font-family:sans-serif;letter-spacing:0px;word-spacing:0px;fill:#000000;fill-opacity:1;stroke:none;stroke-width:1px;stroke-linecap:butt;stroke-linejoin:miter;stroke-opacity:1"
       xml:space="preserve"
       transform="scale(1.0059452,0.99408998)"><tspan
         y="519.67194"
         x="292.76529"
         id="tspan5967"
         sodipodi:role="line" /></text>
    <g
       id="g4216"
       transform="matrix(1.4999904,0,0,1.4999904,-92.130511,-104.58327)">
      <rect
         y="217.17729"
         x="184.26457"
         height="1000.0054"
         width="1000.0064"
         id="rect5975"
         style="fill:#000038;fill-opacity:1" />
      <g
         style="fill:#ffffff"
         transform="matrix(5.5441973,3.0717672,2.8262947,-6.0141837,507.77428,197.88744)"
         id="g5957">
        <path
           inkscape:connector-curvature="0"
           id="path5959"
           style="fill:#ffffff;fill-opacity:1;fill-rule:nonzero;stroke:none"
           d="m 28.954008,-15.684777 c 0.257521,-0.341838 0.351883,-0.797833 0.217812,-1.238129 -0.224664,-0.728894 -0.999002,-1.13699 -1.726476,-0.912581 -14.009124,4.319363 -28.8884449,-0.748213 -37.907394,-12.910194 -9.033907,-12.182014 -9.558498,-27.922822 -1.337397,-40.10208 0.425932,-0.631871 0.259542,-1.489637 -0.373155,-1.916225 -0.631301,-0.426783 -1.481231,-0.270841 -1.915587,0.372211 -8.884577,13.16301 -8.331824,30.154486 1.409071,43.29105 9.7249391,13.114529 25.794636,18.573112 40.938498,13.90423 0.28799,-0.08977 0.526159,-0.26465 0.694631,-0.488282 m -2.131048,-9.5531 c 0.230446,-0.305896 0.333291,-0.706673 0.249146,-1.111859 -0.154223,-0.745941 -0.885815,-1.225743 -1.631741,-1.071574 -9.506361,1.968806 -19.1550032,-1.71212 -25.1811565,-9.604935 -6.0883806,-7.974753 -7.1249541,-18.320861 -2.7046359,-27.002223 0.345033,-0.679047 0.074385,-1.511442 -0.6040817,-1.857327 -0.6798718,-0.34569 -1.5160486,-0.07175 -1.8572762,0.603938 -4.9051317,9.635704 -3.7669279,21.105039 2.9718561,29.931616 6.676557,8.744643 17.3801702,12.818479 27.9349902,10.632966 0.341945,-0.07169 0.627953,-0.261827 0.822899,-0.520602 m -7.18611,-11.137967 c 0.115522,-0.153347 0.201099,-0.331761 0.24512,-0.531466 0.16517,-0.744441 -0.305476,-1.480873 -1.049326,-1.646901 -4.042516,-0.89465 -7.494421,-3.311212 -9.7186576,-6.802293 -2.2240394,-3.489679 -2.9562877,-7.638297 -2.0595626,-11.678951 0.1643719,-0.745042 -0.3056726,-1.482273 -1.0493263,-1.646901 -0.7436533,-0.164628 -1.4802432,0.304565 -1.6468149,1.0492 -1.0552456,4.76131 -0.192754,9.647815 2.4281711,13.760766 2.620728,4.111549 6.6873243,6.958659 11.4487013,8.014281 0.545347,0.120395 1.086412,-0.09922 1.401695,-0.517735" />
      </g>
      <g
         style="fill:#ffffff"
         transform="matrix(8.3491776,1.6447415,1.6278102,-8.4360197,1009.5784,979.01484)"
         id="g6017">
        <path
           inkscape:connector-curvature="0"
           id="path6019"
           style="fill:#ffffff;fill-opacity:1;fill-rule:nonzero;stroke:none"
           d="m 3.3347896,3.630842 c -0.255,0 -0.505,0.118 -0.666,0.34 -0.266,0.367 -0.183,0.881 0.184,1.147 7.067,5.109 9.9850004,13.992 7.4350004,22.629 -2.5540004,8.652 -9.84500039,14.535 -18.5740004,14.989 -0.453,0.023 -0.801,0.409 -0.777,0.862 0.023,0.453 0.401,0.801 0.862,0.778 9.434,-0.49 17.31,-6.834 20.0640004,-16.164 2.75,-9.314 -0.409,-18.902 -8.0470004,-24.425 -0.146,-0.105 -0.314,-0.156 -0.481,-0.156 m -3.77599999,4.432 c -0.228,0 -0.455,0.094 -0.61700001,0.279 -0.3,0.34 -0.266,0.859 0.075,1.159 4.338,3.812 6.043,9.713 4.449,15.401 -1.609,5.746 -6.154,9.942 -11.861,10.949 -0.446,0.079 -0.744,0.505 -0.666,0.952 0.079,0.447 0.509,0.745 0.952,0.666 6.334,-1.119 11.376,-5.764 13.157,-12.125 1.765,-6.301 -0.131,-12.845 -4.947,-17.077 -0.157,-0.137 -0.349,-0.204 -0.542,-0.204 m -2.72,7.4 c -0.114,0 -0.229,0.023 -0.34,0.073 -0.413,0.189 -0.594,0.676 -0.407,1.088 1.022,2.241 1.11,4.746 0.247,7.052 -0.862,2.306 -2.571,4.139 -4.812,5.159 -0.412,0.188 -0.594,0.675 -0.406,1.088 0.188,0.412 0.674,0.594 1.087,0.407 2.64,-1.203 4.653,-3.362 5.669,-6.079 1.016,-2.717 0.913,-5.667 -0.29,-8.308 -0.138,-0.302 -0.436,-0.48 -0.748,-0.48" />
      </g>
      <path
         transform="matrix(2.0833721,0,0,2.0834568,-199.65966,-218.62062)"
         inkscape:transform-center-y="-1.0616198"
         inkscape:transform-center-x="2.3158845"
         d="m 570.5893,283.96166 -11.91043,-8.22529 -7.37649,12.45396 4.14219,-13.86924 -14.12388,-3.16697 14.47045,-0.34638 -1.35256,-14.41125 4.80104,13.65517 13.28796,-5.73967 -11.50325,8.78573 z"
         inkscape:randomized="0"
         inkscape:rounded="0"
         inkscape:flatsided="false"
         sodipodi:arg2="1.3549609"
         sodipodi:arg1="0.72664234"
         sodipodi:r2="3.0031328"
         sodipodi:r1="16.796139"
         sodipodi:cy="272.80292"
         sodipodi:cx="558.03571"
         sodipodi:sides="5"
         id="path5848"
         style="fill:#ffeeaa;fill-opacity:1"
         sodipodi:type="star" />
      <path
         transform="matrix(2.2551233,0.77994467,-0.680942,1.9690285,43.729207,-348.62239)"
         inkscape:transform-center-y="0.4010156"
         inkscape:transform-center-x="2.3397137"
         d="m 228.10576,424.24508 -3.16925,-14.04555 -13.79094,4.13902 12.37876,-7.35445 -8.19808,-11.83694 10.81975,9.50025 8.72425,-11.45465 -5.69179,13.22593 13.58997,4.75758 -14.33747,-1.32618 z"
         inkscape:randomized="0"
         inkscape:rounded="0"
         inkscape:flatsided="false"
         sodipodi:arg2="2.0994462"
         sodipodi:arg1="1.4711277"
         sodipodi:r2="2.9873805"
         sodipodi:r1="16.708038"
         sodipodi:cy="407.61996"
         sodipodi:cx="226.44325"
         sodipodi:sides="5"
         id="path5852"
         style="fill:#fff6d5;fill-opacity:1"
         sodipodi:type="star" />
      <path
         transform="matrix(2.2444378,0.41525721,-0.41524032,2.244529,-38.832837,-390.42534)"
         inkscape:transform-center-y="-0.28818453"
         inkscape:transform-center-x="4.5989181"
         d="m 237.26434,490.17401 -18.15792,-6.45158 -5.1723,18.56288 0.52471,-19.26286 -19.25268,0.8171 18.48221,-5.45353 -6.7265,-18.05788 10.89792,15.89239 15.09547,-11.97748 -11.74692,15.27557 z"
         inkscape:randomized="0"
         inkscape:rounded="0"
         inkscape:flatsided="false"
         sodipodi:arg2="1.0919661"
         sodipodi:arg1="0.46364761"
         sodipodi:r2="3.9980671"
         sodipodi:r1="22.36068"
         sodipodi:cy="480.17401"
         sodipodi:cx="217.26434"
         sodipodi:sides="5"
         id="path5928"
         style="fill:#ffe680;fill-opacity:1"
         sodipodi:type="star" />
      <path
         transform="matrix(2.5242002,1.7253407,-1.7252704,2.5243028,-310.26111,-1951.6984)"
         inkscape:transform-center-y="-1.5175629"
         inkscape:transform-center-x="-2.9886593"
         d="m 818.26434,414.17401 -11.96029,-5.47655 -4.63094,12.31242 1.51257,-13.06726 -13.14084,-0.59954 12.89512,-2.59946 -3.49056,-12.68295 6.45705,11.4607 10.98357,-7.23896 -8.90444,9.68257 z"
         inkscape:randomized="0"
         inkscape:rounded="0"
         inkscape:flatsided="false"
         sodipodi:arg2="1.1799735"
         sodipodi:arg1="0.55165498"
         sodipodi:r2="2.7292483"
         sodipodi:r1="15.264338"
         sodipodi:cy="406.17401"
         sodipodi:cx="805.26434"
         sodipodi:sides="5"
         id="path5930"
         style="fill:#cbf6ff;fill-opacity:1"
         sodipodi:type="star" />
      <path
         transform="matrix(3.689825,0,0,3.3518872,-721.18658,-958.36393)"
         inkscape:transform-center-y="0.7525626"
         inkscape:transform-center-x="5.5589248"
         d="m 285.26434,607.17401 -13.88118,-6.97705 -5.99413,14.33307 2.34605,-15.35782 -15.48384,-1.27159 15.33112,-2.5146 -3.57542,-15.11896 7.1291,13.80371 13.27412,-8.07244 -10.92509,11.04576 z"
         inkscape:randomized="0"
         inkscape:rounded="0"
         inkscape:flatsided="false"
         sodipodi:arg2="1.2163211"
         sodipodi:arg1="0.5880026"
         sodipodi:r2="3.2233448"
         sodipodi:r1="18.027756"
         sodipodi:cy="597.17401"
         sodipodi:cx="270.26434"
         sodipodi:sides="5"
         id="path5938"
         style="fill:#ffd5d5;fill-opacity:1"
         sodipodi:type="star" />
      <path
         transform="matrix(2.0474638,0.38515405,-0.38513838,2.0475472,-87.013522,-385.86717)"
         inkscape:transform-center-y="-0.82044536"
         inkscape:transform-center-x="4.9735381"
         d="m 428.76435,253.71318 22.08307,-7.01383 -6.17401,-23.07138 13.49459,18.83486 20.03432,-13.00128 -13.74296,18.65441 18.55589,15.03615 -21.9882,-7.3058 -8.56614,22.29413 0.1535,-23.16965 z"
         inkscape:randomized="0"
         inkscape:rounded="0"
         inkscape:flatsided="false"
         sodipodi:arg2="-2.7237356"
         sodipodi:arg1="2.9996956"
         sodipodi:r2="7.1948667"
         sodipodi:r1="28.94986"
         sodipodi:cy="249.61905"
         sodipodi:cx="457.42325"
         sodipodi:sides="5"
         id="path5940"
         style="fill:#00ffff;fill-opacity:1"
         sodipodi:type="star" />
      <path
         transform="matrix(2.0079121,-0.55565626,0.55563365,2.0079938,-320.82631,-69.478959)"
         inkscape:transform-center-y="-1.2284873"
         inkscape:transform-center-x="-2.423486"
         d="m 218.26434,258.18526 9.87499,-9.15909 -6.3764,-11.89447 11.76235,6.56136 9.3419,-9.73991 -2.60546,13.21423 12.15001,5.87487 -13.37261,1.60549 -1.83278,13.37078 -5.65927,-12.22198 z"
         inkscape:randomized="0"
         inkscape:rounded="0"
         inkscape:flatsided="false"
         sodipodi:arg2="-2.979584"
         sodipodi:arg1="2.677945"
         sodipodi:r2="6.4476027"
         sodipodi:r1="18.154819"
         sodipodi:cy="250.06618"
         sodipodi:cx="234.5025"
         sodipodi:sides="5"
         id="path5942"
         style="fill:#00ffff;fill-opacity:1"
         sodipodi:type="star" />
      <path
         transform="matrix(2.9015055,0,0,2.6146318,-1736.3081,-1056.2341)"
         inkscape:transform-center-y="3.2318249"
         inkscape:transform-center-x="-1.2992972"
         d="m 806.26434,516.17401 -14.9613,-1.63477 -0.58963,15.0388 -3.06854,-14.73422 -14.48496,4.08647 13.06485,-7.47147 -8.36256,-12.51323 11.14305,10.1166 9.31661,-11.82007 -6.17806,13.72387 z"
         inkscape:randomized="0"
         inkscape:rounded="0"
         inkscape:flatsided="false"
         sodipodi:arg2="0.8594092"
         sodipodi:arg1="0.23109067"
         sodipodi:r2="3.1225903"
         sodipodi:r1="17.464249"
         sodipodi:cy="512.17401"
         sodipodi:cx="789.26434"
         sodipodi:sides="5"
         id="path5944"
         style="fill:#ff5555;fill-opacity:1"
         sodipodi:type="star" />
      <path
         transform="matrix(2.0833721,0,0,2.0834568,-244.10378,-201.95407)"
         inkscape:transform-center-y="1.1231594"
         inkscape:transform-center-x="2.0557973"
         d="m 557.30413,621.29831 13.24823,-3.14272 -4.05706,-12.9974 7.08283,11.62866 11.10756,-7.87492 -8.87079,10.32963 10.92191,8.13044 -12.56529,-5.2446 -4.35744,12.8998 1.10502,-13.57097 z"
         inkscape:randomized="0"
         inkscape:rounded="0"
         inkscape:flatsided="false"
         sodipodi:arg2="3.659254"
         sodipodi:arg1="3.0309354"
         sodipodi:r2="2.8249719"
         sodipodi:r1="15.799706"
         sodipodi:cy="619.55353"
         sodipodi:cx="573.0072"
         sodipodi:sides="5"
         id="path5946"
         style="fill:#ffdd55;fill-opacity:1"
         sodipodi:type="star" />
      <path
         transform="matrix(2.6831371,0.52475448,-0.52473312,2.6832462,-968.13157,-1375.0717)"
         inkscape:transform-center-y="4.0570337"
         inkscape:transform-center-x="1.9730593"
         d="m 816.26434,472.17401 17.01646,-9.90514 -11.06532,-16.28589 14.67872,13.12276 12.06943,-15.55637 -7.94451,18.01545 18.52465,6.67153 -19.5887,-1.9886 -0.62058,19.6796 -4.16197,-19.24447 z"
         inkscape:randomized="0"
         inkscape:rounded="0"
         inkscape:flatsided="false"
         sodipodi:arg2="3.3650194"
         sodipodi:arg1="2.7367009"
         sodipodi:r2="4.0850778"
         sodipodi:r1="22.847319"
         sodipodi:cy="463.17401"
         sodipodi:cx="837.26434"
         sodipodi:sides="5"
         id="path5948"
         style="fill:#fff6d5;fill-opacity:1"
         sodipodi:type="star" />
      <path
         transform="matrix(2.0833721,0,0,2.0834568,-199.65966,-218.62062)"
         inkscape:transform-center-y="4.1912805"
         inkscape:transform-center-x="-1.3013525"
         d="m 609.59184,576.0561 17.31371,16.00962 14.76592,-18.38586 -9.87582,21.41355 22.04891,8.36168 -23.4173,-2.77531 -1.13893,23.55366 -4.59687,-23.12879 -22.75282,6.19529 20.57628,-11.51907 z"
         inkscape:randomized="0"
         inkscape:rounded="0"
         inkscape:flatsided="false"
         sodipodi:arg2="-1.6447347"
         sodipodi:arg1="-2.2730533"
         sodipodi:r2="4.8925338"
         sodipodi:r1="27.363317"
         sodipodi:cy="596.94489"
         sodipodi:cx="627.26697"
         sodipodi:sides="5"
         id="path5952"
         style="fill:#ffe680;fill-opacity:1"
         sodipodi:type="star" />
      <path
         transform="matrix(2.0833721,0,0,2.0834568,-199.65966,-218.62062)"
         inkscape:transform-center-y="0.80140805"
         inkscape:transform-center-x="-1.2709219"
         d="m 276.30417,537.15869 7.17266,-5.2226 -5.7091,-6.79182 7.18347,5.20773 4.6952,-7.52846 -2.73304,8.44116 8.61089,2.13897 -8.87257,0.009 0.62662,8.85043 -2.75052,-8.43548 z"
         inkscape:randomized="0"
         inkscape:rounded="0"
         inkscape:flatsided="false"
         sodipodi:arg2="3.2628127"
         sodipodi:arg1="2.6344941"
         sodipodi:r2="1.8408484"
         sodipodi:r1="10.29563"
         sodipodi:cy="532.15869"
         sodipodi:cx="285.30417"
         sodipodi:sides="5"
         id="path5954"
         style="fill:#ffe680;fill-opacity:1"
         sodipodi:type="star" />
      <path
         transform="matrix(1.6896312,-0.48496816,0.42151323,1.4686736,-262.39631,152.26709)"
         inkscape:transform-center-y="0.043430563"
         inkscape:transform-center-x="-1.9895796"
         d="m 420.26434,376.17401 -15.89839,-3.64556 -3.1967,15.9277 -1.44573,-16.24682 -16.13598,1.8817 15.00488,-6.39552 -6.77589,-14.76475 10.71927,12.29417 11.94824,-11.00682 -8.38001,13.99374 z"
         inkscape:randomized="0"
         inkscape:rounded="0"
         inkscape:flatsided="false"
         sodipodi:arg2="1.0111087"
         sodipodi:arg1="0.37089129"
         sodipodi:r2="3.9584041"
         sodipodi:r1="19.313208"
         sodipodi:cy="369.17401"
         sodipodi:cx="402.26434"
         sodipodi:sides="5"
         id="path5850"
         style="fill:#ffeeaa;fill-opacity:1"
         sodipodi:type="star" />
      <path
         transform="matrix(-0.03888673,2.5238899,-2.9036015,-0.0338014,2227.7375,-1514.1018)"
         inkscape:transform-center-y="1.5299131"
         inkscape:transform-center-x="-1.1719728"
         d="m 854.26434,442.17401 -6.39323,-9.63361 -9.16534,7.04815 7.18649,-9.05727 -9.53544,-6.53876 10.83473,4.0359 3.27211,-11.08932 -0.49025,11.5516 11.55771,-0.31482 -11.13772,3.10338 z"
         inkscape:randomized="0"
         inkscape:rounded="0"
         inkscape:flatsided="false"
         sodipodi:arg2="1.7354672"
         sodipodi:arg1="1.1071487"
         sodipodi:r2="2.3988402"
         sodipodi:r1="13.416408"
         sodipodi:cy="430.17401"
         sodipodi:cx="848.26434"
         sodipodi:sides="5"
         id="path5854"
         style="fill:#ffe680;fill-opacity:1"
         sodipodi:type="star" />
      <path
         inkscape:connector-curvature="0"
         id="path5785"
         d="M 822.87184,608.10043 802.17523,1081.1932 690.33169,1103.5329 475.51311,970.80964 270.48387,921.83259 257.09326,843.83351 690.65268,542.29501 z"
         style="fill:#ff0000;fill-rule:evenodd;stroke:#000000;stroke-width:3.57494307px;stroke-linecap:butt;stroke-linejoin:miter;stroke-opacity:1" />
      <g
         transform="matrix(13.292036,6.4860999,6.702519,-12.561453,1022.4743,668.69686)"
         id="g1944"
         style="fill:#ffffff">
        <g
           id="g5859">
          <path
             inkscape:connector-curvature="0"
             d="m -0.24378543,-8.248895 -16.24400057,6.606 c 2.977,0.79199996 5.173,3.496 5.173,6.7220004 0,3.846 -3.117,6.9629996 -6.964,6.9629996 -3.843,0 -6.959,-3.1169996 -6.959,-6.9629996 0,-3.2620004 2.244,-5.99100044 5.268,-6.7470004 l -2.556,-1.04 c -0.06,-0.025 -0.122,-0.048 -0.181,-0.073 l -13.444,-5.468 c -1.17,-0.477 -1.732,-1.813 -1.257,-2.98 0.476,-1.172 1.812,-1.733 2.98,-1.256 l 8.245,3.3510002 0,-16.6530002 0.943,0 0,-15.525 c 0,-1.262 1.025,-2.287 2.287,-2.287 1.264,0 2.288,1.025 2.288,2.287 l 0,15.525 4.776,0 0,-15.525 c 0,-1.262 1.024,-2.287 2.287,-2.287 1.263,0 2.288,1.025 2.288,2.287 l 0,15.525 0.942001,0 0,16.7190002 8.4049994,-3.4170002 c 1.16800017,-0.477 2.50400013,0.084 2.9800001,1.256 0.475,1.167 -0.088,2.503 -1.25699993,2.98"
             style="fill:#ffffff;fill-opacity:1;fill-rule:nonzero;stroke:none"
             id="path1946" />
        </g>
      </g>
      <path
         inkscape:connector-curvature="0"
         id="path5797"
         d="m 781.52593,386.09943 -76.10966,32.36815 98.52131,87.79378 125.31395,18.12098 -15.96922,-67.37016 -84.17882,8.57142 z"
         style="fill:#ff0000;fill-rule:evenodd;stroke:#000000;stroke-width:3.0148356px;stroke-linecap:butt;stroke-linejoin:miter;stroke-opacity:1" />
      <path
         inkscape:connector-curvature="0"
         id="path5799"
         d="m 794.8168,430.25581 -35.98117,15.54104 30.09435,27.92457 z"
         style="fill:#ffffff;fill-rule:evenodd;stroke:#000000;stroke-width:3.0148356px;stroke-linecap:butt;stroke-linejoin:miter;stroke-opacity:1" />
      <path
         inkscape:connector-curvature="0"
         id="path5801"
         d="m 874.45365,469.11611 -42.93097,22.07936 50.88742,14.90188 z"
         style="fill:#ffffff;fill-rule:evenodd;stroke:#000000;stroke-width:3.0148356px;stroke-linecap:butt;stroke-linejoin:miter;stroke-opacity:1" />
      <path
         inkscape:connector-curvature="0"
         d="m 722.12699,680.0443 c 22.54928,-15.87438 39.11165,-21.77851 61.30661,-11.76004 24.63957,11.12208 34.54452,38.84757 22.22771,62.13897 -22.23081,42.03875 -89.22205,64.54866 -155.92492,86.51334 -22.24146,-62.11305 -44.19457,-124.77133 -21.96377,-166.81012 12.31685,-23.29141 42.04954,-33.12496 66.71661,-21.99057 22.1949,10.01853 27.96475,26.00319 27.63776,51.90842"
         style="fill:#ff0000;fill-opacity:1;fill-rule:nonzero;stroke:none"
         id="path1950" />
      <path
         inkscape:connector-curvature="0"
         id="path5791"
         d="m 717.58491,534.99313 -66.50314,16.3274 70.87746,90.41164 123.1196,-12.83824 -20.27377,-41.97333 -80.43331,26.70307 z"
         style="fill:#ff0000;fill-rule:evenodd;stroke:#000000;stroke-width:2.68844318px;stroke-linecap:butt;stroke-linejoin:miter;stroke-opacity:1" />
      <text
         xml:space="preserve"
         style="font-size:125.18437195px;font-style:normal;font-weight:normal;line-height:89.99999762%;letter-spacing:0px;word-spacing:0px;fill:#ffffff;fill-opacity:1;stroke:none;font-family:sans-serif"
         x="896.70679"
         y="411.81467"
         id="text5969"
         sodipodi:linespacing="89.999998%"
         transform="matrix(1.0039499,0.45553431,-0.50360376,0.76755943,0,0)"><tspan
           sodipodi:role="line"
           x="896.70679"
           y="411.81467"
           id="tspan5973"
           style="font-size:56.17247772px;font-style:italic;font-variant:normal;font-weight:bold;font-stretch:normal;text-align:center;line-height:89.99999762%;writing-mode:lr-tb;text-anchor:middle;fill:#ffffff;font-family:sans-serif;-inkscape-font-specification:'sans-serif, Bold Italic'">wi-fi</tspan></text>
      <path
         inkscape:connector-curvature="0"
         id="path5827"
         d="m 530.96392,771.56153 -27.65449,49.41113 -3.07277,6.17637 12.29091,6.17642 -33.79999,58.67562 61.45455,30.88194 30.72723,-55.58745 61.45453,27.79374 -21.5091,52.49927 61.45452,30.8819 24.58183,-52.49925 15.36364,0 24.58178,-52.49933 z"
         style="fill:#000051;fill-opacity:1;fill-rule:evenodd;stroke:#000000;stroke-width:3.08044934px;stroke-linecap:butt;stroke-linejoin:miter;stroke-opacity:1" />
      <path
         transform="matrix(2.849974,0.55685562,-0.48399471,2.4772754,-57.857463,-859.29641)"
         inkscape:transform-center-y="0.11720383"
         inkscape:transform-center-x="4.3738185"
         d="m 474.26434,641.17401 -21.47422,-5.17585 -3.66888,21.78236 -1.71337,-22.02263 -21.85,3.24181 20.4153,-8.43488 -9.83517,-19.77881 14.33073,16.80958 15.77153,-15.46578 -11.55842,18.82377 z"
         inkscape:randomized="0"
         inkscape:rounded="0"
         inkscape:flatsided="false"
         sodipodi:arg2="0.9870892"
         sodipodi:arg1="0.35877067"
         sodipodi:r2="4.5829778"
         sodipodi:r1="25.632011"
         sodipodi:cy="632.17401"
         sodipodi:cx="450.26434"
         sodipodi:sides="5"
         id="path5934"
         style="fill:#fff6d5;fill-opacity:1"
         sodipodi:type="star" />
      <path
         transform="matrix(2.5454723,1.214739,-1.3974928,2.2125941,-797.37732,-844.07213)"
         inkscape:transform-center-y="0.74994138"
         inkscape:transform-center-x="-2.235317"
         d="m 841.26434,460.17401 -9.70953,-8.35788 -7.66192,10.26763 4.94841,-11.81704 -12.13276,-4.11404 12.76781,1.05454 0.16346,-12.81025 2.94254,12.46879 12.23378,-3.80313 -10.94922,6.65159 z"
         inkscape:randomized="0"
         inkscape:rounded="0"
         inkscape:flatsided="false"
         sodipodi:arg2="1.4612998"
         sodipodi:arg1="0.83298127"
         sodipodi:r2="2.6580381"
         sodipodi:r1="14.866069"
         sodipodi:cy="449.17401"
         sodipodi:cx="831.26434"
         sodipodi:sides="5"
         id="path5932"
         style="fill:#b9f6ff;fill-opacity:1"
         sodipodi:type="star" />
      <path
         inkscape:connector-curvature="0"
         id="path5936"
         d="m 750.59572,603.47618 5.86511,22.33079 -23.46049,8.12026 -14.66284,-12.18043 z"
         style="fill:#000000;fill-rule:evenodd;stroke:#000000;stroke-width:2.43994093px;stroke-linecap:butt;stroke-linejoin:miter;stroke-opacity:1" />
      <path
         transform="matrix(5.6508211,-1.3839086,1.2028332,4.911848,-2028.1083,-1119.8058)"
         inkscape:transform-center-y="-1.4222746"
         inkscape:transform-center-x="-4.7893313"
         d="m 311.26434,465.17401 7.27776,-4.36725 -4.86314,-6.95619 6.40246,5.572 5.11294,-6.77469 -3.32083,7.81094 8.02311,2.76919 -8.45484,-0.74457 -0.15438,8.48615 -1.90456,-8.27111 z"
         inkscape:randomized="0"
         inkscape:rounded="0"
         inkscape:flatsided="false"
         sodipodi:arg2="3.3516869"
         sodipodi:arg1="2.7233683"
         sodipodi:r2="1.7609659"
         sodipodi:r1="9.8488579"
         sodipodi:cy="461.17401"
         sodipodi:cx="320.26434"
         sodipodi:sides="5"
         id="path5950"
         style="fill:#fff6d5;fill-opacity:1"
         sodipodi:type="star" />
      <path
         transform="matrix(4.5137648,0,0,3.5172515,-1181.7131,-1144.893)"
         inkscape:transform-center-y="1.9732643"
         inkscape:transform-center-x="-1.9994913"
         d="m 334.26434,659.17401 9.63361,-6.39324 -7.04815,-9.16533 9.05728,7.18648 6.53876,-9.53543 -4.03591,10.83473 11.08933,3.27211 -11.55161,-0.49025 0.31483,11.55771 -3.10338,-11.13773 z"
         inkscape:randomized="0"
         inkscape:rounded="0"
         inkscape:flatsided="false"
         sodipodi:arg2="3.3062636"
         sodipodi:arg1="2.677945"
         sodipodi:r2="2.3988402"
         sodipodi:r1="13.416408"
         sodipodi:cy="653.17401"
         sodipodi:cx="346.26434"
         sodipodi:sides="5"
         id="path5956"
         style="fill:#ffd42a;fill-opacity:1"
         sodipodi:type="star" />
      <text
         transform="scale(0.99997961,1.0000204)"
         sodipodi:linespacing="89.999998%"
         id="text6003"
         y="1179.869"
         x="1142.5571"
         style="font-size:53.31690216px;font-style:normal;font-weight:normal;line-height:89.99999762%;letter-spacing:0px;word-spacing:0px;fill:#000000;fill-opacity:1;stroke:none;font-family:sans-serif"
         xml:space="preserve"><tspan
           style="font-size:26.65845108px;font-style:normal;font-variant:normal;font-weight:bold;font-stretch:normal;text-align:end;line-height:89.99999762%;writing-mode:lr-tb;text-anchor:end;fill:#ffffff;font-family:sans-serif;-inkscape-font-specification:'sans-serif, Bold'"
           y="1179.869"
           x="1142.5571"
           id="tspan6005"
           sodipodi:role="line">FALANSTER.BY</tspan></text>
      <path
         transform="matrix(5.796206,-1.1276391,1.1276391,5.796206,-2009.758,-1088.8701)"
         inkscape:transform-center-x="0.83413531"
         inkscape:transform-center-y="-0.53164721"
         d="m 384.24966,351.16405 0.4082,1.83223 1.86869,-0.17798 -1.61642,0.9544 0.74672,1.72224 -1.40719,-1.24238 -1.40719,1.24238 0.74673,-1.72224 -1.61642,-0.9544 1.86869,0.17798 z"
         inkscape:randomized="0"
         inkscape:rounded="0"
         inkscape:flatsided="false"
         sodipodi:arg2="-0.9424778"
         sodipodi:arg1="-1.5707963"
         sodipodi:r2="0.69445556"
         sodipodi:r1="2.3940551"
         sodipodi:cy="353.55811"
         sodipodi:cx="384.24966"
         sodipodi:sides="5"
         id="path4214"
         style="fill:#cbf6ff;fill-opacity:1"
         sodipodi:type="star" />
    </g>
  </g>
</svg>
