<?xml version="1.0" encoding="UTF-8" standalone="no"?>
<!-- Created with Inkscape (http://www.inkscape.org/) -->

<svg
   xmlns:dc="http://purl.org/dc/elements/1.1/"
   xmlns:cc="http://creativecommons.org/ns#"
   xmlns:rdf="http://www.w3.org/1999/02/22-rdf-syntax-ns#"
   xmlns:svg="http://www.w3.org/2000/svg"
   xmlns="http://www.w3.org/2000/svg"
   xmlns:sodipodi="http://sodipodi.sourceforge.net/DTD/sodipodi-0.dtd"
   xmlns:inkscape="http://www.inkscape.org/namespaces/inkscape"
   width="744.09448819"
   height="1052.3622047"
   id="svg2"
   version="1.1"
   inkscape:version="0.48.4 r9939"
   sodipodi:docname="nalepka_1_en.svg"
   inkscape:export-filename="/home/svet/Dropbox/falanster/mesh/stickers/en_posters/nalepka_1_en_2.png"
   inkscape:export-xdpi="300"
   inkscape:export-ydpi="300">
  <defs
     id="defs4">
    <clipPath
       clipPathUnits="userSpaceOnUse"
       id="clipPath3032">
      <rect
         style="fill:#00ff00"
         id="rect3034"
         width="68.101189"
         height="68.101189"
         x="-62.908512"
         y="-29.280237"
         transform="matrix(0.5941434,-0.80435913,-0.80435913,-0.5941434,0,0)" />
    </clipPath>
    <clipPath
       id="clipPath934"
       clipPathUnits="userSpaceOnUse">
      <path
         inkscape:connector-curvature="0"
         id="path936"
         d="m 54.72,168.729 65.071,0 0,62.585 -65.071,0 0,-62.585 z" />
    </clipPath>
    <clipPath
       id="clipPath868"
       clipPathUnits="userSpaceOnUse">
      <path
         inkscape:connector-curvature="0"
         id="path870"
         d="m 36,239.48 132.48,0 0,76.32 -132.48,0 0,-76.32 z" />
    </clipPath>
    <clipPath
       id="clipPath840"
       clipPathUnits="userSpaceOnUse">
      <path
         inkscape:connector-curvature="0"
         id="path842"
         d="M 69.28,123.822 103.922,95.77 127.967,125.464 93.326,153.516 69.28,123.822 z" />
    </clipPath>
    <clipPath
       id="clipPath790"
       clipPathUnits="userSpaceOnUse">
      <path
         inkscape:connector-curvature="0"
         id="path792"
         d="m 36.8,315.8 131.68,0 0,76.32 -131.68,0 0,-76.32 z" />
    </clipPath>
    <clipPath
       id="clipPath778"
       clipPathUnits="userSpaceOnUse">
      <path
         inkscape:connector-curvature="0"
         id="path780"
         d="m 36.4,393.12 131.681,0 0,76.32 -131.681,0 0,-76.32 z" />
    </clipPath>
    <clipPath
       id="clipPath764"
       clipPathUnits="userSpaceOnUse">
      <path
         inkscape:connector-curvature="0"
         id="path766"
         d="m 60.155,472.06 69.989,0 0,66.345 -69.989,0 0,-66.345 z" />
    </clipPath>
    <clipPath
       id="clipPath56"
       clipPathUnits="userSpaceOnUse">
      <path
         inkscape:connector-curvature="0"
         id="path58"
         d="M 0,792 612,792 612,0 0,0 0,792 z" />
    </clipPath>
    <clipPath
       id="clipPath18"
       clipPathUnits="userSpaceOnUse">
      <path
         inkscape:connector-curvature="0"
         id="path20"
         d="M 0,792 612,792 612,0 0,0 0,792 z" />
    </clipPath>
    <clipPath
       clipPathUnits="userSpaceOnUse"
       id="clipPath3058">
      <path
         inkscape:connector-curvature="0"
         d="M 0,0 612,0 612,792 0,792 0,0 z"
         id="path3060" />
    </clipPath>
    <clipPath
       id="clipPath4428"
       clipPathUnits="userSpaceOnUse">
      <path
         id="path4430"
         d="M 0,0 612,0 612,792 0,792 0,0 z"
         inkscape:connector-curvature="0" />
    </clipPath>
    <clipPath
       id="clipPath4444"
       clipPathUnits="userSpaceOnUse">
      <path
         id="path4446"
         d="M 0,0 612,0 612,792 0,792 0,0 z"
         inkscape:connector-curvature="0" />
    </clipPath>
    <clipPath
       id="clipPath358"
       clipPathUnits="userSpaceOnUse">
      <path
         inkscape:connector-curvature="0"
         id="path360"
         d="m 204.962,100.24 167.838,0 0,32.96 -167.838,0 0,-32.96 z" />
    </clipPath>
    <clipPath
       id="clipPath326"
       clipPathUnits="userSpaceOnUse">
      <path
         inkscape:connector-curvature="0"
         id="path328"
         d="m 204.962,144 167.838,0 0,32.96 -167.838,0 0,-32.96 z" />
    </clipPath>
    <clipPath
       id="clipPath294"
       clipPathUnits="userSpaceOnUse">
      <path
         inkscape:connector-curvature="0"
         id="path296"
         d="m 136.8,188.67 304.161,0 0,59.73 -304.161,0 0,-59.73 z" />
    </clipPath>
    <clipPath
       id="clipPath262"
       clipPathUnits="userSpaceOnUse">
      <path
         inkscape:connector-curvature="0"
         id="path264"
         d="m 136.8,259.469 304.161,0 0,59.731 -304.161,0 0,-59.731 z" />
    </clipPath>
    <clipPath
       id="clipPath230"
       clipPathUnits="userSpaceOnUse">
      <path
         inkscape:connector-curvature="0"
         id="path232"
         d="m 441.445,391.891 85.111,0 0,137.309 -85.111,0 0,-137.309 z" />
    </clipPath>
    <clipPath
       id="clipPath198"
       clipPathUnits="userSpaceOnUse">
      <path
         inkscape:connector-curvature="0"
         id="path200"
         d="m 376.8,498.69 85.111,0 0,137.31 -85.111,0 0,-137.31 z" />
    </clipPath>
    <clipPath
       id="clipPath166"
       clipPathUnits="userSpaceOnUse">
      <path
         inkscape:connector-curvature="0"
         id="path168"
         d="m 208,397.551 141.852,0 0,228.849 -141.852,0 0,-228.849 z" />
    </clipPath>
    <clipPath
       id="clipPath134"
       clipPathUnits="userSpaceOnUse">
      <path
         inkscape:connector-curvature="0"
         id="path136"
         d="m 45.074,397.551 141.853,0 0,228.849 -141.853,0 0,-228.849 z" />
    </clipPath>
    <clipPath
       id="clipPath56-2"
       clipPathUnits="userSpaceOnUse">
      <path
         inkscape:connector-curvature="0"
         id="path58-7"
         d="M 0,792 612,792 612,0 0,0 0,792 z" />
    </clipPath>
    <clipPath
       id="clipPath18-1"
       clipPathUnits="userSpaceOnUse">
      <path
         inkscape:connector-curvature="0"
         id="path20-5"
         d="M 0,792 612,792 612,0 0,0 0,792 z" />
    </clipPath>
    <clipPath
       id="clipPath134-6"
       clipPathUnits="userSpaceOnUse">
      <path
         inkscape:connector-curvature="0"
         id="path136-1"
         d="m 45.074,397.551 141.853,0 0,228.849 -141.853,0 0,-228.849 z" />
    </clipPath>
  </defs>
  <sodipodi:namedview
     id="base"
     pagecolor="#ffffff"
     bordercolor="#666666"
     borderopacity="1.0"
     inkscape:pageopacity="0.0"
     inkscape:pageshadow="2"
     inkscape:zoom="0.24748737"
     inkscape:cx="-477.62159"
     inkscape:cy="79.594901"
     inkscape:document-units="px"
     inkscape:current-layer="layer1"
     showgrid="false"
     inkscape:window-width="1360"
     inkscape:window-height="719"
     inkscape:window-x="0"
     inkscape:window-y="25"
     inkscape:window-maximized="1" />
  <metadata
     id="metadata7">
    <rdf:RDF>
      <cc:Work
         rdf:about="">
        <dc:format>image/svg+xml</dc:format>
        <dc:type
           rdf:resource="http://purl.org/dc/dcmitype/StillImage" />
        <dc:title></dc:title>
      </cc:Work>
    </rdf:RDF>
  </metadata>
  <g
     inkscape:label="Layer 1"
     inkscape:groupmode="layer"
     id="layer1">
    <rect
       style="fill:#00ff00;fill-opacity:1;stroke:none"
       id="rect4317"
       width="1500"
       height="1500"
       x="-2080.2856"
       y="219.50514" />
    <g
       transform="matrix(3.1541789,0,0,3.1541789,-2940.7055,-477.23414)"
       id="layer1-0"
       inkscape:label="Layer 1"
       inkscape:export-filename="/home/andygunn/Commotion/Construction Kit/Graphic Assets/Pair_of_installers.png"
       inkscape:export-xdpi="27.59"
       inkscape:export-ydpi="27.59">
      <g
         id="g4023"
         transform="matrix(4.0135444,0,0,4.0135444,31.703737,-1820.7701)">
        <g
           id="g1944"
           transform="matrix(1.25,0,0,-1.25,110.46796,542.95031)">
          <path
             inkscape:connector-curvature="0"
             d="m 0,0 -16.244,6.606 c 2.977,0.792 5.173,3.496 5.173,6.722 0,3.846 -3.117,6.963 -6.964,6.963 -3.843,0 -6.959,-3.117 -6.959,-6.963 0,-3.262 2.244,-5.991 5.268,-6.747 l -2.556,-1.04 c -0.06,-0.025 -0.122,-0.048 -0.181,-0.073 L -35.907,0 c -1.17,-0.477 -1.732,-1.813 -1.257,-2.98 0.476,-1.172 1.812,-1.733 2.98,-1.256 l 8.245,3.351 0,-16.653 0.943,0 0,-15.525 c 0,-1.262 1.025,-2.287 2.287,-2.287 1.264,0 2.288,1.025 2.288,2.287 l 0,15.525 4.776,0 0,-15.525 c 0,-1.262 1.024,-2.287 2.287,-2.287 1.263,0 2.288,1.025 2.288,2.287 l 0,15.525 0.942,0 0,16.719 8.405,-3.417 c 1.168,-0.477 2.504,0.084 2.98,1.256 C 1.732,-1.813 1.169,-0.477 0,0"
             style="fill:#241f21;fill-opacity:1;fill-rule:nonzero;stroke:none"
             id="path1946" />
        </g>
        <g
           id="g1948"
           transform="matrix(1.25,0,0,-1.25,88.089958,547.24106)">
          <path
             inkscape:connector-curvature="0"
             d="m 0,0 c 0.416,0.81 0.811,1.226 1.619,1.226 0.897,0 1.619,-0.723 1.619,-1.62 0,-1.619 -1.619,-3.259 -3.238,-4.878 -1.619,1.619 -3.238,3.259 -3.238,4.878 0,0.897 0.721,1.62 1.619,1.62 C -0.811,1.226 -0.393,0.81 0,0"
             style="fill:#ffffff;fill-opacity:1;fill-rule:nonzero;stroke:none"
             id="path1950" />
        </g>
      </g>
    </g>
    <text
       xml:space="preserve"
       style="font-size:34.36988449px;font-style:normal;font-weight:normal;line-height:125%;letter-spacing:0px;word-spacing:0px;fill:#000000;fill-opacity:1;stroke:none;font-family:Sans"
       x="-1114.001"
       y="1016.15"
       id="text3261"
       sodipodi:linespacing="125%"><tspan
         sodipodi:role="line"
         id="tspan3263"
         x="-1114.001"
         y="1016.15" /></text>
    <text
       xml:space="preserve"
       style="font-size:69.93782806px;font-style:normal;font-weight:normal;line-height:69.99999881%;letter-spacing:0px;word-spacing:0px;fill:#000000;fill-opacity:1;stroke:none;font-family:Sans"
       x="-1728.3129"
       y="660.39331"
       id="text3299"
       sodipodi:linespacing="69.999999%"><tspan
         sodipodi:role="line"
         x="-1728.3129"
         y="660.39331"
         id="tspan3303"
         style="text-align:center;line-height:69.99999881%;text-anchor:middle;fill:#ffffff">wi-fi</tspan></text>
    <path
       sodipodi:type="arc"
       style="fill:#ffff00;fill-opacity:1;stroke:none"
       id="path3329"
       sodipodi:cx="-500"
       sodipodi:cy="1152.3622"
       sodipodi:rx="151.42857"
       sodipodi:ry="151.42857"
       d="m -348.57143,1152.3622 a 151.42857,151.42857 0 1 1 -302.85714,0 151.42857,151.42857 0 1 1 302.85714,0 z"
       transform="matrix(1.530001,0,0,1.530001,-633.77154,-347.97661)" />
    <path
       sodipodi:type="arc"
       style="fill:#ffff00;fill-opacity:1;stroke:none"
       id="path3331"
       sodipodi:cx="-164.28572"
       sodipodi:cy="1156.6479"
       sodipodi:rx="110"
       sodipodi:ry="110"
       d="m -54.285721,1156.6479 a 110,110 0 1 1 -219.999999,0 110,110 0 1 1 219.999999,0 z"
       transform="matrix(1.530001,0,0,1.530001,-633.31094,-292.98861)" />
    <path
       style="fill:none;stroke:#008000;stroke-width:46.9318161;stroke-linecap:round;stroke-linejoin:round;stroke-miterlimit:4;stroke-opacity:1;stroke-dasharray:none"
       d="m -1382.2066,1175.1701 -20.9367,231.226 493.97174,-170.4861 28.98939,240.6591 -27.55456,-239.944 c -148.96197,-7.1814 -18.23284,-8.0247 -474.46987,-61.455 z"
       id="path3333"
       inkscape:connector-curvature="0"
       sodipodi:nodetypes="cccccc" />
    <path
       style="fill:#165016;stroke:#165016;stroke-width:42.03476715;stroke-linecap:round;stroke-linejoin:round;stroke-miterlimit:4;stroke-opacity:1;stroke-dasharray:none"
       d="m -1423.6199,1093.0332 146.7878,46.7052 z"
       id="path4185"
       inkscape:connector-curvature="0" />
    <path
       style="fill:none;stroke:#165016;stroke-width:35.02897263;stroke-linecap:butt;stroke-linejoin:miter;stroke-miterlimit:4;stroke-opacity:1;stroke-dasharray:none"
       d="m -1063.3218,1099.7054 c 23.623,-2.6446 30.2111,-1.5748 46.7051,6.6722 1.9891,0.9946 5.0996,-1.5727 6.6726,0 6.2967,86.989 46.53627,127.8802 103.41848,130.1076 116.59184,-14.888 48.91141,-24.9336 40.03313,-166.8047"
       id="path4205"
       inkscape:connector-curvature="0"
       sodipodi:nodetypes="ccccc" />
    <text
       xml:space="preserve"
       style="font-size:361.38153076px;font-style:normal;font-weight:normal;line-height:125%;letter-spacing:0px;word-spacing:0px;fill:#008000;fill-opacity:1;stroke:none;font-family:Sans"
       x="-1386.593"
       y="609.76093"
       id="text3164"
       sodipodi:linespacing="125%"><tspan
         sodipodi:role="line"
         id="tspan3166"
         x="-1386.593"
         y="609.76093">DIY</tspan></text>
    <text
       xml:space="preserve"
       style="font-size:242.88723755px;font-style:normal;font-weight:normal;line-height:125%;letter-spacing:0px;word-spacing:0px;fill:#008000;fill-opacity:1;stroke:none;font-family:Sans"
       x="-1363.5792"
       y="803.11047"
       id="text3168"
       sodipodi:linespacing="125%"><tspan
         sodipodi:role="line"
         id="tspan3170"
         x="-1363.5792"
         y="803.11047">your</tspan></text>
    <text
       xml:space="preserve"
       style="font-size:215.85191345px;font-style:normal;font-weight:normal;line-height:125%;letter-spacing:0px;word-spacing:0px;fill:#008000;fill-opacity:1;stroke:none;font-family:Sans"
       x="-1547.7073"
       y="1001.5037"
       id="text3172"
       sodipodi:linespacing="125%"><tspan
         sodipodi:role="line"
         id="tspan3174"
         x="-1547.7073"
         y="1001.5037">network!</tspan></text>
    <text
       xml:space="preserve"
       style="font-size:66.86791992px;font-style:normal;font-weight:normal;line-height:125%;letter-spacing:0px;word-spacing:0px;fill:#1a1a1a;fill-opacity:1;stroke:none;font-family:Sans"
       x="-1657.8046"
       y="-622.62036"
       id="text3007"
       sodipodi:linespacing="125%"
       transform="matrix(0.01145433,-0.9999344,0.9999344,0.01145433,0,0)"><tspan
         sodipodi:role="line"
         id="tspan3009"
         x="-1657.8046"
         y="-622.62036">falanster.by</tspan></text>
    <g
       id="g6017"
       transform="matrix(-8.0888951,-2.6712899,-2.6712899,8.0888951,-1684.8491,1229.0678)"
       clip-path="url(#clipPath3032)"
       style="fill:#ffff00">
      <path
         d="m 0,0 c -0.255,0 -0.505,0.118 -0.666,0.34 -0.266,0.367 -0.183,0.881 0.184,1.147 7.067,5.109 9.985,13.992 7.435,22.629 -2.554,8.652 -9.845,14.535 -18.574,14.989 -0.453,0.023 -0.801,0.409 -0.777,0.862 0.023,0.453 0.401,0.801 0.862,0.778 C -2.102,40.255 5.774,33.911 8.528,24.581 11.278,15.267 8.119,5.679 0.481,0.156 0.335,0.051 0.167,0 0,0 m -3.776,4.432 c -0.228,0 -0.455,0.094 -0.617,0.279 -0.3,0.34 -0.266,0.859 0.075,1.159 4.338,3.812 6.043,9.713 4.449,15.401 -1.609,5.746 -6.154,9.942 -11.861,10.949 -0.446,0.079 -0.744,0.505 -0.666,0.952 0.079,0.447 0.509,0.745 0.952,0.666 C -5.11,32.719 -0.068,28.074 1.713,21.713 3.478,15.412 1.582,8.868 -3.234,4.636 -3.391,4.499 -3.583,4.432 -3.776,4.432 m -2.72,7.4 c -0.114,0 -0.229,0.023 -0.34,0.073 -0.413,0.189 -0.594,0.676 -0.407,1.088 1.022,2.241 1.11,4.746 0.247,7.052 -0.862,2.306 -2.571,4.139 -4.812,5.159 -0.412,0.188 -0.594,0.675 -0.406,1.088 0.188,0.412 0.674,0.594 1.087,0.407 2.64,-1.203 4.653,-3.362 5.669,-6.079 1.016,-2.717 0.913,-5.667 -0.29,-8.308 -0.138,-0.302 -0.436,-0.48 -0.748,-0.48"
         style="fill:#ffff00;fill-opacity:1;fill-rule:nonzero;stroke:none"
         id="path6019"
         inkscape:connector-curvature="0" />
    </g>
  </g>
</svg>
