<?xml version="1.0" encoding="UTF-8" standalone="no"?>
<!-- Created with Inkscape (http://www.inkscape.org/) -->

<svg
   xmlns:dc="http://purl.org/dc/elements/1.1/"
   xmlns:cc="http://creativecommons.org/ns#"
   xmlns:rdf="http://www.w3.org/1999/02/22-rdf-syntax-ns#"
   xmlns:svg="http://www.w3.org/2000/svg"
   xmlns="http://www.w3.org/2000/svg"
   xmlns:sodipodi="http://sodipodi.sourceforge.net/DTD/sodipodi-0.dtd"
   xmlns:inkscape="http://www.inkscape.org/namespaces/inkscape"
   width="744.09448819"
   height="1052.3622047"
   id="svg2"
   version="1.1"
   inkscape:version="0.48.4 r9939"
   sodipodi:docname="nalepka_4_en.svg"
   inkscape:export-filename="/home/svet/Dropbox/falanster/mesh/stickers/en_posters/nalepka_4_en_2.png"
   inkscape:export-xdpi="300"
   inkscape:export-ydpi="300">
  <defs
     id="defs4">
    <clipPath
       id="clipPath3040"
       clipPathUnits="userSpaceOnUse">
      <rect
         y="276.73358"
         x="523.77606"
         height="278"
         width="278"
         id="rect3042"
         style="fill:#00ff00" />
    </clipPath>
    <clipPath
       id="clipPath3036"
       clipPathUnits="userSpaceOnUse">
      <rect
         transform="scale(1,-1)"
         y="-45.620049"
         x="-31.788492"
         height="55.412369"
         width="55.412369"
         id="rect3038"
         style="fill:#00ff00" />
    </clipPath>
    <clipPath
       id="clipPath3032"
       clipPathUnits="userSpaceOnUse">
      <rect
         transform="matrix(0.5941434,-0.80435913,-0.80435913,-0.5941434,0,0)"
         y="-29.280237"
         x="-62.908512"
         height="68.101189"
         width="68.101189"
         id="rect3034"
         style="fill:#00ff00" />
    </clipPath>
    <clipPath
       id="clipPath3028"
       clipPathUnits="userSpaceOnUse">
      <rect
         y="276.73358"
         x="523.77606"
         height="278"
         width="278"
         id="rect3030"
         style="fill:#00ff00" />
    </clipPath>
  </defs>
  <sodipodi:namedview
     id="base"
     pagecolor="#ffffff"
     bordercolor="#666666"
     borderopacity="1.0"
     inkscape:pageopacity="0.0"
     inkscape:pageshadow="2"
     inkscape:zoom="0.35"
     inkscape:cx="375"
     inkscape:cy="320.06439"
     inkscape:document-units="px"
     inkscape:current-layer="layer1"
     showgrid="false"
     inkscape:window-width="1360"
     inkscape:window-height="719"
     inkscape:window-x="0"
     inkscape:window-y="25"
     inkscape:window-maximized="1" />
  <metadata
     id="metadata7">
    <rdf:RDF>
      <cc:Work
         rdf:about="">
        <dc:format>image/svg+xml</dc:format>
        <dc:type
           rdf:resource="http://purl.org/dc/dcmitype/StillImage" />
        <dc:title></dc:title>
      </cc:Work>
    </rdf:RDF>
  </metadata>
  <g
     inkscape:label="Layer 1"
     inkscape:groupmode="layer"
     id="layer1">
    <rect
       style="fill:#00ff00"
       id="rect3044"
       width="1500"
       height="1500"
       x="116.36137"
       y="30.641651" />
    <path
       id="path1946"
       style="fill:#241f21;fill-opacity:1;fill-rule:nonzero;stroke:none"
       d="m 773.0718,488.38508 -81.49502,-33.14184 c 14.9354,-3.97341 25.95258,-17.53919 25.95258,-33.72381 0,-19.29511 -15.63777,-34.93289 -34.9379,-34.93289 -19.28007,0 -34.91282,15.63778 -34.91282,34.93289 0,16.36523 11.25799,30.05643 26.42919,33.84923 l -12.82328,5.21761 c -0.30101,0.12542 -0.61206,0.24081 -0.90806,0.36623 l -67.44761,27.43258 c -5.86981,2.39308 -8.68933,9.09569 -6.30629,14.95045 2.38806,5.87985 9.09068,8.69434 14.95046,6.30127 l 41.36459,-16.81174 0,83.54695 4.73097,0 0,77.88784 c 0,6.33137 5.14235,11.47372 11.47372,11.47372 6.3414,0 11.47873,-5.14235 11.47873,-11.47372 l 0,-77.88784 23.96086,0 0,77.88784 c 0,6.33137 5.13734,11.47372 11.47372,11.47372 6.33639,0 11.47874,-5.14235 11.47874,-11.47372 l 0,-77.88784 4.72595,0 0,-83.87806 42.1673,17.14285 c 5.85977,2.39307 12.56239,-0.42142 14.95045,-6.30127 2.38304,-5.85476 -0.44149,-12.55737 -6.30628,-14.95045"
       inkscape:connector-curvature="0"
       clip-path="url(#clipPath3040)"
       transform="matrix(5.7471272,0,0,5.7471272,-3060.513,-1663.2299)" />
    <g
       id="g1948"
       transform="matrix(28.83294,0,0,-28.83294,866.2501,1242.5533)"
       clip-path="url(#clipPath3036)">
      <path
         inkscape:connector-curvature="0"
         d="m 0,0 c 0.416,0.81 0.811,1.226 1.619,1.226 0.897,0 1.619,-0.723 1.619,-1.62 0,-1.619 -1.619,-3.259 -3.238,-4.878 -1.619,1.619 -3.238,3.259 -3.238,4.878 0,0.897 0.721,1.62 1.619,1.62 C -0.811,1.226 -0.393,0.81 0,0"
         style="fill:#ffffff;fill-opacity:1;fill-rule:nonzero;stroke:none"
         id="path1950" />
    </g>
    <g
       id="g6017"
       transform="matrix(13.939018,-18.870827,-18.870827,-13.939018,1425.5721,614.12801)"
       clip-path="url(#clipPath3032)">
      <path
         d="m 0,0 c -0.255,0 -0.505,0.118 -0.666,0.34 -0.266,0.367 -0.183,0.881 0.184,1.147 7.067,5.109 9.985,13.992 7.435,22.629 -2.554,8.652 -9.845,14.535 -18.574,14.989 -0.453,0.023 -0.801,0.409 -0.777,0.862 0.023,0.453 0.401,0.801 0.862,0.778 C -2.102,40.255 5.774,33.911 8.528,24.581 11.278,15.267 8.119,5.679 0.481,0.156 0.335,0.051 0.167,0 0,0 m -3.776,4.432 c -0.228,0 -0.455,0.094 -0.617,0.279 -0.3,0.34 -0.266,0.859 0.075,1.159 4.338,3.812 6.043,9.713 4.449,15.401 -1.609,5.746 -6.154,9.942 -11.861,10.949 -0.446,0.079 -0.744,0.505 -0.666,0.952 0.079,0.447 0.509,0.745 0.952,0.666 C -5.11,32.719 -0.068,28.074 1.713,21.713 3.478,15.412 1.582,8.868 -3.234,4.636 -3.391,4.499 -3.583,4.432 -3.776,4.432 m -2.72,7.4 c -0.114,0 -0.229,0.023 -0.34,0.073 -0.413,0.189 -0.594,0.676 -0.407,1.088 1.022,2.241 1.11,4.746 0.247,7.052 -0.862,2.306 -2.571,4.139 -4.812,5.159 -0.412,0.188 -0.594,0.675 -0.406,1.088 0.188,0.412 0.674,0.594 1.087,0.407 2.64,-1.203 4.653,-3.362 5.669,-6.079 1.016,-2.717 0.913,-5.667 -0.29,-8.308 -0.138,-0.302 -0.436,-0.48 -0.748,-0.48"
         style="fill:#241f21;fill-opacity:1;fill-rule:nonzero;stroke:none"
         id="path6019"
         inkscape:connector-curvature="0" />
    </g>
    <text
       xml:space="preserve"
       style="font-size:20.19555283px;font-style:normal;font-weight:normal;line-height:85.00000238%;letter-spacing:0px;word-spacing:0px;fill:#ffffff;fill-opacity:1;stroke:none;font-family:Sans"
       x="683.33783"
       y="477.68683"
       id="text3005"
       sodipodi:linespacing="85.000002%"
       clip-path="url(#clipPath3028)"
       transform="matrix(5.7471272,0,0,5.7471272,-3068.4099,-1580.9857)"><tspan
         sodipodi:role="line"
         x="683.33783"
         y="477.68683"
         id="tspan3009"
         style="text-align:center;line-height:85.00000238%;text-anchor:middle;fill:#ffffff">wi-fi</tspan></text>
    <text
       xml:space="preserve"
       style="font-size:63.6631012px;font-style:normal;font-weight:normal;line-height:125%;letter-spacing:0px;word-spacing:0px;fill:#4d4d4d;fill-opacity:1;stroke:none;font-family:Sans"
       x="1320.5714"
       y="515.71985"
       id="text3065"
       sodipodi:linespacing="125%"
       transform="matrix(0.92680323,0.3755473,-0.3755473,0.92680323,0,0)"><tspan
         sodipodi:role="line"
         id="tspan3067"
         x="1320.5714"
         y="515.71985">falanster.by</tspan></text>
    <text
       xml:space="preserve"
       style="font-size:255.13960266px;font-style:normal;font-weight:normal;line-height:125%;letter-spacing:0px;word-spacing:0px;fill:#1a1a1a;fill-opacity:1;stroke:none;font-family:Sans"
       x="163.72697"
       y="445.41476"
       id="text3307"
       sodipodi:linespacing="125%"><tspan
         sodipodi:role="line"
         id="tspan3309"
         x="163.72697"
         y="445.41476">be</tspan></text>
    <text
       xml:space="preserve"
       style="font-size:205.02693176px;font-style:normal;font-weight:normal;line-height:125%;letter-spacing:0px;word-spacing:0px;fill:#1a1a1a;fill-opacity:1;stroke:none;font-family:Sans"
       x="168.58054"
       y="593.25049"
       id="text3311"
       sodipodi:linespacing="125%"><tspan
         sodipodi:role="line"
         id="tspan3313"
         x="168.58054"
         y="593.25049">mesh</tspan></text>
  </g>
</svg>
