<?xml version="1.0" encoding="UTF-8" standalone="no"?>
<!-- Created with Inkscape (http://www.inkscape.org/) -->

<svg
   xmlns:dc="http://purl.org/dc/elements/1.1/"
   xmlns:cc="http://creativecommons.org/ns#"
   xmlns:rdf="http://www.w3.org/1999/02/22-rdf-syntax-ns#"
   xmlns:svg="http://www.w3.org/2000/svg"
   xmlns="http://www.w3.org/2000/svg"
   xmlns:sodipodi="http://sodipodi.sourceforge.net/DTD/sodipodi-0.dtd"
   xmlns:inkscape="http://www.inkscape.org/namespaces/inkscape"
   width="744.09448819"
   height="1052.3622047"
   id="svg2"
   version="1.1"
   inkscape:version="0.48.4 r9939"
   sodipodi:docname="nalepka_7_en.svg"
   inkscape:export-filename="/home/svet/Dropbox/falanster/mesh/stickers/en_posters/nalepka_7_en_2.png"
   inkscape:export-xdpi="300"
   inkscape:export-ydpi="300">
  <defs
     id="defs4">
    <clipPath
       clipPathUnits="userSpaceOnUse"
       id="clipPath4444">
      <path
         inkscape:connector-curvature="0"
         d="M 0,0 612,0 612,792 0,792 0,0 z"
         id="path4446" />
    </clipPath>
    <clipPath
       clipPathUnits="userSpaceOnUse"
       id="clipPath4428">
      <path
         inkscape:connector-curvature="0"
         d="M 0,0 612,0 612,792 0,792 0,0 z"
         id="path4430" />
    </clipPath>
    <clipPath
       id="clipPath3058"
       clipPathUnits="userSpaceOnUse">
      <path
         id="path3060"
         d="M 0,0 612,0 612,792 0,792 0,0 z"
         inkscape:connector-curvature="0" />
    </clipPath>
    <clipPath
       clipPathUnits="userSpaceOnUse"
       id="clipPath18">
      <path
         d="M 0,792 612,792 612,0 0,0 0,792 z"
         id="path20"
         inkscape:connector-curvature="0" />
    </clipPath>
    <clipPath
       clipPathUnits="userSpaceOnUse"
       id="clipPath56">
      <path
         d="M 0,792 612,792 612,0 0,0 0,792 z"
         id="path58"
         inkscape:connector-curvature="0" />
    </clipPath>
    <clipPath
       clipPathUnits="userSpaceOnUse"
       id="clipPath764">
      <path
         d="m 60.155,472.06 69.989,0 0,66.345 -69.989,0 0,-66.345 z"
         id="path766"
         inkscape:connector-curvature="0" />
    </clipPath>
    <clipPath
       clipPathUnits="userSpaceOnUse"
       id="clipPath778">
      <path
         d="m 36.4,393.12 131.681,0 0,76.32 -131.681,0 0,-76.32 z"
         id="path780"
         inkscape:connector-curvature="0" />
    </clipPath>
    <clipPath
       clipPathUnits="userSpaceOnUse"
       id="clipPath790">
      <path
         d="m 36.8,315.8 131.68,0 0,76.32 -131.68,0 0,-76.32 z"
         id="path792"
         inkscape:connector-curvature="0" />
    </clipPath>
    <clipPath
       clipPathUnits="userSpaceOnUse"
       id="clipPath840">
      <path
         d="M 69.28,123.822 103.922,95.77 127.967,125.464 93.326,153.516 69.28,123.822 z"
         id="path842"
         inkscape:connector-curvature="0" />
    </clipPath>
    <clipPath
       clipPathUnits="userSpaceOnUse"
       id="clipPath868">
      <path
         d="m 36,239.48 132.48,0 0,76.32 -132.48,0 0,-76.32 z"
         id="path870"
         inkscape:connector-curvature="0" />
    </clipPath>
    <clipPath
       clipPathUnits="userSpaceOnUse"
       id="clipPath934">
      <path
         d="m 54.72,168.729 65.071,0 0,62.585 -65.071,0 0,-62.585 z"
         id="path936"
         inkscape:connector-curvature="0" />
    </clipPath>
  </defs>
  <sodipodi:namedview
     id="base"
     pagecolor="#ffffff"
     bordercolor="#666666"
     borderopacity="1.0"
     inkscape:pageopacity="0.0"
     inkscape:pageshadow="2"
     inkscape:zoom="0.35"
     inkscape:cx="375"
     inkscape:cy="175.7827"
     inkscape:document-units="px"
     inkscape:current-layer="layer1"
     showgrid="false"
     inkscape:window-width="1360"
     inkscape:window-height="719"
     inkscape:window-x="0"
     inkscape:window-y="25"
     inkscape:window-maximized="1" />
  <metadata
     id="metadata7">
    <rdf:RDF>
      <cc:Work
         rdf:about="">
        <dc:format>image/svg+xml</dc:format>
        <dc:type
           rdf:resource="http://purl.org/dc/dcmitype/StillImage" />
        <dc:title></dc:title>
      </cc:Work>
    </rdf:RDF>
  </metadata>
  <g
     inkscape:label="Layer 1"
     inkscape:groupmode="layer"
     id="layer1">
    <rect
       style="fill:#0000ff;fill-opacity:1;stroke:#0000ff;stroke-width:30.02860069;stroke-linecap:round;stroke-linejoin:round;stroke-miterlimit:4;stroke-opacity:1;stroke-dasharray:none"
       id="rect5517"
       width="1469.9714"
       height="1469.9714"
       x="-88.199959"
       y="153.44791" />
    <g
       transform="matrix(4.7574865,0,0,4.7574865,-929.62231,-987.44726)"
       id="layer1-0"
       inkscape:label="Layer 1"
       inkscape:export-filename="/home/andygunn/Commotion/Construction Kit/Graphic Assets/Pair_of_installers.png"
       inkscape:export-xdpi="27.59"
       inkscape:export-ydpi="27.59">
      <g
         id="g4023"
         transform="matrix(4.0135444,0,0,4.0135444,31.703737,-1820.7701)">
        <g
           id="g1944"
           transform="matrix(1.25,0,0,-1.25,110.46796,542.95031)">
          <path
             inkscape:connector-curvature="0"
             d="m 0,0 -16.244,6.606 c 2.977,0.792 5.173,3.496 5.173,6.722 0,3.846 -3.117,6.963 -6.964,6.963 -3.843,0 -6.959,-3.117 -6.959,-6.963 0,-3.262 2.244,-5.991 5.268,-6.747 l -2.556,-1.04 c -0.06,-0.025 -0.122,-0.048 -0.181,-0.073 L -35.907,0 c -1.17,-0.477 -1.732,-1.813 -1.257,-2.98 0.476,-1.172 1.812,-1.733 2.98,-1.256 l 8.245,3.351 0,-16.653 0.943,0 0,-15.525 c 0,-1.262 1.025,-2.287 2.287,-2.287 1.264,0 2.288,1.025 2.288,2.287 l 0,15.525 4.776,0 0,-15.525 c 0,-1.262 1.024,-2.287 2.287,-2.287 1.263,0 2.288,1.025 2.288,2.287 l 0,15.525 0.942,0 0,16.719 8.405,-3.417 c 1.168,-0.477 2.504,0.084 2.98,1.256 C 1.732,-1.813 1.169,-0.477 0,0"
             style="fill:#241f21;fill-opacity:1;fill-rule:nonzero;stroke:none"
             id="path1946" />
        </g>
        <g
           id="g1948"
           transform="matrix(1.25,0,0,-1.25,88.089958,547.24106)">
          <path
             inkscape:connector-curvature="0"
             d="m 0,0 c 0.416,0.81 0.811,1.226 1.619,1.226 0.897,0 1.619,-0.723 1.619,-1.62 0,-1.619 -1.619,-3.259 -3.238,-4.878 -1.619,1.619 -3.238,3.259 -3.238,4.878 0,0.897 0.721,1.62 1.619,1.62 C -0.811,1.226 -0.393,0.81 0,0"
             style="fill:#ffffff;fill-opacity:1;fill-rule:nonzero;stroke:none"
             id="path1950" />
        </g>
      </g>
    </g>
    <text
       xml:space="preserve"
       style="font-size:57.33788681px;font-style:normal;font-weight:normal;line-height:125%;letter-spacing:0px;word-spacing:0px;fill:#000000;fill-opacity:1;stroke:none;font-family:Sans"
       x="162.48529"
       y="1787.4099"
       id="text3261"
       sodipodi:linespacing="125%"><tspan
         sodipodi:role="line"
         id="tspan3263"
         x="162.48529"
         y="1787.4099" /></text>
    <text
       xml:space="preserve"
       style="font-size:56.66721725px;font-style:normal;font-weight:normal;line-height:125%;letter-spacing:0px;word-spacing:0px;fill:#00ffff;fill-opacity:1;stroke:none;font-family:Sans"
       x="1174.7997"
       y="123.01394"
       id="text3287"
       sodipodi:linespacing="125%"
       transform="matrix(0.92057923,0.39055585,-0.39055585,0.92057923,0,0)"><tspan
         sodipodi:role="line"
         id="tspan3289"
         x="1174.7997"
         y="123.01394">falanster.by</tspan></text>
    <path
       sodipodi:type="spiral"
       style="fill:none;stroke:#00ffff;stroke-width:15;stroke-linecap:butt;stroke-linejoin:miter;stroke-miterlimit:4;stroke-opacity:1;stroke-dasharray:none"
       id="path5519"
       sodipodi:cx="-871.42859"
       sodipodi:cy="523.79077"
       sodipodi:expansion="1"
       sodipodi:revolution="1.6"
       sodipodi:radius="173.25221"
       sodipodi:argument="-18.616577"
       sodipodi:t0="0"
       d="m -871.42859,523.79077 c 15.84732,3.76037 2.7496,23.21711 -6.24999,26.33929 -24.38833,8.46092 -44.77516,-16.89083 -46.42859,-38.83926 -2.95759,-39.2606 34.8683,-67.39091 71.42854,-66.5179 53.65363,1.28118 90.44778,53.00684 86.6072,104.01782 -5.1189,67.98962 -71.19169,113.67886 -136.6071,106.6965 -82.31861,-8.7866 -136.99727,-89.39598 -126.78577,-169.19638 4.5018,-35.18077 20.7152,-68.32554 45.16992,-93.94452"
       transform="matrix(2.1002196,0,0,2.1002196,2156.6144,-346.92831)" />
    <g
       transform="matrix(1.9717468,2.6253265,-2.6253265,1.9717468,830.89947,-1069.0028)"
       id="g4131"
       inkscape:transform-center-y="-32.610044"
       inkscape:transform-center-x="-0.000150278">
      <rect
         style="fill:#ffffff;fill-opacity:1;stroke:none"
         id="rect4133"
         width="29.433319"
         height="30.140427"
         x="229.98648"
         y="423.39069" />
      <rect
         style="fill:#ffffff;fill-opacity:1;stroke:none"
         id="rect4135"
         width="29.610096"
         height="16.440233"
         x="231.04713"
         y="453.7963" />
      <g
         id="g4137"
         transform="matrix(-0.00678785,0.99997696,-0.99997696,-0.00678785,721.12312,76.145503)">
        <path
           sodipodi:nodetypes="cccccccccccccc"
           inkscape:connector-curvature="0"
           id="path4139"
           d="m 350.59597,489.58943 30.34337,-0.33839 1.02275,-1.48613 14.09229,0 -4.96469,7.31954 -47.34099,0.25758 -0.34597,-8.88886 -2.66161,-0.23614 -0.21339,-16.12132 2.76516,-0.60355 0.25759,-5.26386 6.17179,-4.52275 0.0808,28.64146 z"
           style="fill:#a1a1a1;fill-opacity:1;stroke:none" />
        <g
           id="g4141">
          <g
             id="g4143"
             transform="matrix(0.69501189,-0.00363916,0.00390114,0.74506544,339.16143,456.59516)">
            <g
               id="g4145"
               transform="translate(12.2412,43.8242)">
              <path
                 d="m 0,0 -4.243,4.243 c -0.195,0.196 -0.195,0.512 0,0.707 0.098,0.098 0.226,0.147 0.354,0.147 0.128,0 0.256,-0.049 0.353,-0.147 L 0.707,0.707 C 0.902,0.512 0.902,0.195 0.707,0 0.512,-0.195 0.195,-0.195 0,0"
                 style="fill:#100f0d;fill-opacity:1;fill-rule:nonzero;stroke:none"
                 id="path4147"
                 inkscape:connector-curvature="0" />
            </g>
          </g>
          <g
             id="g4149"
             transform="matrix(0.69501189,-0.00363916,0.00390114,0.74506544,339.16143,456.59516)">
            <g
               id="g4151"
               transform="translate(82,40)">
              <path
                 d="M 0,0 -20.582,0 C -20.725,0 -20.865,0.021 -21,0.06 l 0,-35.471 c 0.07,-0.066 0.139,-0.134 0.196,-0.213 L -19.813,-37 0,-37 0,0 z M -8.553,11 -75,11 -75,0.5 c 0,-0.828 -0.671,-1.5 -1.5,-1.5 l -2.5,0 0,-20 2.5,0 c 0.829,0 1.5,-0.672 1.5,-1.5 l 0,-6.381 7.319,-5.652 10e-4,37.821 c 0,0.828 0.671,1.5 1.5,1.5 l 44.499,0 c 0.829,0 1.5,-0.672 1.5,-1.5 0,-0.035 -0.007,-0.067 -0.01,-0.101 L -19.991,3 -1.844,3 -8.553,11 z M -24,-35 l 0,36.788 -40.68,0 L -64.681,-35 -24,-35 z m 25.5,-5 -22.082,0 c -0.482,0 -0.936,0.232 -1.217,0.624 l -0.991,1.376 -42.691,0 -1.399,0 -0.708,0 c -0.332,0 -0.655,0.11 -0.917,0.312 l -8.912,6.883 c -0.368,0.285 -0.583,0.723 -0.583,1.188 l 0,5.617 -2.5,0 c -0.829,0 -1.5,0.672 -1.5,1.5 l 0,23 c 0,0.828 0.671,1.5 1.5,1.5 l 2.5,0 0,10.5 c 0,0.828 0.671,1.5 1.5,1.5 l 68.646,0 c 0.444,0 0.865,-0.196 1.15,-0.536 L 2.649,2.312 C 2.876,2.041 3,1.7 3,1.348 L 3,-38.5 C 3,-39.328 2.329,-40 1.5,-40"
                 style="fill:#100f0d;fill-opacity:1;fill-rule:nonzero;stroke:none"
                 id="path4153"
                 inkscape:connector-curvature="0" />
            </g>
          </g>
          <g
             id="g4155"
             transform="matrix(0.69501189,-0.00363916,0.00390114,0.74506544,339.16143,456.59516)">
            <g
               id="g4157"
               transform="translate(25.8237,12.2207)">
              <path
                 d="m 0,0 2.492,0 0,22.666 -2.493,0 L 0,0 z m -1.501,25.666 5.493,0 c 0.828,0 1.5,-0.672 1.5,-1.5 l 0,-25.666 C 5.492,-1.897 5.334,-2.279 5.053,-2.561 4.771,-2.842 4.39,-3 3.992,-3 L -1.5,-3 C -2.329,-3 -3,-2.328 -3,-1.5 l -10e-4,25.666 c 0,0.398 0.159,0.779 0.44,1.061 0.281,0.281 0.663,0.439 1.06,0.439"
                 style="fill:#100f0d;fill-opacity:1;fill-rule:nonzero;stroke:none"
                 id="path4159"
                 inkscape:connector-curvature="0" />
            </g>
          </g>
          <g
             id="g4161"
             transform="matrix(0.69501189,-0.00363916,0.00390114,0.74506544,339.16143,456.59516)">
            <g
               id="g4163"
               transform="translate(37.9507,12.2207)">
              <path
                 d="m 0,0 12.492,-0.001 0,22.668 L 0,22.666 0,0 z m -1.5,25.666 15.492,0.001 c 0.398,0 0.779,-0.158 1.061,-0.439 0.281,-0.282 0.439,-0.663 0.439,-1.061 l 0,-25.668 c 0,-0.397 -0.158,-0.779 -0.439,-1.06 -0.282,-0.282 -0.663,-0.44 -1.061,-0.44 L -1.5,-3 C -2.329,-3 -3,-2.328 -3,-1.5 l 0,25.666 c 0,0.828 0.671,1.5 1.5,1.5"
                 style="fill:#100f0d;fill-opacity:1;fill-rule:nonzero;stroke:none"
                 id="path4165"
                 inkscape:connector-curvature="0" />
            </g>
          </g>
          <g
             id="g4167"
             transform="matrix(0.69501189,-0.00363916,0.00390114,0.74506544,339.16143,456.59516)">
            <g
               id="g4169"
               transform="translate(75.2236,10.1943)">
              <path
                 d="m 0,0 0,22.667 -5.492,0 L -5.492,0 0,0 z m -6.992,25.667 8.492,0 c 0.007,-0.001 0.014,-0.001 0.021,0 0.828,0 1.5,-0.672 1.5,-1.5 C 3.021,24.083 3.014,24.001 3,23.922 L 3,-1.5 C 3,-2.328 2.329,-3 1.5,-3 l -8.492,0 c -0.398,0 -0.779,0.158 -1.061,0.44 -0.281,0.281 -0.439,0.663 -0.439,1.06 l 0,25.667 c 0,0.828 0.672,1.5 1.5,1.5"
                 style="fill:#100f0d;fill-opacity:1;fill-rule:nonzero;stroke:none"
                 id="path4171"
                 inkscape:connector-curvature="0" />
            </g>
          </g>
        </g>
      </g>
    </g>
    <text
       xml:space="preserve"
       style="font-size:181.88777161px;font-style:normal;font-weight:normal;line-height:125%;letter-spacing:0px;word-spacing:0px;fill:#00ffff;fill-opacity:1;stroke:none;font-family:Sans"
       x="-34.634697"
       y="1325.0308"
       id="text5521"
       sodipodi:linespacing="125%"><tspan
         sodipodi:role="line"
         id="tspan5523"
         x="-34.634697"
         y="1325.0308">mister</tspan></text>
    <text
       xml:space="preserve"
       style="font-size:266.42788696px;font-style:normal;font-weight:normal;line-height:125%;letter-spacing:0px;word-spacing:0px;fill:#00ffff;fill-opacity:1;stroke:none;font-family:Sans"
       x="-37.996391"
       y="1536.6929"
       id="text5525"
       sodipodi:linespacing="125%"><tspan
         sodipodi:role="line"
         id="tspan5527"
         x="-37.996391"
         y="1536.6929">cable</tspan></text>
    <text
       xml:space="preserve"
       style="font-size:84.58498383px;font-style:normal;font-weight:normal;line-height:125%;letter-spacing:0px;word-spacing:0px;fill:#ffffff;fill-opacity:1;stroke:none;font-family:Sans"
       x="786.68512"
       y="741.31927"
       id="text3109"
       sodipodi:linespacing="125%"><tspan
         sodipodi:role="line"
         id="tspan3111"
         x="786.68512"
         y="741.31927">cable</tspan></text>
  </g>
</svg>
