<?xml version="1.0" encoding="UTF-8" standalone="no"?>
<!-- Created with Inkscape (http://www.inkscape.org/) -->

<svg
   xmlns:dc="http://purl.org/dc/elements/1.1/"
   xmlns:cc="http://creativecommons.org/ns#"
   xmlns:rdf="http://www.w3.org/1999/02/22-rdf-syntax-ns#"
   xmlns:svg="http://www.w3.org/2000/svg"
   xmlns="http://www.w3.org/2000/svg"
   xmlns:sodipodi="http://sodipodi.sourceforge.net/DTD/sodipodi-0.dtd"
   xmlns:inkscape="http://www.inkscape.org/namespaces/inkscape"
   width="612.73541"
   height="220.62268"
   id="svg5721"
   version="1.1"
   inkscape:version="0.48.4 r9939"
   sodipodi:docname="Buildings_and_people_A19_A15.svg">
  <defs
     id="defs5723">
    <clipPath
       clipPathUnits="userSpaceOnUse"
       id="clipPath1388">
      <path
         inkscape:connector-curvature="0"
         d="M 0,0 612,0 612,792 0,792 0,0 z"
         id="path1390" />
    </clipPath>
    <clipPath
       clipPathUnits="userSpaceOnUse"
       id="clipPath1366">
      <path
         inkscape:connector-curvature="0"
         d="M 0,0 612,0 612,792 0,792 0,0 z"
         id="path1368" />
    </clipPath>
    <clipPath
       clipPathUnits="userSpaceOnUse"
       id="clipPath1344">
      <path
         inkscape:connector-curvature="0"
         d="M 0,0 612,0 612,792 0,792 0,0 z"
         id="path1346" />
    </clipPath>
    <clipPath
       clipPathUnits="userSpaceOnUse"
       id="clipPath1322">
      <path
         inkscape:connector-curvature="0"
         d="M 0,0 612,0 612,792 0,792 0,0 z"
         id="path1324" />
    </clipPath>
    <clipPath
       clipPathUnits="userSpaceOnUse"
       id="clipPath1300">
      <path
         inkscape:connector-curvature="0"
         d="M 0,0 612,0 612,792 0,792 0,0 z"
         id="path1302" />
    </clipPath>
    <clipPath
       clipPathUnits="userSpaceOnUse"
       id="clipPath1278">
      <path
         inkscape:connector-curvature="0"
         d="M 0,0 612,0 612,792 0,792 0,0 z"
         id="path1280" />
    </clipPath>
    <clipPath
       clipPathUnits="userSpaceOnUse"
       id="clipPath1262">
      <path
         inkscape:connector-curvature="0"
         d="M 0,0 612,0 612,792 0,792 0,0 z"
         id="path1264" />
    </clipPath>
    <clipPath
       clipPathUnits="userSpaceOnUse"
       id="clipPath1246">
      <path
         inkscape:connector-curvature="0"
         d="M 0,0 612,0 612,792 0,792 0,0 z"
         id="path1248" />
    </clipPath>
    <clipPath
       clipPathUnits="userSpaceOnUse"
       id="clipPath1230">
      <path
         inkscape:connector-curvature="0"
         d="M 0,0 612,0 612,792 0,792 0,0 z"
         id="path1232" />
    </clipPath>
    <clipPath
       clipPathUnits="userSpaceOnUse"
       id="clipPath1214">
      <path
         inkscape:connector-curvature="0"
         d="M 0,0 612,0 612,792 0,792 0,0 z"
         id="path1216" />
    </clipPath>
    <clipPath
       clipPathUnits="userSpaceOnUse"
       id="clipPath1192">
      <path
         inkscape:connector-curvature="0"
         d="M 0,0 612,0 612,792 0,792 0,0 z"
         id="path1194" />
    </clipPath>
    <clipPath
       clipPathUnits="userSpaceOnUse"
       id="clipPath1170">
      <path
         inkscape:connector-curvature="0"
         d="M 0,0 612,0 612,792 0,792 0,0 z"
         id="path1172" />
    </clipPath>
    <clipPath
       clipPathUnits="userSpaceOnUse"
       id="clipPath1148">
      <path
         inkscape:connector-curvature="0"
         d="M 0,0 612,0 612,792 0,792 0,0 z"
         id="path1150" />
    </clipPath>
    <clipPath
       clipPathUnits="userSpaceOnUse"
       id="clipPath1126">
      <path
         inkscape:connector-curvature="0"
         d="M 0,0 612,0 612,792 0,792 0,0 z"
         id="path1128" />
    </clipPath>
    <clipPath
       clipPathUnits="userSpaceOnUse"
       id="clipPath1110">
      <path
         inkscape:connector-curvature="0"
         d="M 0,0 612,0 612,792 0,792 0,0 z"
         id="path1112" />
    </clipPath>
    <clipPath
       clipPathUnits="userSpaceOnUse"
       id="clipPath1094">
      <path
         inkscape:connector-curvature="0"
         d="M 0,0 612,0 612,792 0,792 0,0 z"
         id="path1096" />
    </clipPath>
    <clipPath
       clipPathUnits="userSpaceOnUse"
       id="clipPath1078">
      <path
         inkscape:connector-curvature="0"
         d="M 0,0 612,0 612,792 0,792 0,0 z"
         id="path1080" />
    </clipPath>
    <clipPath
       clipPathUnits="userSpaceOnUse"
       id="clipPath1062">
      <path
         inkscape:connector-curvature="0"
         d="M 0,0 612,0 612,792 0,792 0,0 z"
         id="path1064" />
    </clipPath>
    <clipPath
       clipPathUnits="userSpaceOnUse"
       id="clipPath1046">
      <path
         inkscape:connector-curvature="0"
         d="M 0,0 612,0 612,792 0,792 0,0 z"
         id="path1048" />
    </clipPath>
    <clipPath
       clipPathUnits="userSpaceOnUse"
       id="clipPath1024">
      <path
         inkscape:connector-curvature="0"
         d="M 0,0 612,0 612,792 0,792 0,0 z"
         id="path1026" />
    </clipPath>
    <clipPath
       clipPathUnits="userSpaceOnUse"
       id="clipPath1002">
      <path
         inkscape:connector-curvature="0"
         d="M 0,0 612,0 612,792 0,792 0,0 z"
         id="path1004" />
    </clipPath>
    <clipPath
       clipPathUnits="userSpaceOnUse"
       id="clipPath980">
      <path
         inkscape:connector-curvature="0"
         d="M 0,0 612,0 612,792 0,792 0,0 z"
         id="path982" />
    </clipPath>
    <clipPath
       clipPathUnits="userSpaceOnUse"
       id="clipPath964">
      <path
         inkscape:connector-curvature="0"
         d="M 0,0 612,0 612,792 0,792 0,0 z"
         id="path966" />
    </clipPath>
    <clipPath
       clipPathUnits="userSpaceOnUse"
       id="clipPath948">
      <path
         inkscape:connector-curvature="0"
         d="M 0,0 612,0 612,792 0,792 0,0 z"
         id="path950" />
    </clipPath>
    <clipPath
       clipPathUnits="userSpaceOnUse"
       id="clipPath932">
      <path
         inkscape:connector-curvature="0"
         d="M 0,0 612,0 612,792 0,792 0,0 z"
         id="path934" />
    </clipPath>
    <clipPath
       clipPathUnits="userSpaceOnUse"
       id="clipPath916">
      <path
         inkscape:connector-curvature="0"
         d="M 0,0 612,0 612,792 0,792 0,0 z"
         id="path918" />
    </clipPath>
    <clipPath
       clipPathUnits="userSpaceOnUse"
       id="clipPath900">
      <path
         inkscape:connector-curvature="0"
         d="M 0,0 612,0 612,792 0,792 0,0 z"
         id="path902" />
    </clipPath>
    <clipPath
       clipPathUnits="userSpaceOnUse"
       id="clipPath884">
      <path
         inkscape:connector-curvature="0"
         d="M 0,0 612,0 612,792 0,792 0,0 z"
         id="path886" />
    </clipPath>
    <clipPath
       clipPathUnits="userSpaceOnUse"
       id="clipPath862">
      <path
         inkscape:connector-curvature="0"
         d="M 0,0 612,0 612,792 0,792 0,0 z"
         id="path864" />
    </clipPath>
    <clipPath
       clipPathUnits="userSpaceOnUse"
       id="clipPath840">
      <path
         inkscape:connector-curvature="0"
         d="M 0,0 612,0 612,792 0,792 0,0 z"
         id="path842" />
    </clipPath>
    <clipPath
       clipPathUnits="userSpaceOnUse"
       id="clipPath818">
      <path
         inkscape:connector-curvature="0"
         d="M 0,0 612,0 612,792 0,792 0,0 z"
         id="path820" />
    </clipPath>
    <clipPath
       clipPathUnits="userSpaceOnUse"
       id="clipPath796">
      <path
         inkscape:connector-curvature="0"
         d="M 0,0 612,0 612,792 0,792 0,0 z"
         id="path798" />
    </clipPath>
    <clipPath
       clipPathUnits="userSpaceOnUse"
       id="clipPath780">
      <path
         inkscape:connector-curvature="0"
         d="M 0,0 612,0 612,792 0,792 0,0 z"
         id="path782" />
    </clipPath>
    <clipPath
       clipPathUnits="userSpaceOnUse"
       id="clipPath764">
      <path
         inkscape:connector-curvature="0"
         d="M 0,0 612,0 612,792 0,792 0,0 z"
         id="path766" />
    </clipPath>
    <clipPath
       clipPathUnits="userSpaceOnUse"
       id="clipPath748">
      <path
         inkscape:connector-curvature="0"
         d="M 0,0 612,0 612,792 0,792 0,0 z"
         id="path750" />
    </clipPath>
    <clipPath
       clipPathUnits="userSpaceOnUse"
       id="clipPath732">
      <path
         inkscape:connector-curvature="0"
         d="M 0,0 612,0 612,792 0,792 0,0 z"
         id="path734" />
    </clipPath>
    <clipPath
       clipPathUnits="userSpaceOnUse"
       id="clipPath716">
      <path
         inkscape:connector-curvature="0"
         d="M 0,0 612,0 612,792 0,792 0,0 z"
         id="path718" />
    </clipPath>
    <clipPath
       clipPathUnits="userSpaceOnUse"
       id="clipPath694">
      <path
         inkscape:connector-curvature="0"
         d="M 0,0 612,0 612,792 0,792 0,0 z"
         id="path696" />
    </clipPath>
    <clipPath
       clipPathUnits="userSpaceOnUse"
       id="clipPath672">
      <path
         inkscape:connector-curvature="0"
         d="M 0,0 612,0 612,792 0,792 0,0 z"
         id="path674" />
    </clipPath>
    <clipPath
       clipPathUnits="userSpaceOnUse"
       id="clipPath650">
      <path
         inkscape:connector-curvature="0"
         d="M 0,0 612,0 612,792 0,792 0,0 z"
         id="path652" />
    </clipPath>
    <clipPath
       clipPathUnits="userSpaceOnUse"
       id="clipPath628">
      <path
         inkscape:connector-curvature="0"
         d="M 0,0 612,0 612,792 0,792 0,0 z"
         id="path630" />
    </clipPath>
    <clipPath
       clipPathUnits="userSpaceOnUse"
       id="clipPath606">
      <path
         inkscape:connector-curvature="0"
         d="M 0,0 612,0 612,792 0,792 0,0 z"
         id="path608" />
    </clipPath>
    <clipPath
       clipPathUnits="userSpaceOnUse"
       id="clipPath590">
      <path
         inkscape:connector-curvature="0"
         d="M 0,0 612,0 612,792 0,792 0,0 z"
         id="path592" />
    </clipPath>
    <clipPath
       clipPathUnits="userSpaceOnUse"
       id="clipPath574">
      <path
         inkscape:connector-curvature="0"
         d="M 0,0 612,0 612,792 0,792 0,0 z"
         id="path576" />
    </clipPath>
    <clipPath
       clipPathUnits="userSpaceOnUse"
       id="clipPath558">
      <path
         inkscape:connector-curvature="0"
         d="M 0,0 612,0 612,792 0,792 0,0 z"
         id="path560" />
    </clipPath>
    <clipPath
       clipPathUnits="userSpaceOnUse"
       id="clipPath542">
      <path
         inkscape:connector-curvature="0"
         d="M 0,0 612,0 612,792 0,792 0,0 z"
         id="path544" />
    </clipPath>
    <clipPath
       clipPathUnits="userSpaceOnUse"
       id="clipPath520">
      <path
         inkscape:connector-curvature="0"
         d="M 0,0 612,0 612,792 0,792 0,0 z"
         id="path522" />
    </clipPath>
    <clipPath
       clipPathUnits="userSpaceOnUse"
       id="clipPath498">
      <path
         inkscape:connector-curvature="0"
         d="M 0,0 612,0 612,792 0,792 0,0 z"
         id="path500" />
    </clipPath>
    <clipPath
       clipPathUnits="userSpaceOnUse"
       id="clipPath476">
      <path
         inkscape:connector-curvature="0"
         d="M 0,0 612,0 612,792 0,792 0,0 z"
         id="path478" />
    </clipPath>
    <clipPath
       clipPathUnits="userSpaceOnUse"
       id="clipPath454">
      <path
         inkscape:connector-curvature="0"
         d="M 0,0 612,0 612,792 0,792 0,0 z"
         id="path456" />
    </clipPath>
    <clipPath
       clipPathUnits="userSpaceOnUse"
       id="clipPath438">
      <path
         inkscape:connector-curvature="0"
         d="M 0,0 612,0 612,792 0,792 0,0 z"
         id="path440" />
    </clipPath>
    <clipPath
       clipPathUnits="userSpaceOnUse"
       id="clipPath422">
      <path
         inkscape:connector-curvature="0"
         d="M 0,0 612,0 612,792 0,792 0,0 z"
         id="path424" />
    </clipPath>
    <clipPath
       clipPathUnits="userSpaceOnUse"
       id="clipPath406">
      <path
         inkscape:connector-curvature="0"
         d="M 0,0 612,0 612,792 0,792 0,0 z"
         id="path408" />
    </clipPath>
    <clipPath
       clipPathUnits="userSpaceOnUse"
       id="clipPath390">
      <path
         inkscape:connector-curvature="0"
         d="M 0,0 612,0 612,792 0,792 0,0 z"
         id="path392" />
    </clipPath>
    <clipPath
       clipPathUnits="userSpaceOnUse"
       id="clipPath374">
      <path
         inkscape:connector-curvature="0"
         d="M 0,0 612,0 612,792 0,792 0,0 z"
         id="path376" />
    </clipPath>
    <clipPath
       clipPathUnits="userSpaceOnUse"
       id="clipPath352">
      <path
         inkscape:connector-curvature="0"
         d="M 0,0 612,0 612,792 0,792 0,0 z"
         id="path354" />
    </clipPath>
    <clipPath
       clipPathUnits="userSpaceOnUse"
       id="clipPath330">
      <path
         inkscape:connector-curvature="0"
         d="M 0,0 612,0 612,792 0,792 0,0 z"
         id="path332" />
    </clipPath>
    <clipPath
       clipPathUnits="userSpaceOnUse"
       id="clipPath308">
      <path
         inkscape:connector-curvature="0"
         d="M 0,0 612,0 612,792 0,792 0,0 z"
         id="path310" />
    </clipPath>
    <clipPath
       clipPathUnits="userSpaceOnUse"
       id="clipPath292">
      <path
         inkscape:connector-curvature="0"
         d="M 0,0 612,0 612,792 0,792 0,0 z"
         id="path294" />
    </clipPath>
    <clipPath
       clipPathUnits="userSpaceOnUse"
       id="clipPath276">
      <path
         inkscape:connector-curvature="0"
         d="M 0,0 612,0 612,792 0,792 0,0 z"
         id="path278" />
    </clipPath>
    <clipPath
       clipPathUnits="userSpaceOnUse"
       id="clipPath260">
      <path
         inkscape:connector-curvature="0"
         d="M 0,0 612,0 612,792 0,792 0,0 z"
         id="path262" />
    </clipPath>
    <clipPath
       clipPathUnits="userSpaceOnUse"
       id="clipPath244">
      <path
         inkscape:connector-curvature="0"
         d="M 0,0 612,0 612,792 0,792 0,0 z"
         id="path246" />
    </clipPath>
    <clipPath
       clipPathUnits="userSpaceOnUse"
       id="clipPath228">
      <path
         inkscape:connector-curvature="0"
         d="M 0,0 612,0 612,792 0,792 0,0 z"
         id="path230" />
    </clipPath>
    <clipPath
       clipPathUnits="userSpaceOnUse"
       id="clipPath212">
      <path
         inkscape:connector-curvature="0"
         d="M 0,0 612,0 612,792 0,792 0,0 z"
         id="path214" />
    </clipPath>
    <clipPath
       clipPathUnits="userSpaceOnUse"
       id="clipPath190">
      <path
         inkscape:connector-curvature="0"
         d="M 0,0 612,0 612,792 0,792 0,0 z"
         id="path192" />
    </clipPath>
    <clipPath
       clipPathUnits="userSpaceOnUse"
       id="clipPath168">
      <path
         inkscape:connector-curvature="0"
         d="M 0,0 612,0 612,792 0,792 0,0 z"
         id="path170" />
    </clipPath>
    <clipPath
       clipPathUnits="userSpaceOnUse"
       id="clipPath146">
      <path
         inkscape:connector-curvature="0"
         d="M 0,0 612,0 612,792 0,792 0,0 z"
         id="path148" />
    </clipPath>
    <clipPath
       clipPathUnits="userSpaceOnUse"
       id="clipPath124">
      <path
         inkscape:connector-curvature="0"
         d="M 0,0 612,0 612,792 0,792 0,0 z"
         id="path126" />
    </clipPath>
    <clipPath
       clipPathUnits="userSpaceOnUse"
       id="clipPath108">
      <path
         inkscape:connector-curvature="0"
         d="M 0,0 612,0 612,792 0,792 0,0 z"
         id="path110" />
    </clipPath>
    <clipPath
       clipPathUnits="userSpaceOnUse"
       id="clipPath92">
      <path
         inkscape:connector-curvature="0"
         d="M 0,0 612,0 612,792 0,792 0,0 z"
         id="path94" />
    </clipPath>
    <clipPath
       clipPathUnits="userSpaceOnUse"
       id="clipPath76">
      <path
         inkscape:connector-curvature="0"
         d="M 0,0 612,0 612,792 0,792 0,0 z"
         id="path78" />
    </clipPath>
    <clipPath
       clipPathUnits="userSpaceOnUse"
       id="clipPath60">
      <path
         inkscape:connector-curvature="0"
         d="M 0,0 612,0 612,792 0,792 0,0 z"
         id="path62" />
    </clipPath>
    <clipPath
       clipPathUnits="userSpaceOnUse"
       id="clipPath1436">
      <path
         inkscape:connector-curvature="0"
         d="M 0,0 612,0 612,792 0,792 0,0 z"
         id="path1438" />
    </clipPath>
    <clipPath
       clipPathUnits="userSpaceOnUse"
       id="clipPath1940">
      <path
         inkscape:connector-curvature="0"
         d="M 0,0 612,0 612,792 0,792 0,0 z"
         id="path1942" />
    </clipPath>
  </defs>
  <sodipodi:namedview
     id="base"
     pagecolor="#ffffff"
     bordercolor="#666666"
     borderopacity="1.0"
     inkscape:pageopacity="0.0"
     inkscape:pageshadow="2"
     inkscape:zoom="1"
     inkscape:cx="295.73833"
     inkscape:cy="-43.596739"
     inkscape:document-units="px"
     inkscape:current-layer="layer1"
     showgrid="false"
     inkscape:window-width="2560"
     inkscape:window-height="1415"
     inkscape:window-x="1920"
     inkscape:window-y="0"
     inkscape:window-maximized="1"
     units="px"
     fit-margin-top="5"
     fit-margin-left="5"
     fit-margin-right="5"
     fit-margin-bottom="5" />
  <metadata
     id="metadata5726">
    <rdf:RDF>
      <cc:Work
         rdf:about="">
        <dc:format>image/svg+xml</dc:format>
        <dc:type
           rdf:resource="http://purl.org/dc/dcmitype/StillImage" />
        <dc:title></dc:title>
      </cc:Work>
    </rdf:RDF>
  </metadata>
  <g
     inkscape:label="Layer 1"
     inkscape:groupmode="layer"
     id="layer1"
     transform="translate(-79.26167,-108.1403)">
    <g
       id="g7078"
       transform="matrix(1.5666231,0,0,1.5666231,-47.744614,-64.107912)">
      <g
         transform="matrix(1.25,0,0,-1.25,101.56036,217.06531)"
         id="g52">
        <path
           id="path54"
           style="fill:#241f21;fill-opacity:1;fill-rule:nonzero;stroke:none"
           d="M 0,0 -2.697,5.339 -5.399,0 -5.4,0 l -4.545,0 -3.623,-8.009 1.242,0 0,-16.137 24.398,0 0,16.137 1.131,0 L 9.58,0 0,0 z"
           inkscape:connector-curvature="0" />
      </g>
      <g
         id="g56"
         transform="matrix(1.25,0,0,-1.25,-0.41726,905.1408)">
        <g
           clip-path="url(#clipPath60)"
           id="g58">
          <g
             transform="translate(81.5821,550.4604)"
             id="g64">
            <path
               id="path66"
               style="fill:#241f21;fill-opacity:1;fill-rule:nonzero;stroke:none"
               d="M 0,0 0.24,0.121 -2.457,5.46 c -0.045,0.091 -0.139,0.148 -0.24,0.148 -0.102,0 -0.196,-0.057 -0.241,-0.148 L -5.641,0.121 -5.399,0 l 0,0.269 -0.001,0 -4.545,0 c -0.106,0 -0.203,-0.062 -0.246,-0.159 l -3.623,-8.008 c -0.039,-0.083 -0.032,-0.179 0.019,-0.256 0.049,-0.079 0.135,-0.123 0.227,-0.123 l 0.97,0 0,-15.869 0.08,-0.19 0.192,-0.079 24.398,0 0.192,0.079 0.078,0.19 0,15.869 0.861,0 c 0.092,0 0.178,0.044 0.227,0.123 0.05,0.077 0.058,0.173 0.021,0.256 L 9.827,0.11 C 9.783,0.207 9.688,0.269 9.58,0.269 L 0,0.269 0,0 0.24,0.121 0,0 l 0,-0.27 9.407,0 3.378,-7.468 -0.713,0 -0.19,-0.078 -0.081,-0.193 0,-15.867 -23.858,0 0,15.867 -0.079,0.193 -0.19,0.078 -0.824,0 3.379,7.468 4.371,0 0.001,0 c 0.1,0 0.194,0.056 0.24,0.148 l 2.462,4.862 2.455,-4.862 C -0.196,-0.214 -0.102,-0.27 0,-0.27 L 0,0 z"
               inkscape:connector-curvature="0" />
          </g>
        </g>
      </g>
      <g
         transform="matrix(1.25,0,0,-1.25,464.13125,217.06531)"
         id="g68">
        <path
           id="path70"
           style="fill:#241f21;fill-opacity:1;fill-rule:nonzero;stroke:none"
           d="M 0,0 -9.58,0 -12.278,5.339 -14.98,0 l -0.002,0 -4.544,0 -3.624,-8.009 1.243,0 0,-16.137 24.397,0 0,16.137 1.133,0 L 0,0 z"
           inkscape:connector-curvature="0" />
      </g>
      <g
         id="g72"
         transform="matrix(1.25,0,0,-1.25,-0.41726,905.1408)">
        <g
           clip-path="url(#clipPath76)"
           id="g74">
          <g
             transform="translate(371.6388,550.4604)"
             id="g80">
            <path
               id="path82"
               style="fill:#241f21;fill-opacity:1;fill-rule:nonzero;stroke:none"
               d="m 0,0 0,0.269 -9.415,0 -2.622,5.191 c -0.046,0.091 -0.14,0.148 -0.241,0.148 -0.101,0 -0.196,-0.057 -0.242,-0.148 L -15.221,0.121 -14.98,0 l 0,0.269 -0.002,0 -4.544,0 c -0.106,0 -0.203,-0.062 -0.245,-0.159 l -3.624,-8.008 c -0.037,-0.083 -0.03,-0.179 0.019,-0.256 0.051,-0.079 0.136,-0.123 0.226,-0.123 l 0.971,0 0,-15.869 0.079,-0.19 0.193,-0.079 24.397,0 0.192,0.079 0.078,0.19 0,15.869 0.863,0 c 0.093,0 0.177,0.044 0.228,0.123 0.049,0.077 0.055,0.173 0.017,0.256 L 0.246,0.11 C 0.203,0.207 0.106,0.269 0,0.269 L 0,0 l -0.244,-0.112 3.448,-7.626 -0.714,0 -0.19,-0.078 -0.079,-0.193 0,-15.867 -23.859,0 0,15.867 -0.079,0.193 -0.19,0.078 -0.823,0 3.377,7.468 4.371,0 0.002,0 c 0.102,0 0.195,0.056 0.241,0.148 l 2.461,4.862 2.456,-4.862 C -9.775,-0.214 -9.683,-0.27 -9.58,-0.27 L 0,-0.27 0,0 -0.244,-0.112 0,0 z"
               inkscape:connector-curvature="0" />
          </g>
        </g>
      </g>
      <g
         transform="matrix(1.25,0,0,-1.25,331.42612,217.06531)"
         id="g84">
        <path
           id="path86"
           style="fill:#241f21;fill-opacity:1;fill-rule:nonzero;stroke:none"
           d="M 0,0 -9.58,0 -12.277,5.339 -14.98,0 l -4.545,0 -3.624,-8.009 1.243,0 0,-16.137 24.397,0 0,16.137 1.134,0 L 0,0 z"
           inkscape:connector-curvature="0" />
      </g>
      <g
         id="g88"
         transform="matrix(1.25,0,0,-1.25,-0.41726,905.1408)">
        <g
           clip-path="url(#clipPath92)"
           id="g90">
          <g
             transform="translate(265.4747,550.4604)"
             id="g96">
            <path
               id="path98"
               style="fill:#241f21;fill-opacity:1;fill-rule:nonzero;stroke:none"
               d="m 0,0 0,0.269 -9.414,0 -2.623,5.191 c -0.045,0.091 -0.14,0.148 -0.24,0.148 -0.102,0 -0.196,-0.057 -0.243,-0.148 l -2.626,-5.191 -4.379,0 c -0.106,0 -0.202,-0.062 -0.246,-0.159 l -3.624,-8.008 c -0.037,-0.083 -0.031,-0.179 0.019,-0.256 0.051,-0.079 0.136,-0.123 0.227,-0.123 l 0.972,0 0,-15.869 0.079,-0.19 0.192,-0.079 24.397,0 0.191,0.079 0.079,0.19 0,15.869 0.864,0 c 0.092,0 0.176,0.044 0.227,0.123 0.049,0.077 0.056,0.173 0.018,0.256 L 0.246,0.11 C 0.203,0.207 0.105,0.269 0,0.269 L 0,0 l -0.245,-0.112 3.451,-7.626 -0.715,0 -0.19,-0.078 -0.079,-0.193 0,-15.867 -23.859,0 0,15.867 -0.078,0.193 -0.191,0.078 -0.824,0 3.378,7.468 4.372,0 c 0.101,0 0.195,0.056 0.241,0.148 l 2.462,4.862 2.456,-4.862 C -9.775,-0.214 -9.682,-0.27 -9.58,-0.27 L 0,-0.27 0,0 -0.245,-0.112 0,0 z"
               inkscape:connector-curvature="0" />
          </g>
        </g>
      </g>
      <g
         transform="matrix(1.25,0,0,-1.25,358.51112,224.87169)"
         id="g100">
        <path
           id="path102"
           style="fill:#241f21;fill-opacity:1;fill-rule:nonzero;stroke:none"
           d="m 0,0 -4.545,0 -3.623,-8.008 1.241,0 0,-9.866 24.4,0 0,9.866 1.132,0 L 14.982,0 0,0 z"
           inkscape:connector-curvature="0" />
      </g>
      <g
         id="g104"
         transform="matrix(1.25,0,0,-1.25,-0.41726,905.1408)">
        <g
           clip-path="url(#clipPath108)"
           id="g106">
          <g
             transform="translate(287.1427,544.2153)"
             id="g112">
            <path
               id="path114"
               style="fill:#241f21;fill-opacity:1;fill-rule:nonzero;stroke:none"
               d="m 0,0 0,0.27 -4.545,0 c -0.105,0 -0.202,-0.062 -0.246,-0.159 l -3.624,-8.008 c -0.038,-0.082 -0.03,-0.179 0.02,-0.256 0.049,-0.079 0.133,-0.124 0.227,-0.124 l 0.971,0 0,-9.597 0.08,-0.19 0.19,-0.08 24.4,0 0.191,0.08 0.078,0.19 0,9.597 0.863,0 c 0.091,0 0.177,0.045 0.227,0.124 0.049,0.077 0.057,0.174 0.019,0.256 L 15.227,0.111 C 15.184,0.208 15.088,0.27 14.982,0.27 L 0,0.27 0,0 l 0,-0.27 14.807,0 3.381,-7.466 -0.715,-0.002 -0.192,-0.079 -0.078,-0.191 0,-9.596 -23.861,0 0,9.596 -0.078,0.191 -0.191,0.079 -0.823,0 3.379,7.468 L 0,-0.27 0,0 z"
               inkscape:connector-curvature="0" />
          </g>
        </g>
      </g>
      <g
         transform="matrix(1.25,0,0,-1.25,401.95712,224.87169)"
         id="g116">
        <path
           id="path118"
           style="fill:#241f21;fill-opacity:1;fill-rule:nonzero;stroke:none"
           d="m 0,0 -4.544,0 -3.623,-8.008 1.242,0 0,-9.866 24.399,0 0,9.866 1.133,0 L 14.982,0 0,0 z"
           inkscape:connector-curvature="0" />
      </g>
      <g
         id="g120"
         transform="matrix(1.25,0,0,-1.25,-0.41726,905.1408)">
        <g
           clip-path="url(#clipPath124)"
           id="g122">
          <g
             transform="translate(321.8995,544.2153)"
             id="g128">
            <path
               id="path130"
               style="fill:#241f21;fill-opacity:1;fill-rule:nonzero;stroke:none"
               d="m 0,0 0,0.27 -4.544,0 c -0.105,0 -0.203,-0.062 -0.246,-0.159 l -3.623,-8.008 c -0.038,-0.082 -0.031,-0.179 0.019,-0.256 0.049,-0.079 0.135,-0.124 0.227,-0.124 l 0.972,0 0,-9.597 0.079,-0.19 0.191,-0.08 24.399,0 0.191,0.08 0.078,0.19 0,9.597 0.864,0 c 0.091,0 0.177,0.045 0.227,0.124 0.049,0.077 0.056,0.174 0.018,0.256 L 15.227,0.111 C 15.184,0.208 15.088,0.27 14.982,0.27 L 0,0.27 0,0 l 0,-0.27 14.807,0 3.382,-7.466 -0.715,-0.002 -0.192,-0.079 -0.079,-0.191 0,-9.595 -23.859,0 0,9.595 -0.079,0.191 -0.19,0.079 -0.824,0 3.379,7.468 4.37,0 L 0,0 z"
               inkscape:connector-curvature="0" />
          </g>
        </g>
      </g>
      <path
         id="path132"
         style="fill:#241f21;fill-opacity:1;fill-rule:nonzero;stroke:none"
         d="m 174.21899,246.47206 31.10376,0 0,-14.45125 -31.10376,0 0,14.45125 z"
         inkscape:connector-curvature="0" />
      <g
         transform="matrix(1.25,0,0,-1.25,174.21912,246.47193)"
         id="g134">
        <path
           id="path136"
           style="fill:#241f21;fill-opacity:1;fill-rule:nonzero;stroke:none"
           d="m 0,0 0,-0.27 24.883,0 0.191,0.079 0.08,0.191 0,11.561 -0.08,0.191 -0.191,0.079 L 0,11.831 -0.191,11.752 -0.27,11.561 -0.27,0 -0.191,-0.191 0,-0.27 0,0 l 0.27,0 0,11.29 24.343,0 0,-11.021 L 0,0.269 0,0 0.27,0 0,0 z"
           inkscape:connector-curvature="0" />
      </g>
      <g
         transform="matrix(1.25,0,0,-1.25,171.25524,231.66969)"
         id="g138">
        <path
           id="path140"
           style="fill:#241f21;fill-opacity:1;fill-rule:nonzero;stroke:none"
           d="M 0,0 30.95,0 16.227,8.333 0,0 z"
           inkscape:connector-curvature="0" />
      </g>
      <g
         id="g142"
         transform="matrix(1.25,0,0,-1.25,-0.41726,905.1408)">
        <g
           clip-path="url(#clipPath146)"
           id="g144">
          <g
             transform="translate(137.338,538.7769)"
             id="g150">
            <path
               id="path152"
               style="fill:#241f21;fill-opacity:1;fill-rule:nonzero;stroke:none"
               d="m 0,0 0,-0.27 30.95,0 c 0.122,0 0.23,0.082 0.261,0.2 0.031,0.119 -0.022,0.245 -0.128,0.304 L 16.359,8.567 c -0.08,0.045 -0.175,0.047 -0.256,0.005 L -0.125,0.237 C -0.234,0.182 -0.293,0.058 -0.263,-0.063 -0.233,-0.186 -0.125,-0.27 0,-0.27 L 0,0 0.124,-0.24 16.221,8.026 29.926,0.269 0,0.269 0,0 0.124,-0.24 0,0 z"
               inkscape:connector-curvature="0" />
          </g>
        </g>
      </g>
      <path
         id="path154"
         style="fill:#241f21;fill-opacity:1;fill-rule:nonzero;stroke:none"
         d="m 128.49774,246.47206 31.105,0 0,-14.45125 -31.105,0 0,14.45125 z"
         inkscape:connector-curvature="0" />
      <g
         transform="matrix(1.25,0,0,-1.25,128.49761,246.47193)"
         id="g156">
        <path
           id="path158"
           style="fill:#241f21;fill-opacity:1;fill-rule:nonzero;stroke:none"
           d="m 0,0 0,-0.27 24.883,0 0.19,0.079 0.08,0.191 0,11.561 -0.08,0.191 -0.19,0.079 L 0,11.831 -0.19,11.752 -0.27,11.561 -0.27,0 -0.19,-0.191 0,-0.27 0,0 l 0.269,0 0,11.29 24.344,0 0,-11.021 L 0,0.269 0,0 0.269,0 0,0 z"
           inkscape:connector-curvature="0" />
      </g>
      <g
         transform="matrix(1.25,0,0,-1.25,125.53374,231.66969)"
         id="g160">
        <path
           id="path162"
           style="fill:#241f21;fill-opacity:1;fill-rule:nonzero;stroke:none"
           d="M 0,0 30.95,0 16.226,8.333 0,0 z"
           inkscape:connector-curvature="0" />
      </g>
      <g
         id="g164"
         transform="matrix(1.25,0,0,-1.25,-0.41726,905.1408)">
        <g
           clip-path="url(#clipPath168)"
           id="g166">
          <g
             transform="translate(100.7608,538.7769)"
             id="g172">
            <path
               id="path174"
               style="fill:#241f21;fill-opacity:1;fill-rule:nonzero;stroke:none"
               d="m 0,0 0,-0.27 30.95,0 c 0.122,0 0.231,0.082 0.262,0.2 0.031,0.119 -0.023,0.245 -0.129,0.304 L 16.36,8.567 C 16.279,8.612 16.185,8.614 16.103,8.572 L -0.124,0.237 C -0.234,0.182 -0.292,0.058 -0.263,-0.063 -0.232,-0.186 -0.125,-0.27 0,-0.27 L 0,0 0.124,-0.24 16.22,8.026 29.925,0.269 0,0.269 0,0 0.124,-0.24 0,0 z"
               inkscape:connector-curvature="0" />
          </g>
        </g>
      </g>
      <path
         id="path176"
         style="fill:#241f21;fill-opacity:1;fill-rule:nonzero;stroke:none"
         d="m 217.664,246.47206 31.10625,0 0,-14.45125 -31.10625,0 0,14.45125 z"
         inkscape:connector-curvature="0" />
      <g
         transform="matrix(1.25,0,0,-1.25,217.66387,246.47193)"
         id="g178">
        <path
           id="path180"
           style="fill:#241f21;fill-opacity:1;fill-rule:nonzero;stroke:none"
           d="m 0,0 0,-0.27 24.885,0 0.191,0.079 0.078,0.191 0,11.561 -0.078,0.191 -0.191,0.079 L 0,11.831 -0.19,11.752 -0.27,11.561 -0.27,0 -0.19,-0.191 0,-0.27 0,0 l 0.27,0 0,11.29 24.343,0 0,-11.021 L 0,0.269 0,0 0.27,0 0,0 z"
           inkscape:connector-curvature="0" />
      </g>
      <g
         transform="matrix(1.25,0,0,-1.25,214.7,231.66969)"
         id="g182">
        <path
           id="path184"
           style="fill:#241f21;fill-opacity:1;fill-rule:nonzero;stroke:none"
           d="M 0,0 30.951,0 16.228,8.333 0,0 z"
           inkscape:connector-curvature="0" />
      </g>
      <g
         id="g186"
         transform="matrix(1.25,0,0,-1.25,-0.41726,905.1408)">
        <g
           clip-path="url(#clipPath190)"
           id="g188">
          <g
             transform="translate(172.0938,538.7769)"
             id="g194">
            <path
               id="path196"
               style="fill:#241f21;fill-opacity:1;fill-rule:nonzero;stroke:none"
               d="m 0,0 0,-0.27 30.951,0 c 0.123,0 0.231,0.082 0.261,0.2 0.032,0.119 -0.021,0.245 -0.127,0.304 L 16.36,8.567 C 16.281,8.612 16.186,8.614 16.103,8.572 L -0.123,0.237 C -0.233,0.182 -0.292,0.058 -0.262,-0.063 -0.232,-0.186 -0.124,-0.27 0,-0.27 L 0,0 0.124,-0.24 16.223,8.026 29.928,0.269 0,0.269 0,0 0.124,-0.24 0,0 z"
               inkscape:connector-curvature="0" />
          </g>
        </g>
      </g>
      <path
         id="path198"
         style="fill:#241f21;fill-opacity:1;fill-rule:nonzero;stroke:none"
         d="m 262.2315,246.47206 31.10375,0 0,-14.45125 -31.10375,0 0,14.45125 z"
         inkscape:connector-curvature="0" />
      <g
         transform="matrix(1.25,0,0,-1.25,262.23175,246.47193)"
         id="g200">
        <path
           id="path202"
           style="fill:#241f21;fill-opacity:1;fill-rule:nonzero;stroke:none"
           d="m 0,0 0,-0.27 24.883,0 0.19,0.079 0.079,0.191 0,11.561 -0.079,0.191 -0.19,0.079 L 0,11.831 -0.191,11.752 -0.27,11.561 -0.27,0 -0.191,-0.191 0,-0.27 0,0 l 0.27,0 0,11.29 24.343,0 0,-11.021 L 0,0.269 0,0 0.27,0 0,0 z"
           inkscape:connector-curvature="0" />
      </g>
      <g
         transform="matrix(1.25,0,0,-1.25,258.14725,231.66969)"
         id="g204">
        <path
           id="path206"
           style="fill:#241f21;fill-opacity:1;fill-rule:nonzero;stroke:none"
           d="M 0,0 30.951,0 16.227,8.333 0,0 z"
           inkscape:connector-curvature="0" />
      </g>
      <g
         id="g208"
         transform="matrix(1.25,0,0,-1.25,-0.41726,905.1408)">
        <g
           clip-path="url(#clipPath212)"
           id="g210">
          <g
             transform="translate(206.8516,538.7769)"
             id="g216">
            <path
               id="path218"
               style="fill:#241f21;fill-opacity:1;fill-rule:nonzero;stroke:none"
               d="m 0,0 0,-0.27 30.951,0 c 0.122,0 0.231,0.082 0.26,0.2 0.031,0.119 -0.02,0.245 -0.128,0.304 L 16.36,8.567 C 16.28,8.612 16.184,8.614 16.104,8.572 L -0.124,0.237 C -0.235,0.182 -0.291,0.058 -0.264,-0.063 -0.233,-0.186 -0.126,-0.27 0,-0.27 L 0,0 0.123,-0.24 16.221,8.026 29.926,0.269 0,0.269 0,0 0.123,-0.24 0,0 z"
               inkscape:connector-curvature="0" />
          </g>
        </g>
      </g>
      <g
         transform="matrix(1.25,0,0,-1.25,168.07899,181.90294)"
         id="g220">
        <path
           id="path222"
           style="fill:#241f21;fill-opacity:1;fill-rule:nonzero;stroke:none"
           d="M 0,0 -8.385,0 -10.744,4.671 -13.111,0 l -3.977,0 -3.17,-7.007 1.086,0 0,-14.121 21.352,0 0,14.121 0.989,0 L 0,0 z"
           inkscape:connector-curvature="0" />
      </g>
      <g
         id="g224"
         transform="matrix(1.25,0,0,-1.25,-0.41726,905.1408)">
        <g
           clip-path="url(#clipPath228)"
           id="g226">
          <g
             transform="translate(134.797,578.5903)"
             id="g232">
            <path
               id="path234"
               style="fill:#241f21;fill-opacity:1;fill-rule:nonzero;stroke:none"
               d="m 0,0 0,0.27 -8.22,0 -2.284,4.523 c -0.047,0.091 -0.139,0.147 -0.24,0.147 -0.102,10e-4 -0.197,-0.056 -0.242,-0.147 L -13.352,0.121 -13.111,0 l 0,0.27 -3.977,0 c -0.105,0 -0.201,-0.063 -0.245,-0.16 l -3.171,-7.006 c -0.039,-0.084 -0.031,-0.18 0.02,-0.257 0.048,-0.077 0.134,-0.123 0.226,-0.123 l 0.817,0 0,-13.852 0.078,-0.191 0.191,-0.078 21.352,0 0.19,0.078 0.079,0.191 0,13.852 0.72,0 c 0.093,0 0.177,0.046 0.227,0.123 0.05,0.077 0.057,0.173 0.02,0.257 L 0.244,0.11 C 0.201,0.207 0.104,0.27 0,0.27 L 0,0 l -0.247,-0.112 2.999,-6.625 -0.572,0 -0.192,-0.08 -0.08,-0.19 0,-13.852 -20.81,0 0,13.852 -0.08,0.19 -0.19,0.08 -0.668,0 2.927,6.467 3.802,0 c 0.101,0 0.195,0.056 0.241,0.148 l 2.124,4.196 2.121,-4.196 c 0.045,-0.092 0.139,-0.148 0.24,-0.148 L 0,-0.27 0,0 -0.247,-0.112 0,0 z"
               inkscape:connector-curvature="0" />
          </g>
        </g>
      </g>
      <g
         transform="matrix(1.25,0,0,-1.25,206.94487,208.31281)"
         id="g236">
        <path
           id="path238"
           style="fill:#241f21;fill-opacity:1;fill-rule:nonzero;stroke:none"
           d="m 0,0 0,14.121 0.989,0 -3.17,7.007 -8.382,0 -2.362,4.671 -2.365,-4.671 -3.977,0 -3.171,-7.007 1.086,0 L -21.352,0 0,0 z"
           inkscape:connector-curvature="0" />
      </g>
      <g
         id="g240"
         transform="matrix(1.25,0,0,-1.25,-0.41726,905.1408)">
        <g
           clip-path="url(#clipPath244)"
           id="g242">
          <g
             transform="translate(165.8897,557.4624)"
             id="g248">
            <path
               id="path250"
               style="fill:#241f21;fill-opacity:1;fill-rule:nonzero;stroke:none"
               d="m 0,0 0.27,0 0,13.852 0.719,0 c 0.094,0 0.178,0.045 0.227,0.123 0.051,0.077 0.058,0.172 0.02,0.256 l -3.171,7.007 c -0.043,0.097 -0.139,0.159 -0.246,0.159 l -8.216,0 -2.286,4.524 c -0.047,0.091 -0.14,0.147 -0.242,0.147 -0.101,10e-4 -0.195,-0.056 -0.24,-0.147 l -2.366,-4.672 0.241,-0.121 0,0.269 -3.977,0 c -0.105,0 -0.203,-0.062 -0.246,-0.159 l -3.17,-7.007 c -0.039,-0.084 -0.031,-0.179 0.02,-0.256 0.049,-0.078 0.133,-0.123 0.225,-0.123 l 0.818,0 0,-13.852 0.078,-0.192 0.19,-0.078 L 0,-0.27 0.19,-0.192 0.27,0 0,0 l 0,0.269 -21.082,0 0,13.852 -0.079,0.192 -0.191,0.078 -0.668,0 2.927,6.467 3.803,0 c 0.102,0 0.195,0.056 0.24,0.148 l 2.125,4.196 2.119,-4.196 c 0.046,-0.092 0.141,-0.148 0.243,-0.148 l 8.209,0 2.926,-6.467 -0.572,0 -0.191,-0.078 -0.08,-0.192 L -0.271,0 0,0 0,0.269 0,0 z"
               inkscape:connector-curvature="0" />
          </g>
        </g>
      </g>
      <g
         transform="matrix(1.25,0,0,-1.25,425.29325,181.90294)"
         id="g252">
        <path
           id="path254"
           style="fill:#241f21;fill-opacity:1;fill-rule:nonzero;stroke:none"
           d="M 0,0 -2.359,4.671 -4.724,0 l -3.978,0 -3.17,-7.007 1.088,0 0,-14.121 21.349,0 0,14.121 0.992,0 L 8.385,0 0,0 z"
           inkscape:connector-curvature="0" />
      </g>
      <g
         id="g256"
         transform="matrix(1.25,0,0,-1.25,-0.41726,905.1408)">
        <g
           clip-path="url(#clipPath260)"
           id="g258">
          <g
             transform="translate(340.5684,578.5903)"
             id="g264">
            <path
               id="path266"
               style="fill:#241f21;fill-opacity:1;fill-rule:nonzero;stroke:none"
               d="M 0,0 0.241,0.121 -2.118,4.793 C -2.164,4.884 -2.258,4.94 -2.359,4.94 -2.46,4.941 -2.555,4.884 -2.6,4.793 l -2.291,-4.523 -3.811,0 c -0.105,0 -0.202,-0.063 -0.245,-0.16 l -3.17,-7.006 c -0.037,-0.084 -0.031,-0.18 0.018,-0.257 0.051,-0.077 0.135,-0.123 0.227,-0.123 l 0.816,0 10e-4,-13.852 0.079,-0.191 0.192,-0.078 21.349,0 0.191,0.078 0.079,0.191 0,13.852 0.722,0 c 0.093,0 0.177,0.046 0.226,0.123 0.05,0.077 0.058,0.173 0.021,0.257 L 8.632,0.11 C 8.587,0.207 8.491,0.27 8.385,0.27 L 0,0.27 0,0 0.241,0.121 0,0 l 0,-0.27 8.211,0 2.929,-6.467 -0.575,0 -0.191,-0.08 -0.08,-0.19 0,-13.852 -20.809,0 0,13.852 -0.079,0.19 -0.19,0.08 -0.669,0 2.925,6.467 3.804,0 c 0.102,0 0.195,0.056 0.24,0.148 l 2.125,4.194 2.119,-4.194 C -0.195,-0.214 -0.1,-0.27 0,-0.27 L 0,0 z"
               inkscape:connector-curvature="0" />
          </g>
        </g>
      </g>
      <g
         transform="matrix(1.25,0,0,-1.25,258.67463,208.31281)"
         id="g268">
        <path
           id="path270"
           style="fill:#241f21;fill-opacity:1;fill-rule:nonzero;stroke:none"
           d="m 0,0 21.352,0 0,14.121 0.991,0 -3.171,7.007 -13.111,0 -3.977,0 -3.17,-7.007 1.086,0 L 0,0 z"
           inkscape:connector-curvature="0" />
      </g>
      <g
         id="g272"
         transform="matrix(1.25,0,0,-1.25,-0.41726,905.1408)">
        <g
           clip-path="url(#clipPath276)"
           id="g274">
          <g
             transform="translate(207.2735,557.4624)"
             id="g280">
            <path
               id="path282"
               style="fill:#241f21;fill-opacity:1;fill-rule:nonzero;stroke:none"
               d="m 0,0 0,-0.27 21.352,0 0.191,0.078 0.079,0.192 0,13.852 0.721,0 c 0.091,0 0.177,0.045 0.225,0.123 0.051,0.077 0.059,0.172 0.021,0.256 l -3.171,7.007 c -0.045,0.097 -0.141,0.159 -0.246,0.159 l -13.111,0 -3.977,0 c -0.105,0 -0.201,-0.062 -0.244,-0.159 l -3.17,-7.007 c -0.038,-0.084 -0.031,-0.179 0.017,-0.256 0.051,-0.078 0.136,-0.123 0.227,-0.123 l 0.816,0 L -0.27,0 -0.191,-0.192 0,-0.27 0,0 l 0.271,0 0,14.121 -0.08,0.192 -0.191,0.078 -0.666,0 2.926,6.467 3.801,0 12.936,0 2.928,-6.467 -0.573,0 -0.192,-0.078 -0.078,-0.192 0,-13.852 L 0,0.269 0,0 0.271,0 0,0 z"
               inkscape:connector-curvature="0" />
          </g>
        </g>
      </g>
      <g
         transform="matrix(1.25,0,0,-1.25,362.46375,208.28231)"
         id="g284">
        <path
           id="path286"
           style="fill:#241f21;fill-opacity:1;fill-rule:nonzero;stroke:none"
           d="m 0,0 0,8.632 0.99,0 -3.172,7.007 -13.109,0 -3.977,0 -3.171,-7.007 1.086,0 0,-8.632 L 0,0 z"
           inkscape:connector-curvature="0" />
      </g>
      <g
         id="g288"
         transform="matrix(1.25,0,0,-1.25,-0.41726,905.1408)">
        <g
           clip-path="url(#clipPath292)"
           id="g290">
          <g
             transform="translate(290.3048,557.4868)"
             id="g296">
            <path
               id="path298"
               style="fill:#241f21;fill-opacity:1;fill-rule:nonzero;stroke:none"
               d="m 0,0 0.27,0 0,8.362 0.72,0 c 0.091,0 0.176,0.046 0.226,0.123 0.05,0.077 0.057,0.173 0.02,0.257 l -3.17,7.009 c -0.045,0.096 -0.14,0.157 -0.248,0.157 l -13.109,0 -3.977,0 c -0.104,0 -0.201,-0.061 -0.244,-0.157 l -3.173,-7.009 c -0.038,-0.084 -0.03,-0.18 0.019,-0.257 0.051,-0.077 0.135,-0.123 0.227,-0.123 l 0.816,0 0,-8.362 0.079,-0.191 0.191,-0.079 L 0,-0.27 0.191,-0.191 0.27,0 0,0 l 0,0.27 -21.082,0 0,8.362 -0.079,0.19 -0.192,0.077 -0.667,0 2.927,6.47 3.802,0 12.936,0 L 0.572,8.899 0,8.899 -0.191,8.822 -0.271,8.632 -0.271,0 0,0 0,0.27 0,0 z"
               inkscape:connector-curvature="0" />
          </g>
        </g>
      </g>
      <g
         transform="matrix(1.25,0,0,-1.25,400.48125,208.28231)"
         id="g300">
        <path
           id="path302"
           style="fill:#241f21;fill-opacity:1;fill-rule:nonzero;stroke:none"
           d="m 0,0 0,8.632 0.992,0 -3.173,7.007 -13.108,0 -3.977,0 -3.172,-7.007 1.086,0 0,-8.632 L 0,0 z"
           inkscape:connector-curvature="0" />
      </g>
      <g
         id="g304"
         transform="matrix(1.25,0,0,-1.25,-0.41726,905.1408)">
        <g
           clip-path="url(#clipPath308)"
           id="g306">
          <g
             transform="translate(320.7188,557.4868)"
             id="g312">
            <path
               id="path314"
               style="fill:#241f21;fill-opacity:1;fill-rule:nonzero;stroke:none"
               d="m 0,0 0.27,0 0,8.362 0.722,0 c 0.092,0 0.176,0.046 0.226,0.123 0.05,0.077 0.057,0.173 0.02,0.257 l -3.172,7.009 c -0.045,0.096 -0.14,0.157 -0.247,0.157 l -13.108,0 -3.977,0 c -0.105,0 -0.203,-0.061 -0.245,-0.157 l -3.172,-7.009 c -0.038,-0.084 -0.032,-0.18 0.019,-0.257 0.051,-0.077 0.135,-0.123 0.226,-0.123 l 0.816,0 0,-8.362 0.079,-0.191 0.191,-0.079 L 0,-0.27 0.191,-0.191 0.27,0 0,0 l 0,0.27 -21.082,0 0,8.362 -0.078,0.19 -0.192,0.077 -0.666,0 2.926,6.47 3.803,0 12.934,0 L 0.574,8.899 0,8.899 -0.191,8.822 -0.27,8.632 -0.27,0 0,0 0,0.27 0,0 z"
               inkscape:connector-curvature="0" />
          </g>
        </g>
      </g>
      <path
         id="path316"
         style="fill:#241f21;fill-opacity:1;fill-rule:nonzero;stroke:none"
         d="m 133.24524,194.98956 -27.2175,0 0,12.6475 27.2175,0 0,-12.6475 z"
         inkscape:connector-curvature="0" />
      <g
         transform="matrix(1.25,0,0,-1.25,133.24499,207.63781)"
         id="g318">
        <path
           id="path320"
           style="fill:#241f21;fill-opacity:1;fill-rule:nonzero;stroke:none"
           d="m 0,0 0.27,0 0,10.118 -0.08,0.191 -0.19,0.079 -21.775,0 -0.192,-0.079 -0.078,-0.191 0,-10.118 0.078,-0.19 0.192,-0.08 L 0,-0.27 0.19,-0.19 0.27,0 0,0 l 0,0.27 -21.505,0 0,9.579 21.235,0 L -0.27,0 0,0 0,0.27 0,0 z"
           inkscape:connector-curvature="0" />
      </g>
      <g
         transform="matrix(1.25,0,0,-1.25,120.20299,185.56869)"
         id="g322">
        <path
           id="path324"
           style="fill:#241f21;fill-opacity:1;fill-rule:nonzero;stroke:none"
           d="m 0,0 -14.2,-7.292 27.083,0 L 0,0 z"
           inkscape:connector-curvature="0" />
      </g>
      <g
         id="g326"
         transform="matrix(1.25,0,0,-1.25,-0.41726,905.1408)">
        <g
           clip-path="url(#clipPath330)"
           id="g328">
          <g
             transform="translate(96.4962,575.6577)"
             id="g334">
            <path
               id="path336"
               style="fill:#241f21;fill-opacity:1;fill-rule:nonzero;stroke:none"
               d="m 0,0 -0.124,0.239 -14.198,-7.292 c -0.113,-0.057 -0.17,-0.181 -0.141,-0.302 0.029,-0.123 0.138,-0.207 0.263,-0.207 l 27.083,0 c 0.123,0 0.23,0.083 0.262,0.2 0.031,0.119 -0.022,0.245 -0.129,0.304 L 0.131,0.234 C 0.053,0.28 -0.043,0.28 -0.124,0.239 L 0,0 l -0.133,-0.234 11.99,-6.788 -24.941,0 L 0.123,-0.24 0,0 -0.133,-0.234 0,0 z"
               inkscape:connector-curvature="0" />
          </g>
        </g>
      </g>
      <path
         id="path338"
         style="fill:#241f21;fill-opacity:1;fill-rule:nonzero;stroke:none"
         d="m 247.30025,194.98956 -27.21875,0 0,12.6475 27.21875,0 0,-12.6475 z"
         inkscape:connector-curvature="0" />
      <g
         transform="matrix(1.25,0,0,-1.25,247.30012,207.63781)"
         id="g340">
        <path
           id="path342"
           style="fill:#241f21;fill-opacity:1;fill-rule:nonzero;stroke:none"
           d="m 0,0 0.269,0 0,10.118 -0.078,0.191 -0.191,0.079 -21.775,0 -0.192,-0.079 -0.078,-0.191 0,-10.118 0.078,-0.19 0.192,-0.08 L 0,-0.27 0.191,-0.19 0.269,0 0,0 l 0,0.27 -21.506,0 0,9.579 21.236,0 L -0.27,0 0,0 0,0.27 0,0 z"
           inkscape:connector-curvature="0" />
      </g>
      <g
         transform="matrix(1.25,0,0,-1.25,234.25812,185.56869)"
         id="g344">
        <path
           id="path346"
           style="fill:#241f21;fill-opacity:1;fill-rule:nonzero;stroke:none"
           d="m 0,0 -14.199,-7.292 27.083,0 L 0,0 z"
           inkscape:connector-curvature="0" />
      </g>
      <g
         id="g348"
         transform="matrix(1.25,0,0,-1.25,-0.41726,905.1408)">
        <g
           clip-path="url(#clipPath352)"
           id="g350">
          <g
             transform="translate(187.7403,575.6577)"
             id="g356">
            <path
               id="path358"
               style="fill:#241f21;fill-opacity:1;fill-rule:nonzero;stroke:none"
               d="m 0,0 -0.125,0.239 -14.198,-7.292 c -0.111,-0.057 -0.169,-0.181 -0.14,-0.302 0.03,-0.123 0.139,-0.207 0.264,-0.207 l 27.083,0 c 0.122,0 0.229,0.083 0.26,0.2 0.031,0.119 -0.021,0.245 -0.128,0.304 L 0.132,0.234 C 0.053,0.28 -0.043,0.28 -0.125,0.239 L 0,0 l -0.133,-0.234 11.991,-6.788 -24.942,0 L 0.123,-0.24 0,0 -0.133,-0.234 0,0 z"
               inkscape:connector-curvature="0" />
          </g>
        </g>
      </g>
      <path
         id="path360"
         style="fill:#241f21;fill-opacity:1;fill-rule:nonzero;stroke:none"
         d="m 323.2615,194.98956 -27.22,0 0,12.6475 27.22,0 0,-12.6475 z"
         inkscape:connector-curvature="0" />
      <g
         transform="matrix(1.25,0,0,-1.25,323.26088,207.63781)"
         id="g362">
        <path
           id="path364"
           style="fill:#241f21;fill-opacity:1;fill-rule:nonzero;stroke:none"
           d="m 0,0 0.27,0 0,10.118 -0.08,0.191 -0.19,0.079 -21.776,0 -0.191,-0.079 -0.077,-0.191 0,-10.118 0.077,-0.19 0.191,-0.08 L 0,-0.27 0.19,-0.19 0.27,0 0,0 l 0,0.27 -21.507,0 0,9.579 21.236,0 L -0.271,0 0,0 0,0.27 0,0 z"
           inkscape:connector-curvature="0" />
      </g>
      <g
         transform="matrix(1.25,0,0,-1.25,310.21763,185.56869)"
         id="g366">
        <path
           id="path368"
           style="fill:#241f21;fill-opacity:1;fill-rule:nonzero;stroke:none"
           d="m 0,0 -14.199,-7.292 27.084,0 L 0,0 z"
           inkscape:connector-curvature="0" />
      </g>
      <g
         id="g370"
         transform="matrix(1.25,0,0,-1.25,-0.41726,905.1408)">
        <g
           clip-path="url(#clipPath374)"
           id="g372">
          <g
             transform="translate(248.5079,575.6577)"
             id="g378">
            <path
               id="path380"
               style="fill:#241f21;fill-opacity:1;fill-rule:nonzero;stroke:none"
               d="m 0,0 -0.123,0.239 -14.199,-7.292 c -0.111,-0.057 -0.168,-0.181 -0.139,-0.302 0.029,-0.123 0.138,-0.207 0.262,-0.207 l 27.084,0 c 0.122,0 0.229,0.083 0.26,0.2 0.031,0.119 -0.021,0.245 -0.128,0.304 L 0.133,0.234 C 0.054,0.28 -0.043,0.28 -0.123,0.239 L 0,0 l -0.133,-0.234 11.992,-6.788 -24.941,0 L 0.124,-0.24 0,0 -0.133,-0.234 0,0 z"
               inkscape:connector-curvature="0" />
          </g>
        </g>
      </g>
      <g
         transform="matrix(1.25,0,0,-1.25,174.50836,146.30106)"
         id="g382">
        <path
           id="path384"
           style="fill:#241f21;fill-opacity:1;fill-rule:nonzero;stroke:none"
           d="m 0,0 -3.247,0 -2.59,-5.722 0.887,0 0,-11.535 17.438,0 0,11.535 0.81,0 L 10.708,0 3.861,0 1.933,3.816 0,0 z"
           inkscape:connector-curvature="0" />
      </g>
      <g
         id="g386"
         transform="matrix(1.25,0,0,-1.25,-0.41726,905.1408)">
        <g
           clip-path="url(#clipPath390)"
           id="g388">
          <g
             transform="translate(139.9405,607.0718)"
             id="g394">
            <path
               id="path396"
               style="fill:#241f21;fill-opacity:1;fill-rule:nonzero;stroke:none"
               d="m 0,0 0,0.27 -3.247,0 c -0.106,0 -0.203,-0.062 -0.244,-0.158 l -2.592,-5.723 c -0.038,-0.083 -0.031,-0.179 0.019,-0.256 0.05,-0.078 0.134,-0.124 0.227,-0.124 l 0.616,0 0,-11.266 0.081,-0.19 0.19,-0.079 17.438,0 0.192,0.079 0.079,0.19 0,11.266 0.539,0 c 0.092,0 0.178,0.046 0.226,0.124 0.051,0.077 0.059,0.173 0.02,0.256 l -2.59,5.723 C 10.909,0.208 10.813,0.27 10.708,0.27 l -6.682,0 -1.853,3.668 C 2.127,4.028 2.034,4.087 1.933,4.087 1.831,4.087 1.737,4.03 1.691,3.939 L -0.241,0.123 0,0 0,0.27 0,0 0,-0.27 c 0.103,0 0.195,0.058 0.241,0.149 L 1.933,3.218 3.62,-0.121 C 3.665,-0.212 3.758,-0.27 3.861,-0.27 l 6.673,0 2.346,-5.181 -0.392,0 -0.188,-0.08 -0.081,-0.191 0,-11.264 -16.9,0 0,11.264 -0.08,0.191 -0.189,0.08 -0.469,0 2.346,5.181 L 0,-0.27 0,0 z"
               inkscape:connector-curvature="0" />
          </g>
        </g>
      </g>
      <g
         transform="matrix(1.25,0,0,-1.25,387.00712,153.45331)"
         id="g398">
        <path
           id="path400"
           style="fill:#241f21;fill-opacity:1;fill-rule:nonzero;stroke:none"
           d="m 0,0 0,-11.534 17.439,0 0,11.534 0.808,0 -2.589,5.723 -6.848,0 L 6.884,9.538 4.949,5.723 1.702,5.723 -0.887,0 0,0 z"
           inkscape:connector-curvature="0" />
      </g>
      <g
         id="g402"
         transform="matrix(1.25,0,0,-1.25,-0.41726,905.1408)">
        <g
           clip-path="url(#clipPath406)"
           id="g404">
          <g
             transform="translate(309.9395,601.35)"
             id="g410">
            <path
               id="path412"
               style="fill:#241f21;fill-opacity:1;fill-rule:nonzero;stroke:none"
               d="m 0,0 -0.271,0 0,-11.534 0.08,-0.191 0.191,-0.079 17.439,0 0.19,0.079 0.079,0.191 0,11.265 0.539,0 c 0.093,0 0.177,0.044 0.227,0.123 0.051,0.078 0.057,0.173 0.019,0.257 L 15.904,5.834 C 15.859,5.93 15.765,5.992 15.658,5.992 l -6.682,0 -1.853,3.669 C 7.078,9.75 6.985,9.808 6.884,9.808 6.781,9.808 6.689,9.75 6.643,9.661 l -1.86,-3.669 -3.081,0 C 1.596,5.992 1.501,5.93 1.457,5.834 l -2.59,-5.723 c -0.039,-0.084 -0.031,-0.179 0.02,-0.257 0.049,-0.079 0.134,-0.123 0.226,-0.123 L 0,-0.269 0,0 -0.271,0 0,0 l 0,0.27 -0.469,0 2.346,5.182 3.072,0 c 0.103,0 0.196,0.057 0.241,0.148 L 6.883,8.941 8.568,5.602 C 8.614,5.51 8.709,5.452 8.81,5.452 l 6.673,0 2.345,-5.182 -0.389,0 L 17.247,0.191 17.167,0 l 0,-11.265 -16.897,0 L 0.27,0 0.191,0.191 0,0.27 0,0 z"
               inkscape:connector-curvature="0" />
          </g>
        </g>
      </g>
      <g
         transform="matrix(1.25,0,0,-1.25,294.6585,146.30106)"
         id="g414">
        <path
           id="path416"
           style="fill:#241f21;fill-opacity:1;fill-rule:nonzero;stroke:none"
           d="m 0,0 -2.592,-5.722 0.891,0 0,-11.535 17.437,0 0,11.535 0.811,0 L 13.955,0 3.248,0 0,0 z"
           inkscape:connector-curvature="0" />
      </g>
      <g
         id="g418"
         transform="matrix(1.25,0,0,-1.25,-0.41726,905.1408)">
        <g
           clip-path="url(#clipPath422)"
           id="g420">
          <g
             transform="translate(236.0606,607.0718)"
             id="g426">
            <path
               id="path428"
               style="fill:#241f21;fill-opacity:1;fill-rule:nonzero;stroke:none"
               d="M 0,0 -0.245,0.112 -2.838,-5.61 c -0.037,-0.084 -0.029,-0.18 0.02,-0.257 0.05,-0.078 0.135,-0.124 0.226,-0.124 l 0.621,0 0,-11.266 0.079,-0.19 0.191,-0.079 17.437,0 0.191,0.079 0.079,0.19 0,11.266 0.541,0 c 0.092,0 0.176,0.046 0.226,0.124 0.049,0.077 0.057,0.173 0.019,0.256 l -2.59,5.723 C 14.158,0.208 14.061,0.27 13.955,0.27 L 3.248,0.27 0,0.27 c -0.105,0 -0.202,-0.062 -0.245,-0.158 L 0,0 l 0,-0.27 3.248,0 10.534,0 2.347,-5.181 -0.393,0 -0.19,-0.08 -0.079,-0.191 0,-11.264 -16.9,0 0,11.264 -0.079,0.191 -0.189,0.08 -0.473,0 2.42,5.339 L 0,0 0,-0.27 0,0 z"
               inkscape:connector-curvature="0" />
          </g>
        </g>
      </g>
      <g
         transform="matrix(1.25,0,0,-1.25,346.702,159.03181)"
         id="g430">
        <path
           id="path432"
           style="fill:#241f21;fill-opacity:1;fill-rule:nonzero;stroke:none"
           d="m 0,0 0.809,0 -2.591,5.724 -10.706,0 -3.248,0 -2.59,-5.724 0.885,0 0,-7.05 L 0,-7.05 0,0 z"
           inkscape:connector-curvature="0" />
      </g>
      <g
         id="g434"
         transform="matrix(1.25,0,0,-1.25,-0.41726,905.1408)">
        <g
           clip-path="url(#clipPath438)"
           id="g436">
          <g
             transform="translate(277.6954,596.8872)"
             id="g442">
            <path
               id="path444"
               style="fill:#241f21;fill-opacity:1;fill-rule:nonzero;stroke:none"
               d="m 0,0 0,-0.27 0.809,0 c 0.091,0 0.177,0.046 0.226,0.124 0.051,0.077 0.058,0.174 0.02,0.258 l -2.592,5.722 c -0.044,0.097 -0.14,0.159 -0.245,0.159 l -10.706,0 -3.248,0 c -0.107,0 -0.203,-0.062 -0.246,-0.159 l -2.59,-5.724 c -0.037,-0.082 -0.031,-0.179 0.019,-0.256 0.05,-0.078 0.134,-0.124 0.227,-0.124 l 0.614,0 0,-6.78 0.079,-0.191 0.192,-0.078 17.441,0 0.191,0.078 L 0.27,-7.05 0.27,0 0,0 0,-0.27 0,0 l -0.271,0 0,-6.78 -16.901,0 0,6.78 -0.079,0.191 -0.19,0.079 -0.467,0 2.345,5.183 3.075,0 10.531,0 L 0.391,0.27 0,0.27 -0.191,0.191 -0.271,0 0,0 z"
               inkscape:connector-curvature="0" />
          </g>
        </g>
      </g>
      <g
         transform="matrix(1.25,0,0,-1.25,354.84538,159.03181)"
         id="g446">
        <path
           id="path448"
           style="fill:#241f21;fill-opacity:1;fill-rule:nonzero;stroke:none"
           d="m 0,0 0.888,0 0,-7.05 17.439,0 0,7.05 0.809,0 -2.59,5.724 -10.707,0 -3.248,0 L 0,0 z"
           inkscape:connector-curvature="0" />
      </g>
      <g
         id="g450"
         transform="matrix(1.25,0,0,-1.25,-0.41726,905.1408)">
        <g
           clip-path="url(#clipPath454)"
           id="g452">
          <g
             transform="translate(284.2101,596.8872)"
             id="g458">
            <path
               id="path460"
               style="fill:#241f21;fill-opacity:1;fill-rule:nonzero;stroke:none"
               d="m 0,0 0,-0.27 0.616,0 0,-6.78 0.08,-0.191 0.192,-0.078 17.439,0 0.193,0.078 0.079,0.191 0,6.78 0.537,0 c 0.092,0 0.177,0.046 0.226,0.124 0.049,0.077 0.058,0.174 0.02,0.256 L 16.79,5.834 c -0.043,0.097 -0.139,0.159 -0.244,0.159 l -10.707,0 -3.248,0 C 2.483,5.993 2.388,5.931 2.345,5.834 L -0.245,0.11 C -0.283,0.028 -0.277,-0.069 -0.228,-0.146 -0.177,-0.224 -0.093,-0.27 0,-0.27 L 0,0 l 0.245,-0.111 2.52,5.564 3.074,0 10.531,0 2.348,-5.183 -0.391,0 L 18.138,0.191 18.058,0 l 0,-6.78 -16.901,0 0,6.78 L 1.078,0.191 0.888,0.27 0,0.27 0,0 0.245,-0.111 0,0 z"
               inkscape:connector-curvature="0" />
          </g>
        </g>
      </g>
      <path
         id="path462"
         style="fill:#241f21;fill-opacity:1;fill-rule:nonzero;stroke:none"
         d="m 137.21274,167.31831 22.23125,0 0,-10.33125 -22.23125,0 0,10.33125 z"
         inkscape:connector-curvature="0" />
      <g
         transform="matrix(1.25,0,0,-1.25,137.21224,156.98831)"
         id="g464">
        <path
           id="path466"
           style="fill:#241f21;fill-opacity:1;fill-rule:nonzero;stroke:none"
           d="m 0,0 -0.271,0 0,-8.264 0.081,-0.19 0.19,-0.078 17.785,0 0.192,0.078 0.078,0.19 0,8.264 L 17.977,0.19 17.785,0.27 0,0.27 -0.19,0.19 -0.271,0 0,0 l 0,-0.27 17.516,0 0,-7.722 -17.246,0 L 0.27,0 0,0 0,-0.27 0,0 z"
           inkscape:connector-curvature="0" />
      </g>
      <g
         transform="matrix(1.25,0,0,-1.25,148.78936,149.29306)"
         id="g468">
        <path
           id="path470"
           style="fill:#241f21;fill-opacity:1;fill-rule:nonzero;stroke:none"
           d="m 0,0 -11.596,-5.955 22.12,0 L 0,0 z"
           inkscape:connector-curvature="0" />
      </g>
      <g
         id="g472"
         transform="matrix(1.25,0,0,-1.25,-0.41726,905.1408)">
        <g
           clip-path="url(#clipPath476)"
           id="g474">
          <g
             transform="translate(119.3653,604.6782)"
             id="g480">
            <path
               id="path482"
               style="fill:#241f21;fill-opacity:1;fill-rule:nonzero;stroke:none"
               d="m 0,0 -0.123,0.239 -11.598,-5.955 c -0.111,-0.058 -0.168,-0.183 -0.137,-0.303 0.028,-0.122 0.137,-0.208 0.262,-0.208 l 22.12,0 c 0.122,0 0.23,0.084 0.261,0.202 0.031,0.119 -0.021,0.243 -0.127,0.304 L 0.134,0.234 C 0.055,0.279 -0.041,0.281 -0.123,0.239 L 0,0 l -0.133,-0.234 9.632,-5.452 -19.98,0 L 0.125,-0.24 0,0 -0.133,-0.234 0,0 z"
               inkscape:connector-curvature="0" />
          </g>
        </g>
      </g>
      <path
         id="path484"
         style="fill:#241f21;fill-opacity:1;fill-rule:nonzero;stroke:none"
         d="m 221.54775,156.98706 -22.23,0 0,10.33125 22.23,0 0,-10.33125 z"
         inkscape:connector-curvature="0" />
      <g
         transform="matrix(1.25,0,0,-1.25,221.547,156.98831)"
         id="g486">
        <path
           id="path488"
           style="fill:#241f21;fill-opacity:1;fill-rule:nonzero;stroke:none"
           d="m 0,0 0,0.27 -17.784,0 -0.192,-0.08 -0.078,-0.19 0,-8.264 0.078,-0.19 0.192,-0.078 17.784,0 0.192,0.078 0.079,0.19 L 0.271,0 0.192,0.19 0,0.27 0,0 l -0.27,0 0,-7.992 -17.244,0 0,7.722 L 0,-0.27 0,0 -0.27,0 0,0 z"
           inkscape:connector-curvature="0" />
      </g>
      <g
         transform="matrix(1.25,0,0,-1.25,224.047,156.73806)"
         id="g490">
        <path
           id="path492"
           style="fill:#241f21;fill-opacity:1;fill-rule:nonzero;stroke:none"
           d="M 0,0 -10.521,5.956 -22.118,0 0,0 z"
           inkscape:connector-curvature="0" />
      </g>
      <g
         id="g494"
         transform="matrix(1.25,0,0,-1.25,-0.41726,905.1408)">
        <g
           clip-path="url(#clipPath498)"
           id="g496">
          <g
             transform="translate(179.5714,598.7222)"
             id="g502">
            <path
               id="path504"
               style="fill:#241f21;fill-opacity:1;fill-rule:nonzero;stroke:none"
               d="m 0,0 0.134,0.235 -10.522,5.956 c -0.08,0.044 -0.176,0.046 -0.257,0.005 L -22.242,0.24 c -0.111,-0.056 -0.169,-0.183 -0.139,-0.304 0.028,-0.121 0.138,-0.206 0.263,-0.206 L 0,-0.27 c 0.122,0 0.23,0.083 0.262,0.201 C 0.292,0.05 0.24,0.174 0.134,0.235 L 0,0 l 0,0.269 -21.002,0 10.475,5.38 L -0.132,-0.235 0,0 0,0.269 0,0 z"
               inkscape:connector-curvature="0" />
          </g>
        </g>
      </g>
      <path
         id="path506"
         style="fill:#241f21;fill-opacity:1;fill-rule:nonzero;stroke:none"
         d="m 252.599,156.98706 -22.2325,0 0,10.33125 22.2325,0 0,-10.33125 z"
         inkscape:connector-curvature="0" />
      <g
         transform="matrix(1.25,0,0,-1.25,252.60037,156.98831)"
         id="g508">
        <path
           id="path510"
           style="fill:#241f21;fill-opacity:1;fill-rule:nonzero;stroke:none"
           d="m 0,0 0,0.27 -17.787,0 -0.19,-0.08 -0.08,-0.19 0,-8.264 0.08,-0.19 0.19,-0.078 17.787,0 0.191,0.078 0.079,0.19 L 0.27,0 0.191,0.19 0,0.27 0,0 l -0.27,0 0,-7.992 -17.247,0 0,7.722 L 0,-0.27 0,0 -0.27,0 0,0 z"
           inkscape:connector-curvature="0" />
      </g>
      <g
         transform="matrix(1.25,0,0,-1.25,241.94862,149.29306)"
         id="g512">
        <path
           id="path514"
           style="fill:#241f21;fill-opacity:1;fill-rule:nonzero;stroke:none"
           d="m 0,0 -11.6,-5.955 22.121,0 L 0,0 z"
           inkscape:connector-curvature="0" />
      </g>
      <g
         id="g516"
         transform="matrix(1.25,0,0,-1.25,-0.41726,905.1408)">
        <g
           clip-path="url(#clipPath520)"
           id="g518">
          <g
             transform="translate(193.8927,604.6782)"
             id="g524">
            <path
               id="path526"
               style="fill:#241f21;fill-opacity:1;fill-rule:nonzero;stroke:none"
               d="m 0,0 -0.125,0.239 -11.598,-5.955 c -0.111,-0.058 -0.168,-0.183 -0.138,-0.303 0.029,-0.122 0.136,-0.208 0.261,-0.208 l 22.121,0 c 0.124,0 0.231,0.084 0.26,0.202 0.032,0.119 -0.019,0.243 -0.127,0.304 L 0.131,0.234 C 0.053,0.279 -0.043,0.281 -0.125,0.239 L 0,0 l -0.134,-0.234 9.631,-5.452 -19.979,0 L 0.123,-0.24 0,0 -0.134,-0.234 0,0 z"
               inkscape:connector-curvature="0" />
          </g>
        </g>
      </g>
      <path
         id="path528"
         style="fill:#241f21;fill-opacity:1;fill-rule:nonzero;stroke:none"
         d="m 283.65275,156.98706 -22.2325,0 0,10.33125 22.2325,0 0,-10.33125 z"
         inkscape:connector-curvature="0" />
      <g
         transform="matrix(1.25,0,0,-1.25,283.6515,167.31794)"
         id="g530">
        <path
           id="path532"
           style="fill:#241f21;fill-opacity:1;fill-rule:nonzero;stroke:none"
           d="m 0,0 0.271,0 0,8.265 -0.08,0.19 L 0,8.534 l -17.785,0 -0.191,-0.079 -0.079,-0.19 0,-8.265 0.079,-0.19 0.191,-0.079 L 0,-0.269 0.191,-0.19 0.271,0 0,0 l 0,0.27 -17.516,0 0,7.724 17.245,0 L -0.27,0 0,0 0,0.27 0,0 z"
           inkscape:connector-curvature="0" />
      </g>
      <g
         transform="matrix(1.25,0,0,-1.25,272.99837,149.29306)"
         id="g534">
        <path
           id="path536"
           style="fill:#241f21;fill-opacity:1;fill-rule:nonzero;stroke:none"
           d="m 0,0 -11.598,-5.955 22.121,0 L 0,0 z"
           inkscape:connector-curvature="0" />
      </g>
      <g
         id="g538"
         transform="matrix(1.25,0,0,-1.25,-0.41726,905.1408)">
        <g
           clip-path="url(#clipPath542)"
           id="g540">
          <g
             transform="translate(218.7325,604.6782)"
             id="g546">
            <path
               id="path548"
               style="fill:#241f21;fill-opacity:1;fill-rule:nonzero;stroke:none"
               d="m 0,0 -0.124,0.239 -11.597,-5.955 c -0.111,-0.058 -0.169,-0.183 -0.138,-0.303 0.029,-0.122 0.136,-0.208 0.261,-0.208 l 22.121,0 c 0.123,0 0.231,0.084 0.261,0.202 0.032,0.119 -0.02,0.243 -0.127,0.304 L 0.133,0.234 C 0.053,0.279 -0.043,0.281 -0.124,0.239 L 0,0 -0.133,-0.234 9.499,-5.686 -10.48,-5.686 0.123,-0.24 0,0 -0.133,-0.234 0,0 z"
               inkscape:connector-curvature="0" />
          </g>
        </g>
      </g>
      <g
         transform="matrix(1.25,0,0,-1.25,373.96275,136.28031)"
         id="g550">
        <path
           id="path552"
           style="fill:#241f21;fill-opacity:1;fill-rule:nonzero;stroke:none"
           d="m 0,0 15.098,0 0,9.985 0.7,0 -2.241,4.953 -5.928,0 -0.002,0 -1.669,3.304 -1.672,-3.304 -2.81,0 L -0.768,9.985 0,9.985 0,0 z"
           inkscape:connector-curvature="0" />
      </g>
      <g
         id="g554"
         transform="matrix(1.25,0,0,-1.25,-0.41726,905.1408)">
        <g
           clip-path="url(#clipPath558)"
           id="g556">
          <g
             transform="translate(299.504,615.0884)"
             id="g562">
            <path
               id="path564"
               style="fill:#241f21;fill-opacity:1;fill-rule:nonzero;stroke:none"
               d="m 0,0 0,-0.27 15.098,0 0.191,0.08 0.077,0.19 0,9.716 0.432,0 c 0.091,0 0.176,0.047 0.226,0.124 0.049,0.077 0.056,0.173 0.019,0.257 l -2.242,4.954 c -0.043,0.096 -0.14,0.158 -0.244,0.158 l -5.928,0 -0.002,0 0,-0.271 0.24,0.123 -1.668,3.304 c -0.047,0.09 -0.138,0.147 -0.241,0.147 -0.102,0 -0.194,-0.057 -0.239,-0.147 l -1.598,-3.156 -2.645,0 c -0.107,0 -0.203,-0.062 -0.247,-0.158 L -1.015,10.098 C -1.053,10.013 -1.045,9.917 -0.994,9.84 -0.945,9.763 -0.86,9.716 -0.768,9.716 l 0.498,0 L -0.27,0 -0.19,-0.19 0,-0.27 0,0 l 0.271,0 0,9.985 -0.08,0.192 -0.191,0.078 -0.351,0 2,4.414 2.637,0 c 0.103,0 0.196,0.058 0.241,0.149 l 1.431,2.827 1.428,-2.827 c 0.046,-0.09 0.139,-0.149 0.241,-0.149 l 0.002,0 5.753,0 1.997,-4.414 -0.281,0 -0.192,-0.078 -0.079,-0.192 0,-9.715 L 0,0.27 0,0 0.271,0 0,0 z"
               inkscape:connector-curvature="0" />
          </g>
        </g>
      </g>
      <g
         transform="matrix(1.25,0,0,-1.25,290.1395,136.25719)"
         id="g566">
        <path
           id="path568"
           style="fill:#241f21;fill-opacity:1;fill-rule:nonzero;stroke:none"
           d="m 0,0 15.1,0 0,6.104 0.698,0 -2.241,4.954 -9.27,0 -2.812,0 L -0.768,6.104 0,6.104 0,0 z"
           inkscape:connector-curvature="0" />
      </g>
      <g
         id="g570"
         transform="matrix(1.25,0,0,-1.25,-0.41726,905.1408)">
        <g
           clip-path="url(#clipPath574)"
           id="g572">
          <g
             transform="translate(232.4454,615.1069)"
             id="g578">
            <path
               id="path580"
               style="fill:#241f21;fill-opacity:1;fill-rule:nonzero;stroke:none"
               d="m 0,0 0,-0.27 15.1,0 0.189,0.079 0.079,0.191 0,5.833 0.43,0 c 0.091,0 0.176,0.047 0.226,0.124 0.05,0.077 0.056,0.174 0.019,0.258 l -2.24,4.954 c -0.045,0.097 -0.141,0.159 -0.246,0.159 l -9.27,0 -2.812,0 c -0.106,0 -0.202,-0.062 -0.246,-0.159 L -1.014,6.215 C -1.052,6.131 -1.045,6.034 -0.994,5.957 -0.945,5.88 -0.86,5.833 -0.768,5.833 l 0.497,0 L -0.27,0 -0.191,-0.191 0,-0.27 0,0 0.27,0 0.27,6.104 0.191,6.293 0,6.374 l -0.35,0 2,4.414 2.637,0 9.096,0 1.996,-4.414 -0.279,0 L 14.909,6.293 14.83,6.104 14.83,0.27 0,0.27 0,0 0.27,0 0,0 z"
               inkscape:connector-curvature="0" />
          </g>
        </g>
      </g>
      <g
         transform="matrix(1.25,0,0,-1.25,320.19812,136.25719)"
         id="g582">
        <path
           id="path584"
           style="fill:#241f21;fill-opacity:1;fill-rule:nonzero;stroke:none"
           d="m 0,0 15.098,0 0,6.104 0.701,0 -2.242,4.954 -9.27,0 -2.812,0 L -0.766,6.104 0,6.104 0,0 z"
           inkscape:connector-curvature="0" />
      </g>
      <g
         id="g586"
         transform="matrix(1.25,0,0,-1.25,-0.41726,905.1408)">
        <g
           clip-path="url(#clipPath590)"
           id="g588">
          <g
             transform="translate(256.4923,615.1069)"
             id="g594">
            <path
               id="path596"
               style="fill:#241f21;fill-opacity:1;fill-rule:nonzero;stroke:none"
               d="m 0,0 0,-0.27 15.098,0 0.19,0.079 0.079,0.191 0,5.833 0.432,0 c 0.09,0 0.176,0.047 0.226,0.124 0.049,0.077 0.056,0.174 0.018,0.258 l -2.241,4.954 c -0.044,0.097 -0.14,0.159 -0.245,0.159 l -9.27,0 -2.812,0 c -0.106,0 -0.202,-0.062 -0.247,-0.159 L -1.014,6.215 C -1.051,6.131 -1.043,6.034 -0.992,5.957 -0.943,5.88 -0.858,5.833 -0.766,5.833 l 0.494,0 0,-5.833 0.081,-0.191 L 0,-0.27 0,0 0.27,0 0.27,6.104 0.191,6.293 0,6.374 l -0.35,0 1.999,4.414 2.638,0 9.095,0 1.997,-4.414 -0.281,0 -0.19,-0.081 -0.08,-0.189 0,-5.834 L 0,0.27 0,0 0.27,0 0,0 z"
               inkscape:connector-curvature="0" />
          </g>
        </g>
      </g>
      <g
         transform="matrix(1.25,0,0,-1.25,347.08038,136.25719)"
         id="g598">
        <path
           id="path600"
           style="fill:#241f21;fill-opacity:1;fill-rule:nonzero;stroke:none"
           d="m 0,0 15.1,0 0,6.104 0.699,0 -2.242,4.954 -9.27,0 -2.81,0 L -0.768,6.104 0,6.104 0,0 z"
           inkscape:connector-curvature="0" />
      </g>
      <g
         id="g602"
         transform="matrix(1.25,0,0,-1.25,-0.41726,905.1408)">
        <g
           clip-path="url(#clipPath606)"
           id="g604">
          <g
             transform="translate(277.9981,615.1069)"
             id="g610">
            <path
               id="path612"
               style="fill:#241f21;fill-opacity:1;fill-rule:nonzero;stroke:none"
               d="m 0,0 0,-0.27 15.1,0 0.189,0.079 0.078,0.191 0,5.833 0.432,0 c 0.091,0 0.176,0.047 0.226,0.124 0.049,0.077 0.057,0.174 0.019,0.258 l -2.243,4.954 c -0.043,0.097 -0.14,0.159 -0.244,0.159 l -9.27,0 -2.81,0 c -0.108,0 -0.204,-0.062 -0.248,-0.159 L -1.014,6.215 C -1.052,6.131 -1.045,6.034 -0.994,5.957 -0.945,5.88 -0.86,5.833 -0.768,5.833 l 0.497,0 0,-5.833 0.08,-0.191 L 0,-0.27 0,0 0.27,0 0.27,6.104 0.191,6.293 0,6.374 l -0.35,0 2,4.414 2.637,0 9.096,0 1.997,-4.414 -0.28,0 -0.192,-0.081 -0.08,-0.189 0,-5.834 L 0,0.27 0,0 0.27,0 0,0 z"
               inkscape:connector-curvature="0" />
          </g>
        </g>
      </g>
      <path
         id="path614"
         style="fill:#241f21;fill-opacity:1;fill-rule:nonzero;stroke:none"
         d="m 174.23649,126.85956 -19.24625,0 0,8.94125 19.24625,0 0,-8.94125 z"
         inkscape:connector-curvature="0" />
      <g
         transform="matrix(1.25,0,0,-1.25,174.23611,126.85893)"
         id="g616">
        <path
           id="path618"
           style="fill:#241f21;fill-opacity:1;fill-rule:nonzero;stroke:none"
           d="m 0,0 0,0.27 -15.397,0 -0.191,-0.079 -0.079,-0.191 0,-7.152 0.079,-0.191 0.191,-0.081 15.397,0 0.191,0.081 L 0.27,-7.152 0.27,0 0.191,0.191 0,0.27 0,0 l -0.269,0 0,-6.883 -14.858,0 0,6.614 L 0,-0.269 0,0 -0.269,0 0,0 z"
           inkscape:connector-curvature="0" />
      </g>
      <g
         transform="matrix(1.25,0,0,-1.25,165.01374,120.19631)"
         id="g620">
        <path
           id="path622"
           style="fill:#241f21;fill-opacity:1;fill-rule:nonzero;stroke:none"
           d="m 0,0 -10.039,-5.157 19.149,0 L 0,0 z"
           inkscape:connector-curvature="0" />
      </g>
      <g
         id="g624"
         transform="matrix(1.25,0,0,-1.25,-0.41726,905.1408)">
        <g
           clip-path="url(#clipPath628)"
           id="g626">
          <g
             transform="translate(132.3448,627.9556)"
             id="g632">
            <path
               id="path634"
               style="fill:#241f21;fill-opacity:1;fill-rule:nonzero;stroke:none"
               d="m 0,0 -0.124,0.239 -10.039,-5.156 c -0.111,-0.057 -0.168,-0.182 -0.141,-0.304 0.031,-0.12 0.139,-0.206 0.265,-0.206 l 19.149,0 c 0.122,0 0.229,0.084 0.261,0.201 0.031,0.118 -0.022,0.244 -0.129,0.303 L 0.132,0.234 C 0.054,0.279 -0.042,0.281 -0.124,0.239 L 0,0 l -0.133,-0.235 8.218,-4.653 -17.008,0 9.047,4.647 L 0,0 -0.133,-0.235 0,0 z"
               inkscape:connector-curvature="0" />
          </g>
        </g>
      </g>
      <path
         id="path636"
         style="fill:#241f21;fill-opacity:1;fill-rule:nonzero;stroke:none"
         d="m 200.40275,126.85956 -19.24626,0 0,8.94125 19.24626,0 0,-8.94125 z"
         inkscape:connector-curvature="0" />
      <g
         transform="matrix(1.25,0,0,-1.25,200.40312,126.85893)"
         id="g638">
        <path
           id="path640"
           style="fill:#241f21;fill-opacity:1;fill-rule:nonzero;stroke:none"
           d="m 0,0 0,0.27 -15.397,0 -0.191,-0.079 -0.078,-0.191 0,-7.152 0.078,-0.191 0.191,-0.081 15.397,0 0.19,0.081 0.08,0.191 L 0.27,0 0.19,0.191 0,0.27 0,0 l -0.27,0 0,-6.883 -14.857,0 0,6.614 L 0,-0.269 0,0 -0.27,0 0,0 z"
           inkscape:connector-curvature="0" />
      </g>
      <g
         transform="matrix(1.25,0,0,-1.25,191.18075,120.19631)"
         id="g642">
        <path
           id="path644"
           style="fill:#241f21;fill-opacity:1;fill-rule:nonzero;stroke:none"
           d="m 0,0 -10.04,-5.157 19.15,0 L 0,0 z"
           inkscape:connector-curvature="0" />
      </g>
      <g
         id="g646"
         transform="matrix(1.25,0,0,-1.25,-0.41726,905.1408)">
        <g
           clip-path="url(#clipPath650)"
           id="g648">
          <g
             transform="translate(153.2784,627.9556)"
             id="g654">
            <path
               id="path656"
               style="fill:#241f21;fill-opacity:1;fill-rule:nonzero;stroke:none"
               d="m 0,0 -0.124,0.239 -10.039,-5.156 c -0.111,-0.057 -0.168,-0.182 -0.14,-0.304 0.03,-0.12 0.138,-0.206 0.263,-0.206 l 19.15,0 c 0.121,0 0.229,0.084 0.262,0.201 0.029,0.118 -0.023,0.244 -0.13,0.303 L 0.132,0.234 C 0.054,0.279 -0.043,0.281 -0.124,0.239 L 0,0 l -0.133,-0.235 8.218,-4.653 -17.009,0 9.048,4.647 L 0,0 -0.133,-0.235 0,0 z"
               inkscape:connector-curvature="0" />
          </g>
        </g>
      </g>
      <path
         id="path658"
         style="fill:#241f21;fill-opacity:1;fill-rule:nonzero;stroke:none"
         d="m 227.999,126.85956 -19.245,0 0,8.94125 19.245,0 0,-8.94125 z"
         inkscape:connector-curvature="0" />
      <g
         transform="matrix(1.25,0,0,-1.25,227.99962,126.85893)"
         id="g660">
        <path
           id="path662"
           style="fill:#241f21;fill-opacity:1;fill-rule:nonzero;stroke:none"
           d="m 0,0 0,0.27 -15.396,0 -0.191,-0.079 -0.079,-0.191 0,-7.152 0.079,-0.191 0.191,-0.081 15.396,0 0.19,0.081 0.08,0.191 L 0.27,0 0.19,0.191 0,0.27 0,0 l -0.27,0 0,-6.883 -14.857,0 0,6.614 L 0,-0.269 0,0 -0.27,0 0,0 z"
           inkscape:connector-curvature="0" />
      </g>
      <g
         transform="matrix(1.25,0,0,-1.25,218.77725,120.19631)"
         id="g664">
        <path
           id="path666"
           style="fill:#241f21;fill-opacity:1;fill-rule:nonzero;stroke:none"
           d="m 0,0 -10.039,-5.157 19.148,0 L 0,0 z"
           inkscape:connector-curvature="0" />
      </g>
      <g
         id="g668"
         transform="matrix(1.25,0,0,-1.25,-0.41726,905.1408)">
        <g
           clip-path="url(#clipPath672)"
           id="g670">
          <g
             transform="translate(175.3556,627.9556)"
             id="g676">
            <path
               id="path678"
               style="fill:#241f21;fill-opacity:1;fill-rule:nonzero;stroke:none"
               d="m 0,0 -0.123,0.239 -10.04,-5.156 c -0.11,-0.057 -0.169,-0.182 -0.14,-0.304 0.03,-0.12 0.139,-0.206 0.264,-0.206 l 19.148,0 c 0.122,0 0.23,0.084 0.262,0.201 0.031,0.118 -0.022,0.244 -0.129,0.303 L 0.133,0.234 C 0.054,0.279 -0.041,0.281 -0.123,0.239 L 0,0 l -0.133,-0.235 8.218,-4.653 -17.009,0 9.048,4.647 L 0,0 -0.133,-0.235 0,0 z"
               inkscape:connector-curvature="0" />
          </g>
        </g>
      </g>
      <path
         id="path680"
         style="fill:#241f21;fill-opacity:1;fill-rule:nonzero;stroke:none"
         d="m 254.88025,126.85956 -19.24625,0 0,8.94125 19.24625,0 0,-8.94125 z"
         inkscape:connector-curvature="0" />
      <g
         transform="matrix(1.25,0,0,-1.25,254.88187,126.85893)"
         id="g682">
        <path
           id="path684"
           style="fill:#241f21;fill-opacity:1;fill-rule:nonzero;stroke:none"
           d="m 0,0 0,0.27 -15.398,0 -0.191,-0.079 -0.079,-0.191 0,-7.152 0.079,-0.191 0.191,-0.081 15.398,0 0.19,0.081 0.08,0.191 L 0.27,0 0.19,0.191 0,0.27 0,0 l -0.271,0 0,-6.883 -14.857,0 0,6.614 L 0,-0.269 0,0 -0.271,0 0,0 z"
           inkscape:connector-curvature="0" />
      </g>
      <g
         transform="matrix(1.25,0,0,-1.25,245.65712,120.19631)"
         id="g686">
        <path
           id="path688"
           style="fill:#241f21;fill-opacity:1;fill-rule:nonzero;stroke:none"
           d="m 0,0 -10.039,-5.157 19.15,0 L 0,0 z"
           inkscape:connector-curvature="0" />
      </g>
      <g
         id="g690"
         transform="matrix(1.25,0,0,-1.25,-0.41726,905.1408)">
        <g
           clip-path="url(#clipPath694)"
           id="g692">
          <g
             transform="translate(196.8595,627.9556)"
             id="g698">
            <path
               id="path700"
               style="fill:#241f21;fill-opacity:1;fill-rule:nonzero;stroke:none"
               d="m 0,0 -0.123,0.239 -10.039,-5.156 c -0.111,-0.057 -0.168,-0.182 -0.139,-0.304 0.029,-0.12 0.138,-0.206 0.262,-0.206 l 19.15,0 c 0.123,0 0.231,0.084 0.261,0.201 0.031,0.118 -0.021,0.244 -0.128,0.303 L 0.133,0.234 C 0.055,0.279 -0.041,0.281 -0.123,0.239 L 0,0 l -0.132,-0.235 8.218,-4.653 -17.008,0 9.047,4.647 L 0,0 -0.132,-0.235 0,0 z"
               inkscape:connector-curvature="0" />
          </g>
        </g>
      </g>
      <path
         id="path702"
         style="fill:#241f21;fill-opacity:1;fill-rule:nonzero;stroke:none"
         d="m 281.7615,126.85956 -19.24375,0 0,8.94125 19.24375,0 0,-8.94125 z"
         inkscape:connector-curvature="0" />
      <g
         transform="matrix(1.25,0,0,-1.25,281.76175,135.80056)"
         id="g704">
        <path
           id="path706"
           style="fill:#241f21;fill-opacity:1;fill-rule:nonzero;stroke:none"
           d="m 0,0 0.271,0 0,7.153 L 0.192,7.344 0,7.424 l -15.395,0 -0.191,-0.08 -0.079,-0.191 0,-7.153 0.079,-0.19 0.191,-0.08 L 0,-0.27 0.192,-0.19 0.271,0 0,0 l 0,0.269 -15.126,0 0,6.615 14.856,0 L -0.269,0 0,0 0,0.269 0,0 z"
           inkscape:connector-curvature="0" />
      </g>
      <g
         transform="matrix(1.25,0,0,-1.25,272.54062,120.19631)"
         id="g708">
        <path
           id="path710"
           style="fill:#241f21;fill-opacity:1;fill-rule:nonzero;stroke:none"
           d="m 0,0 -10.04,-5.157 19.15,0 L 0,0 z"
           inkscape:connector-curvature="0" />
      </g>
      <g
         id="g712"
         transform="matrix(1.25,0,0,-1.25,-0.41726,905.1408)">
        <g
           clip-path="url(#clipPath716)"
           id="g714">
          <g
             transform="translate(218.3663,627.9556)"
             id="g720">
            <path
               id="path722"
               style="fill:#241f21;fill-opacity:1;fill-rule:nonzero;stroke:none"
               d="m 0,0 -0.124,0.239 -10.039,-5.156 c -0.111,-0.057 -0.168,-0.182 -0.14,-0.304 0.031,-0.12 0.138,-0.206 0.263,-0.206 l 19.15,0 c 0.124,0 0.232,0.084 0.262,0.201 0.031,0.118 -0.02,0.244 -0.129,0.303 L 0.134,0.234 C 0.054,0.279 -0.042,0.281 -0.124,0.239 L 0,0 l -0.132,-0.235 8.219,-4.653 -17.011,0 9.048,4.647 L 0,0 -0.132,-0.235 0,0 z"
               inkscape:connector-curvature="0" />
          </g>
        </g>
      </g>
    </g>
  </g>
</svg>
