<?xml version="1.0" encoding="UTF-8" standalone="no"?>
<!-- Created with Inkscape (http://www.inkscape.org/) -->

<svg
   xmlns:dc="http://purl.org/dc/elements/1.1/"
   xmlns:cc="http://creativecommons.org/ns#"
   xmlns:rdf="http://www.w3.org/1999/02/22-rdf-syntax-ns#"
   xmlns:svg="http://www.w3.org/2000/svg"
   xmlns="http://www.w3.org/2000/svg"
   xmlns:sodipodi="http://sodipodi.sourceforge.net/DTD/sodipodi-0.dtd"
   xmlns:inkscape="http://www.inkscape.org/namespaces/inkscape"
   id="svg3371"
   version="1.1"
   inkscape:version="0.48.4 r9939"
   width="166.0375"
   height="211.725"
   xml:space="preserve"
   sodipodi:docname="buildings012.eps"><metadata
     id="metadata3377"><rdf:RDF><cc:Work
         rdf:about=""><dc:format>image/svg+xml</dc:format><dc:type
           rdf:resource="http://purl.org/dc/dcmitype/StillImage" /><dc:title></dc:title></cc:Work></rdf:RDF></metadata><defs
     id="defs3375"><clipPath
       clipPathUnits="userSpaceOnUse"
       id="clipPath3387"><path
         d="m 0,0 1328,0 0,1693.79 -1328,0 L 0,0 z"
         id="path3389" /></clipPath></defs><sodipodi:namedview
     pagecolor="#ffffff"
     bordercolor="#666666"
     borderopacity="1"
     objecttolerance="10"
     gridtolerance="10"
     guidetolerance="10"
     inkscape:pageopacity="0"
     inkscape:pageshadow="2"
     inkscape:window-width="640"
     inkscape:window-height="480"
     id="namedview3373"
     showgrid="false"
     inkscape:zoom="1.1146534"
     inkscape:cx="83.018753"
     inkscape:cy="105.8625"
     inkscape:window-x="0"
     inkscape:window-y="0"
     inkscape:window-maximized="0"
     inkscape:current-layer="g3379" /><g
     id="g3379"
     inkscape:groupmode="layer"
     inkscape:label="ink_ext_XXXXXX"
     transform="matrix(1.25,0,0,-1.25,0,211.725)"><g
       id="g3381"
       transform="scale(0.1,0.1)"><g
         id="g3383"><g
           id="g3385"
           clip-path="url(#clipPath3387)"><path
             d="m 303.871,43.3594 111.93,0"
             style="fill:#100f0d;fill-opacity:1;fill-rule:nonzero;stroke:none"
             id="path3391" /><path
             d="m 303.871,43.3594 111.93,0"
             style="fill:none;stroke:#221d1d;stroke-opacity:1;stroke-width:21.01;stroke-linecap:round;stroke-linejoin:round;stroke-miterlimit:4;stroke-dasharray:none"
             id="path3393" /><path
             d="m 1179.32,176.781 c -5.8,0 -10.5,4.719 -10.5,10.52 l 0,50.769 c 0,5.801 4.7,10.512 10.5,10.512 5.8,0 10.49,-4.711 10.49,-10.512 l 0,-50.769 c 0,-5.801 -4.69,-10.52 -10.49,-10.52"
             style="fill:#100f0d;fill-opacity:1;fill-rule:nonzero;stroke:none"
             id="path3395" /><path
             d="m 805.082,846.289 -308.82,0 c -5.797,0 -10.5,-4.695 -10.5,-10.488 l 0,-220.789 c 0,-5.793 4.703,-10.5 10.5,-10.5 l 308.82,0 c 5.801,0 10.5,4.707 10.5,10.5 l 0,220.789 c 0,5.793 -4.699,10.488 -10.5,10.488 m -10.512,-220.758 -287.808,0 0,199.762 287.808,0 0,-199.762"
             style="fill:#100f0d;fill-opacity:1;fill-rule:nonzero;stroke:none"
             id="path3397" /><path
             d="M 1321.85,844.668 890.762,1026.18 c -0.34,0.16 -0.703,0.23 -1.039,0.32 l -50.106,100.05 c -1.765,3.57 -5.406,5.83 -9.387,5.83 l -21.691,0 c -0.027,0.16 -0.019,0.35 -0.066,0.54 l -133.586,552.83 c -1.117,4.63 -5.207,7.93 -9.977,8.04 l -0.23,0 c -4.668,0 -8.789,-3.09 -10.09,-7.6 l -159.41,-553.81 -26.668,0 c -3.981,0 -7.621,-2.26 -9.403,-5.83 L 353.629,915.859 c -1.625,-3.261 -1.461,-7.129 0.453,-10.222 1.918,-3.117 5.297,-4.992 8.941,-4.992 l 13.618,0 0,-143.817 L 250.27,669.84 180.496,958.586 c -1.117,4.617 -5.207,7.918 -9.965,8.035 -4.703,0.156 -9.004,-2.988 -10.32,-7.566 L 0.410156,408.641 C 0.140625,407.691 0,406.691 0,405.699 L 0,43.3594 C 0,37.5391 4.70312,32.8398 10.4961,32.8398 l 293.3749,0 c 5.797,0 10.5,4.6993 10.5,10.5196 l 0,359.9106 c 0,0.82 -0.09,1.66 -0.289,2.46 l -58.52,242.25 121.079,83.34 0,-687.9606 c 0,-5.8203 4.699,-10.5196 10.507,-10.5196 l 597.614,0 0,-32.8398 262.968,0 0,32.8398 70.05,0 c 5.8,0 10.5,4.6993 10.5,10.5196 l 0,791.6326 c 0,4.227 -2.52,8.035 -6.43,9.676 M 293.367,402 l 0,-348.1406 -272.3553,0 0,350.3516 L 169.371,915.246 293.367,402 z m 370.434,1240.23 123.191,-509.85 -269.941,0 146.75,509.85 z M 901.109,53.8594 l -503.457,0 0,846.7856 503.457,0 0,-846.7856 z M 380.02,921.66 l 94.968,189.7 348.75,0 94.985,-189.7 -538.703,0 z m 645.71,-858.0897 0,317.3597 c 0,49.922 40.61,90.531 90.53,90.531 49.91,0 90.51,-40.609 90.51,-90.531 l 0,-317.3597 -181.04,0 z m 281.54,-9.7109 -79.5,0 0,327.0706 c 0,61.492 -50.03,111.531 -111.51,111.531 -61.5,0 -111.54,-50.039 -111.54,-111.531 l 0,-327.0706 -82.611,0 0,846.7856 13.61,0 c 3.64,0 7.031,1.875 8.937,4.992 1.926,3.093 2.09,6.961 0.465,10.222 l -41.012,81.914 403.161,-169.753 0,-774.1606"
             style="fill:#100f0d;fill-opacity:1;fill-rule:nonzero;stroke:none"
             id="path3399" /><path
             d="m 650.688,558.75 c -87.481,0 -158.653,-71.168 -158.653,-158.66 l 0,-269.57 c 0,-5.801 4.703,-10.5 10.504,-10.5 l 296.27,0 c 5.8,0 10.5,4.699 10.5,10.5 l 0,269.57 c 0,87.492 -71.161,158.66 -158.621,158.66 m 137.609,-417.719 -275.25,0 0,259.059 c 0,75.91 61.742,137.648 137.641,137.648 75.871,0 137.609,-61.738 137.609,-137.648 l 0,-259.059"
             style="fill:#100f0d;fill-opacity:1;fill-rule:nonzero;stroke:none"
             id="path3401" /></g></g></g></g></svg>