<?xml version="1.0" encoding="UTF-8" standalone="no"?>
<!-- Created with Inkscape (http://www.inkscape.org/) -->

<svg
   xmlns:dc="http://purl.org/dc/elements/1.1/"
   xmlns:cc="http://creativecommons.org/ns#"
   xmlns:rdf="http://www.w3.org/1999/02/22-rdf-syntax-ns#"
   xmlns:svg="http://www.w3.org/2000/svg"
   xmlns="http://www.w3.org/2000/svg"
   xmlns:sodipodi="http://sodipodi.sourceforge.net/DTD/sodipodi-0.dtd"
   xmlns:inkscape="http://www.inkscape.org/namespaces/inkscape"
   id="svg2"
   version="1.1"
   inkscape:version="0.48.4 r9939"
   width="133.5"
   height="101.7875"
   xml:space="preserve"
   sodipodi:docname="buildings001.eps"><metadata
     id="metadata8"><rdf:RDF><cc:Work
         rdf:about=""><dc:format>image/svg+xml</dc:format><dc:type
           rdf:resource="http://purl.org/dc/dcmitype/StillImage" /><dc:title></dc:title></cc:Work></rdf:RDF></metadata><defs
     id="defs6" /><sodipodi:namedview
     pagecolor="#ffffff"
     bordercolor="#666666"
     borderopacity="1"
     objecttolerance="10"
     gridtolerance="10"
     guidetolerance="10"
     inkscape:pageopacity="0"
     inkscape:pageshadow="2"
     inkscape:window-width="640"
     inkscape:window-height="480"
     id="namedview4"
     showgrid="false"
     inkscape:zoom="2.3185558"
     inkscape:cx="66.75"
     inkscape:cy="50.893749"
     inkscape:window-x="602"
     inkscape:window-y="469"
     inkscape:window-maximized="0"
     inkscape:current-layer="g10" /><g
     id="g10"
     inkscape:groupmode="layer"
     inkscape:label="ink_ext_XXXXXX"
     transform="matrix(1.25,0,0,-1.25,0,101.7875)"><g
       id="g12"
       transform="scale(0.1,0.1)"><path
         d="m 582.676,326.594 -375.242,0 c -4.754,0 -8.602,-3.86 -8.602,-8.617 l 0,-151.051 c 0,-4.746 3.848,-8.606 8.602,-8.606 l 375.242,0 c 4.758,0 8.613,3.86 8.613,8.606 l 0,151.051 c 0,4.757 -3.855,8.617 -8.613,8.617 m -8.614,-151.059 -358.015,0 0,133.828 358.015,0 0,-133.828"
         style="fill:#100f0d;fill-opacity:1;fill-rule:nonzero;stroke:none"
         id="path14" /><path
         d="m 807.605,175.535 c -4.753,0 -8.601,-3.847 -8.601,-8.601 l 0,-41.622 c 0,-4.765 3.848,-8.613 8.601,-8.613 4.758,0 8.606,3.848 8.606,8.613 l 0,41.622 c 0,4.754 -3.848,8.601 -8.606,8.601"
         style="fill:#100f0d;fill-opacity:1;fill-rule:nonzero;stroke:none"
         id="path16" /><path
         d="M 1064.25,453.75 538.855,812.781 c -2.925,2.004 -6.789,2.004 -9.71,0 L 3.75391,453.75 c -3.117191,-2.141 -4.488285,-6.047 -3.367191,-9.656 1.105471,-3.606 4.445311,-6.067 8.218751,-6.067 l 26.85933,0 c 2.5313,-15.839 16.2305,-27.949 32.793,-27.949 9.7774,0 18.5586,4.246 24.6367,10.977 l 0,-391.5511 c 0,-4.7578 3.8516,-8.6055 8.6095,-8.6055 l 566.211,0 0,-20.8984 194.726,0 0,20.8984 94.571,0 c 4.765,0 8.613,3.8477 8.613,8.6055 l 0,393.7661 c 6.074,-8.008 15.664,-13.192 26.484,-13.192 16.561,0 30.251,12.11 32.791,27.949 l 34.48,0 c 3.78,0 7.11,2.461 8.24,6.067 1.11,3.609 -0.26,7.515 -3.37,9.656 M 830.02,40.1758 l -128.997,0 c 0.071,0.4375 0.149,0.8984 0.149,1.3554 l 0,208.9378 128.73,0 0,-208.9378 c 0,-0.457 0.059,-0.9179 0.118,-1.3554 m 32.421,-2.0625 0,2.0625 -15.468,0 c 0.078,0.4375 0.136,0.8984 0.136,1.3554 l 0,217.5388 c 0,4.77 -3.847,8.614 -8.601,8.614 l -145.949,0 c -4.766,0 -8.614,-3.844 -8.614,-8.614 l 0,-217.5388 c 0,-0.457 0.071,-0.9179 0.137,-1.3554 l -16.367,0 0,-2.0625 -557.598,0 0,382.9417 c 6.078,-6.731 14.848,-10.977 24.641,-10.977 16.558,0 30.246,12.11 32.785,27.949 l 0.926,0 c 2.539,-15.839 16.226,-27.949 32.785,-27.949 16.562,0 30.25,12.11 32.793,27.949 l 0.918,0 c 2.539,-15.839 16.23,-27.949 32.789,-27.949 16.57,0 30.266,12.11 32.805,27.949 l 0.918,0 c 2.539,-15.839 16.218,-27.949 32.781,-27.949 16.558,0 30.258,12.11 32.797,27.949 l 0.918,0 c 2.547,-15.839 16.222,-27.949 32.793,-27.949 16.558,0 30.25,12.11 32.789,27.949 l 0.922,0 c 2.539,-15.839 16.23,-27.949 32.789,-27.949 16.562,0 30.257,12.11 32.8,27.949 l 0.918,0 c 2.539,-15.839 16.223,-27.949 32.782,-27.949 12.972,0 24.183,7.442 29.672,18.281 5.468,-10.839 16.679,-18.281 29.66,-18.281 16.558,0 30.242,12.11 32.781,27.949 l 0.93,0 c 2.539,-15.839 16.226,-27.949 32.781,-27.949 16.562,0 30.254,12.11 32.793,27.949 l 0.918,0 c 2.539,-15.839 16.23,-27.949 32.793,-27.949 16.562,0 30.254,12.11 32.793,27.949 l 0.918,0 c 2.539,-15.839 16.242,-27.949 32.8,-27.949 16.555,0 30.247,12.11 32.786,27.949 l 0.918,0 c 2.539,-15.839 16.23,-27.949 32.793,-27.949 16.562,0 30.253,12.11 32.793,27.949 l 0.917,0 c 2.54,-15.839 16.231,-27.949 32.793,-27.949 8.848,0 16.856,3.457 22.801,9.094 l 0,-381.0587 -85.965,0 z M 36.4648,455.242 l 497.5272,340 497.548,-340 -995.0752,0"
         style="fill:#100f0d;fill-opacity:1;fill-rule:nonzero;stroke:none"
         id="path18" /></g></g></svg>