<?xml version="1.0" encoding="UTF-8" standalone="no"?>
<!-- Created with Inkscape (http://www.inkscape.org/) -->

<svg
   xmlns:dc="http://purl.org/dc/elements/1.1/"
   xmlns:cc="http://creativecommons.org/ns#"
   xmlns:rdf="http://www.w3.org/1999/02/22-rdf-syntax-ns#"
   xmlns:svg="http://www.w3.org/2000/svg"
   xmlns="http://www.w3.org/2000/svg"
   xmlns:sodipodi="http://sodipodi.sourceforge.net/DTD/sodipodi-0.dtd"
   xmlns:inkscape="http://www.inkscape.org/namespaces/inkscape"
   id="svg3215"
   version="1.1"
   inkscape:version="0.48.4 r9939"
   width="179.2375"
   height="148.6125"
   xml:space="preserve"
   sodipodi:docname="buildings009.eps"><metadata
     id="metadata3221"><rdf:RDF><cc:Work
         rdf:about=""><dc:format>image/svg+xml</dc:format><dc:type
           rdf:resource="http://purl.org/dc/dcmitype/StillImage" /><dc:title></dc:title></cc:Work></rdf:RDF></metadata><defs
     id="defs3219"><clipPath
       clipPathUnits="userSpaceOnUse"
       id="clipPath3231"><path
         d="M 0,1188.91 0,0 l 1433.94,0 0,1188.91 -1433.94,0 z"
         id="path3233" /></clipPath></defs><sodipodi:namedview
     pagecolor="#ffffff"
     bordercolor="#666666"
     borderopacity="1"
     objecttolerance="10"
     gridtolerance="10"
     guidetolerance="10"
     inkscape:pageopacity="0"
     inkscape:pageshadow="2"
     inkscape:window-width="640"
     inkscape:window-height="480"
     id="namedview3217"
     showgrid="false"
     inkscape:zoom="1.5880225"
     inkscape:cx="89.618752"
     inkscape:cy="74.306252"
     inkscape:window-x="0"
     inkscape:window-y="0"
     inkscape:window-maximized="0"
     inkscape:current-layer="g3223" /><g
     id="g3223"
     inkscape:groupmode="layer"
     inkscape:label="ink_ext_XXXXXX"
     transform="matrix(1.25,0,0,-1.25,0,148.6125)"><g
       id="g3225"
       transform="scale(0.1,0.1)"><g
         id="g3227"><g
           id="g3229"
           clip-path="url(#clipPath3231)"><path
             d="m 915.527,186.199 c -5.8,0 -10.5,4.703 -10.5,10.492 l 0,50.801 c 0,5.793 4.7,10.488 10.5,10.488 5.801,0 10.496,-4.695 10.496,-10.488 l 0,-50.801 c 0,-5.789 -4.695,-10.492 -10.496,-10.492"
             style="fill:#100f0d;fill-opacity:1;fill-rule:nonzero;stroke:none"
             id="path3235" /><path
             d="m 350.508,542.797 c -5.801,0 -10.496,4.707 -10.496,10.5 l 0,82.742 c 0,5.801 4.695,10.496 10.496,10.496 5.801,0 10.5,-4.695 10.5,-10.496 l 0,-82.742 c 0,-5.793 -4.699,-10.5 -10.5,-10.5"
             style="fill:#100f0d;fill-opacity:1;fill-rule:nonzero;stroke:none"
             id="path3237" /><path
             d="m 530.312,542.797 c -5.808,0 -10.511,4.707 -10.511,10.5 l 0,82.742 c 0,5.801 4.703,10.496 10.511,10.496 5.801,0 10.5,-4.695 10.5,-10.496 l 0,-82.742 c 0,-5.793 -4.699,-10.5 -10.5,-10.5"
             style="fill:#100f0d;fill-opacity:1;fill-rule:nonzero;stroke:none"
             id="path3239" /><path
             d="m 710.102,542.797 c -5.801,0 -10.497,4.707 -10.497,10.5 l 0,82.742 c 0,5.801 4.696,10.496 10.497,10.496 5.812,0 10.503,-4.695 10.503,-10.496 l 0,-82.742 c 0,-5.793 -4.691,-10.5 -10.503,-10.5"
             style="fill:#100f0d;fill-opacity:1;fill-rule:nonzero;stroke:none"
             id="path3241" /><path
             d="m 901.684,542.797 c -5.801,0 -10.496,4.707 -10.496,10.5 l 0,82.742 c 0,5.801 4.695,10.496 10.496,10.496 5.812,0 10.511,-4.695 10.511,-10.496 l 0,-82.742 c 0,-5.793 -4.699,-10.5 -10.511,-10.5"
             style="fill:#100f0d;fill-opacity:1;fill-rule:nonzero;stroke:none"
             id="path3243" /><path
             d="m 1081.49,542.797 c -5.8,0 -10.51,4.707 -10.51,10.5 l 0,82.742 c 0,5.801 4.71,10.496 10.51,10.496 5.8,0 10.5,-4.695 10.5,-10.496 l 0,-82.742 c 0,-5.793 -4.7,-10.5 -10.5,-10.5"
             style="fill:#100f0d;fill-opacity:1;fill-rule:nonzero;stroke:none"
             id="path3245" /><path
             d="m 225.859,752.23 -110.297,0 c -5.8,0 -10.511,4.7 -10.511,10.497 l 0,273.843 c 0,5.81 4.711,10.5 10.511,10.5 l 110.297,0 c 5.813,0 10.508,-4.69 10.508,-10.5 l 0,-273.843 c 0,-5.797 -4.695,-10.497 -10.508,-10.497 m -99.789,21.016 89.289,0 0,252.824 -89.289,0 0,-252.824"
             style="fill:#100f0d;fill-opacity:1;fill-rule:nonzero;stroke:none"
             id="path3247" /><path
             d="m 405.668,752.23 -110.316,0 c -5.801,0 -10.504,4.7 -10.504,10.497 l 0,273.843 c 0,5.81 4.703,10.5 10.504,10.5 l 110.316,0 c 5.812,0 10.5,-4.69 10.5,-10.5 l 0,-273.843 c 0,-5.797 -4.688,-10.497 -10.5,-10.497 m -99.809,21.016 89.301,0 0,252.824 -89.301,0 0,-252.824"
             style="fill:#100f0d;fill-opacity:1;fill-rule:nonzero;stroke:none"
             id="path3249" /><path
             d="m 585.465,752.23 -110.297,0 c -5.805,0 -10.516,4.7 -10.516,10.497 l 0,273.843 c 0,5.81 4.711,10.5 10.516,10.5 l 110.297,0 c 5.801,0 10.496,-4.69 10.496,-10.5 l 0,-273.843 c 0,-5.797 -4.695,-10.497 -10.496,-10.497 m -99.789,21.016 89.289,0 0,252.824 -89.289,0 0,-252.824"
             style="fill:#100f0d;fill-opacity:1;fill-rule:nonzero;stroke:none"
             id="path3251" /><path
             d="m 765.27,752.23 -110.321,0 c -5.801,0 -10.5,4.7 -10.5,10.497 l 0,273.843 c 0,5.81 4.699,10.5 10.5,10.5 l 110.321,0 c 5.808,0 10.496,-4.69 10.496,-10.5 l 0,-273.843 c 0,-5.797 -4.688,-10.497 -10.496,-10.497 m -99.821,21.016 89.313,0 0,252.824 -89.313,0 0,-252.824"
             style="fill:#100f0d;fill-opacity:1;fill-rule:nonzero;stroke:none"
             id="path3253" /><path
             d="m 956.84,752.23 -110.297,0 c -5.801,0 -10.512,4.7 -10.512,10.497 l 0,273.843 c 0,5.81 4.711,10.5 10.512,10.5 l 110.297,0 c 5.801,0 10.5,-4.69 10.5,-10.5 l 0,-273.843 c 0,-5.797 -4.699,-10.497 -10.5,-10.497 m -99.797,21.016 89.301,0 0,252.824 -89.301,0 0,-252.824"
             style="fill:#100f0d;fill-opacity:1;fill-rule:nonzero;stroke:none"
             id="path3255" /><path
             d="m 1136.64,752.23 -110.3,0 c -5.81,0 -10.51,4.7 -10.51,10.497 l 0,273.843 c 0,5.81 4.7,10.5 10.51,10.5 l 110.3,0 c 5.81,0 10.52,-4.69 10.52,-10.5 l 0,-273.843 c 0,-5.797 -4.71,-10.497 -10.52,-10.497 m -99.81,21.016 89.32,0 0,252.824 -89.32,0 0,-252.824"
             style="fill:#100f0d;fill-opacity:1;fill-rule:nonzero;stroke:none"
             id="path3257" /><path
             d="m 1316.45,752.23 -110.32,0 c -5.78,0 -10.49,4.7 -10.49,10.497 l 0,273.843 c 0,5.81 4.71,10.5 10.49,10.5 l 110.32,0 c 5.8,0 10.49,-4.69 10.49,-10.5 l 0,-273.843 c 0,-5.797 -4.69,-10.497 -10.49,-10.497 m -99.8,21.016 89.28,0 0,252.824 -89.28,0 0,-252.824"
             style="fill:#100f0d;fill-opacity:1;fill-rule:nonzero;stroke:none"
             id="path3259" /><path
             d="m 1316.43,500.043 c 5.81,0 10.51,4.695 10.51,10.5 l 0,164.187 c 0,5.801 -4.7,10.52 -10.51,10.52 l -1205.981,0 c -5.797,0 -10.4959,-4.719 -10.4959,-10.52 l 0,-164.187 c 0,-5.805 4.6989,-10.5 10.4959,-10.5 l 1205.981,0 z M 120.961,664.23 l 1184.979,0 0,-143.179 -1184.979,0 0,143.179"
             style="fill:#100f0d;fill-opacity:1;fill-rule:nonzero;stroke:none"
             id="path3261" /><path
             d="m 1423.41,1188.91 -1412.9139,0 C 4.6875,1188.91 0,1184.2 0,1178.41 L 0,49.1289 C 0,43.3398 4.6875,38.6406 10.4961,38.6406 l 722.6059,0 0,-38.6406 262.968,0 0,38.6406 427.34,0 c 5.82,0 10.53,4.6992 10.53,10.4883 l 0,1129.2811 c 0,5.79 -4.71,10.5 -10.53,10.5 m -630.422,-774.492 153.352,0 0,-350.1563 -153.352,0 0,350.1563 z m 619.932,-354.7696 -445.572,0 0,365.2696 c 0,5.801 -4.711,10.516 -10.512,10.516 l -174.348,0 c -5.8,0 -10.511,-4.715 -10.511,-10.516 l 0,-365.2696 -750.9692,0 0,1108.2616 1391.9122,0 0,-1108.2616"
             style="fill:#100f0d;fill-opacity:1;fill-rule:nonzero;stroke:none"
             id="path3263" /><path
             d="m 1136.64,435.434 -110.3,0 c -5.81,0 -10.51,-4.715 -10.51,-10.516 l 0,-273.848 c 0,-5.781 4.7,-10.488 10.51,-10.488 l 110.3,0 c 5.81,0 10.52,4.707 10.52,10.488 l 0,273.848 c 0,5.801 -4.71,10.516 -10.52,10.516 m -10.49,-273.832 -89.32,0 0,252.804 89.32,0 0,-252.804"
             style="fill:#100f0d;fill-opacity:1;fill-rule:nonzero;stroke:none"
             id="path3265" /><path
             d="m 1316.45,435.434 -110.32,0 c -5.78,0 -10.49,-4.715 -10.49,-10.516 l 0,-273.848 c 0,-5.781 4.71,-10.488 10.49,-10.488 l 110.32,0 c 5.8,0 10.49,4.707 10.49,10.488 l 0,273.848 c 0,5.801 -4.69,10.516 -10.49,10.516 m -10.52,-273.832 -89.28,0 0,252.804 89.28,0 0,-252.804"
             style="fill:#100f0d;fill-opacity:1;fill-rule:nonzero;stroke:none"
             id="path3267" /><path
             d="m 680.754,427.926 c -1.328,4.441 -5.422,7.508 -10.07,7.508 l -516.575,0 c -4.636,0 -8.738,-3.067 -10.066,-7.508 L 105.492,298.793 c -0.961,-3.184 -0.34,-6.613 1.641,-9.277 1.976,-2.668 5.097,-4.231 8.418,-4.231 l 44.648,0 0,-136.836 c 0,-5.808 4.711,-10.519 10.516,-10.519 l 484.226,0 c 5.801,0 10.504,4.711 10.504,10.519 l 0,136.836 43.797,0 c 3.32,0 6.442,1.563 8.418,4.231 1.985,2.664 2.594,6.093 1.641,9.277 l -38.547,129.133 z m -36.313,-268.985 -463.23,0 0,126.344 463.23,0 0,-126.344 z m -514.789,147.364 32.282,108.113 500.925,0 32.282,-108.113 -565.489,0"
             style="fill:#100f0d;fill-opacity:1;fill-rule:nonzero;stroke:none"
             id="path3269" /></g></g></g></g></svg>