<?xml version="1.0" encoding="UTF-8" standalone="no"?>
<!-- Created with Inkscape (http://www.inkscape.org/) -->

<svg
   xmlns:dc="http://purl.org/dc/elements/1.1/"
   xmlns:cc="http://creativecommons.org/ns#"
   xmlns:rdf="http://www.w3.org/1999/02/22-rdf-syntax-ns#"
   xmlns:svg="http://www.w3.org/2000/svg"
   xmlns="http://www.w3.org/2000/svg"
   xmlns:sodipodi="http://sodipodi.sourceforge.net/DTD/sodipodi-0.dtd"
   xmlns:inkscape="http://www.inkscape.org/namespaces/inkscape"
   id="svg3025"
   version="1.1"
   inkscape:version="0.48.4 r9939"
   width="137.325"
   height="71.925"
   xml:space="preserve"
   sodipodi:docname="buildings004.eps"><metadata
     id="metadata3031"><rdf:RDF><cc:Work
         rdf:about=""><dc:format>image/svg+xml</dc:format><dc:type
           rdf:resource="http://purl.org/dc/dcmitype/StillImage" /><dc:title></dc:title></cc:Work></rdf:RDF></metadata><defs
     id="defs3029"><clipPath
       clipPathUnits="userSpaceOnUse"
       id="clipPath3041"><path
         d="m 0,0 1098.62,0 0,575 L 0,575 0,0 z"
         id="path3043" /></clipPath></defs><sodipodi:namedview
     pagecolor="#ffffff"
     bordercolor="#666666"
     borderopacity="1"
     objecttolerance="10"
     gridtolerance="10"
     guidetolerance="10"
     inkscape:pageopacity="0"
     inkscape:pageshadow="2"
     inkscape:window-width="640"
     inkscape:window-height="480"
     id="namedview3027"
     showgrid="false"
     inkscape:zoom="2.6433643"
     inkscape:cx="68.662498"
     inkscape:cy="35.962502"
     inkscape:window-x="0"
     inkscape:window-y="0"
     inkscape:window-maximized="0"
     inkscape:current-layer="g3033" /><g
     id="g3033"
     inkscape:groupmode="layer"
     inkscape:label="ink_ext_XXXXXX"
     transform="matrix(1.25,0,0,-1.25,0,71.925)"><g
       id="g3035"
       transform="scale(0.1,0.1)"><g
         id="g3037"><g
           id="g3039"
           clip-path="url(#clipPath3041)"><path
             d="m 590.523,180.566 -368.293,0 0,137.676 368.293,0 0,-137.676 z m 8.856,155.391 -386,0 c -4.895,0 -8.859,-3.965 -8.859,-8.855 l 0,-155.391 c 0,-4.895 3.964,-8.859 8.859,-8.859 l 386,0 c 4.894,0 8.859,3.964 8.859,8.859 l 0,155.391 c 0,4.89 -3.965,8.855 -8.859,8.855"
             style="fill:#100f0d;fill-opacity:1;fill-rule:nonzero;stroke:none"
             id="path3045" /><path
             d="m 830.766,180.562 c -4.891,0 -8.852,-3.96 -8.852,-8.851 l 0,-42.805 c 0,-4.89 3.961,-8.855 8.852,-8.855 4.894,0 8.859,3.965 8.859,8.855 l 0,42.805 c 0,4.891 -3.965,8.851 -8.859,8.851"
             style="fill:#100f0d;fill-opacity:1;fill-rule:nonzero;stroke:none"
             id="path3047" /><path
             d="m 37.5117,468.301 130.7733,89.371 762.07,0 130.765,-89.371 -1023.6083,0 z M 887.18,39.2148 l 0,2.1133 -16.059,0 c 0.078,0.4805 0.285,0.9063 0.285,1.4063 l 0,223.7816 c 0,4.89 -3.965,8.855 -8.855,8.855 l -150.129,0 c -4.895,0 -8.86,-3.965 -8.86,-8.855 l 0,-223.7816 c 0,-0.5 0.208,-0.9258 0.286,-1.4063 l -16.989,0 0,-2.1133 -573.578,-0.0039 0,394.0511 c 6.258,-6.961 15.235,-11.426 25.336,-11.426 17.02,0 31.028,12.476 33.649,28.75 l 1.113,0 c 2.621,-16.274 16.621,-28.75 33.648,-28.75 17.016,0 31.032,12.476 33.657,28.75 l 1.101,0 c 2.629,-16.274 16.633,-28.75 33.653,-28.75 17.035,0 31.039,12.476 33.664,28.75 l 1.097,0 c 2.621,-16.274 16.617,-28.75 33.645,-28.75 17.031,0 31.035,12.476 33.656,28.75 l 1.105,0 c 2.625,-16.274 16.625,-28.75 33.657,-28.75 17.015,0 31.023,12.476 33.644,28.75 l 1.106,0 c 2.629,-16.274 16.633,-28.75 33.652,-28.75 17.024,0 31.031,12.476 33.656,28.75 l 1.102,0 c 2.625,-16.274 16.629,-28.75 33.648,-28.75 13.34,0 24.891,7.648 30.52,18.801 5.629,-11.153 17.164,-18.801 30.523,-18.801 17.028,0 31.024,12.476 33.649,28.75 l 1.097,0 c 2.621,-16.274 16.621,-28.75 33.661,-28.75 17.015,0 31.015,12.476 33.636,28.75 l 1.11,0 c 2.625,-16.274 16.636,-28.75 33.66,-28.75 17.015,0 31.023,12.476 33.644,28.75 l 1.106,0 c 2.621,-16.274 16.636,-28.75 33.668,-28.75 17.019,0 31.011,12.476 33.64,28.75 l 1.106,0 c 2.621,-16.274 16.621,-28.75 33.644,-28.75 17.028,0 31.036,12.476 33.661,28.75 l 1.105,0 c 2.621,-16.274 16.637,-28.75 33.656,-28.75 9.106,0 17.332,3.617 23.457,9.426 l 0,-392.0472 -88.433,0 z m -33.2,2.1133 -132.984,0 c 0.078,0.4805 0.281,0.9063 0.281,1.4063 l 0,214.9256 132.418,0 0,-214.9256 c 0,-0.5 0.207,-0.9258 0.285,-1.4063 z M 1094.76,466.754 938.09,573.832 c -1.469,1.008 -3.211,1.551 -4.992,1.551 l -767.551,0 c -1.781,0 -3.527,-0.543 -4.996,-1.551 L 3.86328,466.754 c -3.20703,-2.188 -4.609374,-6.219 -3.468749,-9.922 1.148439,-3.711 4.582029,-6.246 8.460939,-6.246 l 27.70313,0 c 2.6211,-16.274 16.6211,-28.75 33.6523,-28.75 10.1055,0 19.0938,4.469 25.3555,11.43 l 0,-402.9144 c 0,-2.3477 0.9375,-4.5977 2.5977,-6.2578 1.6601,-1.6602 3.9099,-2.6016 6.2619,-2.6016 l 582.433,0.0117 0,-21.5039 200.321,0 0,21.5078 97.289,0 c 4.89,0 8.855,3.961 8.855,8.8516 l 0,405.1916 c 6.242,-8.281 16.056,-13.715 27.236,-13.715 17.03,0 31.03,12.476 33.66,28.75 l 35.55,0 c 3.88,0 7.31,2.535 8.46,6.238 1.14,3.711 -0.26,7.738 -3.47,9.93"
             style="fill:#100f0d;fill-opacity:1;fill-rule:nonzero;stroke:none"
             id="path3049" /></g></g></g></g></svg>