<?xml version="1.0" encoding="UTF-8" standalone="no"?>
<!-- Created with Inkscape (http://www.inkscape.org/) -->

<svg
   xmlns:dc="http://purl.org/dc/elements/1.1/"
   xmlns:cc="http://creativecommons.org/ns#"
   xmlns:rdf="http://www.w3.org/1999/02/22-rdf-syntax-ns#"
   xmlns:svg="http://www.w3.org/2000/svg"
   xmlns="http://www.w3.org/2000/svg"
   xmlns:sodipodi="http://sodipodi.sourceforge.net/DTD/sodipodi-0.dtd"
   xmlns:inkscape="http://www.inkscape.org/namespaces/inkscape"
   id="svg3271"
   version="1.1"
   inkscape:version="0.48.4 r9939"
   width="316.8375"
   height="168.125"
   xml:space="preserve"
   sodipodi:docname="buildings010.eps"><metadata
     id="metadata3277"><rdf:RDF><cc:Work
         rdf:about=""><dc:format>image/svg+xml</dc:format><dc:type
           rdf:resource="http://purl.org/dc/dcmitype/StillImage" /><dc:title></dc:title></cc:Work></rdf:RDF></metadata><defs
     id="defs3275"><clipPath
       clipPathUnits="userSpaceOnUse"
       id="clipPath3287"><path
         d="m 0,0 2534.7,0 0,1345 L 0,1345 0,0 z"
         id="path3289" /></clipPath></defs><sodipodi:namedview
     pagecolor="#ffffff"
     bordercolor="#666666"
     borderopacity="1"
     objecttolerance="10"
     gridtolerance="10"
     guidetolerance="10"
     inkscape:pageopacity="0"
     inkscape:pageshadow="2"
     inkscape:window-width="640"
     inkscape:window-height="480"
     id="namedview3273"
     showgrid="false"
     inkscape:zoom="1.1456977"
     inkscape:cx="158.41875"
     inkscape:cy="84.0625"
     inkscape:window-x="0"
     inkscape:window-y="0"
     inkscape:window-maximized="0"
     inkscape:current-layer="g3279" /><g
     id="g3279"
     inkscape:groupmode="layer"
     inkscape:label="ink_ext_XXXXXX"
     transform="matrix(1.25,0,0,-1.25,0,168.125)"><g
       id="g3281"
       transform="scale(0.1,0.1)"><g
         id="g3283"><g
           id="g3285"
           clip-path="url(#clipPath3287)"><path
             d="m 514.898,178.059 c -5.812,0 -10.511,4.691 -10.511,10.5 l 0,50.793 c 0,5.796 4.699,10.488 10.511,10.488 5.801,0 10.497,-4.692 10.497,-10.488 l 0,-50.793 c 0,-5.809 -4.696,-10.5 -10.497,-10.5"
             style="fill:#100f0d;fill-opacity:1;fill-rule:nonzero;stroke:none"
             id="path3291" /><path
             d="m 1618.96,620.246 -864.019,0 c -5.808,0 -10.523,-4.707 -10.523,-10.5 l 0,-460.316 c 0,-5.789 4.715,-10.489 10.523,-10.489 l 864.019,0 c 5.81,0 10.52,4.7 10.52,10.489 l 0,460.316 c 0,5.793 -4.71,10.5 -10.52,10.5 m -10.5,-460.297 -843.03,0 0,439.289 843.03,0 0,-439.289"
             style="fill:#100f0d;fill-opacity:1;fill-rule:nonzero;stroke:none"
             id="path3293" /><path
             d="m 819.73,294.281 c -5.789,0 -10.5,-4.722 -10.5,-10.519 0,-5.793 4.711,-10.492 10.5,-10.492 l 116.622,0 0,-71.411 c 0,-5.808 4.699,-10.519 10.507,-10.519 5.801,0 10.5,4.711 10.5,10.519 l 0,71.411 207.631,0 0,-71.411 c 0,-5.808 4.71,-10.519 10.5,-10.519 5.8,0 10.52,4.711 10.52,10.519 l 0,71.411 207.62,0 0,-71.411 c 0,-5.808 4.7,-10.519 10.5,-10.519 5.8,0 10.49,4.711 10.49,10.519 l 0,71.411 121.41,0 c 5.79,0 10.49,4.699 10.49,10.492 0,5.797 -4.7,10.519 -10.49,10.519 l -121.41,0 0,142.301 121.41,0 c 5.79,0 10.49,4.727 10.49,10.527 0,5.793 -4.7,10.489 -10.49,10.489 l -121.41,0 0,90.636 c 0,5.789 -4.69,10.496 -10.49,10.496 -5.8,0 -10.5,-4.707 -10.5,-10.496 l 0,-90.636 -207.62,0 0,90.636 c 0,5.789 -4.72,10.496 -10.52,10.496 -5.79,0 -10.5,-4.707 -10.5,-10.496 l 0,-90.636 -207.631,0 0,90.636 c 0,5.789 -4.699,10.496 -10.5,10.496 -5.808,0 -10.507,-4.707 -10.507,-10.496 l 0,-90.636 -116.622,0 c -5.789,0 -10.5,-4.696 -10.5,-10.489 0,-5.8 4.711,-10.527 10.5,-10.527 l 116.622,0 0,-142.301 -116.622,0 z m 573.9,0 -207.62,0 0,142.301 207.62,0 0,-142.301 z m -436.271,142.301 207.641,0 0,-142.301 -207.641,0 0,142.301"
             style="fill:#100f0d;fill-opacity:1;fill-rule:nonzero;stroke:none"
             id="path3295" /><path
             d="m 2526.39,793.293 -753.03,160.145 0,381.092 c 0,5.8 -4.7,10.5 -10.51,10.5 l -1752.3266,0 C 4.71094,1345.03 0,1340.33 0,1334.53 L 0,49.0117 C 0,43.2109 4.71094,38.5195 10.5234,38.5195 l 186.8786,0 0,-38.5195 393.102,0 0,38.5195 1933.696,0 c 5.8,0 10.5,4.6914 10.5,10.4922 l 0,734.0083 c 0,4.96 -3.46,9.246 -8.31,10.273 M 246.059,376.77 l 307.363,0 0,-317.2583 -307.363,0 0,317.2583 z m -28.946,21.015 33,164.774 301.699,0 32.997,-164.774 -367.696,0 z M 1752.35,59.5117 l -1177.916,0 0,317.2583 23.179,0 c 3.141,0 6.137,1.414 8.141,3.847 1.988,2.422 2.785,5.645 2.168,8.731 l -37.199,185.781 c -0.973,4.902 -5.293,8.426 -10.293,8.426 l -318.938,0 c -5.012,0 -9.308,-3.524 -10.293,-8.426 L 194.004,389.348 c -0.621,-3.086 0.168,-6.309 2.168,-8.731 2.004,-2.433 4.973,-3.847 8.121,-3.847 l 20.762,0 0,-317.2583 -204.0433,0 0,1264.5083 1731.3383,0 0,-1264.5083 z m 761.34,0 -740.33,0 0,872.4533 740.33,-157.442 0,-715.0113"
             style="fill:#100f0d;fill-opacity:1;fill-rule:nonzero;stroke:none"
             id="path3297" /><path
             d="m 1613.76,1185.64 -1471.834,0 c -5.813,0 -10.512,-4.7 -10.512,-10.51 l 0,-195.196 c 0,-5.793 4.699,-10.508 10.512,-10.508 l 1471.834,0 c 5.8,0 10.5,4.715 10.5,10.508 l 0,195.196 c 0,5.81 -4.7,10.51 -10.5,10.51 m -10.49,-195.218 -1450.852,0 0,174.198 1450.852,0 0,-174.198"
             style="fill:#100f0d;fill-opacity:1;fill-rule:nonzero;stroke:none"
             id="path3299" /><path
             d="m 1613.76,908.262 -1471.834,0 c -5.813,0 -10.512,-4.696 -10.512,-10.489 l 0,-195.214 c 0,-5.789 4.699,-10.497 10.512,-10.497 l 1471.834,0 c 5.8,0 10.5,4.708 10.5,10.497 l 0,195.214 c 0,5.793 -4.7,10.489 -10.5,10.489 m -10.49,-195.184 -1450.852,0 0,174.188 1450.852,0 0,-174.188"
             style="fill:#100f0d;fill-opacity:1;fill-rule:nonzero;stroke:none"
             id="path3301" /><path
             d="m 328.891,1018.23 c -5.809,0 -10.516,4.7 -10.516,10.5 l 0,84.29 c 0,5.81 4.707,10.51 10.516,10.51 5.793,0 10.5,-4.7 10.5,-10.51 l 0,-84.29 c 0,-5.8 -4.707,-10.5 -10.5,-10.5"
             style="fill:#100f0d;fill-opacity:1;fill-rule:nonzero;stroke:none"
             id="path3303" /><path
             d="m 514.898,1018.23 c -5.812,0 -10.511,4.7 -10.511,10.5 l 0,84.29 c 0,5.81 4.699,10.51 10.511,10.51 5.801,0 10.497,-4.7 10.497,-10.51 l 0,-84.29 c 0,-5.8 -4.696,-10.5 -10.497,-10.5"
             style="fill:#100f0d;fill-opacity:1;fill-rule:nonzero;stroke:none"
             id="path3305" /><path
             d="m 700.914,1018.23 c -5.801,0 -10.5,4.7 -10.5,10.5 l 0,84.29 c 0,5.81 4.699,10.51 10.5,10.51 5.809,0 10.516,-4.7 10.516,-10.51 l 0,-84.29 c 0,-5.8 -4.707,-10.5 -10.516,-10.5"
             style="fill:#100f0d;fill-opacity:1;fill-rule:nonzero;stroke:none"
             id="path3307" /><path
             d="m 886.938,1018.23 c -5.79,0 -10.52,4.7 -10.52,10.5 l 0,84.29 c 0,5.81 4.73,10.51 10.52,10.51 5.8,0 10.5,-4.7 10.5,-10.51 l 0,-84.29 c 0,-5.8 -4.7,-10.5 -10.5,-10.5"
             style="fill:#100f0d;fill-opacity:1;fill-rule:nonzero;stroke:none"
             id="path3309" /><path
             d="m 1072.95,1018.23 c -5.8,0 -10.52,4.7 -10.52,10.5 l 0,84.29 c 0,5.81 4.72,10.51 10.52,10.51 5.8,0 10.49,-4.7 10.49,-10.51 l 0,-84.29 c 0,-5.8 -4.69,-10.5 -10.49,-10.5"
             style="fill:#100f0d;fill-opacity:1;fill-rule:nonzero;stroke:none"
             id="path3311" /><path
             d="m 1258.98,1018.23 c -5.8,0 -10.5,4.7 -10.5,10.5 l 0,84.29 c 0,5.81 4.7,10.51 10.5,10.51 5.79,0 10.5,-4.7 10.5,-10.51 l 0,-84.29 c 0,-5.8 -4.71,-10.5 -10.5,-10.5"
             style="fill:#100f0d;fill-opacity:1;fill-rule:nonzero;stroke:none"
             id="path3313" /><path
             d="m 1444.99,1018.23 c -5.8,0 -10.5,4.7 -10.5,10.5 l 0,84.29 c 0,5.81 4.7,10.51 10.5,10.51 5.8,0 10.49,-4.7 10.49,-10.51 l 0,-84.29 c 0,-5.8 -4.69,-10.5 -10.49,-10.5"
             style="fill:#100f0d;fill-opacity:1;fill-rule:nonzero;stroke:none"
             id="path3315" /><path
             d="m 328.891,748.398 c -5.809,0 -10.516,4.7 -10.516,10.5 l 0,84.286 c 0,5.812 4.707,10.507 10.516,10.507 5.793,0 10.5,-4.695 10.5,-10.507 l 0,-84.286 c 0,-5.8 -4.707,-10.5 -10.5,-10.5"
             style="fill:#100f0d;fill-opacity:1;fill-rule:nonzero;stroke:none"
             id="path3317" /><path
             d="m 514.898,748.398 c -5.812,0 -10.511,4.7 -10.511,10.5 l 0,84.286 c 0,5.812 4.699,10.507 10.511,10.507 5.801,0 10.497,-4.695 10.497,-10.507 l 0,-84.286 c 0,-5.8 -4.696,-10.5 -10.497,-10.5"
             style="fill:#100f0d;fill-opacity:1;fill-rule:nonzero;stroke:none"
             id="path3319" /><path
             d="m 700.914,748.398 c -5.801,0 -10.5,4.7 -10.5,10.5 l 0,84.286 c 0,5.812 4.699,10.507 10.5,10.507 5.809,0 10.516,-4.695 10.516,-10.507 l 0,-84.286 c 0,-5.8 -4.707,-10.5 -10.516,-10.5"
             style="fill:#100f0d;fill-opacity:1;fill-rule:nonzero;stroke:none"
             id="path3321" /><path
             d="m 886.938,748.398 c -5.79,0 -10.52,4.7 -10.52,10.5 l 0,84.286 c 0,5.812 4.73,10.507 10.52,10.507 5.8,0 10.5,-4.695 10.5,-10.507 l 0,-84.286 c 0,-5.8 -4.7,-10.5 -10.5,-10.5"
             style="fill:#100f0d;fill-opacity:1;fill-rule:nonzero;stroke:none"
             id="path3323" /><path
             d="m 1072.95,748.398 c -5.8,0 -10.52,4.7 -10.52,10.5 l 0,84.286 c 0,5.812 4.72,10.507 10.52,10.507 5.8,0 10.49,-4.695 10.49,-10.507 l 0,-84.286 c 0,-5.8 -4.69,-10.5 -10.49,-10.5"
             style="fill:#100f0d;fill-opacity:1;fill-rule:nonzero;stroke:none"
             id="path3325" /><path
             d="m 1258.98,748.398 c -5.8,0 -10.5,4.7 -10.5,10.5 l 0,84.286 c 0,5.812 4.7,10.507 10.5,10.507 5.79,0 10.5,-4.695 10.5,-10.507 l 0,-84.286 c 0,-5.8 -4.71,-10.5 -10.5,-10.5"
             style="fill:#100f0d;fill-opacity:1;fill-rule:nonzero;stroke:none"
             id="path3327" /><path
             d="m 1444.99,748.398 c -5.8,0 -10.5,4.7 -10.5,10.5 l 0,84.286 c 0,5.812 4.7,10.507 10.5,10.507 5.8,0 10.49,-4.695 10.49,-10.507 l 0,-84.286 c 0,-5.8 -4.69,-10.5 -10.49,-10.5"
             style="fill:#100f0d;fill-opacity:1;fill-rule:nonzero;stroke:none"
             id="path3329" /><path
             d="m 2318.02,136.199 -364.21,0 c -5.81,0 -10.51,4.723 -10.51,10.52 l 0,353.879 c 0,5.8 4.7,10.496 10.51,10.496 l 364.21,0 c 5.79,0 10.5,-4.696 10.5,-10.496 l 0,-353.879 c 0,-5.797 -4.71,-10.52 -10.5,-10.52 m -353.71,21.02 343.19,0 0,332.871 -343.19,0 0,-332.871"
             style="fill:#100f0d;fill-opacity:1;fill-rule:nonzero;stroke:none"
             id="path3331" /><path
             d="m 2132.28,189.379 c -5.79,0 -10.51,4.711 -10.51,10.512 l 0,254.222 c 0,5.801 4.72,10.496 10.51,10.496 5.8,0 10.5,-4.695 10.5,-10.496 l 0,-254.222 c 0,-5.801 -4.7,-10.512 -10.5,-10.512"
             style="fill:#100f0d;fill-opacity:1;fill-rule:nonzero;stroke:none"
             id="path3333" /></g></g></g></g></svg>