<?xml version="1.0" encoding="UTF-8" standalone="no"?>
<!-- Created with Inkscape (http://www.inkscape.org/) -->

<svg
   xmlns:dc="http://purl.org/dc/elements/1.1/"
   xmlns:cc="http://creativecommons.org/ns#"
   xmlns:rdf="http://www.w3.org/1999/02/22-rdf-syntax-ns#"
   xmlns:svg="http://www.w3.org/2000/svg"
   xmlns="http://www.w3.org/2000/svg"
   xmlns:sodipodi="http://sodipodi.sourceforge.net/DTD/sodipodi-0.dtd"
   xmlns:inkscape="http://www.inkscape.org/namespaces/inkscape"
   id="svg3051"
   version="1.1"
   inkscape:version="0.48.4 r9939"
   width="129.9875"
   height="221.0875"
   xml:space="preserve"
   sodipodi:docname="buildings005.eps"><metadata
     id="metadata3057"><rdf:RDF><cc:Work
         rdf:about=""><dc:format>image/svg+xml</dc:format><dc:type
           rdf:resource="http://purl.org/dc/dcmitype/StillImage" /><dc:title></dc:title></cc:Work></rdf:RDF></metadata><defs
     id="defs3055"><clipPath
       clipPathUnits="userSpaceOnUse"
       id="clipPath3067"><path
         d="M 0,1768.66 0,0 l 1039.9,0 0,1768.66 -1039.9,0 z"
         id="path3069" /></clipPath></defs><sodipodi:namedview
     pagecolor="#ffffff"
     bordercolor="#666666"
     borderopacity="1"
     objecttolerance="10"
     gridtolerance="10"
     guidetolerance="10"
     inkscape:pageopacity="0"
     inkscape:pageshadow="2"
     inkscape:window-width="640"
     inkscape:window-height="480"
     id="namedview3053"
     showgrid="false"
     inkscape:zoom="1.0674507"
     inkscape:cx="64.993752"
     inkscape:cy="110.54375"
     inkscape:window-x="0"
     inkscape:window-y="0"
     inkscape:window-maximized="0"
     inkscape:current-layer="g3059" /><g
     id="g3059"
     inkscape:groupmode="layer"
     inkscape:label="ink_ext_XXXXXX"
     transform="matrix(1.25,0,0,-1.25,0,221.0875)"><g
       id="g3061"
       transform="scale(0.1,0.1)"><g
         id="g3063"><g
           id="g3065"
           clip-path="url(#clipPath3067)"><path
             d="m 350.203,906.617 -122.707,0 0,231.683 122.707,0 0,-231.683 z m 10.516,252.683 -143.723,0 c -5.808,0 -10.512,-4.69 -10.512,-10.5 l 0,-252.679 c 0,-5.812 4.704,-10.508 10.512,-10.508 l 143.723,0 c 5.797,0 10.496,4.696 10.496,10.508 l 0,252.679 c 0,5.81 -4.699,10.5 -10.496,10.5"
             style="fill:#100f0d;fill-opacity:1;fill-rule:nonzero;stroke:none"
             id="path3071" /><path
             d="m 737.07,906.617 -122.722,0 0,231.683 122.722,0 0,-231.683 z m 10.496,252.683 -143.718,0 c -5.813,0 -10.508,-4.69 -10.508,-10.5 l 0,-252.679 c 0,-5.812 4.695,-10.508 10.508,-10.508 l 143.718,0 c 5.801,0 10.5,4.696 10.5,10.508 l 0,252.679 c 0,5.81 -4.699,10.5 -10.5,10.5"
             style="fill:#100f0d;fill-opacity:1;fill-rule:nonzero;stroke:none"
             id="path3073" /><path
             d="m 850.77,906.617 -38.614,0 0,231.683 38.614,0 0,-231.683 z m 10.507,252.683 -59.617,0 c -5.808,0 -10.523,-4.69 -10.523,-10.5 l 0,-252.679 c 0,-5.812 4.715,-10.508 10.523,-10.508 l 59.617,0 c 5.793,0 10.493,4.696 10.493,10.508 l 0,252.679 c 0,5.81 -4.7,10.5 -10.493,10.5"
             style="fill:#100f0d;fill-opacity:1;fill-rule:nonzero;stroke:none"
             id="path3075" /><path
             d="m 539.258,906.617 -38.613,0 0,231.683 38.613,0 0,-231.683 z m 10.5,252.683 -59.621,0 c -5.801,0 -10.496,-4.69 -10.496,-10.5 l 0,-252.679 c 0,-5.812 4.695,-10.508 10.496,-10.508 l 59.621,0 c 5.801,0 10.512,4.696 10.512,10.508 l 0,252.679 c 0,5.81 -4.711,10.5 -10.512,10.5"
             style="fill:#100f0d;fill-opacity:1;fill-rule:nonzero;stroke:none"
             id="path3077" /><path
             d="m 614.348,602.051 122.722,0 0,-231.672 -122.722,0 0,231.672 z m -10.5,-252.692 143.718,0 c 5.801,0 10.5,4.711 10.5,10.52 l 0,252.672 c 0,5.808 -4.699,10.5 -10.5,10.5 l -143.718,0 c -5.813,0 -10.508,-4.692 -10.508,-10.5 l 0,-252.672 c 0,-5.809 4.695,-10.52 10.508,-10.52"
             style="fill:#100f0d;fill-opacity:1;fill-rule:nonzero;stroke:none"
             id="path3079" /><path
             d="m 793.922,115.02 -236.422,0 0,176.23 236.422,0 0,-176.23 z m 10.496,197.242 -257.43,0 c -5.797,0 -10.5,-4.703 -10.5,-10.5 l 0,-197.25 c 0,-5.8011 4.703,-10.5003 10.5,-10.5003 l 257.43,0 c 5.812,0 10.508,4.6992 10.508,10.5003 l 0,197.25 c 0,5.797 -4.696,10.5 -10.508,10.5"
             style="fill:#100f0d;fill-opacity:1;fill-rule:nonzero;stroke:none"
             id="path3081" /><path
             d="m 812.156,602.051 38.614,0 0,-231.672 -38.614,0 0,231.672 z m -10.496,-252.692 59.617,0 c 5.793,0 10.493,4.711 10.493,10.52 l 0,252.672 c 0,5.808 -4.7,10.5 -10.493,10.5 l -59.617,0 c -5.808,0 -10.523,-4.692 -10.523,-10.5 l 0,-252.672 c 0,-5.809 4.715,-10.52 10.523,-10.52"
             style="fill:#100f0d;fill-opacity:1;fill-rule:nonzero;stroke:none"
             id="path3083" /><path
             d="m 500.645,602.051 38.613,0 0,-231.672 -38.613,0 0,231.672 z m -10.508,-252.692 59.621,0 c 5.801,0 10.512,4.711 10.512,10.52 l 0,252.672 c 0,5.808 -4.711,10.5 -10.512,10.5 l -59.621,0 c -5.801,0 -10.496,-4.692 -10.496,-10.5 l 0,-252.672 c 0,-5.809 4.695,-10.52 10.496,-10.52"
             style="fill:#100f0d;fill-opacity:1;fill-rule:nonzero;stroke:none"
             id="path3085" /><path
             d="m 338.105,445.949 c -5.8,0 -10.5,-4.699 -10.5,-10.5 l 0,-50.777 c 0,-5.813 4.7,-10.512 10.5,-10.512 5.801,0 10.5,4.699 10.5,10.512 l 0,50.777 c 0,5.801 -4.699,10.5 -10.5,10.5"
             style="fill:#100f0d;fill-opacity:1;fill-rule:nonzero;stroke:none"
             id="path3087" /><path
             d="m 184.508,527.621 c 0,49.918 40.621,90.527 90.543,90.527 49.898,0 90.496,-40.609 90.496,-90.527 l 0,-233.769 -181.039,0 0,233.769 z m -10.5,-254.781 202.051,0 c 5.8,0 10.5,4.699 10.5,10.5 l 0,244.281 c 0,61.508 -50.02,111.539 -111.508,111.539 -61.512,0 -111.539,-50.031 -111.539,-111.539 l 0,-244.281 c 0,-5.801 4.695,-10.5 10.496,-10.5"
             style="fill:#100f0d;fill-opacity:1;fill-rule:nonzero;stroke:none"
             id="path3089" /><path
             d="m 80.582,1245.95 c -5.8008,0 -10.5,-4.69 -10.5,-10.49 l 0,-36.19 -49.0703,0 0,96.68 997.8783,0 0,-96.68 -49.066,0 0,36.19 c 0,5.8 -4.703,10.49 -10.504,10.49 l -878.738,0 z m 47.793,-421.462 0,400.462 784.305,0 0,-400.462 -784.305,0 z m 890.515,-21.015 0,-91.852 -997.89,0 0,91.852 997.89,0 z M 912.652,35.0117 l -392.703,0 0,13.9883 -34.367,0 -37.406,201.32 0,440.289 464.504,0 -0.028,-655.5973 z M 91.332,49 l 36.844,198.219 0,0.031 0.039,0.191 c 0.047,0.297 0.027,0.59 0.055,0.887 0.042,0.344 0.113,0.672 0.113,1.024 l 0,441.257 298.781,0 0,-441.257 c 0,-0.352 0.066,-0.68 0.098,-1.024 0.027,-0.297 0.027,-0.59 0.082,-0.887 l 0.039,-0.191 c 0,-0.02 0,-0.02 0,-0.031 L 464.223,49 91.332,49 z m 440.469,1694.09 413.597,-426.13 -827.656,0 414.059,426.13 z m 427.519,-564.82 70.08,0 c 5.79,0 10.5,4.7 10.5,10.5 l 0,117.68 c 0,5.79 -4.71,10.51 -10.5,10.51 l -54.716,0 -435.344,448.52 c -1.969,2.03 -4.688,3.18 -7.528,3.18 -2.843,0 -5.562,-1.15 -7.531,-3.18 l -435.8201,-448.52 -77.957,0 C 4.70312,1316.96 0,1312.24 0,1306.45 l 0,-117.68 c 0,-5.8 4.70312,-10.5 10.5039,-10.5 l 70.0781,0 c 5.8086,0 10.5118,4.7 10.5118,10.5 l 0,36.18 16.2772,0 0,-400.462 -96.8671,0 C 4.70312,824.488 0,819.793 0,813.992 L 0,701.121 c 0,-5.812 4.70312,-10.512 10.5039,-10.512 l 96.8671,0 0,-440.289 L 69.9609,49 l -21.1093,0 0,-49 471.0974,0 0,14 403.203,0 c 5.809,0 10.508,4.6992 10.508,10.5 l 0.031,666.109 95.709,0 c 5.79,0 10.5,4.7 10.5,10.512 l 0,112.871 c 0,5.801 -4.71,10.496 -10.5,10.496 l -95.709,0 0,400.462 15.121,0 0,-36.18 c 0,-5.8 4.708,-10.5 10.508,-10.5"
             style="fill:#100f0d;fill-opacity:1;fill-rule:nonzero;stroke:none"
             id="path3091" /><path
             d="m 162.828,211.309 231.067,0 c 5.8,0 10.5,4.691 10.5,10.492 0,5.808 -4.7,10.508 -10.5,10.508 l -231.067,0 c -5.812,0 -10.508,-4.7 -10.508,-10.508 0,-5.801 4.696,-10.492 10.508,-10.492"
             style="fill:#100f0d;fill-opacity:1;fill-rule:nonzero;stroke:none"
             id="path3093" /><path
             d="m 148.809,152.648 266.109,0 c 5.809,0 10.512,4.704 10.512,10.512 0,5.801 -4.703,10.5 -10.512,10.5 l -266.109,0 c -5.813,0 -10.508,-4.699 -10.508,-10.5 0,-5.808 4.695,-10.512 10.508,-10.512"
             style="fill:#100f0d;fill-opacity:1;fill-rule:nonzero;stroke:none"
             id="path3095" /><path
             d="m 117.27,104.52 c 0,-5.8091 4.703,-10.5083 10.511,-10.5083 l 301.149,0 c 5.8,0 10.5,4.6992 10.5,10.5083 0,5.8 -4.7,10.5 -10.5,10.5 l -301.149,0 c -5.808,0 -10.511,-4.7 -10.511,-10.5"
             style="fill:#100f0d;fill-opacity:1;fill-rule:nonzero;stroke:none"
             id="path3097" /><path
             d="m 632.117,1400.02 -201.101,0 0,101.54 201.101,0 0,-101.54 z m 10.5,122.55 -222.109,0 c -5.801,0 -10.496,-4.7 -10.496,-10.51 l 0,-122.54 c 0,-5.8 4.695,-10.51 10.496,-10.51 l 222.109,0 c 5.813,0 10.512,4.71 10.512,10.51 l 0,122.54 c 0,5.81 -4.699,10.51 -10.512,10.51"
             style="fill:#100f0d;fill-opacity:1;fill-rule:nonzero;stroke:none"
             id="path3099" /></g></g></g></g></svg>