<?xml version="1.0" encoding="UTF-8" standalone="no"?>
<!-- Created with Inkscape (http://www.inkscape.org/) -->

<svg
   xmlns:dc="http://purl.org/dc/elements/1.1/"
   xmlns:cc="http://creativecommons.org/ns#"
   xmlns:rdf="http://www.w3.org/1999/02/22-rdf-syntax-ns#"
   xmlns:svg="http://www.w3.org/2000/svg"
   xmlns="http://www.w3.org/2000/svg"
   xmlns:sodipodi="http://sodipodi.sourceforge.net/DTD/sodipodi-0.dtd"
   xmlns:inkscape="http://www.inkscape.org/namespaces/inkscape"
   id="svg3403"
   version="1.1"
   inkscape:version="0.48.4 r9939"
   width="252.6375"
   height="263.9125"
   xml:space="preserve"
   sodipodi:docname="buildings013.eps"><metadata
     id="metadata3409"><rdf:RDF><cc:Work
         rdf:about=""><dc:format>image/svg+xml</dc:format><dc:type
           rdf:resource="http://purl.org/dc/dcmitype/StillImage" /><dc:title></dc:title></cc:Work></rdf:RDF></metadata><defs
     id="defs3407" /><sodipodi:namedview
     pagecolor="#ffffff"
     bordercolor="#666666"
     borderopacity="1"
     objecttolerance="10"
     gridtolerance="10"
     guidetolerance="10"
     inkscape:pageopacity="0"
     inkscape:pageshadow="2"
     inkscape:window-width="640"
     inkscape:window-height="480"
     id="namedview3405"
     showgrid="false"
     inkscape:zoom="0.89423576"
     inkscape:cx="126.31875"
     inkscape:cy="131.95625"
     inkscape:window-x="0"
     inkscape:window-y="0"
     inkscape:window-maximized="0"
     inkscape:current-layer="g3411" /><g
     id="g3411"
     inkscape:groupmode="layer"
     inkscape:label="ink_ext_XXXXXX"
     transform="matrix(1.25,0,0,-1.25,0,263.9125)"><g
       id="g3413"
       transform="scale(0.1,0.1)"><path
         d="m 954.957,659.609 c -5.801,0 -10.5,4.7 -10.5,10.481 l 0,176.23 c 0,5.789 4.699,10.512 10.5,10.512 5.801,0 10.496,-4.723 10.496,-10.512 l 0,-176.23 c 0,-5.781 -4.695,-10.481 -10.496,-10.481"
         style="fill:#100f0d;fill-opacity:1;fill-rule:nonzero;stroke:none"
         id="path3415" /><path
         d="m 294.438,114.59 -129.868,0 c -5.808,0 -10.511,4.699 -10.511,10.48 l 0,118.739 c -0.911,8.351 -4.911,70.25 70.41,109.722 3.051,1.578 6.687,1.578 9.75,0 75.258,-39.453 71.316,-101.293 70.398,-109.711 l 0.332,-118.711 c 0,-2.769 -1.101,-5.468 -3.07,-7.437 -1.973,-1.973 -4.652,-3.082 -7.441,-3.082 m -119.372,21.012 108.844,0 -0.301,108.789 c 0,0.531 0.028,1.019 0.114,1.519 0.265,2.11 6.027,52 -54.383,86.328 C 168.93,297.91 174.688,248 174.98,245.859 c 0.047,-0.468 0.086,-0.98 0.086,-1.429 l 0,-108.828"
         style="fill:#100f0d;fill-opacity:1;fill-rule:nonzero;stroke:none"
         id="path3417" /><path
         d="m 531.418,114.59 -129.879,0 c -5.801,0 -10.504,4.699 -10.504,10.48 l 0,118.739 c -0.906,8.351 -4.918,70.25 70.403,109.722 3.058,1.578 6.699,1.578 9.75,0 75.265,-39.453 71.328,-101.293 70.41,-109.711 l 0.316,-118.711 c 0.012,-2.769 -1.09,-5.468 -3.059,-7.437 -1.98,-1.973 -4.652,-3.082 -7.437,-3.082 m -119.383,21.012 108.848,0 -0.297,108.789 c 0,0.531 0.027,1.019 0.098,1.519 0.285,2.11 6.039,52 -54.368,86.328 -60.41,-34.328 -54.66,-84.238 -54.367,-86.379 0.059,-0.468 0.086,-0.98 0.086,-1.429 l 0,-108.828"
         style="fill:#100f0d;fill-opacity:1;fill-rule:nonzero;stroke:none"
         id="path3419" /><path
         d="m 768.383,114.59 -129.867,0 c -5.813,0 -10.512,4.699 -10.512,10.48 l 0,118.739 c -0.91,8.351 -4.906,70.25 70.41,109.722 3.051,1.578 6.688,1.578 9.75,0 75.258,-39.453 71.316,-101.293 70.398,-109.711 l 0.329,-118.711 c 0,-2.769 -1.098,-5.468 -3.067,-7.437 -1.972,-1.973 -4.652,-3.082 -7.441,-3.082 m -119.367,21.012 108.836,0 -0.29,108.789 c 0,0.531 0.032,1.019 0.106,1.519 0.266,2.11 6.027,52 -54.383,86.328 -60.41,-34.328 -54.652,-84.238 -54.359,-86.379 0.058,-0.468 0.09,-0.98 0.09,-1.429 l 0,-108.828"
         style="fill:#100f0d;fill-opacity:1;fill-rule:nonzero;stroke:none"
         id="path3421" /><path
         d="m 1125.32,576.539 -108.07,0 c -5.8,0 -10.51,4.691 -10.51,10.492 l 0,98.707 c -0.81,7.653 -3.76,59.801 59.53,92.953 3.05,1.598 6.7,1.598 9.76,0 63.24,-33.152 60.33,-85.242 59.52,-92.953 l 0.28,-98.668 c 0,-2.8 -1.1,-5.468 -3.07,-7.461 -1.98,-1.961 -4.64,-3.07 -7.44,-3.07 m -97.57,21.02 87.04,0 -0.25,88.75 c 0,0.523 0.04,1.011 0.11,1.5 0.21,1.679 4.73,41.66 -43.51,69.57 -48.21,-27.91 -43.71,-67.891 -43.49,-69.629 0.07,-0.449 0.1,-0.961 0.1,-1.41 l 0,-88.781"
         style="fill:#100f0d;fill-opacity:1;fill-rule:nonzero;stroke:none"
         id="path3423" /><path
         d="m 1322.51,576.539 -108.07,0 c -5.81,0 -10.51,4.691 -10.51,10.492 l 0,98.707 c -0.8,7.653 -3.76,59.801 59.54,92.953 3.05,1.598 6.69,1.598 9.74,0 63.26,-33.152 60.35,-85.242 59.53,-92.953 l 0.27,-98.668 c 0.01,-2.8 -1.1,-5.468 -3.06,-7.461 -1.98,-1.961 -4.65,-3.07 -7.44,-3.07 m -97.57,21.02 87.04,0 -0.25,88.75 c 0,0.523 0.04,1.011 0.11,1.5 0.21,1.679 4.71,41.66 -43.5,69.57 -48.78,-28.258 -43.57,-69.141 -43.5,-69.57 0.07,-0.469 0.1,-0.977 0.1,-1.469 l 0,-88.781"
         style="fill:#100f0d;fill-opacity:1;fill-rule:nonzero;stroke:none"
         id="path3425" /><path
         d="m 1519.69,576.539 -108.07,0 c -5.8,0 -10.5,4.691 -10.5,10.492 l 0,98.707 c -0.81,7.653 -3.76,59.801 59.53,92.953 3.05,1.598 6.7,1.598 9.75,0 63.24,-33.152 60.33,-85.242 59.52,-92.953 l 0.27,-98.668 c 0.01,-2.8 -1.09,-5.468 -3.06,-7.461 -1.98,-1.961 -4.65,-3.07 -7.44,-3.07 m -97.57,21.02 87.04,0 -0.25,88.75 c 0,0.523 0.04,1.011 0.11,1.5 0.22,1.679 4.71,41.66 -43.49,69.57 -48.78,-28.258 -43.57,-69.141 -43.51,-69.57 0.07,-0.469 0.1,-0.977 0.1,-1.469 l 0,-88.781"
         style="fill:#100f0d;fill-opacity:1;fill-rule:nonzero;stroke:none"
         id="path3427" /><path
         d="m 1005.36,114.59 -129.868,0 c -5.808,0 -10.512,4.699 -10.512,10.48 l 0,118.739 c -0.91,8.351 -4.906,70.25 70.403,109.722 3.058,1.578 6.695,1.578 9.75,0 75.267,-39.453 71.327,-101.293 70.407,-109.711 l 0.32,-118.711 c 0.01,-2.769 -1.09,-5.468 -3.06,-7.437 -1.98,-1.973 -4.65,-3.082 -7.44,-3.082 m -119.38,21.012 108.856,0 -0.305,108.789 c 0,0.531 0.031,1.019 0.102,1.519 0.277,2.11 6.037,52 -54.367,86.328 C 879.855,297.91 885.609,248 885.895,245.859 c 0.058,-0.468 0.085,-0.98 0.085,-1.429 l 0,-108.828"
         style="fill:#100f0d;fill-opacity:1;fill-rule:nonzero;stroke:none"
         id="path3429" /><path
         d="m 1242.33,114.59 -129.87,0 c -5.81,0 -10.51,4.699 -10.51,10.48 l 0,118.739 c -0.91,8.351 -4.91,70.25 70.41,109.722 3.05,1.578 6.7,1.578 9.74,0 75.28,-39.453 71.33,-101.293 70.41,-109.711 l 0.33,-118.711 c 0.01,-2.769 -1.1,-5.468 -3.07,-7.437 -1.97,-1.973 -4.65,-3.082 -7.44,-3.082 m -119.37,21.012 108.84,0 -0.3,108.789 c 0,0.531 0.04,1.019 0.11,1.519 0.28,2.11 6.03,52 -54.38,86.328 -60.4,-34.328 -54.65,-84.238 -54.36,-86.379 0.06,-0.468 0.09,-0.98 0.09,-1.429 l 0,-108.828"
         style="fill:#100f0d;fill-opacity:1;fill-rule:nonzero;stroke:none"
         id="path3431" /><path
         d="m 1479.31,114.59 -129.87,0 c -5.81,0 -10.51,4.699 -10.51,10.48 l 0,118.739 c -0.91,8.351 -4.91,70.25 70.4,109.722 3.06,1.578 6.7,1.578 9.75,0 75.27,-39.453 71.33,-101.293 70.41,-109.711 l 0.32,-118.711 c 0.01,-2.769 -1.09,-5.468 -3.06,-7.437 -1.97,-1.973 -4.65,-3.082 -7.44,-3.082 m -119.37,21.012 108.84,0 -0.3,108.789 c 0,0.531 0.03,1.019 0.11,1.519 0.27,2.11 6.03,52 -54.38,86.328 -60.41,-34.328 -54.65,-84.238 -54.37,-86.379 0.06,-0.468 0.1,-0.98 0.1,-1.429 l 0,-108.828"
         style="fill:#100f0d;fill-opacity:1;fill-rule:nonzero;stroke:none"
         id="path3433" /><path
         d="m 1792.31,114.59 c -5.8,0 -10.49,4.699 -10.49,10.48 l 0,32.86 c 0,5.8 4.69,10.48 10.49,10.48 5.82,0 10.51,-4.68 10.51,-10.48 l 0,-32.86 c 0,-5.781 -4.69,-10.48 -10.51,-10.48"
         style="fill:#100f0d;fill-opacity:1;fill-rule:nonzero;stroke:none"
         id="path3435" /><path
         d="m 2020.84,418.34 -21.04,99.199 c -1.03,4.859 -5.31,8.32 -10.28,8.32 l -63.76,0 -112.14,210.68 c -1.81,3.441 -5.4,5.57 -9.26,5.57 l -222.68,0 0,93.731 45.38,0 c 3.16,0 6.16,1.441 8.16,3.898 2,2.461 2.77,5.692 2.11,8.793 l -21.03,99.199 c -1.03,4.84 -5.3,8.329 -10.26,8.329 l -87.48,0 0,118.991 28.11,0 c 5.81,0 10.5,4.71 10.5,10.5 l 0,76.83 c 0,5.82 -4.69,10.51 -10.5,10.51 l -36.65,0 c 27.47,88.8 11.95,161.11 -47.39,220.64 -11.12,11.14 -30.15,23.52 -52.2,37.85 -48.55,31.54 -115.04,74.74 -103.19,115.58 0.65,2.19 0.53,4.54 -0.29,6.67 l -25.52,66.53 c -1.56,4.05 -5.42,6.71 -9.75,6.75 l -0.06,0 c -4.31,0 -8.17,-2.61 -9.76,-6.62 l -26.48,-66.54 c -0.86,-2.15 -0.99,-4.56 -0.34,-6.79 11.85,-40.84 -54.63,-84.04 -103.18,-115.58 -22.06,-14.33 -41.08,-26.71 -52.2,-37.85 -59.35,-59.53 -74.87,-131.84 -47.4,-220.64 l -36.647,0 c -5.808,0 -10.508,-4.69 -10.508,-10.51 l 0,-76.83 c 0,-5.79 4.7,-10.5 10.508,-10.5 l 46.747,0 0,-118.991 -77.602,0 0,597.801 64.822,0 c 4.97,0 9.24,3.46 10.27,8.31 l 11.03,52.04 c 0.66,3.09 -0.11,6.33 -2.11,8.79 -1.98,2.46 -4.99,3.89 -8.15,3.89 l -75.862,0 0,189.33 24.379,0 c 5.808,0 10.508,4.7 10.508,10.5 l 0,39.66 c 0,5.82 -4.7,10.51 -10.508,10.51 l -12.184,0 c 12.051,44.82 3.012,81.71 -27.605,112.44 -6.125,6.13 -16.157,12.64 -27.786,20.18 -22.386,14.57 -56.234,36.55 -51.167,54.02 0.64,2.19 0.539,4.54 -0.278,6.67 l -13.191,34.37 c -1.539,4.03 -5.41,6.7 -9.742,6.74 l -0.059,0 c -4.297,0 -8.172,-2.62 -9.762,-6.61 l -13.668,-34.36 c -0.867,-2.17 -0.98,-4.58 -0.332,-6.81 5.071,-17.47 -28.777,-39.45 -51.179,-54 -11.618,-7.56 -21.649,-14.07 -27.77,-20.2 -30.621,-30.73 -39.656,-67.62 -27.605,-112.44 l -12.196,0 c -5.801,0 -10.496,-4.69 -10.496,-10.51 l 0,-39.66 c 0,-5.8 4.695,-10.5 10.496,-10.5 l 24.379,0 0,-189.33 -75.828,0 c -3.16,0 -6.156,-1.43 -8.16,-3.89 -1.992,-2.46 -2.758,-5.68 -2.109,-8.79 l 11.031,-52.04 c 1.031,-4.85 5.316,-8.31 10.277,-8.31 l 64.789,0 0,-811.751 -512.93,0 c -3.878,0 -7.441,-2.129 -9.265,-5.57 l -112.1447,-210.68 -63.1211,0 c -4.9531,0 -9.2382,-3.461 -10.2773,-8.32 L 0.222656,418.34 c -0.648437,-3.11 0.125,-6.328 2.109374,-8.789 2.00391,-2.461 5,-3.891 8.17187,-3.891 l 41.6211,0 0,-395.1795 C 52.125,4.67969 56.8359,0 62.6367,0 L 1964.5,0 c 5.82,0 10.52,4.67969 10.52,10.4805 l 0,395.1795 35.54,0 c 3.16,0 6.17,1.43 8.15,3.891 1.99,2.461 2.78,5.679 2.13,8.789 m -222.79,302.769 103.91,-195.25 -320.28,0 0,195.25 216.37,0 z m -703.5,657.591 c 9.53,9.56 28.58,21.94 48.75,35.05 55.84,36.28 125.03,81.24 112.87,135.42 l 15.27,38.38 14.7,-38.31 c -12.24,-54.21 56.99,-99.19 112.84,-135.49 20.19,-13.11 39.22,-25.49 48.76,-35.05 54.64,-54.81 67.74,-122.22 40.2,-205.81 l -433.59,0 c -27.55,83.59 -14.46,151 40.2,205.81 m -88.44,-226.81 530.06,0 0,-55.84 -530.06,0 0,55.84 z m 491.44,-195.831 -434.18,0 0,118.991 434.18,0 0,-118.991 z m 99.96,-21.028 16.59,-78.179 -712.647,0 16.574,78.179 679.483,0 z m -36.84,-409.172 -595.912,0 0,309.981 595.912,0 0,-309.981 z m -810.666,1028.001 193.75,0 0,-597.801 -34.238,0 c -4.961,0 -9.243,-3.489 -10.274,-8.329 l -21.027,-99.199 c -0.66,-3.101 0.121,-6.332 2.113,-8.793 1.984,-2.457 5,-3.898 8.156,-3.898 l 55.27,0 0,-309.981 -193.75,0 0,1028.001 z m 9.293,420.64 c 4.535,4.54 14.16,10.78 24.336,17.4 29.672,19.29 66.332,43.1 60.793,73.72 l 2.515,6.33 2.414,-6.26 c -5.621,-30.65 31.059,-54.49 60.774,-73.79 10.176,-6.62 19.797,-12.86 24.324,-17.4 26.352,-26.43 32.985,-57.6 20.684,-97.61 l -216.524,0 c -12.289,40.01 -5.66,71.18 20.684,97.61 m -44.168,-137.28 0,18.66 263.504,0 0,-18.66 -263.504,0 z m 228.625,-210.33 -193.75,0 0,189.33 193.75,0 0,-189.33 z m -271.039,-52.03 -6.582,31.02 361.527,0 -6.6,-31.02 -348.345,0 z m -450.344,-853.751 506.621,0 0,-195.25 -610.535,0 103.914,195.25 z M 1814.81,20.9883 l -176.75,0 0,171.2497 c 0,0.473 -0.05,0.981 -0.11,1.434 -0.46,3.469 -10.14,84.328 88.26,138.629 98.38,-54.301 88.7,-135.16 88.24,-138.571 -0.07,-0.511 -0.09,-1.019 -0.09,-1.531 l 0.45,-171.2107 z m 139.2,0 -118.19,0 -0.46,170.6137 c 1.23,10.429 8.57,102.808 -104.29,161.929 -3.03,1.578 -6.68,1.578 -9.74,0 -112.92,-59.14 -105.5,-151.582 -104.28,-161.953 l 0,-170.5897 -1543.9133,0 0,384.6717 1880.8733,0 0,-384.6717 z M 23.4688,426.66 l 16.5742,78.18 1940.987,0 16.57,-78.18 -1974.1312,0"
         style="fill:#100f0d;fill-opacity:1;fill-rule:nonzero;stroke:none"
         id="path3437" /></g></g></svg>