<?xml version="1.0" encoding="UTF-8" standalone="no"?>
<!-- Created with Inkscape (http://www.inkscape.org/) -->

<svg
   xmlns:dc="http://purl.org/dc/elements/1.1/"
   xmlns:cc="http://creativecommons.org/ns#"
   xmlns:rdf="http://www.w3.org/1999/02/22-rdf-syntax-ns#"
   xmlns:svg="http://www.w3.org/2000/svg"
   xmlns="http://www.w3.org/2000/svg"
   xmlns:sodipodi="http://sodipodi.sourceforge.net/DTD/sodipodi-0.dtd"
   xmlns:inkscape="http://www.inkscape.org/namespaces/inkscape"
   id="svg3101"
   version="1.1"
   inkscape:version="0.48.4 r9939"
   width="152.975"
   height="225.925"
   xml:space="preserve"
   sodipodi:docname="buildings006.eps"><metadata
     id="metadata3107"><rdf:RDF><cc:Work
         rdf:about=""><dc:format>image/svg+xml</dc:format><dc:type
           rdf:resource="http://purl.org/dc/dcmitype/StillImage" /><dc:title></dc:title></cc:Work></rdf:RDF></metadata><defs
     id="defs3105"><clipPath
       clipPathUnits="userSpaceOnUse"
       id="clipPath3117"><path
         d="m 0,0 1223.75,0 0,1807 L 0,1807 0,0 z"
         id="path3119" /></clipPath></defs><sodipodi:namedview
     pagecolor="#ffffff"
     bordercolor="#666666"
     borderopacity="1"
     objecttolerance="10"
     gridtolerance="10"
     guidetolerance="10"
     inkscape:pageopacity="0"
     inkscape:pageshadow="2"
     inkscape:window-width="640"
     inkscape:window-height="480"
     id="namedview3103"
     showgrid="false"
     inkscape:zoom="1.0445944"
     inkscape:cx="76.487503"
     inkscape:cy="112.9625"
     inkscape:window-x="0"
     inkscape:window-y="0"
     inkscape:window-maximized="0"
     inkscape:current-layer="g3109" /><g
     id="g3109"
     inkscape:groupmode="layer"
     inkscape:label="ink_ext_XXXXXX"
     transform="matrix(1.25,0,0,-1.25,0,225.925)"><g
       id="g3111"
       transform="scale(0.1,0.1)"><g
         id="g3113"><g
           id="g3115"
           clip-path="url(#clipPath3117)"><path
             d="m 1186.09,49 0,680.172 15.63,0 c 5.78,0 10.49,4.699 10.49,10.5 l 0,112.863 c 0,5.801 -4.71,10.508 -10.49,10.508 l -40.54,0 0,384.627 43.08,0 c 5.8,0 10.51,4.7 10.51,10.5 0,5.13 0,5.13 -21.46,21.9 l -384.224,299.95 0,60.23 32.863,-25.65 c 1.906,-1.5 4.188,-2.23 6.457,-2.23 3.133,0 6.203,1.39 8.293,4.05 3.559,4.56 2.758,11.17 -1.82,14.74 l -222.871,174 c -3.82,2.96 -9.125,2.96 -12.93,0 L 396,1631.16 c -4.559,-3.57 -5.379,-10.17 -1.812,-14.74 3.562,-4.58 10.164,-5.39 14.742,-1.83 l 23.8,18.56 0,-60.46 -392.5894,-306.23 c -3.5195,-2.76 -4.9218,-7.46 -3.4726,-11.7 1.4726,-4.24 5.4492,-7.09 9.9336,-7.09 l 43.1172,0 0,-384.627 -79.2305,0 C 4.69922,863.043 0,858.336 0,852.535 L 0,739.672 c 0,-5.801 4.69922,-10.5 10.4883,-10.5 l 54.3203,0 0,-680.172 -35.4375,0 0,-49 471.1089,0 0,13.9805 252.172,0 0,-13.9805 471.098,0 0,49 -37.66,0 z m -1050.449,103.648 256.328,0 0,-37.636 -256.328,0 0,37.636 z m 306.144,82.641 0,-182.789 -28.805,0 0,673.23 28.805,0 0,-490.441 z m 21.012,493.883 325.285,0 0,-483.371 -325.285,0 0,483.371 z m 652.443,-614.152 -256.318,0 0,37.64 256.318,0 0,-37.64 z m -306.154,7.402 0,603.308 28.836,0 0,-673.23 -28.836,0 0,69.922 z m -346.289,102.367 325.285,0 0,-91.859 -325.285,0 0,91.859 z m 396.125,-130.7773 256.318,0 0,-45.0117 -256.318,0 0,45.0117 z m 277.328,631.7183 28.83,0 0,-673.2417 -28.83,0 0,673.2417 z m -21.01,-552.07 -256.318,0 0,555.5 256.318,0 0,-555.5 z M 77.1484,1268.68 432.73,1546.04 l 0,-28.78 c 0,-5.81 4.696,-10.51 10.497,-10.51 5.793,0 10.511,4.7 10.511,10.51 l 0,132.28 171.797,134.02 162.735,-127.05 c -0.11,-0.6 -0.188,-1.21 -0.188,-1.85 l 0,-137.4 c 0,-5.81 4.715,-10.51 10.508,-10.51 5.801,0 10.496,4.7 10.496,10.51 l 0,36.11 c 63.875,-49.85 290.084,-226.47 364.664,-284.69 l -1096.6016,0 z M 1140.16,863.043 l -1029.441,0 0,384.617 1029.441,0 0,-384.617 z M 21.0117,842.039 l 78.9688,0 c 0.0785,-0.012 0.1485,-0.019 0.2385,-0.019 0.078,0 0.152,0.007 0.23,0.019 l 1049.981,0 c 0.06,-0.012 0.16,-0.019 0.23,-0.019 0.09,0 0.18,0.007 0.24,0.019 l 40.3,0 0,-91.867 -1170.1883,0 0,91.867 z m 370.9573,-112.867 0,-555.512 -256.328,0 0,41.059 c 1.91,-2.09 4.648,-3.41 7.718,-3.41 l 231.051,0 c 5.801,0 10.496,4.703 10.496,10.5 0,5.8 -4.695,10.5 -10.496,10.5 l -231.051,0 c -3.07,0 -5.808,-1.329 -7.718,-3.411 l 0,500.274 256.328,0 z M 114.617,52.5 l -28.7967,0 0,667.219 28.7967,0 0,-667.219 z m 21.024,41.5117 256.328,0 0,-45.0117 -256.328,0 0,45.0117 z m 364.839,-59.0234 0,14.0117 -37.683,0 0,62.922 325.285,0 0,-62.922 -35.43,0 0,-14.0117 -252.172,0"
             style="fill:#100f0d;fill-opacity:1;fill-rule:nonzero;stroke:none"
             id="path3121" /><path
             d="m 870.121,211.309 231.059,0 c 5.8,0 10.5,4.691 10.5,10.492 0,5.801 -4.7,10.508 -10.5,10.508 l -231.059,0 c -5.789,0 -10.508,-4.707 -10.508,-10.508 0,-5.801 4.719,-10.492 10.508,-10.492"
             style="fill:#100f0d;fill-opacity:1;fill-rule:nonzero;stroke:none"
             id="path3123" /><path
             d="m 1034.06,481.262 c -5.79,0 -10.49,-4.711 -10.49,-10.512 l 0,-50.789 c 0,-5.813 4.7,-10.5 10.49,-10.5 5.8,0 10.5,4.687 10.5,10.5 l 0,50.789 c 0,5.801 -4.7,10.512 -10.5,10.512"
             style="fill:#100f0d;fill-opacity:1;fill-rule:nonzero;stroke:none"
             id="path3125" /><path
             d="m 901.02,266.52 174.36,0 c 5.8,0 10.5,4.71 10.5,10.511 l 0,371.141 c 0,5.808 -4.7,10.519 -10.5,10.519 l -174.36,0 c -5.801,0 -10.497,-4.711 -10.497,-10.519 l 0,-371.141 c 0,-5.801 4.696,-10.511 10.497,-10.511 m 10.5,371.152 153.35,0 0,-350.141 -153.35,0 0,350.141"
             style="fill:#100f0d;fill-opacity:1;fill-rule:nonzero;stroke:none"
             id="path3127" /><path
             d="m 310.777,481.262 c -5.793,0 -10.5,-4.711 -10.5,-10.512 l 0,-50.789 c 0,-5.813 4.707,-10.5 10.5,-10.5 5.809,0 10.516,4.687 10.516,10.5 l 0,50.789 c 0,5.801 -4.707,10.512 -10.516,10.512"
             style="fill:#100f0d;fill-opacity:1;fill-rule:nonzero;stroke:none"
             id="path3129" /><path
             d="m 177.73,266.52 174.372,0 c 5.796,0 10.488,4.71 10.488,10.511 l 0,371.141 c 0,5.808 -4.692,10.519 -10.488,10.519 l -174.372,0 c -5.792,0 -10.5,-4.711 -10.5,-10.519 l 0,-371.141 c 0,-5.801 4.708,-10.511 10.5,-10.511 m 10.516,371.152 153.34,0 0,-350.141 -153.34,0 0,350.141"
             style="fill:#100f0d;fill-opacity:1;fill-rule:nonzero;stroke:none"
             id="path3131" /><path
             d="m 723.559,644.93 -187.11,0 c -5.808,0 -10.519,-4.711 -10.519,-10.52 l 0,-327.371 c 0,-5.809 4.711,-10.519 10.519,-10.519 l 187.11,0 c 5.793,0 10.488,4.71 10.488,10.519 l 0,327.371 c 0,5.809 -4.695,10.52 -10.488,10.52 m -10.497,-327.391 -166.113,0 0,306.371 166.113,0 0,-306.371"
             style="fill:#100f0d;fill-opacity:1;fill-rule:nonzero;stroke:none"
             id="path3133" /><path
             d="m 736.5,1629.7 -222.121,0 c -5.801,0 -10.5,-4.69 -10.5,-10.49 l 0,-122.55 c 0,-5.81 4.699,-10.52 10.5,-10.52 l 222.121,0 c 5.789,0 10.496,4.71 10.496,10.52 l 0,122.55 c 0,5.8 -4.707,10.49 -10.496,10.49 m -10.52,-122.54 -201.082,0 0,101.54 201.082,0 0,-101.54"
             style="fill:#100f0d;fill-opacity:1;fill-rule:nonzero;stroke:none"
             id="path3135" /><path
             d="m 195.473,902.176 187.129,0 c 5.793,0 10.503,4.707 10.503,10.508 l 0,271.316 c 0,5.79 -4.71,10.5 -10.503,10.5 l -187.129,0 c -5.789,0 -10.489,-4.71 -10.489,-10.5 l 0,-271.316 c 0,-5.801 4.7,-10.508 10.489,-10.508 m 10.519,271.314 166.094,0 0,-250.299 -166.094,0 0,250.299"
             style="fill:#100f0d;fill-opacity:1;fill-rule:nonzero;stroke:none"
             id="path3137" /><path
             d="m 535.035,902.176 187.098,0 c 5.801,0 10.523,4.707 10.523,10.508 l 0,271.316 c 0,5.79 -4.722,10.5 -10.523,10.5 l -187.098,0 c -5.801,0 -10.5,-4.71 -10.5,-10.5 l 0,-271.316 c 0,-5.801 4.699,-10.508 10.5,-10.508 m 10.508,271.314 166.094,0 0,-250.299 -166.094,0 0,250.299"
             style="fill:#100f0d;fill-opacity:1;fill-rule:nonzero;stroke:none"
             id="path3139" /><path
             d="m 874.586,902.176 187.104,0 c 5.8,0 10.5,4.707 10.5,10.508 l 0,271.316 c 0,5.79 -4.7,10.5 -10.5,10.5 l -187.104,0 c -5.813,0 -10.52,-4.71 -10.52,-10.5 l 0,-271.316 c 0,-5.801 4.707,-10.508 10.52,-10.508 m 10.496,271.314 166.118,0 0,-250.299 -166.118,0 0,250.299"
             style="fill:#100f0d;fill-opacity:1;fill-rule:nonzero;stroke:none"
             id="path3141" /></g></g></g></g></svg>