<?xml version="1.0" encoding="UTF-8" standalone="no"?>
<!-- Created with Inkscape (http://www.inkscape.org/) -->

<svg
   xmlns:dc="http://purl.org/dc/elements/1.1/"
   xmlns:cc="http://creativecommons.org/ns#"
   xmlns:rdf="http://www.w3.org/1999/02/22-rdf-syntax-ns#"
   xmlns:svg="http://www.w3.org/2000/svg"
   xmlns="http://www.w3.org/2000/svg"
   xmlns:sodipodi="http://sodipodi.sourceforge.net/DTD/sodipodi-0.dtd"
   xmlns:inkscape="http://www.inkscape.org/namespaces/inkscape"
   id="svg2993"
   version="1.1"
   inkscape:version="0.48.4 r9939"
   width="144.2"
   height="162.9125"
   xml:space="preserve"
   sodipodi:docname="buildings003.eps"><metadata
     id="metadata2999"><rdf:RDF><cc:Work
         rdf:about=""><dc:format>image/svg+xml</dc:format><dc:type
           rdf:resource="http://purl.org/dc/dcmitype/StillImage" /><dc:title></dc:title></cc:Work></rdf:RDF></metadata><defs
     id="defs2997"><clipPath
       clipPathUnits="userSpaceOnUse"
       id="clipPath3009"><path
         d="m 0,0 1153.63,0 0,1303 L 0,1303 0,0 z"
         id="path3011" /></clipPath></defs><sodipodi:namedview
     pagecolor="#ffffff"
     bordercolor="#666666"
     borderopacity="1"
     objecttolerance="10"
     gridtolerance="10"
     guidetolerance="10"
     inkscape:pageopacity="0"
     inkscape:pageshadow="2"
     inkscape:window-width="640"
     inkscape:window-height="480"
     id="namedview2995"
     showgrid="false"
     inkscape:zoom="1.4486303"
     inkscape:cx="72.099998"
     inkscape:cy="81.456253"
     inkscape:window-x="0"
     inkscape:window-y="0"
     inkscape:window-maximized="0"
     inkscape:current-layer="g3001" /><g
     id="g3001"
     inkscape:groupmode="layer"
     inkscape:label="ink_ext_XXXXXX"
     transform="matrix(1.25,0,0,-1.25,0,162.9125)"><g
       id="g3003"
       transform="scale(0.1,0.1)"><g
         id="g3005"><g
           id="g3007"
           clip-path="url(#clipPath3009)"><path
             d="m 1013.97,56.0117 -105.079,0 0,260.0933 c 0,5.797 -4.696,10.497 -10.496,10.497 l -178.051,0 c -5.809,0 -10.508,-4.7 -10.508,-10.497 l 0,-260.0933 -636.3204,0 0,634.3323 c 11.6914,4.82 20.586,14.929 23.8008,27.351 l 2.668,0 c 4.5196,-17.48 20.3356,-30.41 39.2306,-30.41 18.898,0 34.723,12.93 39.238,30.41 l 2.66,0 c 4.532,-17.48 20.352,-30.41 39.239,-30.41 18.89,0 34.722,12.93 39.242,30.41 l 2.672,0 c 4.507,-17.48 20.328,-30.41 39.226,-30.41 18.895,0 34.715,12.93 39.231,30.41 l 2.672,0 c 4.519,-17.48 20.339,-30.41 39.218,-30.41 18.903,0 34.723,12.93 39.25,30.41 l 2.664,0 c 4.516,-17.48 20.344,-30.41 39.239,-30.41 18.89,0 34.707,12.93 39.226,30.41 l 2.66,0 c 4.536,-17.48 20.356,-30.41 39.243,-30.41 18.89,0 34.718,12.93 39.25,30.41 l 2.656,0 c 4.523,-17.48 20.344,-30.41 39.234,-30.41 15.828,0 29.508,9.082 36.199,22.317 6.684,-13.235 20.36,-22.317 36.188,-22.317 18.883,0 34.715,12.93 39.234,30.41 l 2.664,0 c 4.516,-17.48 20.344,-30.41 39.235,-30.41 18.886,0 34.718,12.93 39.238,30.41 l 2.672,0 c 4.519,-17.48 20.328,-30.41 39.219,-30.41 18.902,0 34.73,12.93 39.25,30.41 l 2.668,0 c 4.511,-17.48 20.332,-30.41 39.234,-30.41 18.887,0 34.707,12.93 39.226,30.41 l 2.672,0 c 4.508,-17.48 20.336,-30.41 39.226,-30.41 18.9,0 34.73,12.93 39.24,30.41 l 2.66,0 c 2.85,-10.984 10.13,-20.183 19.85,-25.476 l 0,-636.2073 -70.74,0 z m -126.075,0 -157.051,0 0,249.5933 157.051,0 0,-249.5933 z M 170.574,1056.48 l 168.403,0 -106.622,-210.613 c -2.621,-5.172 -0.554,-11.492 4.625,-14.109 1.528,-0.774 3.141,-1.133 4.735,-1.133 3.836,0 7.527,2.109 9.379,5.762 L 470.387,1269.56 689.195,836.398 c 2.621,-5.175 8.942,-7.257 14.11,-4.64 5.179,2.617 7.261,8.926 4.64,14.101 l -106.39,210.621 381.496,0 143.799,-317.781 -1100.0688,0 143.7928,317.781 z M 1152.7,732.52 999.395,1071.32 c -1.7,3.75 -5.442,6.16 -9.571,6.16 l -398.883,0 -111.168,220.08 c -1.789,3.55 -5.41,5.78 -9.378,5.78 -3.957,0 -7.583,-2.23 -9.372,-5.76 l -111.429,-220.1 -185.801,0 c -4.121,0 -7.859,-2.41 -9.57,-6.16 L 0.933594,732.52 c -1.46875,-3.243 -1.1875,-7.012 0.742186,-10.02 1.9375,-2.996 5.25781,-4.805 8.82812,-4.805 l 8.3281,0 c 4.0742,-15.722 17.3008,-27.722 33.6836,-29.98 l 0,-642.215 c 0,-5.8008 4.6875,-10.5117 10.4961,-10.5117 l 627.0113,0 0,-34.9883 237.59,0 0,34.9883 167.607,0 c 5.82,0 10.51,4.7109 10.51,10.5117 l 0,641.871 c 18.18,0.727 33.23,13.371 37.61,30.356 3.49,0.066 6.71,1.835 8.6,4.773 1.94,3.008 2.23,6.777 0.76,10.02"
             style="fill:#100f0d;fill-opacity:1;fill-rule:nonzero;stroke:none"
             id="path3013" /><path
             d="m 401.09,979.473 132.98,0 0,-153.528 -132.98,0 0,153.528 z m -10.5,-174.524 153.98,0 c 5.821,0 10.52,4.699 10.52,10.512 l 0,174.519 c 0,5.801 -4.699,10.5 -10.52,10.5 l -153.98,0 c -5.809,0 -10.5,-4.699 -10.5,-10.5 l 0,-174.519 c 0,-5.813 4.691,-10.512 10.5,-10.512"
             style="fill:#100f0d;fill-opacity:1;fill-rule:nonzero;stroke:none"
             id="path3015" /><path
             d="m 446.641,470.828 -231.668,0 0,122.707 231.668,0 0,-122.707 z m 10.5,143.723 -252.684,0 c -5.797,0 -10.496,-4.696 -10.496,-10.508 l 0,-143.711 c 0,-5.809 4.699,-10.508 10.496,-10.508 l 252.684,0 c 5.808,0 10.511,4.699 10.511,10.508 l 0,143.711 c 0,5.812 -4.703,10.508 -10.511,10.508"
             style="fill:#100f0d;fill-opacity:1;fill-rule:nonzero;stroke:none"
             id="path3017" /><path
             d="m 925.199,470.828 -231.679,0 0,122.707 231.679,0 0,-122.707 z m 10.5,143.723 -252.691,0 c -5.797,0 -10.496,-4.696 -10.496,-10.508 l 0,-143.711 c 0,-5.809 4.699,-10.508 10.496,-10.508 l 252.691,0 c 5.809,0 10.512,4.699 10.512,10.508 l 0,143.711 c 0,5.812 -4.703,10.508 -10.512,10.508"
             style="fill:#100f0d;fill-opacity:1;fill-rule:nonzero;stroke:none"
             id="path3019" /><path
             d="m 446.641,252.91 -231.668,0 0,122.703 231.668,0 0,-122.703 z m 10.5,143.723 -252.684,0 c -5.797,0 -10.496,-4.699 -10.496,-10.5 l 0,-143.723 c 0,-5.808 4.699,-10.512 10.496,-10.512 l 252.684,0 c 5.808,0 10.511,4.704 10.511,10.512 l 0,143.723 c 0,5.801 -4.703,10.5 -10.511,10.5"
             style="fill:#100f0d;fill-opacity:1;fill-rule:nonzero;stroke:none"
             id="path3021" /><path
             d="m 860.703,142.379 c 5.801,0 10.496,4.711 10.496,10.512 l 0,50.789 c 0,5.8 -4.695,10.5 -10.496,10.5 -5.808,0 -10.508,-4.7 -10.508,-10.5 l 0,-50.789 c 0,-5.801 4.7,-10.512 10.508,-10.512"
             style="fill:#100f0d;fill-opacity:1;fill-rule:nonzero;stroke:none"
             id="path3023" /></g></g></g></g></svg>