<?xml version="1.0" encoding="UTF-8" standalone="no"?>
<!-- Created with Inkscape (http://www.inkscape.org/) -->

<svg
   xmlns:dc="http://purl.org/dc/elements/1.1/"
   xmlns:cc="http://creativecommons.org/ns#"
   xmlns:rdf="http://www.w3.org/1999/02/22-rdf-syntax-ns#"
   xmlns:svg="http://www.w3.org/2000/svg"
   xmlns="http://www.w3.org/2000/svg"
   xmlns:sodipodi="http://sodipodi.sourceforge.net/DTD/sodipodi-0.dtd"
   xmlns:inkscape="http://www.inkscape.org/namespaces/inkscape"
   id="svg3143"
   version="1.1"
   inkscape:version="0.48.4 r9939"
   width="129.9875"
   height="197.8375"
   xml:space="preserve"
   sodipodi:docname="buildings007.eps"><metadata
     id="metadata3149"><rdf:RDF><cc:Work
         rdf:about=""><dc:format>image/svg+xml</dc:format><dc:type
           rdf:resource="http://purl.org/dc/dcmitype/StillImage" /><dc:title></dc:title></cc:Work></rdf:RDF></metadata><defs
     id="defs3147"><clipPath
       clipPathUnits="userSpaceOnUse"
       id="clipPath3159"><path
         d="M 0,1582.68 0,0 l 1039.9,0 0,1582.68 -1039.9,0 z"
         id="path3161" /></clipPath></defs><sodipodi:namedview
     pagecolor="#ffffff"
     bordercolor="#666666"
     borderopacity="1"
     objecttolerance="10"
     gridtolerance="10"
     guidetolerance="10"
     inkscape:pageopacity="0"
     inkscape:pageshadow="2"
     inkscape:window-width="640"
     inkscape:window-height="480"
     id="namedview3145"
     showgrid="false"
     inkscape:zoom="1.1928982"
     inkscape:cx="64.993752"
     inkscape:cy="98.918747"
     inkscape:window-x="0"
     inkscape:window-y="0"
     inkscape:window-maximized="0"
     inkscape:current-layer="g3151" /><g
     id="g3151"
     inkscape:groupmode="layer"
     inkscape:label="ink_ext_XXXXXX"
     transform="matrix(1.25,0,0,-1.25,0,197.8375)"><g
       id="g3153"
       transform="scale(0.1,0.1)"><g
         id="g3155"><g
           id="g3157"
           clip-path="url(#clipPath3159)"><path
             d="m 1008.36,1349.42 c 4.82,0 9.02,3.27 10.18,7.96 l 21.04,83.86 c 0.79,3.14 0.09,6.46 -1.89,9.01 -2.01,2.56 -5.05,4.04 -8.31,4.04 l -8.83,0 19.21,116.17 c 0.5,3.05 -0.36,6.16 -2.36,8.51 -1.98,2.35 -4.91,3.71 -8.02,3.71 l -1018.8761,0 c -3.08984,0 -6.01171,-1.36 -8.00781,-3.71 -2.011715,-2.35 -2.863278,-5.46 -2.351559,-8.51 l 19.199269,-116.17 -8.8399,0 c -3.23828,0 -6.28906,-1.48 -8.29296,-4.04 -1.976565,-2.55 -2.675784,-5.87 -1.89844,-9.01 l 21.0313,-83.86 c 1.1601,-4.69 5.371,-7.96 10.1874,-7.96 l 36.7305,0 0,-1324.9083 c 0,-5.7929 4.6836,-10.4805 10.4844,-10.5117 l 486.4689,-1.3281 0,-12.6719 471.115,0 0,49 -37.678,0 0,266.762 c 0,5.797 -4.699,10.488 -10.5,10.488 l -14.406,0 0,1023.17 34.614,0 z m 8.65,212.26 -17.557,-106.23 -959.0077,0 -17.5586,106.23 994.1233,0 z M 23.9648,1433.3 l 991.9752,0 -15.76,-62.87 -960.4573,0 -15.7579,62.87 z M 621.676,305.238 l 28.808,0 0,-252.738 -28.808,0 0,252.738 z M 927.82,115.02 l -256.328,0 0,37.64 256.328,0 0,-37.64 z m -256.328,-21.0005 256.328,0 0,-45.0195 -256.328,0 0,45.0195 z M 977.641,52.5 l -28.809,0 0,252.738 28.809,0 0,-252.738 z m -24.914,273.75 -14.403,0 c -5.801,0 -10.504,-4.691 -10.504,-10.488 l 0,-142.082 -256.328,0 0,142.082 c 0,5.797 -4.699,10.488 -10.484,10.488 l -49.856,0 c -5.785,0 -10.5,-4.691 -10.5,-10.488 l 0,-266.762 -35.437,0 0,-15.3086 -475.9416,1.2891 0,1314.4395 863.4536,0 0,-1023.17"
             style="fill:#100f0d;fill-opacity:1;fill-rule:nonzero;stroke:none"
             id="path3163" /><path
             d="m 861.488,471.602 c -5.8,0 -10.519,-4.704 -10.519,-10.5 l 0,-50.782 c 0,-5.808 4.719,-10.511 10.519,-10.511 5.793,0 10.5,4.703 10.5,10.511 l 0,50.782 c 0,5.796 -4.707,10.5 -10.5,10.5"
             style="fill:#100f0d;fill-opacity:1;fill-rule:nonzero;stroke:none"
             id="path3165" /><path
             d="m 697.398,265.578 202.04,0 c 5.8,0 10.5,4.711 10.5,10.512 l 0,327.871 c 0,61.492 -50.02,111.531 -111.508,111.531 -61.512,0 -111.555,-50.039 -111.555,-111.531 l 0,-327.871 c 0,-5.801 4.723,-10.512 10.523,-10.512 m 10.497,338.383 c 0,49.91 40.613,90.527 90.535,90.527 49.914,0 90.496,-40.617 90.496,-90.527 l 0,-317.359 -181.031,0 0,317.359"
             style="fill:#100f0d;fill-opacity:1;fill-rule:nonzero;stroke:none"
             id="path3167" /><path
             d="m 682.711,211.309 231.059,0 c 5.792,0 10.511,4.703 10.511,10.5 0,5.8 -4.719,10.511 -10.511,10.511 l -231.059,0 c -5.793,0 -10.5,-4.711 -10.5,-10.511 0,-5.797 4.707,-10.5 10.5,-10.5"
             style="fill:#100f0d;fill-opacity:1;fill-rule:nonzero;stroke:none"
             id="path3169" /><path
             d="m 215.891,142.988 70.093,0 c 5.793,0 10.504,4.711 10.504,10.524 l 0,196.609 c 0,5.809 -4.711,10.508 -10.504,10.508 l -70.093,0 c -5.801,0 -10.516,-4.699 -10.516,-10.508 l 0,-196.609 c 0,-5.813 4.715,-10.524 10.516,-10.524 m 10.496,196.621 49.082,0 0,-175.597 -49.082,0 0,175.597"
             style="fill:#100f0d;fill-opacity:1;fill-rule:nonzero;stroke:none"
             id="path3171" /><path
             d="m 544.516,360.621 -70.09,0 c -5.797,0 -10.5,-4.699 -10.5,-10.5 l 0,-196.621 c 0,-5.801 4.703,-10.512 10.5,-10.512 l 70.09,0 c 5.8,0 10.519,4.711 10.519,10.512 l 0,196.621 c 0,5.801 -4.719,10.5 -10.519,10.5 m -10.5,-196.609 -49.078,0 0,175.597 49.078,0 0,-175.597"
             style="fill:#100f0d;fill-opacity:1;fill-rule:nonzero;stroke:none"
             id="path3173" /><path
             d="m 215.891,588.023 70.093,0 c 5.793,0 10.504,4.707 10.504,10.508 l 0,196.621 c 0,5.797 -4.711,10.496 -10.504,10.496 l -70.093,0 c -5.801,0 -10.516,-4.699 -10.516,-10.496 l 0,-196.621 c 0,-5.801 4.715,-10.508 10.516,-10.508 m 10.496,196.622 49.082,0 0,-175.61 -49.082,0 0,175.61"
             style="fill:#100f0d;fill-opacity:1;fill-rule:nonzero;stroke:none"
             id="path3175" /><path
             d="m 474.426,588.023 70.086,0 c 5.8,0 10.504,4.707 10.504,10.508 l 0,196.621 c 0,5.797 -4.704,10.496 -10.504,10.496 l -70.086,0 c -5.805,0 -10.516,-4.699 -10.516,-10.496 l 0,-196.621 c 0,-5.801 4.711,-10.508 10.516,-10.508 m 10.484,196.622 49.094,0 0,-175.61 -49.094,0 0,175.61"
             style="fill:#100f0d;fill-opacity:1;fill-rule:nonzero;stroke:none"
             id="path3177" /><path
             d="m 215.891,1019.03 70.093,0 c 5.793,0 10.504,4.7 10.504,10.52 l 0,196.61 c 0,5.8 -4.711,10.5 -10.504,10.5 l -70.093,0 c -5.801,0 -10.516,-4.7 -10.516,-10.5 l 0,-196.61 c 0,-5.82 4.715,-10.52 10.516,-10.52 m 10.496,196.62 49.082,0 0,-175.61 -49.082,0 0,175.61"
             style="fill:#100f0d;fill-opacity:1;fill-rule:nonzero;stroke:none"
             id="path3179" /><path
             d="m 474.426,1019.03 70.086,0 c 5.8,0 10.504,4.7 10.504,10.52 l 0,196.61 c 0,5.8 -4.704,10.5 -10.504,10.5 l -70.086,0 c -5.805,0 -10.516,-4.7 -10.516,-10.5 l 0,-196.61 c 0,-5.82 4.711,-10.52 10.516,-10.52 m 10.484,196.62 49.094,0 0,-175.61 -49.094,0 0,175.61"
             style="fill:#100f0d;fill-opacity:1;fill-rule:nonzero;stroke:none"
             id="path3181" /><path
             d="m 750.582,1019.03 70.098,0 c 5.8,0 10.504,4.7 10.504,10.52 l 0,196.61 c 0,5.8 -4.704,10.5 -10.504,10.5 l -70.098,0 c -5.812,0 -10.508,-4.7 -10.508,-10.5 l 0,-196.61 c 0,-5.82 4.696,-10.52 10.508,-10.52 m 10.496,196.62 49.082,0 0,-175.61 -49.082,0 0,175.61"
             style="fill:#100f0d;fill-opacity:1;fill-rule:nonzero;stroke:none"
             id="path3183" /></g></g></g></g></svg>