<?xml version="1.0" encoding="UTF-8" standalone="no"?>
<!-- Created with Inkscape (http://www.inkscape.org/) -->

<svg
   xmlns:dc="http://purl.org/dc/elements/1.1/"
   xmlns:cc="http://creativecommons.org/ns#"
   xmlns:rdf="http://www.w3.org/1999/02/22-rdf-syntax-ns#"
   xmlns:svg="http://www.w3.org/2000/svg"
   xmlns="http://www.w3.org/2000/svg"
   xmlns:sodipodi="http://sodipodi.sourceforge.net/DTD/sodipodi-0.dtd"
   xmlns:inkscape="http://www.inkscape.org/namespaces/inkscape"
   id="svg3185"
   version="1.1"
   inkscape:version="0.48.4 r9939"
   width="287.8875"
   height="120.6"
   xml:space="preserve"
   sodipodi:docname="buildings008.eps"><metadata
     id="metadata3191"><rdf:RDF><cc:Work
         rdf:about=""><dc:format>image/svg+xml</dc:format><dc:type
           rdf:resource="http://purl.org/dc/dcmitype/StillImage" /><dc:title></dc:title></cc:Work></rdf:RDF></metadata><defs
     id="defs3189"><clipPath
       clipPathUnits="userSpaceOnUse"
       id="clipPath3201"><path
         d="m 0,0 2303,0 0,964.836 -2303,0 L 0,0 z"
         id="path3203" /></clipPath></defs><sodipodi:namedview
     pagecolor="#ffffff"
     bordercolor="#666666"
     borderopacity="1"
     objecttolerance="10"
     gridtolerance="10"
     guidetolerance="10"
     inkscape:pageopacity="0"
     inkscape:pageshadow="2"
     inkscape:window-width="640"
     inkscape:window-height="480"
     id="namedview3187"
     showgrid="false"
     inkscape:zoom="1.2609092"
     inkscape:cx="143.94376"
     inkscape:cy="60.299999"
     inkscape:window-x="0"
     inkscape:window-y="0"
     inkscape:window-maximized="0"
     inkscape:current-layer="g3193" /><g
     id="g3193"
     inkscape:groupmode="layer"
     inkscape:label="ink_ext_XXXXXX"
     transform="matrix(1.25,0,0,-1.25,0,120.6)"><g
       id="g3195"
       transform="scale(0.1,0.1)"><g
         id="g3197"><g
           id="g3199"
           clip-path="url(#clipPath3201)"><path
             d="m 2153.33,85.2148 c 5.81,0 10.51,4.6954 10.51,10.5 l 0,143.7192 c 0,5.8 -4.7,10.507 -10.51,10.507 l -252.67,0 c -5.82,0 -10.51,-4.707 -10.51,-10.507 l 0,-143.7192 c 0,-5.8046 4.69,-10.5 10.51,-10.5 l 252.67,0 z m -242.18,143.7112 231.68,0 0,-122.703 -231.68,0 0,122.703"
             style="fill:#100f0d;fill-opacity:1;fill-rule:nonzero;stroke:none"
             id="path3205" /><path
             d="m 1345.09,85.2148 252.69,0 c 5.81,0 10.51,4.6954 10.51,10.5 l 0,143.7192 c 0,5.8 -4.7,10.507 -10.51,10.507 l -252.69,0 c -5.8,0 -10.51,-4.707 -10.51,-10.507 l 0,-143.7192 c 0,-5.8046 4.71,-10.5 10.51,-10.5 m 10.52,143.7112 231.67,0 0,-122.703 -231.67,0 0,122.703"
             style="fill:#100f0d;fill-opacity:1;fill-rule:nonzero;stroke:none"
             id="path3207" /><path
             d="m 530.598,321.797 -206.883,0 c -5.789,0 -10.5,-4.695 -10.5,-10.496 l 0,-143.723 c 0,-5.808 4.711,-10.508 10.5,-10.508 l 206.883,0 c 5.789,0 10.507,4.7 10.507,10.508 l 0,143.723 c 0,5.801 -4.718,10.496 -10.507,10.496 m -10.504,-143.723 -185.879,0 0,122.719 185.879,0 0,-122.719"
             style="fill:#100f0d;fill-opacity:1;fill-rule:nonzero;stroke:none"
             id="path3209" /><path
             d="m 930.203,242.207 c -5.789,0 -10.515,-4.695 -10.515,-10.496 l 0,-50.781 c 0,-5.801 4.726,-10.508 10.515,-10.508 5.805,0 10.5,4.707 10.5,10.508 l 0,50.781 c 0,5.801 -4.695,10.496 -10.5,10.496"
             style="fill:#100f0d;fill-opacity:1;fill-rule:nonzero;stroke:none"
             id="path3211" /><path
             d="m 2301.94,317.141 -229.92,441.55 c -1.82,3.489 -5.4,5.664 -9.33,5.664 l -997.58,0 -191.497,197.286 c -1.98,2.043 -4.703,3.195 -7.539,3.195 -2.832,0 -5.562,-1.152 -7.543,-3.184 l -191.719,-197.297 -426.378,0 c -3.918,0 -7.512,-2.175 -9.321,-5.664 L 1.17969,317.141 c -1.687502,-3.246 -1.566409,-7.161 0.34375,-10.293 1.89844,-3.149 5.29687,-5.051 8.98046,-5.051 l 31.5078,0 0,-256.8165 c 0,-5.8008 4.7031,-10.5 10.5117,-10.5 l 707.0076,0 0,-34.4805 237.574,0 0,34.4805 1243.775,0 c 5.79,0 10.49,4.6992 10.49,10.5 l 0,256.8165 41.25,0 c 3.68,0 7.08,1.902 8.99,5.051 1.9,3.132 2.03,7.047 0.33,10.293 M 866.074,939.258 1279.67,513.137 l -756.748,0 -35.449,36.492 378.601,389.629 z M 246.801,743.34 l 399.601,0 -173.558,-178.621 -42.809,44.109 c -1.992,2.031 -4.703,3.184 -7.547,3.184 -2.836,0 -5.554,-1.153 -7.539,-3.184 L 195.504,382.98 c -2.942,-3.031 -3.781,-7.519 -2.141,-11.418 1.637,-3.874 5.461,-6.406 9.668,-6.406 l 35.051,0 0,-42.351 -210.2695,0 L 246.801,743.34 z M 63.0117,301.797 l 175.0703,0 0,-246.3087 -175.0703,0 0,246.3087 z M 595.234,55.4883 l -336.132,0 0,309.6677 336.132,0 0,-309.6677 z M 227.883,386.16 422.488,586.438 616.859,386.16 l -388.976,0 z m 572.461,-330.6717 0,278.1447 157.051,0 0,-277.6369 c 0,-0.1758 0.046,-0.332 0.046,-0.5078 l -157.097,0 z m 178.011,0 c 0.02,0.1758 0.047,0.332 0.047,0.5078 l 0,288.1369 c 0,5.801 -4.703,10.496 -10.504,10.496 l -178.054,0 c -5.801,0 -10.524,-4.695 -10.524,-10.496 l 0,-288.6447 -163.09,0 0,309.6677 25.473,0 c 4.211,0 8.008,2.532 9.668,6.406 1.641,3.887 0.801,8.379 -2.137,11.418 l -105.941,109.137 690.517,0 0,-436.0311 c 0,-0.2187 0.06,-0.4023 0.08,-0.5976 l -255.535,0 z m 1252.015,0 -975.59,0 c 0,0.1953 0.05,0.3789 0.05,0.5976 l 0,245.7111 975.54,0 0,-246.3087 z m -975.54,267.3167 0,169.312 49.67,0 c 4.22,0 8.04,2.531 9.68,6.418 1.64,3.887 0.8,8.379 -2.14,11.406 l -226.55,233.399 970.82,0 219,-420.535 -1020.48,0"
             style="fill:#100f0d;fill-opacity:1;fill-rule:nonzero;stroke:none"
             id="path3213" /></g></g></g></g></svg>