<?xml version="1.0" encoding="UTF-8" standalone="no"?>
<!-- Created with Inkscape (http://www.inkscape.org/) -->

<svg
   xmlns:dc="http://purl.org/dc/elements/1.1/"
   xmlns:cc="http://creativecommons.org/ns#"
   xmlns:rdf="http://www.w3.org/1999/02/22-rdf-syntax-ns#"
   xmlns:svg="http://www.w3.org/2000/svg"
   xmlns="http://www.w3.org/2000/svg"
   xmlns:sodipodi="http://sodipodi.sourceforge.net/DTD/sodipodi-0.dtd"
   xmlns:inkscape="http://www.inkscape.org/namespaces/inkscape"
   id="svg2"
   version="1.1"
   inkscape:version="0.48.4 r9939"
   width="133.5"
   height="101.7875"
   xml:space="preserve"
   sodipodi:docname="buildings002.eps"><metadata
     id="metadata8"><rdf:RDF><cc:Work
         rdf:about=""><dc:format>image/svg+xml</dc:format><dc:type
           rdf:resource="http://purl.org/dc/dcmitype/StillImage" /><dc:title></dc:title></cc:Work></rdf:RDF></metadata><defs
     id="defs6" /><sodipodi:namedview
     pagecolor="#ffffff"
     bordercolor="#666666"
     borderopacity="1"
     objecttolerance="10"
     gridtolerance="10"
     guidetolerance="10"
     inkscape:pageopacity="0"
     inkscape:pageshadow="2"
     inkscape:window-width="640"
     inkscape:window-height="480"
     id="namedview4"
     showgrid="false"
     inkscape:zoom="2.3185558"
     inkscape:cx="66.75"
     inkscape:cy="50.893749"
     inkscape:window-x="0"
     inkscape:window-y="0"
     inkscape:window-maximized="0"
     inkscape:current-layer="g10" /><g
     id="g10"
     inkscape:groupmode="layer"
     inkscape:label="ink_ext_XXXXXX"
     transform="matrix(1.25,0,0,-1.25,0,101.7875)"><g
       id="g12"
       transform="scale(0.1,0.1)"><path
         d="m 574.062,175.547 -358.015,0 0,133.828 358.015,0 0,-133.828 z m 8.614,151.055 -375.238,0 c -4.75,0 -8.606,-3.836 -8.606,-8.614 l 0,-151.047 c 0,-4.753 3.856,-8.613 8.606,-8.613 l 375.238,0 c 4.762,0 8.609,3.86 8.609,8.613 l 0,151.047 c 0,4.778 -3.847,8.614 -8.609,8.614"
         style="fill:#100f0d;fill-opacity:1;fill-rule:nonzero;stroke:none"
         id="path14" /><path
         d="m 36.4688,455.254 497.5312,340 497.54,-340 -995.0712,0 z M 862.449,38.125 l 0,2.0625 -15.472,0 c 0.074,0.4375 0.14,0.8984 0.14,1.3555 l 0,217.551 c 0,4.754 -3.855,8.601 -8.605,8.601 l -145.953,0 c -4.762,0 -8.61,-3.847 -8.61,-8.601 l 0,-217.551 c 0,-0.4571 0.071,-0.918 0.145,-1.3555 l -16.375,0 0,-2.0625 -557.598,0 0,382.941 c 6.078,-6.73 14.852,-10.976 24.641,-10.976 16.554,0 30.25,12.105 32.789,27.945 l 0.922,0 c 2.539,-15.84 16.23,-27.945 32.789,-27.945 16.558,0 30.246,12.105 32.785,27.945 l 0.926,0 c 2.539,-15.84 16.226,-27.945 32.785,-27.945 16.574,0 30.262,12.105 32.804,27.945 l 0.918,0 c 2.54,-15.84 16.219,-27.945 32.778,-27.945 16.562,0 30.262,12.105 32.804,27.945 l 0.918,0 c 2.54,-15.84 16.219,-27.945 32.79,-27.945 16.558,0 30.25,12.105 32.789,27.945 l 0.918,0 c 2.543,-15.84 16.23,-27.945 32.793,-27.945 16.558,0 30.257,12.105 32.796,27.945 l 0.926,0 c 2.539,-15.84 16.219,-27.945 32.778,-27.945 12.968,0 24.191,7.437 29.668,18.277 5.472,-10.84 16.683,-18.277 29.664,-18.277 16.554,0 30.25,12.105 32.789,27.945 l 0.921,0 c 2.54,-15.84 16.231,-27.945 32.79,-27.945 16.558,0 30.246,12.105 32.785,27.945 l 0.925,0 c 2.54,-15.84 16.231,-27.945 32.786,-27.945 16.562,0 30.25,12.105 32.793,27.945 l 0.918,0 c 2.539,-15.84 16.242,-27.945 32.804,-27.945 16.559,0 30.239,12.105 32.778,27.945 l 0.918,0 c 2.539,-15.84 16.23,-27.945 32.793,-27.945 16.566,0 30.257,12.105 32.796,27.945 l 0.922,0 c 2.539,-15.84 16.227,-27.945 32.789,-27.945 8.84,0 16.852,3.457 22.797,9.101 l 0,-381.066 -85.957,0 z m -32.422,2.0625 -128.996,0 c 0.067,0.4375 0.141,0.8984 0.141,1.3555 l 0,208.937 128.726,0 0,-208.937 c 0,-0.4571 0.063,-0.918 0.129,-1.3555 M 1064.25,453.75 538.863,812.793 c -2.933,2.004 -6.793,2.004 -9.715,0 L 3.76172,453.75 C 0.640625,451.633 -0.734375,447.715 0.390625,444.109 1.5,440.496 4.83984,438.035 8.60938,438.035 l 26.85942,0 c 2.5273,-15.84 16.2304,-27.945 32.7929,-27.945 9.7813,0 18.5586,4.246 24.6406,10.976 l 0,-391.5426 c 0,-4.7656 3.8438,-8.6172 8.6057,-8.6172 l 566.211,0 0,-20.9062 194.73,0 0,20.9062 94.571,0 c 4.761,0 8.609,3.8516 8.609,8.6172 l 0,393.7656 c 6.07,-8.016 15.66,-13.199 26.48,-13.199 16.571,0 30.261,12.105 32.801,27.945 l 34.48,0 c 3.78,0 7.11,2.461 8.23,6.074 1.11,3.606 -0.25,7.524 -3.37,9.641"
         style="fill:#100f0d;fill-opacity:1;fill-rule:nonzero;stroke:none"
         id="path16" /></g></g></svg>