<?xml version="1.0" encoding="UTF-8" standalone="no"?>
<!-- Created with Inkscape (http://www.inkscape.org/) -->

<svg
   xmlns:dc="http://purl.org/dc/elements/1.1/"
   xmlns:cc="http://creativecommons.org/ns#"
   xmlns:rdf="http://www.w3.org/1999/02/22-rdf-syntax-ns#"
   xmlns:svg="http://www.w3.org/2000/svg"
   xmlns="http://www.w3.org/2000/svg"
   xmlns:sodipodi="http://sodipodi.sourceforge.net/DTD/sodipodi-0.dtd"
   xmlns:inkscape="http://www.inkscape.org/namespaces/inkscape"
   id="svg3335"
   version="1.1"
   inkscape:version="0.48.4 r9939"
   width="105.5125"
   height="232.575"
   xml:space="preserve"
   sodipodi:docname="buildings011.eps"><metadata
     id="metadata3341"><rdf:RDF><cc:Work
         rdf:about=""><dc:format>image/svg+xml</dc:format><dc:type
           rdf:resource="http://purl.org/dc/dcmitype/StillImage" /><dc:title></dc:title></cc:Work></rdf:RDF></metadata><defs
     id="defs3339"><clipPath
       clipPathUnits="userSpaceOnUse"
       id="clipPath3351"><path
         d="m 0,0 844,0 0,1860.57 -844,0 L 0,0 z"
         id="path3353" /></clipPath></defs><sodipodi:namedview
     pagecolor="#ffffff"
     bordercolor="#666666"
     borderopacity="1"
     objecttolerance="10"
     gridtolerance="10"
     guidetolerance="10"
     inkscape:pageopacity="0"
     inkscape:pageshadow="2"
     inkscape:window-width="640"
     inkscape:window-height="480"
     id="namedview3337"
     showgrid="false"
     inkscape:zoom="1.0147264"
     inkscape:cx="52.756248"
     inkscape:cy="116.2875"
     inkscape:window-x="0"
     inkscape:window-y="0"
     inkscape:window-maximized="0"
     inkscape:current-layer="g3343" /><g
     id="g3343"
     inkscape:groupmode="layer"
     inkscape:label="ink_ext_XXXXXX"
     transform="matrix(1.25,0,0,-1.25,0,232.575)"><g
       id="g3345"
       transform="scale(0.1,0.1)"><g
         id="g3347"><g
           id="g3349"
           clip-path="url(#clipPath3351)"><path
             d="m 487.289,298.441 c -5.801,0 -10.504,-4.711 -10.504,-10.492 l 0,-50.801 c 0,-5.796 4.703,-10.507 10.504,-10.507 5.813,0 10.508,4.711 10.508,10.507 l 0,50.801 c 0,5.781 -4.695,10.492 -10.508,10.492"
             style="fill:#100f0d;fill-opacity:1;fill-rule:nonzero;stroke:none"
             id="path3355" /><path
             d="m 833.629,1860.57 -823.1212,0 c -5.80858,0 -10.51170625,-4.7 -10.51170625,-10.5 l 0,-1800.9294 c 0,-5.8008 4.70312625,-10.5 10.51170625,-10.5 l 58.9805,0 0,-38.6406 696.7887,0 0,38.6406 67.352,0 c 5.801,0 10.496,4.6992 10.496,10.5 l 0,1800.9294 c 0,5.8 -4.695,10.5 -10.496,10.5 M 123.336,511.621 l 597.461,0 0,-447.3202 -597.461,0 0,447.3202 z m 699.777,-451.9726 -81.304,0 0,462.4606 c 0,5.821 -4.7,10.512 -10.508,10.512 l -618.465,0 c -5.809,0 -10.496,-4.691 -10.496,-10.512 l 0,-462.4606 -81.3322,0 0,1779.9016 802.1052,0 0,-1779.9016"
             style="fill:#100f0d;fill-opacity:1;fill-rule:nonzero;stroke:none"
             id="path3357" /><path
             d="m 307.09,491.449 c -5.813,0 -10.512,-4.711 -10.512,-10.508 l 0,-382.9527 c 0,-5.7969 4.699,-10.5078 10.512,-10.5078 5.801,0 10.5,4.7109 10.5,10.5078 l 0,382.9527 c 0,5.797 -4.699,10.508 -10.5,10.508"
             style="fill:#100f0d;fill-opacity:1;fill-rule:nonzero;stroke:none"
             id="path3359" /><path
             d="m 531.625,491.449 c -5.801,0 -10.504,-4.711 -10.504,-10.508 l 0,-382.9527 c 0,-5.7969 4.703,-10.5078 10.504,-10.5078 5.813,0 10.5,4.7109 10.5,10.5078 l 0,382.9527 c 0,5.797 -4.687,10.508 -10.5,10.508"
             style="fill:#100f0d;fill-opacity:1;fill-rule:nonzero;stroke:none"
             id="path3361" /><path
             d="m 112.836,602.84 194.238,0 c 5.813,0 10.516,4.719 10.516,10.519 l 0,444.421 c 0,5.8 -4.703,10.5 -10.516,10.5 l -194.238,0 c -5.809,0 -10.496,-4.7 -10.496,-10.5 l 0,-444.421 c 0,-5.8 4.687,-10.519 10.496,-10.519 m 10.5,444.45 173.242,0 0,-423.438 -173.242,0 0,423.438"
             style="fill:#100f0d;fill-opacity:1;fill-rule:nonzero;stroke:none"
             id="path3363" /><path
             d="m 531.625,602.84 194.258,0 c 5.801,0 10.504,4.719 10.504,10.519 l 0,444.421 c 0,5.8 -4.703,10.5 -10.504,10.5 l -194.258,0 c -5.801,0 -10.504,-4.7 -10.504,-10.5 l 0,-444.421 c 0,-5.8 4.703,-10.519 10.504,-10.519 m 10.5,444.45 173.25,0 0,-423.438 -173.25,0 0,423.438"
             style="fill:#100f0d;fill-opacity:1;fill-rule:nonzero;stroke:none"
             id="path3365" /><path
             d="m 112.836,1132.36 194.238,0 c 5.813,0 10.516,4.7 10.516,10.5 l 0,444.43 c 0,5.8 -4.703,10.51 -10.516,10.51 l -194.238,0 c -5.809,0 -10.496,-4.71 -10.496,-10.51 l 0,-444.43 c 0,-5.8 4.687,-10.5 10.496,-10.5 m 10.5,444.43 173.242,0 0,-423.43 -173.242,0 0,423.43"
             style="fill:#100f0d;fill-opacity:1;fill-rule:nonzero;stroke:none"
             id="path3367" /><path
             d="m 531.625,1132.36 194.258,0 c 5.801,0 10.504,4.7 10.504,10.5 l 0,444.43 c 0,5.8 -4.703,10.51 -10.504,10.51 l -194.258,0 c -5.801,0 -10.504,-4.71 -10.504,-10.51 l 0,-444.43 c 0,-5.8 4.703,-10.5 10.504,-10.5 m 10.5,444.43 173.25,0 0,-423.43 -173.25,0 0,423.43"
             style="fill:#100f0d;fill-opacity:1;fill-rule:nonzero;stroke:none"
             id="path3369" /></g></g></g></g></svg>