<?xml version="1.0" encoding="UTF-8" standalone="no"?>
<!-- Created with Inkscape (http://www.inkscape.org/) -->

<svg
   xmlns:dc="http://purl.org/dc/elements/1.1/"
   xmlns:cc="http://creativecommons.org/ns#"
   xmlns:rdf="http://www.w3.org/1999/02/22-rdf-syntax-ns#"
   xmlns:svg="http://www.w3.org/2000/svg"
   xmlns="http://www.w3.org/2000/svg"
   xmlns:sodipodi="http://sodipodi.sourceforge.net/DTD/sodipodi-0.dtd"
   xmlns:inkscape="http://www.inkscape.org/namespaces/inkscape"
   width="206.61548"
   height="403.9621"
   id="svg3379"
   version="1.1"
   inkscape:version="0.48.4 r9939"
   sodipodi:docname="New document 5">
  <defs
     id="defs3381">
    <clipPath
       clipPathUnits="userSpaceOnUse"
       id="clipPath3296">
      <path
         inkscape:connector-curvature="0"
         d="m 254.087,541.44 85.426,0 0,171.17 -85.426,0 0,-171.17 z"
         id="path3298" />
    </clipPath>
  </defs>
  <sodipodi:namedview
     id="base"
     pagecolor="#ffffff"
     bordercolor="#666666"
     borderopacity="1.0"
     inkscape:pageopacity="0.0"
     inkscape:pageshadow="2"
     inkscape:zoom="1"
     inkscape:cx="103.30774"
     inkscape:cy="201.98105"
     inkscape:document-units="px"
     inkscape:current-layer="layer1"
     showgrid="false"
     fit-margin-top="5"
     fit-margin-left="5"
     fit-margin-right="5"
     fit-margin-bottom="5"
     inkscape:window-width="2560"
     inkscape:window-height="1415"
     inkscape:window-x="1920"
     inkscape:window-y="0"
     inkscape:window-maximized="1" />
  <metadata
     id="metadata3384">
    <rdf:RDF>
      <cc:Work
         rdf:about="">
        <dc:format>image/svg+xml</dc:format>
        <dc:type
           rdf:resource="http://purl.org/dc/dcmitype/StillImage" />
        <dc:title></dc:title>
      </cc:Work>
    </rdf:RDF>
  </metadata>
  <g
     inkscape:label="Layer 1"
     inkscape:groupmode="layer"
     id="layer1"
     transform="translate(-258.60876,-279.38103)">
    <g
       transform="matrix(2.3015882,0,0,-2.3015882,-321.19488,1924.5158)"
       id="g3292">
      <g
         id="g3294"
         clip-path="url(#clipPath3296)">
        <g
           id="g3300"
           transform="matrix(0.9937213,0,0,-1.0083824,485.60001,8164.6099)">
          <g
             id="g3302"
             transform="translate(-171.7102,7547.5723)">
            <path
               inkscape:connector-curvature="0"
               d="m 0,0 -13.581,-7.792 0,-1.196 13.532,-6.254 19.19,7.288 L 0,0 z m -20.236,8.408 0.902,-12.136 c 0.337,0.052 0.687,0.084 1.052,0.084 1.536,0 2.84,-0.493 3.686,-1.273 l 11.101,6.369 -16.741,6.956 z m -3.008,-0.013 -13.492,-6.681 14.487,-6.695 -0.995,13.376 z m -32.775,-16.229 21.865,-8.305 11.17,6.409 0,1.784 -17.203,7.951 -15.832,-7.839 z m 33.035,-40.087 0,24.331 -29.48,11.196 29.48,-35.527 z m 0,34.733 -7.544,-4.328 7.544,-2.866 0,7.194 z m 4.702,-142.831 c 1.767,0 3.201,0.859 3.201,1.918 0,1.06 -1.434,1.919 -3.201,1.92 -1.769,0 -3.202,-0.86 -3.202,-1.919 0,-1.06 1.433,-1.919 3.202,-1.919 m 4.701,135.638 9.608,3.649 -9.608,4.441 0,-8.09 z m 0,-27.539 29.452,35.515 -29.452,-11.186 0,-24.329 z m 37.313,38.502 -2.173,-0.827 -35.14,-42.373 0,-101.533 c 0,-0.135 -0.024,-0.264 -0.057,-0.388 -0.281,-1.723 -2.171,-2.98 -4.644,-2.98 -2.473,0 -4.363,1.256 -4.645,2.979 -0.034,0.125 -0.057,0.254 -0.057,0.389 l 0,101.53 -35.172,42.389 -2.142,0.814 c -0.557,0.212 -0.937,0.734 -0.966,1.33 -0.029,0.595 0.298,1.151 0.832,1.416 l 37.83,18.732 0.011,0.006 0.012,0.006 c 0.011,0.006 0.023,0.007 0.034,0.013 0.084,0.039 0.171,0.071 0.263,0.093 0.038,0.01 0.076,0.014 0.115,0.021 0.048,0.009 0.094,0.021 0.143,0.025 0.037,0.003 0.073,0.004 0.11,0.004 l 0.001,0 0.002,0 0.002,0 c 0.178,-10e-4 0.355,-0.036 0.525,-0.101 0.012,-0.004 0.024,-0.006 0.035,-0.011 0.004,-10e-4 0.007,-0.002 0.007,-0.002 L 23.775,-6.631 C 24.343,-6.867 24.71,-7.424 24.7,-8.04 24.691,-8.654 24.308,-9.2 23.732,-9.418"
               style="fill:#100f0d;fill-opacity:1;fill-rule:nonzero;stroke:none"
               id="path3304" />
          </g>
        </g>
      </g>
    </g>
  </g>
</svg>
