<?xml version="1.0" encoding="UTF-8" standalone="no"?>
<!-- Created with Inkscape (http://www.inkscape.org/) -->

<svg
   xmlns:dc="http://purl.org/dc/elements/1.1/"
   xmlns:cc="http://creativecommons.org/ns#"
   xmlns:rdf="http://www.w3.org/1999/02/22-rdf-syntax-ns#"
   xmlns:svg="http://www.w3.org/2000/svg"
   xmlns="http://www.w3.org/2000/svg"
   xmlns:sodipodi="http://sodipodi.sourceforge.net/DTD/sodipodi-0.dtd"
   xmlns:inkscape="http://www.inkscape.org/namespaces/inkscape"
   width="213.66054"
   height="305.63638"
   id="svg3251"
   version="1.1"
   inkscape:version="0.48.4 r9939"
   sodipodi:docname="New document 6">
  <defs
     id="defs3253" />
  <sodipodi:namedview
     id="base"
     pagecolor="#ffffff"
     bordercolor="#666666"
     borderopacity="1.0"
     inkscape:pageopacity="0.0"
     inkscape:pageshadow="2"
     inkscape:zoom="1"
     inkscape:cx="277.89696"
     inkscape:cy="32.818197"
     inkscape:document-units="px"
     inkscape:current-layer="layer1"
     showgrid="false"
     fit-margin-top="5"
     fit-margin-left="5"
     fit-margin-right="5"
     fit-margin-bottom="5"
     inkscape:window-width="1920"
     inkscape:window-height="1030"
     inkscape:window-x="0"
     inkscape:window-y="0"
     inkscape:window-maximized="1" />
  <metadata
     id="metadata3256">
    <rdf:RDF>
      <cc:Work
         rdf:about="">
        <dc:format>image/svg+xml</dc:format>
        <dc:type
           rdf:resource="http://purl.org/dc/dcmitype/StillImage" />
        <dc:title></dc:title>
      </cc:Work>
    </rdf:RDF>
  </metadata>
  <g
     inkscape:label="Layer 1"
     inkscape:groupmode="layer"
     id="layer1"
     transform="translate(-97.103039,-259.54399)">
    <g
       id="g256"
       transform="matrix(3.0381161,0,0,-3.0381161,305.58488,425.9078)">
      <path
         inkscape:connector-curvature="0"
         d="m 0,0 c -0.229,0.798 -1.061,1.259 -1.855,1.027 l -3.811,-1.093 c -0.029,0.044 -0.054,0.089 -0.088,0.131 l -3.935,4.787 5.027,1.549 c 0.791,0.245 1.235,1.084 0.991,1.876 -0.245,0.791 -1.083,1.233 -1.876,0.992 l -6.203,-1.913 -4.993,6.073 5.852,1.596 c 0.8,0.218 1.271,1.043 1.053,1.842 -0.219,0.799 -1.046,1.272 -1.842,1.053 l -7.152,-1.951 -4.467,5.431 7.217,2.434 c 0.785,0.265 1.207,1.115 0.941,1.9 -0.264,0.785 -1.115,1.207 -1.9,0.942 l -8.296,-2.798 -4.236,5.152 7.708,2.16 c 0.798,0.224 1.263,1.052 1.04,1.849 -0.224,0.798 -1.053,1.265 -1.849,1.04 l -8.981,-2.516 -4.734,5.755 11.993,3.361 c 0.798,0.223 1.264,1.051 1.041,1.848 -0.224,0.798 -1.054,1.263 -1.849,1.04 l -13.267,-3.717 -4.548,5.53 18.224,4.782 c 0.801,0.211 1.28,1.03 1.07,1.832 -0.21,0.802 -1.03,1.279 -1.832,1.07 L -65.856,42.489 c -0.801,-0.211 -1.281,-1.03 -1.071,-1.832 0.177,-0.674 0.785,-1.119 1.45,-1.119 0.126,0 0.254,0.016 0.382,0.049 l 18.892,4.957 c 0.017,-0.025 0.03,-0.052 0.05,-0.075 l 4.525,-5.503 -12.692,-3.557 c -0.798,-0.223 -1.264,-1.052 -1.04,-1.848 0.185,-0.664 0.788,-1.096 1.443,-1.096 0.134,0 0.271,0.017 0.405,0.056 l 13.966,3.913 4.733,-5.756 -11.757,-3.295 c -0.798,-0.224 -1.264,-1.052 -1.04,-1.849 0.185,-0.663 0.788,-1.096 1.443,-1.096 0.134,0 0.271,0.018 0.405,0.056 l 11.811,3.31 -0.861,-7.121 -4.106,-1.385 c -0.785,-0.265 -1.207,-1.115 -0.941,-1.901 0.211,-0.626 0.795,-1.02 1.421,-1.02 0.159,0 0.32,0.025 0.479,0.079 l 2.749,0.927 -7.236,-59.9 c -0.1,-0.822 0.487,-1.569 1.309,-1.669 0.061,-0.006 0.121,-0.01 0.182,-0.01 0.748,0 1.395,0.558 1.487,1.32 l 7.408,61.321 5.72,1.93 4.336,-5.271 -7.609,-2.077 c -0.8,-0.217 -1.271,-1.043 -1.053,-1.841 0.183,-0.667 0.787,-1.106 1.446,-1.106 0.131,0 0.264,0.017 0.396,0.053 l 8.908,2.43 5.068,-6.162 -8.053,-2.483 c -0.791,-0.244 -1.236,-1.084 -0.992,-1.876 0.2,-0.644 0.792,-1.058 1.433,-1.058 0.147,0 0.296,0.022 0.443,0.067 l 9.229,2.845 3.997,-4.86 -4.396,-1.262 c -0.795,-0.228 -1.255,-1.058 -1.027,-1.855 0.189,-0.658 0.789,-1.086 1.441,-1.086 0.137,0 0.276,0.019 0.415,0.059 l 11.331,3.252 C -0.231,-1.627 0.229,-0.797 0,0 m -31.661,21.745 0.537,4.447 2.747,-3.339 -3.284,-1.108 z"
         style="fill:#241f21;fill-opacity:1;fill-rule:nonzero;stroke:none"
         id="path258" />
    </g>
  </g>
</svg>
