<?xml version="1.0" encoding="UTF-8" standalone="no"?>
<!-- Created with Inkscape (http://www.inkscape.org/) -->

<svg
   xmlns:dc="http://purl.org/dc/elements/1.1/"
   xmlns:cc="http://creativecommons.org/ns#"
   xmlns:rdf="http://www.w3.org/1999/02/22-rdf-syntax-ns#"
   xmlns:svg="http://www.w3.org/2000/svg"
   xmlns="http://www.w3.org/2000/svg"
   xmlns:sodipodi="http://sodipodi.sourceforge.net/DTD/sodipodi-0.dtd"
   xmlns:inkscape="http://www.inkscape.org/namespaces/inkscape"
   width="237.09068"
   height="196.63927"
   id="svg15787"
   version="1.1"
   inkscape:version="0.48.4 r9939"
   sodipodi:docname="New document 13">
  <defs
     id="defs15789">
    <clipPath
       clipPathUnits="userSpaceOnUse"
       id="clipPath9018">
      <path
         inkscape:connector-curvature="0"
         d="m 36,356.76 131.68,0 0,73.8 -131.68,0 0,-73.8 z"
         id="path9020" />
    </clipPath>
    <clipPath
       clipPathUnits="userSpaceOnUse"
       id="clipPath8998">
      <path
         inkscape:connector-curvature="0"
         d="m 63,366.831 65.839,0 0,54.112 -65.839,0 0,-54.112 z"
         id="path9000" />
    </clipPath>
  </defs>
  <sodipodi:namedview
     id="base"
     pagecolor="#ffffff"
     bordercolor="#666666"
     borderopacity="1.0"
     inkscape:pageopacity="0.0"
     inkscape:pageshadow="2"
     inkscape:zoom="1"
     inkscape:cx="124.14957"
     inkscape:cy="-4.1803568"
     inkscape:document-units="px"
     inkscape:current-layer="layer1"
     showgrid="false"
     fit-margin-top="5"
     fit-margin-left="5"
     fit-margin-right="5"
     fit-margin-bottom="5"
     inkscape:window-width="2560"
     inkscape:window-height="1415"
     inkscape:window-x="1920"
     inkscape:window-y="0"
     inkscape:window-maximized="1" />
  <metadata
     id="metadata15792">
    <rdf:RDF>
      <cc:Work
         rdf:about="">
        <dc:format>image/svg+xml</dc:format>
        <dc:type
           rdf:resource="http://purl.org/dc/dcmitype/StillImage" />
        <dc:title></dc:title>
      </cc:Work>
    </rdf:RDF>
  </metadata>
  <g
     inkscape:label="Layer 1"
     inkscape:groupmode="layer"
     id="layer1"
     transform="translate(-250.85043,-331.54255)">
    <g
       transform="matrix(3.4491661,0,0,-3.4491661,38.554003,1788.4446)"
       id="g8994">
      <g
         id="g8996"
         clip-path="url(#clipPath8998)">
        <g
           id="g9002"
           transform="translate(98.5936,410.7392)">
          <path
             inkscape:connector-curvature="0"
             d="M 0,0 2.733,1.54 2.593,9.707 -3.873,4.462 4.24,-6.678 12.793,-8.371 c 0,0 2.924,4.242 6.672,2.988 3.444,-1.152 5.129,-4.676 5.129,-4.676 l 5.156,-1.293 0,-6.749 -5.49,1.384 -0.838,0.335 c 0,0 -1.352,2.879 -4.796,4.032 -3.748,1.254 -6.67,-2.988 -6.67,-2.988 l -8.554,1.691 -0.021,0.021 -7.268,9.935 0.014,8.153"
             style="fill:#ffffff;fill-opacity:1;fill-rule:nonzero;stroke:none"
             id="path9004" />
        </g>
        <g
           id="g9006"
           transform="translate(95.3994,415.1122)">
          <path
             inkscape:connector-curvature="0"
             d="m 0,0 2.896,-3.976 c 0.017,0.013 0.036,0.025 0.054,0.035 L 5.426,-2.546 5.309,4.307 0,0 z m 27.607,-20.617 4.841,-1.22 0,5.725 -4.78,1.199 c -0.144,0.036 -0.264,0.134 -0.328,0.267 -0.015,0.033 -1.642,3.35 -4.839,4.42 -3.354,1.121 -6.078,-2.761 -6.105,-2.8 -0.111,-0.163 -0.309,-0.247 -0.505,-0.205 l -8.553,1.694 c -0.123,0.024 -0.231,0.093 -0.305,0.194 l -7.218,9.911 -0.011,-6.47 7.072,-9.667 8.063,-1.595 c 0.749,0.963 3.514,4.092 7.039,2.911 3.137,-1.05 4.623,-3.429 4.994,-4.109 l 0.635,-0.255 z m 5.337,-2.353 c -0.041,0 -0.081,0.005 -0.121,0.015 l -5.49,1.384 c -0.022,0.005 -0.043,0.012 -0.063,0.02 l -0.838,0.336 c -0.116,0.047 -0.211,0.136 -0.265,0.249 -0.012,0.026 -1.317,2.705 -4.504,3.772 -3.345,1.119 -6.077,-2.76 -6.105,-2.8 -0.112,-0.162 -0.308,-0.245 -0.505,-0.205 L 6.5,-18.507 c -0.097,0.019 -0.185,0.066 -0.255,0.136 -0.018,0.018 -0.055,0.058 -0.07,0.079 l -7.268,9.935 c -0.063,0.085 -0.096,0.188 -0.096,0.294 l 0.014,8.148 c 0,0.009 0,0.017 0.001,0.026 0.003,0.073 0.022,0.142 0.054,0.205 0.029,0.057 0.07,0.109 0.122,0.153 0.003,0.002 0.006,0.005 0.009,0.007 L 5.475,5.719 C 5.622,5.839 5.824,5.865 5.997,5.784 6.169,5.704 6.28,5.532 6.284,5.343 L 6.423,-2.824 C 6.426,-3.007 6.329,-3.176 6.171,-3.265 l -2.689,-1.516 4.239,-5.82 8.055,-1.596 c 0.75,0.963 3.516,4.093 7.04,2.912 3.144,-1.052 4.872,-3.908 5.31,-4.72 l 4.939,-1.239 c 0.221,-0.055 0.375,-0.253 0.375,-0.481 l 0,-6.749 c 0,-0.153 -0.07,-0.297 -0.191,-0.391 -0.088,-0.069 -0.195,-0.105 -0.305,-0.105"
             style="fill:#211d1d;fill-opacity:1;fill-rule:nonzero;stroke:none"
             id="path9008" />
        </g>
      </g>
    </g>
    <g
       id="g9010"
       transform="matrix(3.4491661,0,0,-3.4491661,377.76881,361.79948)">
      <path
         inkscape:connector-curvature="0"
         d="M 0,0 -0.554,0.999 0,1.997 1.108,1.997 1.662,0.999 1.108,0 0,0 z"
         style="fill:#ffffff;fill-opacity:1;fill-rule:nonzero;stroke:none"
         id="path9012" />
    </g>
    <g
       transform="matrix(3.4491661,0,0,-3.4491661,38.554003,1788.4446)"
       id="g9014">
      <g
         id="g9016"
         clip-path="url(#clipPath9018)">
        <g
           id="g9022"
           transform="translate(98.6392,414.1166)">
          <path
             inkscape:connector-curvature="0"
             d="M 0,0 0.523,0 0.802,0.503 0.523,1.004 0,1.004 -0.279,0.503 0,0 z m 0.815,-0.993 -1.107,0 c -0.181,0 -0.347,0.098 -0.435,0.256 l -0.554,0.999 c -0.082,0.149 -0.082,0.332 10e-4,0.481 l 0.554,0.998 c 0.087,0.158 0.253,0.255 0.434,0.255 l 1.107,0 c 0.181,0 0.347,-0.097 0.434,-0.255 L 1.803,0.743 C 1.886,0.594 1.886,0.411 1.804,0.262 L 1.25,-0.737 C 1.162,-0.895 0.996,-0.993 0.815,-0.993"
             style="fill:#211d1d;fill-opacity:1;fill-rule:nonzero;stroke:none"
             id="path9024" />
        </g>
        <g
           id="g9026"
           transform="translate(79.2995,391.3259)">
          <path
             inkscape:connector-curvature="0"
             d="m 0,0 0,7.303 6.233,4.667 18.498,-1.21 7.908,-1.533 c 0,0 2.119,-3.491 5.052,-3.818 3.119,-0.346 5.95,2.171 5.95,2.171 l 5.274,-1.293 0,-7.303 -5.274,1.293 c 0,0 -2.903,-2.797 -5.805,-2.46 -2.933,0.341 -5.197,4.107 -5.197,4.107 L 24.731,3.456 6.233,4.667 0,0 z"
             style="fill:#ffffff;fill-opacity:1;fill-rule:nonzero;stroke:none"
             id="path9028" />
        </g>
        <g
           id="g9030"
           transform="translate(85.5328,396.489)">
          <path
             inkscape:connector-curvature="0"
             d="m 0,0 c 0.011,0 0.022,-0.001 0.033,-0.001 l 18.498,-1.21 c 0.021,-0.002 0.041,-0.005 0.062,-0.009 L 26.5,-2.752 c 0.138,-0.027 0.258,-0.111 0.331,-0.231 0.021,-0.036 2.177,-3.562 4.829,-3.87 2.639,-0.31 5.378,2.3 5.403,2.325 0.123,0.118 0.295,0.164 0.463,0.124 l 4.659,-1.142 0,6.281 -4.652,1.14 c -0.673,-0.541 -2.901,-2.158 -5.477,-2.158 -0.22,0 -0.439,0.012 -0.653,0.036 -2.764,0.307 -4.792,3.097 -5.3,3.864 L 18.435,5.103 0.151,6.299 -5.737,1.891 l 0,-6.062 5.439,4.072 C -0.211,-0.034 -0.107,0 0,0 m 32.097,-7.87 c -0.183,0 -0.367,0.01 -0.552,0.031 -2.777,0.323 -4.92,3.348 -5.444,4.153 L 18.435,-2.2 0.151,-1.004 -5.936,-5.561 c -0.15,-0.112 -0.351,-0.13 -0.519,-0.046 -0.168,0.084 -0.275,0.256 -0.275,0.444 l 0,7.303 c 0,0.156 0.074,0.303 0.199,0.397 l 6.233,4.667 c 0.095,0.071 0.211,0.103 0.331,0.098 L 18.531,6.092 C 18.552,6.091 18.572,6.088 18.593,6.084 L 26.5,4.551 c 0.137,-0.027 0.257,-0.11 0.33,-0.229 0.02,-0.033 2.031,-3.288 4.683,-3.582 2.883,-0.324 5.54,2.026 5.565,2.048 0.122,0.109 0.289,0.148 0.448,0.111 L 42.8,1.606 c 0.222,-0.055 0.378,-0.253 0.378,-0.482 l 0,-7.303 c 0,-0.153 -0.071,-0.297 -0.19,-0.391 -0.12,-0.094 -0.276,-0.127 -0.425,-0.092 l -5.017,1.231 C 36.858,-6.036 34.568,-7.87 32.097,-7.87"
             style="fill:#211d1d;fill-opacity:1;fill-rule:nonzero;stroke:none"
             id="path9032" />
        </g>
        <g
           id="g9034"
           transform="translate(81.9344,396.2345)">
          <path
             inkscape:connector-curvature="0"
             d="M 0,0 -0.681,1.226 0,2.452 1.36,2.452 2.04,1.226 1.36,0 0,0 z"
             style="fill:#ffffff;fill-opacity:1;fill-rule:nonzero;stroke:none"
             id="path9036" />
        </g>
        <g
           id="g9038"
           transform="translate(82.2267,396.7308)">
          <path
             inkscape:connector-curvature="0"
             d="M 0,0 0.776,0 1.18,0.729 0.776,1.459 0,1.459 -0.405,0.729 0,0 z m 1.068,-0.993 -1.36,0 c -0.181,0 -0.347,0.098 -0.434,0.256 l -0.681,1.226 c -0.083,0.149 -0.083,0.332 0,0.481 l 0.681,1.226 c 0.087,0.158 0.253,0.256 0.434,0.256 l 1.36,0 c 0.18,0 0.346,-0.098 0.434,-0.256 L 2.182,0.97 c 0.083,-0.149 0.083,-0.332 0,-0.481 L 1.502,-0.737 C 1.414,-0.895 1.248,-0.993 1.068,-0.993"
             style="fill:#211d1d;fill-opacity:1;fill-rule:nonzero;stroke:none"
             id="path9040" />
        </g>
        <g
           id="g9042"
           transform="translate(105.584,396.4463)">
          <path
             inkscape:connector-curvature="0"
             d="M 0,0 -0.621,1.121 0,2.241 1.243,2.241 1.864,1.121 1.243,0 0,0 z"
             style="fill:#ffffff;fill-opacity:1;fill-rule:nonzero;stroke:none"
             id="path9044" />
        </g>
        <g
           id="g9046"
           transform="translate(105.8763,396.9426)">
          <path
             inkscape:connector-curvature="0"
             d="M 0,0 0.658,0 1.004,0.624 0.659,1.248 0,1.248 -0.346,0.624 0,0 z m 0.951,-0.993 -1.243,0 c -0.181,0 -0.347,0.098 -0.435,0.256 l -0.621,1.12 c -0.083,0.15 -0.083,0.332 0.001,0.482 l 0.621,1.12 c 0.087,0.158 0.253,0.256 0.434,0.256 l 1.243,0 c 0.18,0 0.347,-0.098 0.434,-0.256 l 0.621,-1.12 c 0.083,-0.15 0.083,-0.331 0,-0.481 L 1.385,-0.737 C 1.298,-0.895 1.131,-0.993 0.951,-0.993"
             style="fill:#211d1d;fill-opacity:1;fill-rule:nonzero;stroke:none"
             id="path9048" />
        </g>
        <g
           id="g9050"
           transform="translate(123.7673,393.5924)">
          <path
             inkscape:connector-curvature="0"
             d="M 0,0 -0.697,1.255 0,2.51 1.392,2.51 2.087,1.255 1.392,0 0,0 z"
             style="fill:#ffffff;fill-opacity:1;fill-rule:nonzero;stroke:none"
             id="path9052" />
        </g>
        <g
           id="g9054"
           transform="translate(124.0596,394.0887)">
          <path
             inkscape:connector-curvature="0"
             d="M 0,0 0.807,0 1.227,0.759 0.807,1.518 0,1.518 -0.422,0.759 0,0 z m 1.099,-0.993 -1.391,0 c -0.181,0 -0.347,0.098 -0.434,0.256 l -0.697,1.255 c -0.084,0.149 -0.084,0.332 0,0.481 l 0.697,1.256 c 0.087,0.157 0.253,0.255 0.434,0.255 l 1.391,0 C 1.28,2.51 1.446,2.412 1.534,2.254 L 2.229,0.999 c 0.083,-0.15 0.083,-0.332 0,-0.481 L 1.534,-0.737 C 1.446,-0.895 1.28,-0.993 1.099,-0.993"
             style="fill:#211d1d;fill-opacity:1;fill-rule:nonzero;stroke:none"
             id="path9056" />
        </g>
        <g
           id="g9058"
           transform="translate(63.4963,370.994)">
          <path
             inkscape:connector-curvature="0"
             d="m 0,0 15.778,-0.125 c 0,0 3.275,-3.741 6.608,-3.533 3.3,0.205 5.973,3.509 5.973,3.509 l 14.193,0.086 0,8.287 -14.125,0.019 c 0,0 -2.649,-3.238 -6.192,-3.476 -3.331,-0.224 -6.39,3.24 -6.39,3.24 L 0,8.132 0,0 z"
             style="fill:#ffffff;fill-opacity:1;fill-rule:nonzero;stroke:none"
             id="path9060" />
        </g>
        <g
           id="g9062"
           transform="translate(63.9927,371.4865)">
          <path
             inkscape:connector-curvature="0"
             d="m 0,0 15.286,-0.121 c 0.141,-0.001 0.276,-0.063 0.369,-0.169 0.03,-0.034 3.156,-3.543 6.204,-3.366 3.046,0.19 5.593,3.295 5.618,3.326 0.093,0.116 0.234,0.184 0.383,0.185 l 13.699,0.083 0,7.298 -13.402,0.018 C 27.517,6.538 25.03,3.998 21.772,3.779 18.634,3.575 15.814,6.302 15.13,7.02 L 0,7.14 0,0 z m 21.621,-4.655 c -3.043,0 -5.874,2.811 -6.56,3.544 L -0.5,-0.989 c -0.273,0.002 -0.493,0.224 -0.493,0.496 l 0,8.133 c 0,0.132 0.053,0.259 0.147,0.352 0.094,0.093 0.233,0.148 0.354,0.144 L 15.352,8.011 C 15.493,8.01 15.627,7.949 15.72,7.843 15.747,7.813 18.485,4.76 21.426,4.76 l 0.001,0 c 0.092,0 0.185,0.003 0.278,0.009 3.291,0.222 5.816,3.265 5.841,3.295 0.095,0.116 0.236,0.183 0.384,0.183 l 0.001,0 14.125,-0.019 C 42.33,8.227 42.551,8.005 42.551,7.732 l 0,-8.288 c 0,-0.273 -0.22,-0.494 -0.493,-0.496 L 28.093,-1.137 c -0.637,-0.725 -3.119,-3.319 -6.172,-3.509 -0.1,-0.007 -0.201,-0.009 -0.3,-0.009"
             style="fill:#211d1d;fill-opacity:1;fill-rule:nonzero;stroke:none"
             id="path9064" />
        </g>
        <g
           id="g9066"
           transform="translate(67.5223,373.9135)">
          <path
             inkscape:connector-curvature="0"
             d="M 0,0 -0.788,1.42 0,2.84 1.575,2.84 2.361,1.42 1.575,0 0,0 z"
             style="fill:#ffffff;fill-opacity:1;fill-rule:nonzero;stroke:none"
             id="path9068" />
        </g>
        <g
           id="g9070"
           transform="translate(67.8145,374.4098)">
          <path
             inkscape:connector-curvature="0"
             d="M 0,0 0.991,0 1.502,0.923 0.99,1.847 0,1.847 -0.513,0.923 0,0 z m 1.283,-0.993 -1.575,0 c -0.181,0 -0.347,0.098 -0.434,0.256 l -0.788,1.419 c -0.084,0.15 -0.084,0.332 0,0.482 l 0.788,1.42 c 0.087,0.158 0.253,0.256 0.434,0.256 l 1.575,0 c 0.18,0 0.347,-0.098 0.434,-0.256 l 0.786,-1.42 c 0.083,-0.15 0.083,-0.331 0,-0.481 L 1.717,-0.737 C 1.63,-0.895 1.463,-0.993 1.283,-0.993"
             style="fill:#211d1d;fill-opacity:1;fill-rule:nonzero;stroke:none"
             id="path9072" />
        </g>
        <g
           id="g9074"
           transform="translate(100.3909,373.9135)">
          <path
             inkscape:connector-curvature="0"
             d="M 0,0 -0.788,1.42 0,2.84 1.575,2.84 2.362,1.42 1.575,0 0,0 z"
             style="fill:#ffffff;fill-opacity:1;fill-rule:nonzero;stroke:none"
             id="path9076" />
        </g>
        <g
           id="g9078"
           transform="translate(100.6832,374.4098)">
          <path
             inkscape:connector-curvature="0"
             d="M 0,0 0.991,0 1.503,0.923 0.991,1.847 0,1.847 -0.513,0.923 0,0 z m 1.283,-0.993 -1.575,0 c -0.181,0 -0.347,0.098 -0.434,0.256 l -0.788,1.419 c -0.084,0.15 -0.084,0.332 0,0.482 l 0.788,1.42 c 0.087,0.158 0.253,0.256 0.434,0.256 l 1.575,0 c 0.18,0 0.347,-0.098 0.434,-0.256 l 0.787,-1.42 c 0.083,-0.15 0.083,-0.332 0,-0.482 L 1.717,-0.737 C 1.63,-0.895 1.463,-0.993 1.283,-0.993"
             style="fill:#211d1d;fill-opacity:1;fill-rule:nonzero;stroke:none"
             id="path9080" />
        </g>
      </g>
    </g>
  </g>
</svg>
